<?xml version="1.0" encoding="UTF-8" standalone="no"?>
<svg width="70px" height="70px" viewBox="0 0 70 70" version="1.1" xmlns="http://www.w3.org/2000/svg" xmlns:xlink="http://www.w3.org/1999/xlink">
    <!-- Generator: sketchtool 40.2 (33826) - http://www.bohemiancoding.com/sketch -->
    <title>B5411677-47F3-4349-940F-8B25C024DA78</title>
    <desc>Created with sketchtool.</desc>
    <defs></defs>
    <g id="Page-1" stroke="none" stroke-width="1" fill="none" fill-rule="evenodd">
        <g id="account:-empty-state" transform="translate(-796.000000, -246.000000)" fill="#A3A9B8">
            <path d="M849.62069,265.612069 C849.62069,254.75 841.229885,246 830.885057,246 C820.54023,246 812.149425,254.810345 812.149425,265.612069 C812.149425,276.413793 820.54023,285.284483 830.885057,285.284483 C841.229885,285.284483 849.62069,276.474138 849.62069,265.612069 Z M844.678161,265.612069 C844.678161,273.577586 838.471264,280.094828 830.885057,280.094828 C823.298851,280.094828 817.091954,273.577586 817.091954,265.612069 C817.091954,257.646552 823.298851,251.12931 830.885057,251.12931 C838.471264,251.12931 844.678161,257.646552 844.678161,265.612069 Z M863.528736,316 C864.908046,316 866,314.853448 866,313.405172 C866,299.827586 855.482759,288.724138 842.494253,288.724138 L819.505747,288.724138 C806.574713,288.724138 796,299.767241 796,313.405172 C796,314.853448 797.091954,316 798.471264,316 L863.528736,316 Z M842.494253,293.913793 C851.91954,293.913793 859.678161,301.275862 860.885057,310.810345 L801.114943,310.810345 C802.321839,301.336207 810.08046,293.913793 819.505747,293.913793 L842.494253,293.913793 Z" id="account-icon"></path>
        </g>
    </g>
</svg>