<?xml version="1.0" encoding="UTF-8" standalone="no"?>
<svg width="66px" height="70px" viewBox="0 0 66 70" version="1.1" xmlns="http://www.w3.org/2000/svg" xmlns:xlink="http://www.w3.org/1999/xlink">
    <!-- Generator: sketchtool 40.2 (33826) - http://www.bohemiancoding.com/sketch -->
    <title>A16A9544-D417-4F5C-9987-9DFE3173D967</title>
    <desc>Created with sketchtool.</desc>
    <defs></defs>
    <g id="Page-1" stroke="none" stroke-width="1" fill="none" fill-rule="evenodd">
        <g id="balances:-empty-state" transform="translate(-798.000000, -246.000000)" fill="#A3A9B8">
            <path d="M802.639767,311.055986 L802.639767,248.472007 C802.639767,247.085271 801.621281,246 800.319883,246 C799.018485,246 798,247.085271 798,248.472007 L798,313.527993 C798,314.914729 799.018485,316 800.319883,316 L861.372424,316 C862.673822,316 863.692308,314.914729 863.692308,313.527993 C863.692308,312.141258 862.673822,311.055986 861.372424,311.055986 L802.639767,311.055986 Z M825.103028,265.956934 C825.103028,264.570198 824.084543,263.484927 822.783145,263.484927 C821.481747,263.484927 820.463261,264.570198 820.463261,265.956934 L820.463261,301.529716 C820.463261,302.916451 821.481747,304.001723 822.783145,304.001723 C824.084543,304.001723 825.103028,302.916451 825.103028,301.529716 L825.103028,265.956934 Z M813.899689,265.956934 C813.899689,264.570198 812.881203,263.484927 811.579805,263.484927 C810.278407,263.484927 809.259922,264.570198 809.259922,265.956934 L809.259922,301.529716 C809.259922,302.916451 810.278407,304.001723 811.579805,304.001723 C812.881203,304.001723 813.899689,302.916451 813.899689,301.529716 L813.899689,265.956934 Z M847.509706,265.956934 C847.509706,264.570198 846.491221,263.484927 845.189823,263.484927 C843.888425,263.484927 842.86994,264.570198 842.86994,265.956934 L842.86994,301.529716 C842.86994,302.916451 843.888425,304.001723 845.189823,304.001723 C846.491221,304.001723 847.509706,302.916451 847.509706,301.529716 L847.509706,265.956934 Z M858.713046,283.743325 C858.713046,282.356589 857.69456,281.271318 856.393162,281.271318 C855.091764,281.271318 854.073279,282.356589 854.073279,283.743325 L854.073279,301.529716 C854.073279,302.916451 855.091764,304.001723 856.393162,304.001723 C857.69456,304.001723 858.713046,302.916451 858.713046,301.529716 L858.713046,283.743325 Z M836.306367,283.743325 C836.306367,282.356589 835.287882,281.271318 833.986484,281.271318 C832.685086,281.271318 831.6666,282.356589 831.6666,283.743325 L831.6666,301.529716 C831.6666,302.916451 832.685086,304.001723 833.986484,304.001723 C835.287882,304.001723 836.306367,302.916451 836.306367,301.529716 L836.306367,283.743325 Z" id="Balances-icon"></path>
        </g>
    </g>
</svg>