<?xml version="1.0" encoding="UTF-8"?>
<svg width="12px" height="12px" viewBox="0 0 12 12" version="1.1" xmlns="http://www.w3.org/2000/svg" xmlns:xlink="http://www.w3.org/1999/xlink">
    <!-- Generator: Sketch 41.2 (35397) - http://www.bohemiancoding.com/sketch -->
    <title>network</title>
    <desc>Created with Sketch.</desc>
    <defs>
        <path d="M6,0 C2.6916,0 0,2.6916 0,6 C0,9.30828 2.6916,12 6,12 C9.30828,12 12,9.30828 12,6 C12,2.6916 9.30828,0 6,0 L6,0 Z M3.96468,1.13628 C3.69036,1.48356 3.44748,1.89996 3.24468,2.37324 C2.98692,2.28492 2.7324,2.18736 2.4846,2.07456 C2.91924,1.68468 3.41844,1.36572 3.96468,1.13628 L3.96468,1.13628 Z M1.95108,2.6268 C2.28852,2.79216 2.63616,2.9364 2.9916,3.05892 C2.74968,3.82524 2.60088,4.6986 2.57016,5.6364 L0.74112,5.6364 C0.81924,4.49616 1.26048,3.45444 1.95108,2.6268 L1.95108,2.6268 Z M0.74112,6.3636 L2.57028,6.3636 C2.601,7.3014 2.7498,8.17476 2.99172,8.94108 C2.6364,9.0636 2.28864,9.20784 1.9512,9.37332 C1.26048,8.54568 0.81924,7.50384 0.74112,6.3636 L0.74112,6.3636 Z M2.48448,9.92544 C2.73228,9.81264 2.98692,9.71508 3.24456,9.62688 C3.44748,10.10016 3.69024,10.51656 3.96456,10.86384 C3.41844,10.6344 2.91924,10.3152 2.48448,9.92544 L2.48448,9.92544 Z M5.6364,11.22168 C4.974,11.03976 4.37976,10.37124 3.95508,9.41352 C4.50456,9.27744 5.06856,9.19908 5.6364,9.17472 L5.6364,11.22168 L5.6364,11.22168 Z M5.6364,8.44416 C4.98036,8.47032 4.32912,8.56656 3.69612,8.72988 C3.47172,8.02668 3.33012,7.21944 3.29844,6.3636 L5.6364,6.3636 L5.6364,8.44416 L5.6364,8.44416 Z M5.6364,5.6364 L3.29844,5.6364 C3.33012,4.78044 3.47172,3.97332 3.69612,3.27024 C4.32924,3.43344 4.98036,3.52968 5.6364,3.55572 L5.6364,5.6364 L5.6364,5.6364 Z M5.6364,2.82552 C5.06856,2.80104 4.50444,2.72268 3.95496,2.5866 C4.37976,1.629 4.974,0.96036 5.6364,0.77844 L5.6364,2.82552 L5.6364,2.82552 Z M11.25888,5.6364 L9.42984,5.6364 C9.39912,4.6986 9.25032,3.82524 9.0084,3.05892 C9.36372,2.9364 9.71148,2.79216 10.04892,2.6268 C10.73964,3.45444 11.18076,4.49628 11.25888,5.6364 L11.25888,5.6364 Z M9.51564,2.07456 C9.26784,2.18748 9.0132,2.28492 8.75544,2.37324 C8.55264,1.89996 8.30976,1.48356 8.03544,1.13628 C8.58156,1.36572 9.08088,1.68468 9.51564,2.07456 L9.51564,2.07456 Z M6.3636,0.77832 C7.02588,0.96024 7.62012,1.62888 8.04492,2.58648 C7.49556,2.72256 6.93144,2.80092 6.3636,2.8254 L6.3636,0.77832 L6.3636,0.77832 Z M6.3636,3.55572 C7.01964,3.52968 7.67088,3.43332 8.30388,3.27024 C8.52828,3.97332 8.66988,4.78044 8.70156,5.6364 L6.3636,5.6364 L6.3636,3.55572 L6.3636,3.55572 Z M6.3636,6.3636 L8.70156,6.3636 C8.66976,7.21944 8.52828,8.02656 8.30388,8.72988 C7.67076,8.56656 7.01964,8.47032 6.3636,8.44416 L6.3636,6.3636 L6.3636,6.3636 Z M6.3636,11.22168 L6.3636,9.1746 C6.93132,9.19896 7.49544,9.27732 8.04492,9.41352 C7.62012,10.37124 7.02588,11.03976 6.3636,11.22168 L6.3636,11.22168 Z M8.03544,10.86372 C8.30976,10.51644 8.55264,10.10016 8.75544,9.62676 C9.0132,9.7152 9.26784,9.81264 9.51564,9.92556 C9.08088,10.31532 8.58156,10.6344 8.03544,10.86372 L8.03544,10.86372 Z M10.04892,9.37308 C9.71136,9.20772 9.36372,9.0636 9.0084,8.94096 C9.25032,8.17464 9.39912,7.3014 9.42984,6.36348 L11.25888,6.36348 C11.18076,7.50384 10.73964,8.54556 10.04892,9.37308 L10.04892,9.37308 Z" id="path-1"></path>
    </defs>
    <g id="Page-1" stroke="none" stroke-width="1" fill="none" fill-rule="evenodd">
        <g id="icon-set" transform="translate(-204.000000, -8.000000)">
            <g id="icons">
                <g id="network" transform="translate(196.000000, 0.000000)">
                    <g id="Group-13" transform="translate(8.000000, 8.000000)">
                        <g id="Group-32">
                            <g id="Oval-5">
                                <mask id="mask-2" fill="white">
                                    <use xlink:href="#path-1"></use>
                                </mask>
                                <use id="Mask" fill="#A3A9B8" xlink:href="#path-1"></use>
                            </g>
                        </g>
                    </g>
                </g>
            </g>
        </g>
    </g>
</svg>