<?xml version="1.0" encoding="UTF-8" standalone="no"?>
<svg width="66px" height="70px" viewBox="0 0 66 70" version="1.1" xmlns="http://www.w3.org/2000/svg" xmlns:xlink="http://www.w3.org/1999/xlink">
    <!-- Generator: sketchtool 40.2 (33826) - http://www.bohemiancoding.com/sketch -->
    <title>D8315B36-6F39-44FD-A5AF-2904533DC5C3</title>
    <desc>Created with sketchtool.</desc>
    <defs></defs>
    <g id="Page-1" stroke="none" stroke-width="1" fill="none" fill-rule="evenodd">
        <g id="unspent-outputs:-empty-state" transform="translate(-800.000000, -246.000000)">
            <g id="Group-3" transform="translate(800.000000, 246.000000)">
                <path d="M57.0795476,16.1449029 C56.8638017,12.2243038 46.1102509,9.19036774 33.0477414,9.36841704 C19.970786,9.54646633 9.06720532,12.8690773 8.70699059,16.7896764 C8.34677586,20.7102755 19.1332414,23.7442116 32.7861575,23.5661623 C46.4246276,23.388113 57.2952935,20.065502 57.0795476,16.1449029 Z" id="Oval-4" stroke="#A3A9B8" stroke-width="3" stroke-dasharray="6,5,6,7"></path>
                <path d="M32.6517979,0.253952857 C14.3465996,0.253952857 0,7.44989902 0,16.6197332 L0,53.4739713 C0,62.6687914 14.3465996,69.8397517 32.6517979,69.8397517 C50.9569962,69.8397517 65.3035958,62.6687914 65.3035958,53.4989573 L65.3035958,16.6447191 C65.3035958,7.44989902 50.9569962,0.253952857 32.6517979,0.253952857 L32.6517979,0.253952857 Z M60.9464804,53.4989573 C60.9464804,59.4206213 49.5754718,65.792032 32.6517979,65.792032 C15.728124,65.792032 4.35711542,59.4456072 4.35711542,53.4989573 L4.35711542,49.4762235 C9.93634859,54.3734646 20.4040527,57.5966488 32.6517979,57.5966488 C44.8995431,57.5966488 55.3672472,54.3734646 60.9464804,49.4762235 L60.9464804,53.4989573 L60.9464804,53.4989573 Z M60.9464804,41.2058826 C60.9464804,47.1275466 49.5754718,53.4989573 32.6517979,53.4989573 C15.728124,53.4989573 4.35711542,47.1525325 4.35711542,41.2058826 L4.35711542,37.1831488 C9.93634859,42.0803899 20.4040527,45.3035741 32.6517979,45.3035741 C44.8995431,45.3035741 55.3672472,42.0803899 60.9464804,37.1831488 L60.9464804,41.2058826 L60.9464804,41.2058826 Z M60.9464804,28.9128079 C60.9464804,34.8344719 49.5754718,41.2058826 32.6517979,41.2058826 C15.728124,41.2058826 4.35711542,34.8594578 4.35711542,28.9128079 L4.35711542,24.8900741 C9.93634859,29.7873152 20.4040527,33.0104994 32.6517979,33.0104994 C44.8995431,33.0104994 55.3672472,29.7873152 60.9464804,24.8900741 L60.9464804,28.9128079 L60.9464804,28.9128079 Z M32.6517979,28.9128079 C15.728124,28.9128079 4.35711542,22.5663831 4.35711542,16.6197332 C4.35711542,10.6980692 15.728124,4.3266585 32.6517979,4.3266585 C49.5754718,4.3266585 60.9464804,10.6730832 60.9464804,16.6197332 C60.9464804,22.5663831 49.5754718,28.9128079 32.6517979,28.9128079 L32.6517979,28.9128079 Z" id="Shape" fill="#A3A9B8"></path>
            </g>
        </g>
    </g>
</svg>