<?xml version="1.0" encoding="utf-8"?>
<!-- Generator: Adobe Illustrator 21.1.0, SVG Export Plug-In . SVG Version: 6.00 Build 0)  -->
<svg version="1.1" id="Layer_1" xmlns="http://www.w3.org/2000/svg" xmlns:xlink="http://www.w3.org/1999/xlink" x="0px" y="0px"
	 viewBox="0 0 180.7 177.4" enable-background="new 0 0 180.7 177.4" xml:space="preserve">
<g>
	<polygon fill="#20252D" points="154.4,52.6 136,63.2 162.3,78.4 162.3,130.2 117.4,156.1 72.5,130.2 72.5,78.4 98.9,63.1 
		94.9,60.9 80.5,52.5 54.1,67.7 54.1,140.8 117.4,177.4 180.7,140.8 180.7,67.7 	"/>
	<polygon fill="#20252D" points="63.3,0 0,36.6 0,109.6 26.4,124.9 40.8,116.5 44.8,114.2 18.4,99 18.4,47.2 63.3,21.3 108.2,47.2 
		108.2,99 81.9,114.2 100.4,124.8 126.6,109.6 126.6,36.6 	"/>
</g>
</svg>
