<?xml version="1.0" encoding="UTF-8" standalone="no"?>
<svg width="110px" height="127px" viewBox="0 0 110 127" version="1.1" xmlns="http://www.w3.org/2000/svg" xmlns:xlink="http://www.w3.org/1999/xlink">
    <!-- Generator: sketchtool 39.1 (31720) - http://www.bohemiancoding.com/sketch -->
    <title>BAEC1CB5-7F88-431C-83CE-B91E765A63F1</title>
    <desc>Created with sketchtool.</desc>
    <defs></defs>
    <g id="Page-1" stroke="none" stroke-width="1" fill="none" fill-rule="evenodd">
        <g id="Core-Configuration-(Step-1)" transform="translate(-241.000000, -375.000000)">
            <g id="Group-3" transform="translate(241.000000, 375.000000)">
                <g id="Group">
                    <polygon id="Shape" fill="#E9E9E9" points="44.2451709 57.260896 54.9509658 51.0422219 65.6894502 57.2281661 65.7221397 69.6327843 55 75.8514584 44.2615156 69.6655142"></polygon>
                    <path d="M55,77.2752074 L43.0356612,70.3855712 L43.0193165,56.5572039 L54.9673105,49.6348378 L66.9316493,56.5244741 L66.9643388,70.3364764 L55,77.2752074 L55,77.2752074 Z M45.4710253,68.9618221 L54.9836553,74.4440743 L64.4799406,68.9290923 L64.4635958,57.9482231 L54.9509658,52.465971 L45.4546805,57.964588 L45.4710253,68.9618221 L45.4710253,68.9618221 Z" id="Shape" fill="#BABABA"></path>
                    <polygon id="Shape" fill="#E9E9E9" points="87.2644874 32.5171193 98.0029718 26.363905 108.708767 32.5989439 108.692422 45.0035621 97.9375929 51.1731414 87.2154532 44.9381024"></polygon>
                    <path d="M97.9212481,52.5805255 L85.9895988,45.6417945 L86.038633,31.8134272 L98.0029718,24.9401559 L109.934621,31.8788869 L109.918276,45.7072542 L97.9212481,52.5805255 L97.9212481,52.5805255 Z M88.4413076,44.2344104 L97.9212481,49.7493923 L107.450223,44.2835052 L107.466568,33.302636 L97.9702823,27.787654 L88.4576523,33.2535412 L88.4413076,44.2344104 L88.4413076,44.2344104 Z" id="Shape" fill="#BABABA"></path>
                    <polygon id="Shape" fill="#E9E9E9" points="44.4086181 7.57696337 55.1471025 1.42374906 65.8692422 7.65878803 65.8528975 20.0634063 55.0817236 26.2329855 44.3759287 19.9979465"></polygon>
                    <path d="M55.0817236,27.6403696 L43.1500743,20.7016386 L43.1991085,6.87327131 L55.1634473,0 L67.0950966,6.93873104 L67.0787519,20.7670983 L55.0817236,27.6403696 L55.0817236,27.6403696 Z M45.6017831,19.2942545 L55.0817236,24.8092364 L64.6106984,19.3433493 L64.6270431,8.36248009 L55.1307578,2.84749811 L45.6181278,8.3133853 L45.6017831,19.2942545 L45.6017831,19.2942545 Z" id="Shape" fill="#BABABA"></path>
                    <polygon id="Shape" points="1.42199108 32.2389154 12.1604755 26.0857011 22.8826152 32.3043752 22.8662704 44.7253583 12.0950966 50.8949376 1.37295691 44.6598986"></polygon>
                    <path d="M12.0950966,52.3023217 L0.163447251,45.3635906 L0.212481426,31.5352234 L12.1768202,24.6619521 L24.1084695,31.6006831 L24.0921248,45.4290504 L12.0950966,52.3023217 L12.0950966,52.3023217 Z M2.61515602,43.9562065 L12.0950966,49.4711885 L21.6240713,44.0053013 L21.640416,33.0244322 L12.1441308,27.5094502 L2.63150074,32.9753374 L2.61515602,43.9562065 L2.61515602,43.9562065 Z" id="Shape" fill="#BABABA"></path>
                    <polygon id="Shape" fill="#E9E9E9" points="1.27488856 81.8901182 12.013373 75.7205389 22.7191679 81.9555779 22.7028232 94.3601961 11.9316493 100.529775 1.22585438 94.2947364"></polygon>
                    <path d="M11.9316493,101.953524 L0,95.0147934 L0.0490341753,81.1864261 L12.013373,74.3131548 L23.9450223,81.2518858 L23.9286776,95.0802531 L11.9316493,101.953524 L11.9316493,101.953524 Z M2.45170877,93.5910443 L11.9316493,99.1060263 L21.4606241,93.6401391 L21.4769688,82.65927 L11.9806835,77.144288 L2.46805349,82.6101752 L2.45170877,93.5910443 L2.45170877,93.5910443 Z" id="Shape" fill="#BABABA"></path>
                    <polygon id="Shape" fill="#E9E9E9" points="87.1173848 82.1519571 97.8558692 75.9823778 108.578009 82.2174168 108.561664 94.622035 97.7904903 100.791614 87.0846954 94.5565753"></polygon>
                    <path d="M97.7904903,102.215363 L85.858841,95.2766323 L85.9078752,81.448265 L97.872214,74.5749937 L109.803863,81.5137248 L109.787519,95.342092 L97.7904903,102.215363 L97.7904903,102.215363 Z M88.3105498,93.8528832 L97.7904903,99.3678652 L107.319465,93.901978 L107.33581,82.9211089 L97.8395245,77.4061269 L88.3268945,82.8720141 L88.3105498,93.8528832 L88.3105498,93.8528832 Z" id="Shape" fill="#BABABA"></path>
                    <polygon id="Shape" fill="#E9E9E9" points="44.1144131 106.830274 54.8692422 100.660695 65.5750371 106.895734 65.5586924 119.300352 54.7875186 125.469931 44.0817236 119.234892"></polygon>
                    <path d="M54.7875186,126.89368 L42.8558692,119.954949 L42.9049034,106.126582 L54.8692422,99.2533107 L66.8008915,106.192042 L66.7845468,120.020409 L54.7875186,126.89368 L54.7875186,126.89368 Z M45.307578,118.5312 L54.7875186,124.046182 L64.3164933,118.580295 L64.332838,107.599426 L54.8365527,102.084444 L45.3239227,107.550331 L45.307578,118.5312 L45.307578,118.5312 Z" id="Shape" fill="#BABABA"></path>
                    <rect id="Rectangle-path" fill="#BABABA" transform="translate(54.900104, 88.260664) rotate(-89.828412) translate(-54.900104, -88.260664) " x="42.5108026" y="87.0332945" width="24.7786033" height="2.45473975"></rect>
                    <rect id="Rectangle-path" fill="#BABABA" transform="translate(12.049566, 63.298755) rotate(-89.813490) translate(-12.049566, -63.298755) " x="-0.356080275" y="62.0713847" width="24.8112927" height="2.45473975"></rect>
                    <rect id="Rectangle-path" fill="#BABABA" transform="translate(33.364502, 100.602254) rotate(-59.827286) translate(-33.364502, -100.602254) " x="32.138648" y="88.197636" width="2.45170877" height="24.8092364"></rect>
                    <rect id="Rectangle-path" fill="#BABABA" transform="translate(76.343385, 100.780775) rotate(-29.813102) translate(-76.343385, -100.780775) " x="63.9540832" y="99.553405" width="24.7786033" height="2.45473975"></rect>
                    <rect id="Rectangle-path" fill="#BABABA" transform="translate(33.527790, 51.012466) rotate(-59.642520) translate(-33.527790, -51.012466) " x="32.3019358" y="38.6078479" width="2.45170877" height="24.8092364"></rect>
                    <rect id="Rectangle-path" fill="#BABABA" transform="translate(76.460758, 51.081932) rotate(-29.702952) translate(-76.460758, -51.081932) " x="64.0714564" y="49.8545625" width="24.7786033" height="2.45473975"></rect>
                    <rect id="Rectangle-path" fill="#BABABA" transform="translate(97.899876, 63.588417) rotate(-89.843333) translate(-97.899876, -63.588417) " x="85.5105739" y="62.361047" width="24.7786033" height="2.45473975"></rect>
                    <rect id="Rectangle-path" fill="#BABABA" transform="translate(76.515063, 26.289585) rotate(-59.827286) translate(-76.515063, -26.289585) " x="75.2892085" y="13.8931497" width="2.45170877" height="24.7928715"></rect>
                    <rect id="Rectangle-path" fill="#BABABA" transform="translate(33.613883, 26.176409) rotate(-29.787520) translate(-33.613883, -26.176409) " x="21.2327539" y="24.9490396" width="24.7622585" height="2.45473975"></rect>
                    <rect id="Rectangle-path" fill="#BABABA" transform="translate(33.550232, 75.801728) rotate(-29.690159) translate(-33.550232, -75.801728) " x="21.1609303" y="74.5743582" width="24.7786033" height="2.45473975"></rect>
                    <rect id="Rectangle-path" fill="#BABABA" transform="translate(55.028858, 38.645123) rotate(-89.716508) translate(-55.028858, -38.645123) " x="42.6395559" y="37.4177531" width="24.7786033" height="2.45473975"></rect>
                    <rect id="Rectangle-path" fill="#BABABA" transform="translate(76.410127, 75.889843) rotate(-59.701495) translate(-76.410127, -75.889843) " x="75.1842724" y="63.4770426" width="2.45170877" height="24.8256014"></rect>
                </g>
            </g>
        </g>
    </g>
</svg>