<?xml version="1.0" standalone="no"?>
<!DOCTYPE svg PUBLIC "-//W3C//DTD SVG 1.1//EN" "http://www.w3.org/Graphics/SVG/1.1/DTD/svg11.dtd" >
<svg>
<metadata>
Created by FontForge 20090622 at Sat Oct 22 08:22:03 2016
 By deploy user
Copyright &#194;&#169; 2007&#226;&#128;&#147;2016 Bold Monday. All rights reserved. Nitti is a trademark of Bold Monday. Unauthorized copying or modification of any of its data is illegal.
</metadata>
<defs>
<font id="Nitti" horiz-adv-x="600" >
  <font-face 
    font-family="Nitti"
    font-weight="400"
    font-stretch="normal"
    units-per-em="1000"
    panose-1="2 11 5 9 4 0 0 6 0 4"
    ascent="780"
    descent="-220"
    x-height="436"
    cap-height="564"
    bbox="-270 -420 642 980"
    underline-thickness="52"
    underline-position="-102"
    unicode-range="U+0020-U+FB4F"
  />
<missing-glyph 
d="M292 136l-34 40q92 70 123.5 108.5t31.5 76.5q0 43 -30 67t-90 24q-120 0 -120 -92h-79q0 82 55.5 121.5t146.5 39.5q96 0 148 -43t52 -110q0 -62 -47.5 -112t-156.5 -120zM235 -53v113h114v-113h-114zM0 -180v818h600v-818h-600zM51 593v-728h498v728h-498z" />
    <glyph glyph-name=".notdef" 
d="M292 136l-34 40q92 70 123.5 108.5t31.5 76.5q0 43 -30 67t-90 24q-120 0 -120 -92h-79q0 82 55.5 121.5t146.5 39.5q96 0 148 -43t52 -110q0 -62 -47.5 -112t-156.5 -120zM235 -53v113h114v-113h-114zM0 -180v818h600v-818h-600zM51 593v-728h498v728h-498z" />
    <glyph glyph-name=".null" horiz-adv-x="0" 
 />
    <glyph glyph-name="nonmarkingreturn" horiz-adv-x="333" 
 />
    <glyph glyph-name="space" unicode=" " 
 />
    <glyph glyph-name="exclam" unicode="!" 
d="M280 199l-23 190v175h86v-175l-23 -190h-40zM243 0v113h114v-113h-114z" />
    <glyph glyph-name="quotedbl" unicode="&#x22;" 
d="M179 293q-27 214 -27 230q0 24 15 38t40 14q26 0 41 -14t15 -38q0 -16 -27 -230h-57zM364 293q-27 214 -27 230q0 24 15 38t40 14q26 0 41 -14t15 -38q0 -16 -27 -230h-57z" />
    <glyph glyph-name="numbersign" unicode="#" 
d="M115 0l30 153h-100l13 62h99l26 136h-100l13 62h99l30 151h69l-30 -151h122l30 151h69l-30 -151h100l-13 -62h-99l-26 -136h100l-13 -62h-99l-30 -153h-69l30 153h-122l-30 -153h-69zM252 351l-26 -136h122l26 136h-122z" />
    <glyph glyph-name="dollar" unicode="$" 
d="M264 -75v67q-82 8 -128 51.5t-46 118.5h81q5 -85 93 -98v195l-38 14q-125 44 -125 149q0 65 45 104t118 47v67h66v-67q75 -7 118.5 -49.5t44.5 -119.5h-80q-4 83 -83 96v-180l48 -17q70 -25 101.5 -58.5t31.5 -89.5q0 -76 -49.5 -117t-131.5 -47v-66h-66zM347 230l-17 6
v-174q97 12 97 86q0 31 -19.5 49t-60.5 33zM185 424q0 -54 79 -81v157q-38 -6 -58.5 -26.5t-20.5 -49.5z" />
    <glyph glyph-name="percent" unicode="%" 
d="M166 260q-60 0 -101.5 38t-41.5 118t42 119.5t104 39.5q61 0 102.5 -38t41.5 -118t-42.5 -119.5t-104.5 -39.5zM168 325q73 0 73 92q0 93 -73 93q-74 0 -74 -93q0 -92 74 -92zM431 -10q-61 0 -102.5 38t-41.5 118t42.5 119t104.5 39q60 0 101.5 -38t41.5 -117
q0 -80 -42 -119.5t-104 -39.5zM432 55q74 0 74 92t-74 92q-73 0 -73 -92t73 -92zM26 0l172 227h51v-51l-134 -176h-89zM351 337v50l134 177h89l-172 -227h-51z" />
    <glyph glyph-name="ampersand" unicode="&#x26;" 
d="M282 68h114v188h-108q-67 0 -106 -24t-39 -74q0 -90 139 -90zM275 0q-103 0 -159 39.5t-56 114.5q0 102 97 133q-86 37 -86 129q0 76 55.5 117.5t146.5 41.5q53 0 94 -13t73 -51.5t36 -100.5h-81q-8 96 -122 96q-119 0 -119 -92t137 -92h272v-66h-86v-256h-202z" />
    <glyph glyph-name="quotesingle" unicode="'" 
d="M271 293q-27 214 -27 230q0 24 15 38t40 14q26 0 41 -14t15 -38q0 -16 -27 -230h-57z" />
    <glyph glyph-name="parenleft" unicode="(" 
d="M404 -180q-114 96 -169 202t-55 207t55 207t169 202h79q-118 -113 -171.5 -212t-53.5 -197q0 -97 53.5 -196.5t171.5 -212.5h-79z" />
    <glyph glyph-name="parenright" unicode=")" 
d="M117 -180q118 113 171.5 212.5t53.5 196.5q0 98 -53.5 197t-171.5 212h79q114 -95 169 -201.5t55 -207.5t-54.5 -206.5t-169.5 -202.5h-79z" />
    <glyph glyph-name="asterisk" unicode="*" 
d="M200 235l-49 35l93 136l-156 57l18 55l160 -46l4 166h60l4 -166l160 46l18 -55l-156 -57l93 -136l-49 -35l-100 130z" />
    <glyph glyph-name="plus" unicode="+" 
d="M262 0v184h-184v70h184v182h77v-182h183v-70h-183v-184h-77z" />
    <glyph glyph-name="comma" unicode="," 
d="M234 -155q-32 0 -32 29q0 9 2 19l35 230h128l-102 -257q-8 -21 -31 -21z" />
    <glyph glyph-name="hyphen" unicode="-" 
d="M152 247v70h296v-70h-296z" />
    <glyph glyph-name="period" unicode="." 
d="M239 0v123h122v-123h-122z" />
    <glyph glyph-name="slash" unicode="/" 
d="M-41 -180l541 818h78l-540 -818h-79z" />
    <glyph glyph-name="zero" unicode="0" 
d="M298 -10q-110 0 -165 78t-55 213q0 137 56.5 215.5t166.5 78.5t165.5 -77.5t55.5 -212.5q0 -137 -56.5 -216t-167.5 -79zM300 62q137 0 137 221q0 220 -137 220t-137 -220q0 -221 137 -221zM300 241q-19 0 -30.5 11.5t-11.5 30.5q0 18 11.5 29.5t30.5 11.5t30.5 -11.5
t11.5 -29.5q0 -19 -11.5 -30.5t-30.5 -11.5z" />
    <glyph glyph-name="one" unicode="1" 
d="M130 0v71h147v394q-42 -44 -126 -44h-21v74h40q89 0 122 69h66v-493h130v-71h-358z" />
    <glyph glyph-name="two" unicode="2" 
d="M114 0v32q0 73 33 120t93 84l78 48q96 59 96 125q0 46 -30.5 71.5t-82.5 25.5q-119 0 -127 -117h-82q5 94 63.5 140t148.5 46q87 0 141 -44.5t54 -119.5q0 -59 -31.5 -100t-92.5 -79l-85 -54q-84 -53 -89 -107h311v-71h-398z" />
    <glyph glyph-name="three" unicode="3" 
d="M300 -10q-95 0 -154 46.5t-63 136.5h81q9 -114 133 -114q59 0 93 25t34 72q0 49 -37 76t-97 27h-18v66h17q122 0 122 87q0 44 -31 69t-84 25q-52 0 -86.5 -27t-38.5 -88h-82q5 93 64 138.5t147 45.5q90 0 143 -44.5t53 -115.5q0 -87 -87 -122q47 -17 73.5 -54t26.5 -87
q0 -73 -56.5 -117.5t-152.5 -44.5z" />
    <glyph glyph-name="four" unicode="4" 
d="M349 0v144h-293v52l300 368h72v-351h92v-69h-92v-144h-79zM156 213h193v236z" />
    <glyph glyph-name="five" unicode="5" 
d="M314 -10q-87 0 -144 46t-62 133h82q4 -55 36.5 -82.5t84.5 -27.5q56 0 88 31t32 88t-35 88.5t-94 31.5q-37 0 -73.5 -16t-59.5 -44l-49 15l31 311h332v-70h-264l-17 -161q49 34 123 34q84 0 137.5 -51t53.5 -136t-56.5 -137.5t-145.5 -52.5z" />
    <glyph glyph-name="six" unicode="6" 
d="M317 -10q-101 0 -162 70.5t-61 218.5q0 139 59.5 217.5t169.5 78.5q86 0 138 -48.5t55 -130.5h-82q-3 50 -31.5 80.5t-81.5 30.5q-135 0 -143 -206q53 51 144 51t141.5 -49.5t50.5 -130.5q0 -80 -54.5 -131t-142.5 -51zM315 59q52 0 83.5 30t31.5 81q0 54 -31.5 84
t-85.5 30q-77 0 -134 -46q11 -179 136 -179z" />
    <glyph glyph-name="seven" unicode="7" 
d="M236 0v52q0 131 49.5 250t139.5 192h-261v-78h-74v148h435v-62q-206 -170 -206 -463v-39h-83z" />
    <glyph glyph-name="eight" unicode="8" 
d="M300 -10q-91 0 -155 42t-64 119q0 100 102 136q-89 38 -89 125q0 81 60 122t146 41t146 -41t60 -122q0 -87 -89 -125q102 -36 102 -136q0 -77 -64 -119t-155 -42zM300 58q58 0 96.5 24.5t38.5 73.5q0 51 -38 75t-97 24t-97 -24t-38 -75q0 -49 38.5 -73.5t96.5 -24.5z
M300 319q52 0 87 22.5t35 69.5q0 49 -35 72.5t-87 23.5t-87 -23.5t-35 -72.5q0 -47 35 -69.5t87 -22.5z" />
    <glyph glyph-name="nine" unicode="9" 
d="M285 -10q-90 0 -143.5 48.5t-55.5 130.5h81q3 -50 32.5 -80t86.5 -30q65 0 99.5 46.5t37.5 160.5q-50 -52 -143 -52q-91 0 -142 50.5t-51 130.5q0 79 54.5 129.5t142.5 50.5q99 0 161 -69.5t62 -223.5q0 -152 -61.5 -222t-160.5 -70zM288 283q79 0 133 45
q-12 178 -135 178q-51 0 -83 -30t-32 -81q0 -52 31.5 -82t85.5 -30z" />
    <glyph glyph-name="colon" unicode=":" 
d="M239 0v123h122v-123h-122zM239 312v124h122v-124h-122z" />
    <glyph glyph-name="semicolon" unicode=";" 
d="M234 -155q-32 0 -32 29q0 9 2 19l35 230h128l-102 -257q-8 -21 -31 -21zM239 313v123h122v-123h-122z" />
    <glyph glyph-name="less" unicode="&#x3c;" 
d="M528 -10l-456 197v62l456 197v-78l-352 -149l352 -148v-81z" />
    <glyph glyph-name="equal" unicode="=" 
d="M121 93v70h358v-70h-358zM121 273v70h358v-70h-358z" />
    <glyph glyph-name="greater" unicode="&#x3e;" 
d="M72 -10v78l351 148l-351 149v81l456 -197v-62z" />
    <glyph glyph-name="question" unicode="?" 
d="M292 189l-34 40q92 70 123.5 108.5t31.5 77.5q0 91 -121 91q-119 0 -119 -93h-79q0 82 56 122t146 40q96 0 148 -42.5t52 -110.5q0 -62 -46.5 -112t-157.5 -121zM235 0v113h114v-113h-114z" />
    <glyph glyph-name="at" unicode="@" 
d="M190 -10q-50 0 -77 48t-27 180q0 56 6 98t15.5 66.5t23.5 39t28.5 19.5t32.5 5q54 0 83 -53v43h67v-325q0 -59 50 -59q48 0 48 59v289q0 95 -29.5 139.5t-113.5 44.5q-126 0 -126 -95h-74q0 27 9 52.5t30 51t64 41t102 15.5q43 0 77.5 -9.5t56.5 -22.5t37.5 -36t23 -42
t12 -48t5 -46t0.5 -45v-284q0 -38 -12 -64.5t-31.5 -39t-39 -17.5t-40.5 -5q-46 0 -70.5 20t-31.5 47q-34 -67 -99 -67zM213 52q39 0 55 33v266q-16 33 -55 33q-29 0 -39.5 -32.5t-10.5 -133.5t10.5 -133.5t39.5 -32.5z" />
    <glyph glyph-name="A" unicode="A" 
d="M56 0l199 564h90l199 -564h-90l-45 134h-220l-45 -134h-88zM238 287l-29 -85h178l-29 85l-60 191z" />
    <glyph glyph-name="B" unicode="B" 
d="M122 0v564h175q91 0 147 -42t56 -113q0 -81 -80 -116q43 -14 72.5 -46.5t29.5 -84.5q0 -73 -58 -117.5t-149 -44.5h-193zM205 252v-181h107q64 0 94 26t30 67q0 88 -127 88h-104zM205 493v-170h82q126 0 126 82q0 88 -122 88h-86z" />
    <glyph glyph-name="C" unicode="C" 
d="M310 -10q-116 0 -174 75t-58 215q0 143 60.5 219t174.5 76q39 0 73.5 -9.5t65 -30.5t49.5 -60.5t21 -93.5h-80q-12 122 -131 122q-45 0 -76 -18.5t-45.5 -52.5t-20 -69.5t-5.5 -82.5q0 -44 5.5 -78.5t20 -68.5t45.5 -52.5t76 -18.5q63 0 94 29t36 92h81
q-2 -69 -34.5 -114t-77 -62t-100.5 -17z" />
    <glyph glyph-name="D" unicode="D" 
d="M122 0v564h165q130 0 182.5 -72.5t52.5 -205.5q0 -136 -53.5 -211t-181.5 -75h-165zM205 493v-422h82q40 0 68.5 14t43.5 34t24 50.5t11 55t2 57.5q0 42 -4.5 72.5t-18 65.5t-45.5 54t-81 19h-82z" />
    <glyph glyph-name="E" unicode="E" 
d="M122 0v564h367v-71h-284v-170h247v-71h-247v-181h284v-71h-367z" />
    <glyph glyph-name="F" unicode="F" 
d="M122 0v564h372v-71h-289v-188h253v-71h-253v-234h-83z" />
    <glyph glyph-name="G" unicode="G" 
d="M283 -10q-55 0 -96 24t-64 66.5t-34 92.5t-11 109q0 138 58 215.5t168 77.5q85 0 138.5 -48.5t57.5 -148.5h-80q-6 64 -32.5 94.5t-80.5 30.5q-37 0 -63.5 -14t-41.5 -35t-24 -52.5t-11.5 -59t-2.5 -61.5q0 -47 5.5 -83t19.5 -68.5t42.5 -50t70.5 -17.5q66 0 117 48v125
h-132v69h212v-304h-65v62q-17 -27 -56 -49.5t-95 -22.5z" />
    <glyph glyph-name="H" unicode="H" 
d="M122 0v564h83v-241h190v241h83v-564h-83v253h-190v-253h-83z" />
    <glyph glyph-name="I" unicode="I" 
d="M121 0v71h138v422h-138v71h358v-71h-137v-422h137v-71h-358z" />
    <glyph glyph-name="J" unicode="J" 
d="M290 -10q-92 0 -143.5 53.5t-51.5 140.5q0 21 3 36h80q-2 -14 -2 -34q0 -58 28.5 -90.5t84.5 -32.5q117 0 117 155v346h83v-350q0 -224 -199 -224z" />
    <glyph glyph-name="K" unicode="K" 
d="M122 0v564h83v-265l234 265h100l-214 -236l234 -328h-104l-184 270l-66 -73v-197h-83z" />
    <glyph glyph-name="L" unicode="L" 
d="M122 0v564h83v-493h289v-71h-372z" />
    <glyph glyph-name="M" unicode="M" 
d="M90 0v564h110l64 -188l38 -124l37 124l64 188h107v-564h-75v330l7 157l-110 -329h-64l-110 329l7 -157v-330h-75z" />
    <glyph glyph-name="N" unicode="N" 
d="M123 0v564h111l177 -483l-9 162v321h75v-564h-111l-177 483l9 -162v-321h-75z" />
    <glyph glyph-name="O" unicode="O" 
d="M298 -10q-111 0 -165.5 75.5t-54.5 213.5q0 141 56 218.5t168 77.5q111 0 165.5 -75.5t54.5 -214.5q0 -141 -56 -218t-168 -77zM300 62q44 0 73 20t42 56t17 68.5t4 75.5t-4 75.5t-17 69t-42 56.5t-73 20t-73 -20t-42 -56.5t-17 -69t-4 -75.5t4 -75.5t17 -68.5t42 -56
t73 -20z" />
    <glyph glyph-name="P" unicode="P" 
d="M122 0v564h165q109 0 171.5 -45t62.5 -133t-62.5 -133t-171.5 -45h-82v-208h-83zM205 493v-214h83q147 0 147 107t-147 107h-83z" />
    <glyph glyph-name="Q" unicode="Q" 
d="M300 62q40 0 68 17l-128 122h96l75 -72q25 52 25 153q0 43 -4 75.5t-17 69t-42 56.5t-73 20t-73 -20t-42 -56.5t-17 -69t-4 -75.5t4 -75.5t17 -68.5t42 -56t73 -20zM491 -38l-67 64q-50 -36 -126 -36q-111 0 -165.5 75.5t-54.5 213.5q0 141 56 218.5t168 77.5
q111 0 165.5 -75.5t54.5 -214.5q0 -138 -52 -212l116 -111h-95z" />
    <glyph glyph-name="R" unicode="R" 
d="M122 0v564h146q110 0 172 -44.5t62 -127.5q0 -66 -37.5 -109.5t-98.5 -58.5l175 -224h-104l-157 210h-75v-210h-83zM205 493v-214h64q147 0 147 107t-147 107h-64z" />
    <glyph glyph-name="S" unicode="S" 
d="M301 -10q-98 0 -154.5 44.5t-56.5 127.5h81q6 -101 130 -101q58 0 92 22.5t34 64.5q0 31 -19.5 49t-60.5 33l-121 43q-125 44 -125 149q0 73 55.5 113t142.5 40q89 0 141 -43.5t53 -127.5h-80q-5 99 -116 99q-53 0 -82.5 -21.5t-29.5 -57.5q0 -53 72 -78l121 -43
q70 -25 101.5 -58.5t31.5 -89.5q0 -82 -58.5 -123.5t-151.5 -41.5z" />
    <glyph glyph-name="T" unicode="T" 
d="M258 0v493h-190v71h465v-71h-192v-493h-83z" />
    <glyph glyph-name="U" unicode="U" 
d="M300 -10q-99 0 -146 50t-47 159v365h83v-365q0 -75 25 -105.5t85 -30.5t85 30.5t25 105.5v365h83v-365q0 -109 -47 -159t-146 -50z" />
    <glyph glyph-name="V" unicode="V" 
d="M254 0l-198 564h89l101 -305l56 -182l54 180l101 307h87l-198 -564h-92z" />
    <glyph glyph-name="W" unicode="W" 
d="M115 0l-70 564h81l34 -308l17 -181l85 299h78l84 -299l18 181l33 308h80l-70 -564h-106l-79 275l-79 -275h-106z" />
    <glyph glyph-name="X" unicode="X" 
d="M55 0l198 289l-187 275h96l82 -126l57 -90l58 90l82 126h94l-187 -273l197 -291h-96l-94 144l-56 87l-55 -87l-96 -144h-93z" />
    <glyph glyph-name="Y" unicode="Y" 
d="M259 0v225l-220 339h96l83 -132l83 -142l84 142l83 132h93l-219 -339v-225h-83z" />
    <glyph glyph-name="Z" unicode="Z" 
d="M95 0v62l302 431h-297v71h399v-62l-302 -431h307v-71h-409z" />
    <glyph glyph-name="bracketleft" unicode="[" 
d="M198 -180v818h286v-64h-213v-689h213v-65h-286z" />
    <glyph glyph-name="backslash" unicode="\" 
d="M562 -180l-540 818h78l541 -818h-79z" />
    <glyph glyph-name="bracketright" unicode="]" 
d="M116 -180v65h214v689h-214v64h286v-818h-286z" />
    <glyph glyph-name="asciicircum" unicode="^" 
d="M110 214l157 350h66l157 -350h-78l-113 267l-112 -267h-77z" />
    <glyph glyph-name="underscore" unicode="_" 
d="M22 -71v71h556v-71h-556z" />
    <glyph glyph-name="grave" unicode="`" 
d="M339 494l-126 194h96l77 -194h-47z" />
    <glyph glyph-name="a" unicode="a" 
d="M238 -10q-67 0 -108.5 30.5t-41.5 92.5q0 126 173 126q72 0 125 -17v38q0 60 -19.5 90t-83.5 30q-109 0 -109 -91h-76q0 45 17 77t46 48.5t60.5 24t67.5 7.5q176 0 176 -170v-198q0 -13 5.5 -18t18.5 -5q21 0 49 7v-56q-37 -16 -76 -16q-65 0 -65 59v8q-51 -67 -159 -67z
M251 57q78 0 135 41v68q-44 11 -110 11q-54 0 -81.5 -14t-27.5 -48q0 -58 84 -58z" />
    <glyph glyph-name="b" unicode="b" 
d="M330 -10q-91 0 -142 66v-56h-66v638h79v-246q17 20 51 37t78 17q77 0 129.5 -56t52.5 -172q0 -113 -52 -170.5t-130 -57.5zM309 56q62 0 92.5 43.5t30.5 118.5t-30.5 118.5t-92.5 43.5q-64 0 -108 -44v-236q44 -44 108 -44z" />
    <glyph glyph-name="c" unicode="c" 
d="M306 -10q-42 0 -78 11t-69 35.5t-52 71t-19 110.5q0 65 19.5 111.5t53 71t69.5 35t76 10.5q34 0 65 -7.5t60.5 -25t48 -51.5t21.5 -80h-79q-10 95 -114 95q-139 0 -139 -159t139 -159q104 0 114 95h79q-3 -46 -22 -79.5t-48.5 -51t-60.5 -25.5t-64 -8z" />
    <glyph glyph-name="d" unicode="d" 
d="M270 -10q-77 0 -129.5 56t-52.5 172q0 113 52 170.5t130 57.5q44 0 78 -17t51 -37v246h79v-638h-66v56q-51 -66 -142 -66zM291 56q64 0 108 44v236q-44 44 -108 44q-62 0 -92.5 -43.5t-30.5 -118.5t30.5 -118.5t92.5 -43.5z" />
    <glyph glyph-name="e" unicode="e" 
d="M305 -10q-95 0 -156 55.5t-61 171.5q0 62 18.5 108.5t50 71.5t67.5 37t76 12t75.5 -11.5t67.5 -36.5t51 -71t19 -109v-16h-346q6 -147 140 -147q52 0 85 22t40 63h80q-6 -41 -27.5 -72t-52 -47t-62 -23.5t-65.5 -7.5zM168 262h264q-7 58 -42 89t-90 31t-90 -31t-42 -89z
" />
    <glyph glyph-name="f" unicode="f" 
d="M111 0v67h124v302h-124v67h124v2q0 100 68 152.5t187 52.5v-67q-176 0 -176 -138v-2h176v-67h-176v-302h176v-67h-379z" />
    <glyph glyph-name="g" unicode="g" 
d="M283 -190q-188 0 -189 156h77q1 -47 27.5 -70t84.5 -23q71 0 93.5 29.5t22.5 86.5v58q-48 -51 -128 -51q-79 0 -131 56.5t-52 167.5q0 112 52.5 169t130.5 57q48 0 85 -20t56 -46v56h66v-453q0 -86 -46 -129.5t-149 -43.5zM292 62q63 0 107 44v230q-44 44 -107 44
q-62 0 -93 -42.5t-31 -116.5t31 -116.5t93 -42.5z" />
    <glyph glyph-name="h" unicode="h" 
d="M122 0v638h79v-249q44 57 128 57q149 0 149 -178v-268h-79v251q0 67 -18.5 98t-72.5 31q-69 0 -107 -46v-334h-79z" />
    <glyph glyph-name="i" unicode="i" 
d="M110 0v67h158v302h-158v67h237v-369h144v-67h-381zM257 537v101h101v-101h-101z" />
    <glyph glyph-name="j" unicode="j" 
d="M142 -185v66q180 0 180 150v338h-169v67h248v-413q0 -104 -67.5 -156t-191.5 -52zM311 537v101h101v-101h-101z" />
    <glyph glyph-name="k" unicode="k" 
d="M122 0v638h79v-391l221 189h105l-193 -162l203 -274h-97l-162 229l-77 -63v-166h-79z" />
    <glyph glyph-name="l" unicode="l" 
d="M110 0v67h151v505h-151v66h230v-571h151v-67h-381z" />
    <glyph glyph-name="m" unicode="m" 
d="M68 0v436h62v-62q38 72 108 72q69 0 90 -68q37 68 106 68q48 0 73.5 -36t25.5 -104v-306h-75v286q0 48 -10 69t-35 21q-39 0 -75 -47v-329h-75v286q0 48 -10 69t-35 21q-39 0 -75 -47v-329h-75z" />
    <glyph glyph-name="n" unicode="n" 
d="M122 0v436h66v-58q46 68 143 68q147 0 147 -178v-268h-79v251q0 67 -18.5 98t-72.5 31q-69 0 -107 -46v-334h-79z" />
    <glyph glyph-name="o" unicode="o" 
d="M298 -10q-40 0 -75.5 11.5t-67 36.5t-49.5 71t-18 108q0 64 19 110.5t51 71t68 36t76 11.5t75.5 -11t66.5 -35.5t49.5 -70.5t18.5 -109q0 -64 -19 -111t-51.5 -71.5t-68 -36t-75.5 -11.5zM300 56q133 0 133 162t-133 162t-133 -162t133 -162z" />
    <glyph glyph-name="p" unicode="p" 
d="M122 -180v616h66v-56q51 66 142 66q77 0 129.5 -56t52.5 -172q0 -113 -52 -170.5t-130 -57.5q-44 0 -78 17t-51 37v-224h-79zM309 56q62 0 92.5 43.5t30.5 118.5t-30.5 118.5t-92.5 43.5q-64 0 -108 -44v-236q44 -44 108 -44z" />
    <glyph glyph-name="q" unicode="q" 
d="M399 -180v224q-17 -20 -51 -37t-78 -17q-77 0 -129.5 56t-52.5 172q0 113 52 170.5t130 57.5q91 0 142 -66v56h66v-616h-79zM291 56q64 0 108 44v236q-44 44 -108 44q-62 0 -92.5 -43.5t-30.5 -118.5t30.5 -118.5t92.5 -43.5z" />
    <glyph glyph-name="r" unicode="r" 
d="M110 0v67h113v302h-113v67h179v-99q45 109 152 109q45 0 76 -14v-81q-28 13 -74 13q-91 0 -141 -72v-225h189v-67h-381z" />
    <glyph glyph-name="s" unicode="s" 
d="M305 -10q-201 0 -207 148h74q5 -81 140 -81q111 0 111 60q0 23 -18.5 37.5t-43 21.5t-72.5 17q-16 3 -25 5q-74 16 -115 42.5t-41 82.5q0 62 52 92.5t135 30.5q181 0 192 -138h-74q-13 71 -121 71q-105 0 -105 -51q0 -11 4 -19.5t14 -15.5t18.5 -11.5t26.5 -9l28.5 -7
t34.5 -7l34 -6.5q76 -16 115.5 -43t39.5 -85q0 -68 -54.5 -101t-142.5 -33z" />
    <glyph glyph-name="t" unicode="t" 
d="M373 -10q-84 0 -123.5 40.5t-39.5 146.5v192h-143v67h143v202h79v-202h214v-67h-214v-189q0 -69 19.5 -95.5t75.5 -26.5q55 0 106 19v-67q-40 -20 -117 -20z" />
    <glyph glyph-name="u" unicode="u" 
d="M269 -10q-147 0 -147 178v268h79v-251q0 -67 18.5 -98t72.5 -31q69 0 107 46v334h79v-436h-66v58q-46 -68 -143 -68z" />
    <glyph glyph-name="v" unicode="v" 
d="M255 0l-188 436h86l94 -233l54 -139l54 137l96 235h82l-188 -436h-90z" />
    <glyph glyph-name="w" unicode="w" 
d="M127 0l-76 436h76l54 -369l77 278h85l78 -278l54 369h74l-76 -436h-97l-76 267l-76 -267h-97z" />
    <glyph glyph-name="x" unicode="x" 
d="M57 0l198 223l-188 213h96l139 -161l137 161h94l-186 -213l196 -223h-96l-148 171l-148 -171h-94z" />
    <glyph glyph-name="y" unicode="y" 
d="M83 -185v67q68 0 108 26t67 86l-191 442h86l94 -233l54 -140l54 138l96 235h82l-185 -429q-46 -107 -104 -149.5t-161 -42.5z" />
    <glyph glyph-name="z" unicode="z" 
d="M107 0v57l276 312h-271v67h376v-57l-277 -312h282v-67h-386z" />
    <glyph glyph-name="braceleft" unicode="{" 
d="M408 -180q-96 0 -144 30.5t-48 106.5q0 26 2 54l5 80q1 12 1 25q0 46 -25.5 64t-89.5 18v62q64 0 89.5 18t25.5 64q0 13 -1 25l-5 80q-2 28 -2 54q0 76 48 106.5t144 30.5h76v-65h-73q-66 0 -93 -16.5t-27 -77.5q0 -9 1 -25l6 -102q1 -11 1 -25q0 -37 -22 -64.5
t-59 -33.5q37 -6 59 -33.5t22 -64.5q0 -14 -1 -25l-6 -102q-1 -16 -1 -25q0 -61 27 -77.5t93 -16.5h73v-65h-76z" />
    <glyph glyph-name="bar" unicode="|" 
d="M264 -180v818h72v-818h-72z" />
    <glyph glyph-name="braceright" unicode="}" 
d="M116 -180v65h73q66 0 93 16.5t27 77.5q0 9 -1 25l-6 102q-1 11 -1 25q0 37 22 64.5t59 33.5q-37 6 -59 33.5t-22 64.5q0 14 1 25l6 102q1 16 1 25q0 61 -27 77.5t-93 16.5h-73v65h76q96 0 144 -30.5t48 -106.5q0 -26 -2 -54l-5 -80q-1 -12 -1 -25q0 -46 25.5 -64
t89.5 -18v-62q-64 0 -89.5 -18t-25.5 -64q0 -13 1 -25l5 -80q2 -28 2 -54q0 -76 -48 -106.5t-144 -30.5h-76z" />
    <glyph glyph-name="asciitilde" unicode="~" 
d="M119 150l-40 17q12 43 42.5 82.5t74.5 39.5q33 0 121 -37q65 -28 91 -28q40 0 73 65l40 -17q-12 -43 -42.5 -82.5t-74.5 -39.5q-31 0 -117 35q-74 30 -95 30q-40 0 -73 -65z" />
    <glyph glyph-name="uni00A0" unicode="&#xa0;" 
 />
    <glyph glyph-name="exclamdown" unicode="&#xa1;" 
d="M257 -128v175l23 190h40l23 -190v-175h-86zM243 323v113h114v-113h-114z" />
    <glyph glyph-name="cent" unicode="&#xa2;" 
d="M267 -75v132q-78 10 -128.5 63.5t-50.5 162.5q0 108 51 161.5t128 63.5v131h66v-129q67 -6 115 -44.5t53 -118.5h-79q-9 83 -89 93v-315q80 10 89 94h79q-5 -79 -53 -118t-115 -45v-131h-66zM267 438q-98 -22 -98 -155q0 -135 98 -155v310z" />
    <glyph glyph-name="sterling" unicode="&#xa3;" 
d="M110 0v69q104 21 104 92q0 13 -3 32l-9 74h-92v68h84q-3 21 -3 40q0 51 18.5 87t45 56t72 31.5t84.5 15t96 4.5v-69q-113 -4 -153 -17q-80 -26 -80 -115q0 -11 2 -33h159v-68h-151l9 -73q3 -24 3 -33q0 -67 -65 -93h287v-68h-408z" />
    <glyph glyph-name="currency" unicode="&#xa4;" 
d="M136 67l-48 47l78 78q-23 37 -23 88t23 88l-78 78l48 47l76 -77q44 23 88 23t88 -23l76 77l48 -47l-78 -78q23 -37 23 -88t-23 -88l78 -78l-48 -47l-76 77q-42 -22 -88 -22t-88 22zM300 186q39 0 61.5 25.5t22.5 68.5q0 44 -22.5 69t-61.5 25t-61.5 -25t-22.5 -69
q0 -43 22.5 -68.5t61.5 -25.5z" />
    <glyph glyph-name="yen" unicode="&#xa5;" 
d="M103 0v70h156v150h-156v70h114l-178 274h96l83 -132l83 -142l84 142l83 132h93l-177 -274h114v-70h-156v-150h156v-70h-395z" />
    <glyph glyph-name="brokenbar" unicode="&#xa6;" 
d="M264 -180v327h72v-327h-72zM264 312v326h72v-326h-72z" />
    <glyph glyph-name="section" unicode="&#xa7;" 
d="M299 -125q-79 0 -127 37t-51 114h74q5 -91 109 -91q93 0 93 65q0 31 -22.5 50.5t-68.5 38.5l-120 51q-104 45 -104 122q0 68 71 108q-28 34 -28 79q0 61 46.5 93.5t123.5 32.5q168 0 173 -151h-73q-6 91 -102 91q-42 0 -66 -16.5t-24 -48.5q0 -31 22.5 -50.5t68.5 -38.5
l120 -51q104 -45 104 -122q0 -70 -72 -108q29 -35 29 -79q0 -62 -48 -94t-128 -32zM352 143q27 -12 55 -29q34 27 34 62q0 49 -73 80l-120 51q-37 16 -56 29q-33 -27 -33 -62q0 -49 73 -80z" />
    <glyph glyph-name="dieresis" unicode="&#xa8;" 
d="M145 537v101h101v-101h-101zM354 537v101h101v-101h-101z" />
    <glyph glyph-name="copyright" unicode="&#xa9;" 
d="M301 126q-60 0 -91.5 39t-31.5 114q0 74 32.5 113.5t91.5 39.5q50 0 79.5 -27.5t30.5 -82.5h-57q-2 60 -54 60q-66 0 -66 -103t67 -103q51 0 53 60h57q-2 -55 -32.5 -82.5t-78.5 -27.5zM300 33q-118 0 -177 70t-59 176q0 105 59.5 175.5t176.5 70.5q118 0 177 -70
t59 -176q0 -105 -59.5 -175.5t-176.5 -70.5zM300 77q95 0 140 57t45 145t-45 145t-140 57t-140 -57t-45 -145t45 -145t140 -57z" />
    <glyph glyph-name="ordfeminine" unicode="&#xaa;" 
d="M261 231q-51 0 -82.5 23.5t-31.5 70.5q0 95 132 95q56 0 89 -13v29q0 41 -13.5 61.5t-57.5 20.5q-75 0 -75 -62h-65q0 63 41.5 91t102.5 28q136 0 136 -128v-141q0 -18 21 -18q15 0 30 5v-50q-26 -12 -56 -12q-29 0 -41 15t-12 35v2q-41 -52 -118 -52zM275 284
q54 0 93 31v50q-32 7 -75 7q-38 0 -57 -10t-19 -35q0 -43 58 -43zM157 117v60h303v-60h-303z" />
    <glyph glyph-name="guillemotleft" unicode="&#xab;" 
d="M234 54l-150 178l150 178h78l-141 -178l141 -178h-78zM438 54l-150 178l150 178h78l-141 -178l141 -178h-78z" />
    <glyph glyph-name="logicalnot" unicode="&#xac;" 
d="M368 47v136h-215v71h294v-207h-79z" />
    <glyph glyph-name="uni00AD" unicode="&#xad;" 
d="M152 247v70h296v-70h-296z" />
    <glyph glyph-name="registered" unicode="&#xae;" 
d="M207 259v293h86q55 0 85.5 -24t30.5 -67q0 -57 -56 -83q25 -20 38.5 -52.5t13.5 -66.5h-59q0 64 -44 107h-40v-107h-55zM300 156q-118 0 -177 70t-59 176q0 105 59.5 175.5t176.5 70.5q118 0 177 -70t59 -176q0 -105 -59.5 -175.5t-176.5 -70.5zM300 200q95 0 140 57
t45 145t-45 145t-140 57t-140 -57t-45 -145t45 -145t140 -57zM262 503v-91h29q60 0 60 45q0 46 -60 46h-29z" />
    <glyph glyph-name="macron" unicode="&#xaf;" 
d="M157 551v67h286v-67h-286z" />
    <glyph glyph-name="degree" unicode="&#xb0;" 
d="M300 256q-67 0 -113 45t-46 115t46 114.5t113 44.5t113 -44.5t46 -114.5t-46 -115t-113 -45zM300 314q41 0 67.5 28.5t26.5 73.5t-26.5 73t-67.5 28t-67.5 -28t-26.5 -73t26.5 -73.5t67.5 -28.5z" />
    <glyph glyph-name="plusminus" unicode="&#xb1;" 
d="M262 128v183h-184v70h184v183h77v-183h183v-70h-183v-183h-77zM78 0v70h444v-70h-444z" />
    <glyph glyph-name="twosuperior" unicode="&#xb2;" 
d="M198 269v19q0 70 64 107l41 24q50 30 50 62q0 45 -54 45q-58 0 -62 -56h-52q2 49 34 74t82 25q47 0 76.5 -23t29.5 -63q0 -30 -16 -51t-48 -42l-44 -28q-40 -25 -42 -48h156v-45h-215z" />
    <glyph glyph-name="threesuperior" unicode="&#xb3;" 
d="M303 264q-54 0 -85.5 25t-33.5 73h51q5 -55 66 -55t61 46q0 47 -65 47h-13v42h12q60 0 60 40q0 20 -15.5 32t-39.5 12q-58 0 -62 -54h-51q2 47 33.5 72t81.5 25q49 0 77.5 -23.5t28.5 -61.5q0 -44 -45 -63q52 -18 52 -72q0 -38 -32 -61.5t-81 -23.5z" />
    <glyph glyph-name="acute" unicode="&#xb4;" 
d="M214 494l77 194h96l-126 -194h-47z" />
    <glyph glyph-name="mu" unicode="&#xb5;" 
d="M122 -180v616h79v-369h71q76 0 114 45v324h79v-358q0 -13 5.5 -17.5t19.5 -4.5q21 0 48 6v-56q-37 -16 -76 -16q-64 0 -64 59v17q-13 -23 -47.5 -44.5t-91.5 -21.5h-58v-180h-79z" />
    <glyph glyph-name="paragraph" unicode="&#xb6;" 
d="M266 -180v389q-52 0 -97 16t-78 58t-33 103q0 90 63 134t146 44h71v-744h-72zM266 277v219q-131 0 -131 -110q0 -109 131 -109zM422 -180v744h72v-744h-72z" />
    <glyph glyph-name="periodcentered" unicode="&#xb7;" 
d="M239 225v123h122v-123h-122z" />
    <glyph glyph-name="cedilla" unicode="&#xb8;" 
d="M292 -190q-56 0 -82 18l11 41q26 -11 53 -11q39 0 39 23q0 26 -78 44l16 75h45l-9 -42q98 -28 98 -83q0 -29 -23.5 -47t-69.5 -18z" />
    <glyph glyph-name="onesuperior" unicode="&#xb9;" 
d="M202 269v45h77v191q-22 -24 -67 -24h-11v47h22q49 0 67 36h41v-250h66v-45h-195z" />
    <glyph glyph-name="ordmasculine" unicode="&#xba;" 
d="M300 231q-68 0 -115 40.5t-47 131.5t47.5 131.5t114.5 40.5q68 0 115 -40.5t47 -131.5t-47.5 -131.5t-114.5 -40.5zM300 291q91 0 91 112t-91 112t-91 -112t91 -112zM155 117v60h290v-60h-290z" />
    <glyph glyph-name="guillemotright" unicode="&#xbb;" 
d="M288 54l141 178l-141 178h78l150 -178l-150 -178h-78zM84 54l141 178l-141 178h78l150 -178l-150 -178h-78z" />
    <glyph glyph-name="onequarter" unicode="&#xbc;" 
d="M93 0l147 232h35v-35l-124 -197h-58zM325 332v36l124 196h58l-147 -232h-35zM52 269v45h77v191q-22 -24 -67 -24h-11v47h22q49 0 67 36h41v-250h66v-45h-195zM468 0v71h-154v35l157 189h45v-182h49v-42h-49v-71h-48zM371 113h97v116z" />
    <glyph glyph-name="onehalf" unicode="&#xbd;" 
d="M93 0l147 232h35v-35l-124 -197h-58zM325 332v36l124 196h58l-147 -232h-35zM52 269v45h77v191q-22 -24 -67 -24h-11v47h22q49 0 67 36h41v-250h66v-45h-195zM348 0v19q0 70 64 107l41 24q50 30 50 62q0 45 -54 45q-58 0 -62 -56h-52q2 49 34 74t82 25q47 0 76.5 -23
t29.5 -63q0 -30 -16 -51t-48 -42l-44 -28q-40 -25 -42 -48h156v-45h-215z" />
    <glyph glyph-name="threequarters" unicode="&#xbe;" 
d="M93 0l147 232h35v-35l-124 -197h-58zM325 332v36l124 196h58l-147 -232h-35zM153 264q-54 0 -85.5 25t-33.5 73h51q5 -55 66 -55t61 46q0 47 -65 47h-13v42h12q60 0 60 40q0 20 -15.5 32t-39.5 12q-58 0 -62 -54h-51q2 47 33.5 72t81.5 25q49 0 77.5 -23.5t28.5 -61.5
q0 -44 -45 -63q52 -18 52 -72q0 -38 -32 -61.5t-81 -23.5zM468 0v71h-154v35l157 189h45v-182h49v-42h-49v-71h-48zM371 113h97v116z" />
    <glyph glyph-name="questiondown" unicode="&#xbf;" 
d="M304 -139q-96 0 -148 42.5t-52 110.5q0 62 46.5 112t157.5 121l34 -40q-92 -70 -123.5 -108.5t-31.5 -77.5q0 -91 121 -91q119 0 119 93h79q0 -82 -56 -122t-146 -40zM251 323v113h114v-113h-114z" />
    <glyph glyph-name="Agrave" unicode="&#xc0;" 
d="M307 602l-126 194h96l77 -194h-47zM56 0l199 564h90l199 -564h-90l-45 134h-220l-45 -134h-88zM238 287l-29 -85h178l-29 85l-60 191z" />
    <glyph glyph-name="Aacute" unicode="&#xc1;" 
d="M246 602l77 194h96l-126 -194h-47zM56 0l199 564h90l199 -564h-90l-45 134h-220l-45 -134h-88zM238 287l-29 -85h178l-29 85l-60 191z" />
    <glyph glyph-name="Acircumflex" unicode="&#xc2;" 
d="M154 602l108 194h76l108 -194h-52l-94 118l-94 -118h-52zM56 0l199 564h90l199 -564h-90l-45 134h-220l-45 -134h-88zM238 287l-29 -85h178l-29 85l-60 191z" />
    <glyph glyph-name="Atilde" unicode="&#xc3;" 
d="M167 627l-38 18q15 48 44.5 84.5t68.5 36.5q31 0 71 -36q34 -30 51 -30q36 0 69 66l38 -18q-15 -48 -44.5 -84.5t-68.5 -36.5q-30 0 -66 32q-38 34 -56 34q-36 0 -69 -66zM56 0l199 564h90l199 -564h-90l-45 134h-220l-45 -134h-88zM238 287l-29 -85h178l-29 85l-60 191z
" />
    <glyph glyph-name="Adieresis" unicode="&#xc4;" 
d="M145 645v101h101v-101h-101zM354 645v101h101v-101h-101zM56 0l199 564h90l199 -564h-90l-45 134h-220l-45 -134h-88zM238 287l-29 -85h178l-29 85l-60 191z" />
    <glyph glyph-name="Aring" unicode="&#xc5;" 
d="M300 590q-55 0 -92 36.5t-37 89.5t37 89.5t92 36.5t92 -36.5t37 -89.5t-37 -89.5t-92 -36.5zM300 639q33 0 55 22t22 55t-22 55t-55 22t-55 -22t-22 -55t22 -55t55 -22zM56 0l199 564h90l199 -564h-90l-45 134h-220l-45 -134h-88zM238 287l-29 -85h178l-29 85l-60 191z
" />
    <glyph glyph-name="AE" unicode="&#xc6;" 
d="M28 0l96 564h437v-71h-193v-170h156v-71h-156v-181h193v-71h-276v252h-131l-41 -252h-85zM192 493l-26 -170h119v170h-93z" />
    <glyph glyph-name="Ccedilla" unicode="&#xc7;" 
d="M311 -190q-56 0 -82 18l11 41q26 -11 53 -11q39 0 39 23q0 26 -78 44l14 68q-95 13 -142.5 87t-47.5 200q0 143 60.5 219t174.5 76q39 0 73.5 -9.5t65 -30.5t49.5 -60.5t21 -93.5h-80q-12 122 -131 122q-45 0 -76 -18.5t-45.5 -52.5t-20 -69.5t-5.5 -82.5q0 -45 5 -78.5
t19.5 -67t45.5 -52.5t77 -20q121 -4 130 121h81q-3 -100 -62.5 -146t-146.5 -47l-7 -32q98 -28 98 -83q0 -29 -23.5 -47t-69.5 -18z" />
    <glyph glyph-name="Egrave" unicode="&#xc8;" 
d="M315 602l-126 194h96l77 -194h-47zM122 0v564h367v-71h-284v-170h247v-71h-247v-181h284v-71h-367z" />
    <glyph glyph-name="Eacute" unicode="&#xc9;" 
d="M254 602l77 194h96l-126 -194h-47zM122 0v564h367v-71h-284v-170h247v-71h-247v-181h284v-71h-367z" />
    <glyph glyph-name="Ecircumflex" unicode="&#xca;" 
d="M162 602l108 194h76l108 -194h-52l-94 118l-94 -118h-52zM122 0v564h367v-71h-284v-170h247v-71h-247v-181h284v-71h-367z" />
    <glyph glyph-name="Edieresis" unicode="&#xcb;" 
d="M153 645v101h101v-101h-101zM362 645v101h101v-101h-101zM122 0v564h367v-71h-284v-170h247v-71h-247v-181h284v-71h-367z" />
    <glyph glyph-name="Igrave" unicode="&#xcc;" 
d="M307 602l-126 194h96l77 -194h-47zM121 0v71h138v422h-138v71h358v-71h-137v-422h137v-71h-358z" />
    <glyph glyph-name="Iacute" unicode="&#xcd;" 
d="M246 602l77 194h96l-126 -194h-47zM121 0v71h138v422h-138v71h358v-71h-137v-422h137v-71h-358z" />
    <glyph glyph-name="Icircumflex" unicode="&#xce;" 
d="M154 602l108 194h76l108 -194h-52l-94 118l-94 -118h-52zM121 0v71h138v422h-138v71h358v-71h-137v-422h137v-71h-358z" />
    <glyph glyph-name="Idieresis" unicode="&#xcf;" 
d="M145 645v101h101v-101h-101zM354 645v101h101v-101h-101zM121 0v71h138v422h-138v71h358v-71h-137v-422h137v-71h-358z" />
    <glyph glyph-name="Eth" unicode="&#xd0;" 
d="M122 0v253h-49v71h49v240h165q130 0 182.5 -72.5t52.5 -205.5q0 -136 -53.5 -211t-181.5 -75h-165zM205 253v-182h82q40 0 68.5 14t43.5 34t24 50.5t11 55t2 57.5q0 42 -4.5 72.5t-18 65.5t-45.5 54t-81 19h-82v-169h112v-71h-112z" />
    <glyph glyph-name="Ntilde" unicode="&#xd1;" 
d="M167 627l-38 18q15 48 44.5 84.5t68.5 36.5q31 0 71 -36q34 -30 51 -30q36 0 69 66l38 -18q-15 -48 -44.5 -84.5t-68.5 -36.5q-30 0 -66 32q-38 34 -56 34q-36 0 -69 -66zM123 0v564h111l177 -483l-9 162v321h75v-564h-111l-177 483l9 -162v-321h-75z" />
    <glyph glyph-name="Ograve" unicode="&#xd2;" 
d="M307 602l-126 194h96l77 -194h-47zM298 -10q-111 0 -165.5 75.5t-54.5 213.5q0 141 56 218.5t168 77.5q111 0 165.5 -75.5t54.5 -214.5q0 -141 -56 -218t-168 -77zM300 62q44 0 73 20t42 56t17 68.5t4 75.5t-4 75.5t-17 69t-42 56.5t-73 20t-73 -20t-42 -56.5t-17 -69
t-4 -75.5t4 -75.5t17 -68.5t42 -56t73 -20z" />
    <glyph glyph-name="Oacute" unicode="&#xd3;" 
d="M246 602l77 194h96l-126 -194h-47zM298 -10q-111 0 -165.5 75.5t-54.5 213.5q0 141 56 218.5t168 77.5q111 0 165.5 -75.5t54.5 -214.5q0 -141 -56 -218t-168 -77zM300 62q44 0 73 20t42 56t17 68.5t4 75.5t-4 75.5t-17 69t-42 56.5t-73 20t-73 -20t-42 -56.5t-17 -69
t-4 -75.5t4 -75.5t17 -68.5t42 -56t73 -20z" />
    <glyph glyph-name="Ocircumflex" unicode="&#xd4;" 
d="M154 602l108 194h76l108 -194h-52l-94 118l-94 -118h-52zM298 -10q-111 0 -165.5 75.5t-54.5 213.5q0 141 56 218.5t168 77.5q111 0 165.5 -75.5t54.5 -214.5q0 -141 -56 -218t-168 -77zM300 62q44 0 73 20t42 56t17 68.5t4 75.5t-4 75.5t-17 69t-42 56.5t-73 20t-73 -20
t-42 -56.5t-17 -69t-4 -75.5t4 -75.5t17 -68.5t42 -56t73 -20z" />
    <glyph glyph-name="Otilde" unicode="&#xd5;" 
d="M167 627l-38 18q15 48 44.5 84.5t68.5 36.5q31 0 71 -36q34 -30 51 -30q36 0 69 66l38 -18q-15 -48 -44.5 -84.5t-68.5 -36.5q-30 0 -66 32q-38 34 -56 34q-36 0 -69 -66zM298 -10q-111 0 -165.5 75.5t-54.5 213.5q0 141 56 218.5t168 77.5q111 0 165.5 -75.5
t54.5 -214.5q0 -141 -56 -218t-168 -77zM300 62q44 0 73 20t42 56t17 68.5t4 75.5t-4 75.5t-17 69t-42 56.5t-73 20t-73 -20t-42 -56.5t-17 -69t-4 -75.5t4 -75.5t17 -68.5t42 -56t73 -20z" />
    <glyph glyph-name="Odieresis" unicode="&#xd6;" 
d="M145 645v101h101v-101h-101zM354 645v101h101v-101h-101zM298 -10q-111 0 -165.5 75.5t-54.5 213.5q0 141 56 218.5t168 77.5q111 0 165.5 -75.5t54.5 -214.5q0 -141 -56 -218t-168 -77zM300 62q44 0 73 20t42 56t17 68.5t4 75.5t-4 75.5t-17 69t-42 56.5t-73 20t-73 -20
t-42 -56.5t-17 -69t-4 -75.5t4 -75.5t17 -68.5t42 -56t73 -20z" />
    <glyph glyph-name="multiply" unicode="&#xd7;" 
d="M122 -10l-50 50l177 178l-177 178l51 50l177 -177l177 177l50 -51l-177 -177l178 -178l-51 -50l-177 177z" />
    <glyph glyph-name="Oslash" unicode="&#xd8;" 
d="M298 -10q-104 0 -160 68l-51 -58h-76l97 109q-30 67 -30 170q0 141 56 218.5t168 77.5q104 0 159 -69l52 58h76l-97 -109q30 -67 30 -170q0 -141 -56 -218t-168 -77zM300 62q44 0 73 20t42 56t17 68.5t4 75.5q0 57 -8 101l-234 -263q33 -58 106 -58zM172 181l234 263
q-34 59 -106 59q-44 0 -73 -20t-42 -56.5t-17 -69t-4 -75.5q0 -63 8 -101z" />
    <glyph glyph-name="Ugrave" unicode="&#xd9;" 
d="M307 602l-126 194h96l77 -194h-47zM300 -10q-99 0 -146 50t-47 159v365h83v-365q0 -75 25 -105.5t85 -30.5t85 30.5t25 105.5v365h83v-365q0 -109 -47 -159t-146 -50z" />
    <glyph glyph-name="Uacute" unicode="&#xda;" 
d="M246 602l77 194h96l-126 -194h-47zM300 -10q-99 0 -146 50t-47 159v365h83v-365q0 -75 25 -105.5t85 -30.5t85 30.5t25 105.5v365h83v-365q0 -109 -47 -159t-146 -50z" />
    <glyph glyph-name="Ucircumflex" unicode="&#xdb;" 
d="M154 602l108 194h76l108 -194h-52l-94 118l-94 -118h-52zM300 -10q-99 0 -146 50t-47 159v365h83v-365q0 -75 25 -105.5t85 -30.5t85 30.5t25 105.5v365h83v-365q0 -109 -47 -159t-146 -50z" />
    <glyph glyph-name="Udieresis" unicode="&#xdc;" 
d="M145 645v101h101v-101h-101zM354 645v101h101v-101h-101zM300 -10q-99 0 -146 50t-47 159v365h83v-365q0 -75 25 -105.5t85 -30.5t85 30.5t25 105.5v365h83v-365q0 -109 -47 -159t-146 -50z" />
    <glyph glyph-name="Yacute" unicode="&#xdd;" 
d="M246 602l77 194h96l-126 -194h-47zM259 0v225l-220 339h96l83 -132l83 -142l84 142l83 132h93l-219 -339v-225h-83z" />
    <glyph glyph-name="Thorn" unicode="&#xde;" 
d="M122 0v564h83v-105h82q109 0 171.5 -44.5t62.5 -133.5q0 -88 -62.5 -132.5t-171.5 -44.5h-82v-104h-83zM205 388v-213h82q148 0 148 106q0 107 -148 107h-82z" />
    <glyph glyph-name="germandbls" unicode="&#xdf;" 
d="M364 -10q-62 0 -99 22v68q41 -25 92 -25q77 0 77 62q0 46 -45.5 82t-123.5 69v50q72 22 110 64t38 98q0 48 -27.5 74.5t-80.5 26.5q-57 0 -84 -35t-27 -109v-437h-79v433q0 106 49.5 160.5t143.5 54.5q88 0 135.5 -45.5t47.5 -117.5t-42.5 -119.5t-96.5 -71.5
q33 -17 56.5 -32t50 -37.5t41 -51.5t14.5 -62q0 -58 -42.5 -89.5t-107.5 -31.5z" />
    <glyph glyph-name="agrave" unicode="&#xe0;" 
d="M306 494l-126 194h96l77 -194h-47zM238 -10q-67 0 -108.5 30.5t-41.5 92.5q0 126 173 126q72 0 125 -17v38q0 60 -19.5 90t-83.5 30q-109 0 -109 -91h-76q0 45 17 77t46 48.5t60.5 24t67.5 7.5q176 0 176 -170v-198q0 -13 5.5 -18t18.5 -5q21 0 49 7v-56q-37 -16 -76 -16
q-65 0 -65 59v8q-51 -67 -159 -67zM251 57q78 0 135 41v68q-44 11 -110 11q-54 0 -81.5 -14t-27.5 -48q0 -58 84 -58z" />
    <glyph glyph-name="aacute" unicode="&#xe1;" 
d="M245 494l77 194h96l-126 -194h-47zM238 -10q-67 0 -108.5 30.5t-41.5 92.5q0 126 173 126q72 0 125 -17v38q0 60 -19.5 90t-83.5 30q-109 0 -109 -91h-76q0 45 17 77t46 48.5t60.5 24t67.5 7.5q176 0 176 -170v-198q0 -13 5.5 -18t18.5 -5q21 0 49 7v-56q-37 -16 -76 -16
q-65 0 -65 59v8q-51 -67 -159 -67zM251 57q78 0 135 41v68q-44 11 -110 11q-54 0 -81.5 -14t-27.5 -48q0 -58 84 -58z" />
    <glyph glyph-name="acircumflex" unicode="&#xe2;" 
d="M153 494l108 194h76l108 -194h-52l-94 118l-94 -118h-52zM238 -10q-67 0 -108.5 30.5t-41.5 92.5q0 126 173 126q72 0 125 -17v38q0 60 -19.5 90t-83.5 30q-109 0 -109 -91h-76q0 45 17 77t46 48.5t60.5 24t67.5 7.5q176 0 176 -170v-198q0 -13 5.5 -18t18.5 -5
q21 0 49 7v-56q-37 -16 -76 -16q-65 0 -65 59v8q-51 -67 -159 -67zM251 57q78 0 135 41v68q-44 11 -110 11q-54 0 -81.5 -14t-27.5 -48q0 -58 84 -58z" />
    <glyph glyph-name="atilde" unicode="&#xe3;" 
d="M166 519l-38 18q15 48 44.5 84.5t68.5 36.5q31 0 71 -36q34 -30 51 -30q36 0 69 66l38 -18q-15 -48 -44.5 -84.5t-68.5 -36.5q-30 0 -66 32q-38 34 -56 34q-36 0 -69 -66zM238 -10q-67 0 -108.5 30.5t-41.5 92.5q0 126 173 126q72 0 125 -17v38q0 60 -19.5 90t-83.5 30
q-109 0 -109 -91h-76q0 45 17 77t46 48.5t60.5 24t67.5 7.5q176 0 176 -170v-198q0 -13 5.5 -18t18.5 -5q21 0 49 7v-56q-37 -16 -76 -16q-65 0 -65 59v8q-51 -67 -159 -67zM251 57q78 0 135 41v68q-44 11 -110 11q-54 0 -81.5 -14t-27.5 -48q0 -58 84 -58z" />
    <glyph glyph-name="adieresis" unicode="&#xe4;" 
d="M144 537v101h101v-101h-101zM353 537v101h101v-101h-101zM238 -10q-67 0 -108.5 30.5t-41.5 92.5q0 126 173 126q72 0 125 -17v38q0 60 -19.5 90t-83.5 30q-109 0 -109 -91h-76q0 45 17 77t46 48.5t60.5 24t67.5 7.5q176 0 176 -170v-198q0 -13 5.5 -18t18.5 -5
q21 0 49 7v-56q-37 -16 -76 -16q-65 0 -65 59v8q-51 -67 -159 -67zM251 57q78 0 135 41v68q-44 11 -110 11q-54 0 -81.5 -14t-27.5 -48q0 -58 84 -58z" />
    <glyph glyph-name="aring" unicode="&#xe5;" 
d="M299 482q-55 0 -92 36.5t-37 89.5t37 89.5t92 36.5t92 -36.5t37 -89.5t-37 -89.5t-92 -36.5zM299 531q33 0 55 22t22 55t-22 55t-55 22t-55 -22t-22 -55t22 -55t55 -22zM238 -10q-67 0 -108.5 30.5t-41.5 92.5q0 126 173 126q72 0 125 -17v38q0 60 -19.5 90t-83.5 30
q-109 0 -109 -91h-76q0 45 17 77t46 48.5t60.5 24t67.5 7.5q176 0 176 -170v-198q0 -13 5.5 -18t18.5 -5q21 0 49 7v-56q-37 -16 -76 -16q-65 0 -65 59v8q-51 -67 -159 -67zM251 57q78 0 135 41v68q-44 11 -110 11q-54 0 -81.5 -14t-27.5 -48q0 -58 84 -58z" />
    <glyph glyph-name="ae" unicode="&#xe6;" 
d="M166 -10q-62 0 -99.5 33.5t-37.5 93.5q0 64 41.5 91.5t100.5 27.5q45 0 94 -14v51q0 49 -20.5 78t-61.5 29q-36 0 -54 -24t-18 -63h-69q0 68 38.5 110.5t104.5 42.5q18 0 34.5 -3.5t28 -10t20.5 -13t15.5 -14.5t10.5 -14t7 -11l3 -6q42 72 119 72q70 0 109 -59t39 -170
v-7h-236q3 -158 90 -158q36 0 55 25t20 63h70q-3 -66 -41 -108t-103 -42q-79 0 -123 64q-52 -64 -137 -64zM179 51q55 0 105 39q-14 34 -19 83q-44 7 -75 7q-87 0 -87 -62q0 -33 20.5 -50t55.5 -17zM336 264h164q-9 120 -81 120t-83 -120z" />
    <glyph glyph-name="ccedilla" unicode="&#xe7;" 
d="M314 -190q-56 0 -82 18l11 41q26 -11 53 -11q39 0 39 23q0 26 -78 44l14 67q-80 9 -131.5 62.5t-51.5 163.5q0 65 19.5 111.5t53 71t69.5 35t76 10.5q34 0 65 -7.5t60.5 -25t48 -51.5t21.5 -80h-79q-10 95 -114 95q-139 0 -139 -159t139 -159q104 0 114 95h79
q-5 -84 -59.5 -122.5t-125.5 -41.5l-7 -32q98 -28 98 -83q0 -29 -23.5 -47t-69.5 -18z" />
    <glyph glyph-name="egrave" unicode="&#xe8;" 
d="M306 494l-126 194h96l77 -194h-47zM305 -10q-95 0 -156 55.5t-61 171.5q0 62 18.5 108.5t50 71.5t67.5 37t76 12t75.5 -11.5t67.5 -36.5t51 -71t19 -109v-16h-346q6 -147 140 -147q52 0 85 22t40 63h80q-6 -41 -27.5 -72t-52 -47t-62 -23.5t-65.5 -7.5zM168 262h264
q-7 58 -42 89t-90 31t-90 -31t-42 -89z" />
    <glyph glyph-name="eacute" unicode="&#xe9;" 
d="M245 494l77 194h96l-126 -194h-47zM305 -10q-95 0 -156 55.5t-61 171.5q0 62 18.5 108.5t50 71.5t67.5 37t76 12t75.5 -11.5t67.5 -36.5t51 -71t19 -109v-16h-346q6 -147 140 -147q52 0 85 22t40 63h80q-6 -41 -27.5 -72t-52 -47t-62 -23.5t-65.5 -7.5zM168 262h264
q-7 58 -42 89t-90 31t-90 -31t-42 -89z" />
    <glyph glyph-name="ecircumflex" unicode="&#xea;" 
d="M153 494l108 194h76l108 -194h-52l-94 118l-94 -118h-52zM305 -10q-95 0 -156 55.5t-61 171.5q0 62 18.5 108.5t50 71.5t67.5 37t76 12t75.5 -11.5t67.5 -36.5t51 -71t19 -109v-16h-346q6 -147 140 -147q52 0 85 22t40 63h80q-6 -41 -27.5 -72t-52 -47t-62 -23.5
t-65.5 -7.5zM168 262h264q-7 58 -42 89t-90 31t-90 -31t-42 -89z" />
    <glyph glyph-name="edieresis" unicode="&#xeb;" 
d="M144 537v101h101v-101h-101zM353 537v101h101v-101h-101zM305 -10q-95 0 -156 55.5t-61 171.5q0 62 18.5 108.5t50 71.5t67.5 37t76 12t75.5 -11.5t67.5 -36.5t51 -71t19 -109v-16h-346q6 -147 140 -147q52 0 85 22t40 63h80q-6 -41 -27.5 -72t-52 -47t-62 -23.5
t-65.5 -7.5zM168 262h264q-7 58 -42 89t-90 31t-90 -31t-42 -89z" />
    <glyph glyph-name="igrave" unicode="&#xec;" 
d="M312 511l-126 194h96l77 -194h-47zM110 0v67h158v302h-158v67h237v-369h144v-67h-381z" />
    <glyph glyph-name="iacute" unicode="&#xed;" 
d="M251 511l77 194h96l-126 -194h-47zM110 0v67h158v302h-158v67h237v-369h144v-67h-381z" />
    <glyph glyph-name="icircumflex" unicode="&#xee;" 
d="M159 511l108 194h76l108 -194h-52l-94 118l-94 -118h-52zM110 0v67h158v302h-158v67h237v-369h144v-67h-381z" />
    <glyph glyph-name="idieresis" unicode="&#xef;" 
d="M150 554v101h101v-101h-101zM359 554v101h101v-101h-101zM110 0v67h158v302h-158v67h237v-369h144v-67h-381z" />
    <glyph glyph-name="eth" unicode="&#xf0;" 
d="M298 -10q-87 0 -148.5 52.5t-61.5 155.5q0 102 59.5 158t139.5 56q58 0 88 -22l-51 102l-109 -26v68l79 19l-41 85h83l32 -67l107 27v-69l-78 -19l70 -143q45 -94 45 -174q0 -98 -63 -150.5t-151 -52.5zM300 57q66 0 100 40t34 104t-34 104t-100 40t-100 -40t-34 -104
t34 -104t100 -40z" />
    <glyph glyph-name="ntilde" unicode="&#xf1;" 
d="M167 519l-38 18q15 48 44.5 84.5t68.5 36.5q31 0 71 -36q34 -30 51 -30q36 0 69 66l38 -18q-15 -48 -44.5 -84.5t-68.5 -36.5q-30 0 -66 32q-38 34 -56 34q-36 0 -69 -66zM122 0v436h66v-58q46 68 143 68q147 0 147 -178v-268h-79v251q0 67 -18.5 98t-72.5 31
q-69 0 -107 -46v-334h-79z" />
    <glyph glyph-name="ograve" unicode="&#xf2;" 
d="M307 494l-126 194h96l77 -194h-47zM298 -10q-40 0 -75.5 11.5t-67 36.5t-49.5 71t-18 108q0 64 19 110.5t51 71t68 36t76 11.5t75.5 -11t66.5 -35.5t49.5 -70.5t18.5 -109q0 -64 -19 -111t-51.5 -71.5t-68 -36t-75.5 -11.5zM300 56q133 0 133 162t-133 162t-133 -162
t133 -162z" />
    <glyph glyph-name="oacute" unicode="&#xf3;" 
d="M246 494l77 194h96l-126 -194h-47zM298 -10q-40 0 -75.5 11.5t-67 36.5t-49.5 71t-18 108q0 64 19 110.5t51 71t68 36t76 11.5t75.5 -11t66.5 -35.5t49.5 -70.5t18.5 -109q0 -64 -19 -111t-51.5 -71.5t-68 -36t-75.5 -11.5zM300 56q133 0 133 162t-133 162t-133 -162
t133 -162z" />
    <glyph glyph-name="ocircumflex" unicode="&#xf4;" 
d="M154 494l108 194h76l108 -194h-52l-94 118l-94 -118h-52zM298 -10q-40 0 -75.5 11.5t-67 36.5t-49.5 71t-18 108q0 64 19 110.5t51 71t68 36t76 11.5t75.5 -11t66.5 -35.5t49.5 -70.5t18.5 -109q0 -64 -19 -111t-51.5 -71.5t-68 -36t-75.5 -11.5zM300 56q133 0 133 162
t-133 162t-133 -162t133 -162z" />
    <glyph glyph-name="otilde" unicode="&#xf5;" 
d="M167 519l-38 18q15 48 44.5 84.5t68.5 36.5q31 0 71 -36q34 -30 51 -30q36 0 69 66l38 -18q-15 -48 -44.5 -84.5t-68.5 -36.5q-30 0 -66 32q-38 34 -56 34q-36 0 -69 -66zM298 -10q-40 0 -75.5 11.5t-67 36.5t-49.5 71t-18 108q0 64 19 110.5t51 71t68 36t76 11.5
t75.5 -11t66.5 -35.5t49.5 -70.5t18.5 -109q0 -64 -19 -111t-51.5 -71.5t-68 -36t-75.5 -11.5zM300 56q133 0 133 162t-133 162t-133 -162t133 -162z" />
    <glyph glyph-name="odieresis" unicode="&#xf6;" 
d="M145 537v101h101v-101h-101zM354 537v101h101v-101h-101zM298 -10q-40 0 -75.5 11.5t-67 36.5t-49.5 71t-18 108q0 64 19 110.5t51 71t68 36t76 11.5t75.5 -11t66.5 -35.5t49.5 -70.5t18.5 -109q0 -64 -19 -111t-51.5 -71.5t-68 -36t-75.5 -11.5zM300 56q133 0 133 162
t-133 162t-133 -162t133 -162z" />
    <glyph glyph-name="divide" unicode="&#xf7;" 
d="M246 0v103h108v-103h-108zM116 198v58h368v-58h-368zM246 351v103h108v-103h-108z" />
    <glyph glyph-name="oslash" unicode="&#xf8;" 
d="M298 -10q-93 0 -149 53l-46 -43h-77l91 85q-29 53 -29 132q0 64 19 110.5t51 71t68 36t76 11.5q93 0 149 -53l46 43h77l-92 -85q30 -52 30 -131q0 -64 -19 -111t-51.5 -71.5t-68 -36t-75.5 -11.5zM300 57q132 0 132 161q0 42 -11 77l-217 -201q34 -37 96 -37zM178 141
l217 201q-33 37 -95 37q-132 0 -132 -161q0 -46 10 -77z" />
    <glyph glyph-name="ugrave" unicode="&#xf9;" 
d="M307 494l-126 194h96l77 -194h-47zM269 -10q-147 0 -147 178v268h79v-251q0 -67 18.5 -98t72.5 -31q69 0 107 46v334h79v-436h-66v58q-46 -68 -143 -68z" />
    <glyph glyph-name="uacute" unicode="&#xfa;" 
d="M246 494l77 194h96l-126 -194h-47zM269 -10q-147 0 -147 178v268h79v-251q0 -67 18.5 -98t72.5 -31q69 0 107 46v334h79v-436h-66v58q-46 -68 -143 -68z" />
    <glyph glyph-name="ucircumflex" unicode="&#xfb;" 
d="M154 494l108 194h76l108 -194h-52l-94 118l-94 -118h-52zM269 -10q-147 0 -147 178v268h79v-251q0 -67 18.5 -98t72.5 -31q69 0 107 46v334h79v-436h-66v58q-46 -68 -143 -68z" />
    <glyph glyph-name="udieresis" unicode="&#xfc;" 
d="M145 537v101h101v-101h-101zM354 537v101h101v-101h-101zM269 -10q-147 0 -147 178v268h79v-251q0 -67 18.5 -98t72.5 -31q69 0 107 46v334h79v-436h-66v58q-46 -68 -143 -68z" />
    <glyph glyph-name="yacute" unicode="&#xfd;" 
d="M246 494l77 194h96l-126 -194h-47zM83 -185v67q68 0 108 26t67 86l-191 442h86l94 -233l54 -140l54 138l96 235h82l-185 -429q-46 -107 -104 -149.5t-161 -42.5z" />
    <glyph glyph-name="thorn" unicode="&#xfe;" 
d="M122 -180v818h79v-246q17 20 51 37t78 17q77 0 129.5 -56t52.5 -172q0 -113 -52 -170.5t-130 -57.5q-44 0 -78 17t-51 37v-224h-79zM309 56q62 0 92.5 43.5t30.5 118.5t-30.5 118.5t-92.5 43.5q-64 0 -108 -44v-236q44 -44 108 -44z" />
    <glyph glyph-name="ydieresis" unicode="&#xff;" 
d="M145 537v101h101v-101h-101zM354 537v101h101v-101h-101zM83 -185v67q68 0 108 26t67 86l-191 442h86l94 -233l54 -140l54 138l96 235h82l-185 -429q-46 -107 -104 -149.5t-161 -42.5z" />
    <glyph glyph-name="Amacron" unicode="&#x100;" 
d="M157 659v67h286v-67h-286zM56 0l199 564h90l199 -564h-90l-45 134h-220l-45 -134h-88zM238 287l-29 -85h178l-29 85l-60 191z" />
    <glyph glyph-name="amacron" unicode="&#x101;" 
d="M156 551v67h286v-67h-286zM238 -10q-67 0 -108.5 30.5t-41.5 92.5q0 126 173 126q72 0 125 -17v38q0 60 -19.5 90t-83.5 30q-109 0 -109 -91h-76q0 45 17 77t46 48.5t60.5 24t67.5 7.5q176 0 176 -170v-198q0 -13 5.5 -18t18.5 -5q21 0 49 7v-56q-37 -16 -76 -16
q-65 0 -65 59v8q-51 -67 -159 -67zM251 57q78 0 135 41v68q-44 11 -110 11q-54 0 -81.5 -14t-27.5 -48q0 -58 84 -58z" />
    <glyph glyph-name="Abreve" unicode="&#x102;" 
d="M300 632q-65 0 -107 40t-56 82l34 23q49 -75 129 -75t129 75l34 -23q-14 -42 -56 -82t-107 -40zM56 0l199 564h90l199 -564h-90l-45 134h-220l-45 -134h-88zM238 287l-29 -85h178l-29 85l-60 191z" />
    <glyph glyph-name="abreve" unicode="&#x103;" 
d="M299 524q-65 0 -107 40t-56 82l34 23q49 -75 129 -75t129 75l34 -23q-14 -42 -56 -82t-107 -40zM238 -10q-67 0 -108.5 30.5t-41.5 92.5q0 126 173 126q72 0 125 -17v38q0 60 -19.5 90t-83.5 30q-109 0 -109 -91h-76q0 45 17 77t46 48.5t60.5 24t67.5 7.5q176 0 176 -170
v-198q0 -13 5.5 -18t18.5 -5q21 0 49 7v-56q-37 -16 -76 -16q-65 0 -65 59v8q-51 -67 -159 -67zM251 57q78 0 135 41v68q-44 11 -110 11q-54 0 -81.5 -14t-27.5 -48q0 -58 84 -58z" />
    <glyph glyph-name="Aogonek" unicode="&#x104;" 
d="M459 -190q-43 0 -68 17.5t-25 47.5q0 33 30 59.5t96 65.5h-38l-45 134h-220l-45 -134h-88l199 564h90l199 -564q-58 -45 -80.5 -68.5t-22.5 -43.5q0 -28 38 -28q32 0 56 11l9 -42q-33 -19 -85 -19zM238 287l-29 -85h178l-29 85l-60 191z" />
    <glyph glyph-name="aogonek" unicode="&#x105;" 
d="M453 -190q-43 0 -68 17.5t-25 47.5q0 53 101 115q-64 0 -64 59v8q-51 -67 -159 -67q-67 0 -108.5 30.5t-41.5 92.5q0 126 173 126q72 0 125 -17v38q0 60 -19.5 90t-83.5 30q-109 0 -109 -91h-76q0 45 17 77t46 48.5t60.5 24t67.5 7.5q176 0 176 -170v-198q0 -13 5.5 -18
t18.5 -5q21 0 49 7v-56q-102 -80 -102 -118q0 -28 38 -28q31 0 55 11l10 -42q-36 -19 -86 -19zM251 57q78 0 135 41v68q-44 11 -110 11q-54 0 -81.5 -14t-27.5 -48q0 -58 84 -58z" />
    <glyph glyph-name="Cacute" unicode="&#x106;" 
d="M245 602l77 194h96l-126 -194h-47zM310 -10q-116 0 -174 75t-58 215q0 143 60.5 219t174.5 76q39 0 73.5 -9.5t65 -30.5t49.5 -60.5t21 -93.5h-80q-12 122 -131 122q-45 0 -76 -18.5t-45.5 -52.5t-20 -69.5t-5.5 -82.5q0 -44 5.5 -78.5t20 -68.5t45.5 -52.5t76 -18.5
q63 0 94 29t36 92h81q-2 -69 -34.5 -114t-77 -62t-100.5 -17z" />
    <glyph glyph-name="cacute" unicode="&#x107;" 
d="M248 494l77 194h96l-126 -194h-47zM306 -10q-42 0 -78 11t-69 35.5t-52 71t-19 110.5q0 65 19.5 111.5t53 71t69.5 35t76 10.5q34 0 65 -7.5t60.5 -25t48 -51.5t21.5 -80h-79q-10 95 -114 95q-139 0 -139 -159t139 -159q104 0 114 95h79q-3 -46 -22 -79.5t-48.5 -51
t-60.5 -25.5t-64 -8z" />
    <glyph glyph-name="Ccircumflex" unicode="&#x108;" 
d="M153 602l108 194h76l108 -194h-52l-94 118l-94 -118h-52zM310 -10q-116 0 -174 75t-58 215q0 143 60.5 219t174.5 76q39 0 73.5 -9.5t65 -30.5t49.5 -60.5t21 -93.5h-80q-12 122 -131 122q-45 0 -76 -18.5t-45.5 -52.5t-20 -69.5t-5.5 -82.5q0 -44 5.5 -78.5t20 -68.5
t45.5 -52.5t76 -18.5q63 0 94 29t36 92h81q-2 -69 -34.5 -114t-77 -62t-100.5 -17z" />
    <glyph glyph-name="ccircumflex" unicode="&#x109;" 
d="M156 494l108 194h76l108 -194h-52l-94 118l-94 -118h-52zM306 -10q-42 0 -78 11t-69 35.5t-52 71t-19 110.5q0 65 19.5 111.5t53 71t69.5 35t76 10.5q34 0 65 -7.5t60.5 -25t48 -51.5t21.5 -80h-79q-10 95 -114 95q-139 0 -139 -159t139 -159q104 0 114 95h79
q-3 -46 -22 -79.5t-48.5 -51t-60.5 -25.5t-64 -8z" />
    <glyph glyph-name="Cdotaccent" unicode="&#x10a;" 
d="M248 642v102h102v-102h-102zM310 -10q-116 0 -174 75t-58 215q0 143 60.5 219t174.5 76q39 0 73.5 -9.5t65 -30.5t49.5 -60.5t21 -93.5h-80q-12 122 -131 122q-45 0 -76 -18.5t-45.5 -52.5t-20 -69.5t-5.5 -82.5q0 -44 5.5 -78.5t20 -68.5t45.5 -52.5t76 -18.5
q63 0 94 29t36 92h81q-2 -69 -34.5 -114t-77 -62t-100.5 -17z" />
    <glyph glyph-name="cdotaccent" unicode="&#x10b;" 
d="M251 534v102h102v-102h-102zM306 -10q-42 0 -78 11t-69 35.5t-52 71t-19 110.5q0 65 19.5 111.5t53 71t69.5 35t76 10.5q34 0 65 -7.5t60.5 -25t48 -51.5t21.5 -80h-79q-10 95 -114 95q-139 0 -139 -159t139 -159q104 0 114 95h79q-3 -46 -22 -79.5t-48.5 -51
t-60.5 -25.5t-64 -8z" />
    <glyph glyph-name="Ccaron" unicode="&#x10c;" 
d="M261 602l-108 194h52l94 -118l94 118h52l-108 -194h-76zM310 -10q-116 0 -174 75t-58 215q0 143 60.5 219t174.5 76q39 0 73.5 -9.5t65 -30.5t49.5 -60.5t21 -93.5h-80q-12 122 -131 122q-45 0 -76 -18.5t-45.5 -52.5t-20 -69.5t-5.5 -82.5q0 -44 5.5 -78.5t20 -68.5
t45.5 -52.5t76 -18.5q63 0 94 29t36 92h81q-2 -69 -34.5 -114t-77 -62t-100.5 -17z" />
    <glyph glyph-name="ccaron" unicode="&#x10d;" 
d="M264 494l-108 194h52l94 -118l94 118h52l-108 -194h-76zM306 -10q-42 0 -78 11t-69 35.5t-52 71t-19 110.5q0 65 19.5 111.5t53 71t69.5 35t76 10.5q34 0 65 -7.5t60.5 -25t48 -51.5t21.5 -80h-79q-10 95 -114 95q-139 0 -139 -159t139 -159q104 0 114 95h79
q-3 -46 -22 -79.5t-48.5 -51t-60.5 -25.5t-64 -8z" />
    <glyph glyph-name="Dcaron" unicode="&#x10e;" 
d="M262 602l-108 194h52l94 -118l94 118h52l-108 -194h-76zM122 0v564h165q130 0 182.5 -72.5t52.5 -205.5q0 -136 -53.5 -211t-181.5 -75h-165zM205 493v-422h82q40 0 68.5 14t43.5 34t24 50.5t11 55t2 57.5q0 42 -4.5 72.5t-18 65.5t-45.5 54t-81 19h-82z" />
    <glyph glyph-name="dcaron" unicode="&#x10f;" 
d="M266 -10q-76 0 -127 56t-51 172q0 113 51 170.5t127 57.5q43 0 76 -17t49 -37v246h79v-638h-66v56q-48 -66 -138 -66zM288 56q61 0 103 44v236q-42 44 -103 44q-60 0 -89.5 -43.5t-29.5 -118.5t29.5 -118.5t89.5 -43.5zM546 440q-25 0 -25 24q0 4 3 25l23 149h95
l-74 -183q-5 -15 -22 -15z" />
    <glyph glyph-name="Dcroat" unicode="&#x110;" 
d="M122 0v253h-49v71h49v240h165q130 0 182.5 -72.5t52.5 -205.5q0 -136 -53.5 -211t-181.5 -75h-165zM205 253v-182h82q40 0 68.5 14t43.5 34t24 50.5t11 55t2 57.5q0 42 -4.5 72.5t-18 65.5t-45.5 54t-81 19h-82v-169h112v-71h-112z" />
    <glyph glyph-name="dcroat" unicode="&#x111;" 
d="M270 -10q-77 0 -129.5 56t-52.5 172q0 113 52 170.5t130 57.5q44 0 78 -17t51 -37v108h-126v65h126v73h79v-73h40v-65h-40v-500h-66v56q-51 -66 -142 -66zM291 56q64 0 108 44v236q-44 44 -108 44q-62 0 -92.5 -43.5t-30.5 -118.5t30.5 -118.5t92.5 -43.5z" />
    <glyph glyph-name="Emacron" unicode="&#x112;" 
d="M165 659v67h286v-67h-286zM122 0v564h367v-71h-284v-170h247v-71h-247v-181h284v-71h-367z" />
    <glyph glyph-name="emacron" unicode="&#x113;" 
d="M156 551v67h286v-67h-286zM305 -10q-95 0 -156 55.5t-61 171.5q0 62 18.5 108.5t50 71.5t67.5 37t76 12t75.5 -11.5t67.5 -36.5t51 -71t19 -109v-16h-346q6 -147 140 -147q52 0 85 22t40 63h80q-6 -41 -27.5 -72t-52 -47t-62 -23.5t-65.5 -7.5zM168 262h264q-7 58 -42 89
t-90 31t-90 -31t-42 -89z" />
    <glyph glyph-name="Ebreve" unicode="&#x114;" 
d="M308 632q-65 0 -107 40t-56 82l34 23q49 -75 129 -75t129 75l34 -23q-14 -42 -56 -82t-107 -40zM122 0v564h367v-71h-284v-170h247v-71h-247v-181h284v-71h-367z" />
    <glyph glyph-name="ebreve" unicode="&#x115;" 
d="M299 524q-65 0 -107 40t-56 82l34 23q49 -75 129 -75t129 75l34 -23q-14 -42 -56 -82t-107 -40zM305 -10q-95 0 -156 55.5t-61 171.5q0 62 18.5 108.5t50 71.5t67.5 37t76 12t75.5 -11.5t67.5 -36.5t51 -71t19 -109v-16h-346q6 -147 140 -147q52 0 85 22t40 63h80
q-6 -41 -27.5 -72t-52 -47t-62 -23.5t-65.5 -7.5zM168 262h264q-7 58 -42 89t-90 31t-90 -31t-42 -89z" />
    <glyph glyph-name="Edotaccent" unicode="&#x116;" 
d="M257 642v102h102v-102h-102zM122 0v564h367v-71h-284v-170h247v-71h-247v-181h284v-71h-367z" />
    <glyph glyph-name="edotaccent" unicode="&#x117;" 
d="M248 534v102h102v-102h-102zM305 -10q-95 0 -156 55.5t-61 171.5q0 62 18.5 108.5t50 71.5t67.5 37t76 12t75.5 -11.5t67.5 -36.5t51 -71t19 -109v-16h-346q6 -147 140 -147q52 0 85 22t40 63h80q-6 -41 -27.5 -72t-52 -47t-62 -23.5t-65.5 -7.5zM168 262h264
q-7 58 -42 89t-90 31t-90 -31t-42 -89z" />
    <glyph glyph-name="Eogonek" unicode="&#x118;" 
d="M403 -190q-42 0 -67.5 17.5t-25.5 47.5q0 33 29 58.5t97 66.5h-314v564h367v-71h-284v-170h247v-71h-247v-181h284v-71q-58 -47 -80 -70.5t-22 -42.5q0 -27 37 -27q30 0 56 11l9 -41q-37 -20 -86 -20z" />
    <glyph glyph-name="eogonek" unicode="&#x119;" 
d="M326 -190q-43 0 -68.5 17.5t-25.5 47.5q0 31 28 57t89 63q-20 -5 -44 -5q-95 0 -156 55.5t-61 171.5q0 62 18.5 108.5t50 71.5t67.5 37t76 12t75.5 -11.5t67.5 -36.5t51 -71t19 -109v-16h-346q6 -147 140 -147q52 0 85 22t40 63h80q-11 -68 -61 -106q-80 -62 -111 -94.5
t-31 -52.5q0 -27 37 -27q30 0 56 11l9 -41q-37 -20 -85 -20zM168 262h264q-7 58 -42 89t-90 31t-90 -31t-42 -89z" />
    <glyph glyph-name="Ecaron" unicode="&#x11a;" 
d="M270 602l-108 194h52l94 -118l94 118h52l-108 -194h-76zM122 0v564h367v-71h-284v-170h247v-71h-247v-181h284v-71h-367z" />
    <glyph glyph-name="ecaron" unicode="&#x11b;" 
d="M261 494l-108 194h52l94 -118l94 118h52l-108 -194h-76zM305 -10q-95 0 -156 55.5t-61 171.5q0 62 18.5 108.5t50 71.5t67.5 37t76 12t75.5 -11.5t67.5 -36.5t51 -71t19 -109v-16h-346q6 -147 140 -147q52 0 85 22t40 63h80q-6 -41 -27.5 -72t-52 -47t-62 -23.5
t-65.5 -7.5zM168 262h264q-7 58 -42 89t-90 31t-90 -31t-42 -89z" />
    <glyph glyph-name="Gcircumflex" unicode="&#x11c;" 
d="M152 602l108 194h76l108 -194h-52l-94 118l-94 -118h-52zM283 -10q-55 0 -96 24t-64 66.5t-34 92.5t-11 109q0 138 58 215.5t168 77.5q85 0 138.5 -48.5t57.5 -148.5h-80q-6 64 -32.5 94.5t-80.5 30.5q-37 0 -63.5 -14t-41.5 -35t-24 -52.5t-11.5 -59t-2.5 -61.5
q0 -47 5.5 -83t19.5 -68.5t42.5 -50t70.5 -17.5q66 0 117 48v125h-132v69h212v-304h-65v62q-17 -27 -56 -49.5t-95 -22.5z" />
    <glyph glyph-name="gcircumflex" unicode="&#x11d;" 
d="M136 494l108 194h76l108 -194h-52l-94 118l-94 -118h-52zM283 -190q-188 0 -189 156h77q1 -47 27.5 -70t84.5 -23q71 0 93.5 29.5t22.5 86.5v58q-48 -51 -128 -51q-79 0 -131 56.5t-52 167.5q0 112 52.5 169t130.5 57q48 0 85 -20t56 -46v56h66v-453q0 -86 -46 -129.5
t-149 -43.5zM292 62q63 0 107 44v230q-44 44 -107 44q-62 0 -93 -42.5t-31 -116.5t31 -116.5t93 -42.5z" />
    <glyph glyph-name="Gbreve" unicode="&#x11e;" 
d="M298 632q-65 0 -107 40t-56 82l34 23q49 -75 129 -75t129 75l34 -23q-14 -42 -56 -82t-107 -40zM283 -10q-55 0 -96 24t-64 66.5t-34 92.5t-11 109q0 138 58 215.5t168 77.5q85 0 138.5 -48.5t57.5 -148.5h-80q-6 64 -32.5 94.5t-80.5 30.5q-37 0 -63.5 -14t-41.5 -35
t-24 -52.5t-11.5 -59t-2.5 -61.5q0 -47 5.5 -83t19.5 -68.5t42.5 -50t70.5 -17.5q66 0 117 48v125h-132v69h212v-304h-65v62q-17 -27 -56 -49.5t-95 -22.5z" />
    <glyph glyph-name="gbreve" unicode="&#x11f;" 
d="M282 524q-65 0 -107 40t-56 82l34 23q49 -75 129 -75t129 75l34 -23q-14 -42 -56 -82t-107 -40zM283 -190q-188 0 -189 156h77q1 -47 27.5 -70t84.5 -23q71 0 93.5 29.5t22.5 86.5v58q-48 -51 -128 -51q-79 0 -131 56.5t-52 167.5q0 112 52.5 169t130.5 57q48 0 85 -20
t56 -46v56h66v-453q0 -86 -46 -129.5t-149 -43.5zM292 62q63 0 107 44v230q-44 44 -107 44q-62 0 -93 -42.5t-31 -116.5t31 -116.5t93 -42.5z" />
    <glyph glyph-name="Gdotaccent" unicode="&#x120;" 
d="M247 642v102h102v-102h-102zM283 -10q-55 0 -96 24t-64 66.5t-34 92.5t-11 109q0 138 58 215.5t168 77.5q85 0 138.5 -48.5t57.5 -148.5h-80q-6 64 -32.5 94.5t-80.5 30.5q-37 0 -63.5 -14t-41.5 -35t-24 -52.5t-11.5 -59t-2.5 -61.5q0 -47 5.5 -83t19.5 -68.5t42.5 -50
t70.5 -17.5q66 0 117 48v125h-132v69h212v-304h-65v62q-17 -27 -56 -49.5t-95 -22.5z" />
    <glyph glyph-name="gdotaccent" unicode="&#x121;" 
d="M231 534v102h102v-102h-102zM283 -190q-188 0 -189 156h77q1 -47 27.5 -70t84.5 -23q71 0 93.5 29.5t22.5 86.5v58q-48 -51 -128 -51q-79 0 -131 56.5t-52 167.5q0 112 52.5 169t130.5 57q48 0 85 -20t56 -46v56h66v-453q0 -86 -46 -129.5t-149 -43.5zM292 62
q63 0 107 44v230q-44 44 -107 44q-62 0 -93 -42.5t-31 -116.5t31 -116.5t93 -42.5z" />
    <glyph glyph-name="Gcommaaccent" unicode="&#x122;" 
d="M247 -237q-25 0 -25 24q0 4 3 25l23 149h95l-74 -183q-5 -15 -22 -15zM283 -10q-55 0 -96 24t-64 66.5t-34 92.5t-11 109q0 138 58 215.5t168 77.5q85 0 138.5 -48.5t57.5 -148.5h-80q-6 64 -32.5 94.5t-80.5 30.5q-37 0 -63.5 -14t-41.5 -35t-24 -52.5t-11.5 -59
t-2.5 -61.5q0 -47 5.5 -83t19.5 -68.5t42.5 -50t70.5 -17.5q66 0 117 48v125h-132v69h212v-304h-65v62q-17 -27 -56 -49.5t-95 -22.5z" />
    <glyph glyph-name="gcommaaccent" unicode="&#x123;" 
d="M235 496l74 183q5 15 22 15q25 0 25 -24q0 -4 -3 -25l-23 -149h-95zM283 -190q-188 0 -189 156h77q1 -47 27.5 -70t84.5 -23q71 0 93.5 29.5t22.5 86.5v58q-48 -51 -128 -51q-79 0 -131 56.5t-52 167.5q0 112 52.5 169t130.5 57q48 0 85 -20t56 -46v56h66v-453
q0 -86 -46 -129.5t-149 -43.5zM292 62q63 0 107 44v230q-44 44 -107 44q-62 0 -93 -42.5t-31 -116.5t31 -116.5t93 -42.5z" />
    <glyph glyph-name="Hcircumflex" unicode="&#x124;" 
d="M154 602l108 194h76l108 -194h-52l-94 118l-94 -118h-52zM122 0v564h83v-241h190v241h83v-564h-83v253h-190v-253h-83z" />
    <glyph glyph-name="hcircumflex" unicode="&#x125;" 
d="M16 638l108 194h76l108 -194h-52l-94 118l-94 -118h-52zM122 0v638h79v-249q44 57 128 57q149 0 149 -178v-268h-79v251q0 67 -18.5 98t-72.5 31q-69 0 -107 -46v-334h-79z" />
    <glyph glyph-name="Hbar" unicode="&#x126;" 
d="M122 0v408h-49v63h49v93h83v-93h190v93h83v-93h49v-63h-49v-408h-83v253h-190v-253h-83zM205 408v-85h190v85h-190z" />
    <glyph glyph-name="hbar" unicode="&#x127;" 
d="M122 0v501h-49v63h49v74h79v-74h117v-63h-117v-112q44 57 128 57q149 0 149 -178v-268h-79v251q0 67 -18.5 98t-72.5 31q-69 0 -107 -46v-334h-79z" />
    <glyph glyph-name="Itilde" unicode="&#x128;" 
d="M167 627l-38 18q15 48 44.5 84.5t68.5 36.5q31 0 71 -36q34 -30 51 -30q36 0 69 66l38 -18q-15 -48 -44.5 -84.5t-68.5 -36.5q-30 0 -66 32q-38 34 -56 34q-36 0 -69 -66zM121 0v71h138v422h-138v71h358v-71h-137v-422h137v-71h-358z" />
    <glyph glyph-name="itilde" unicode="&#x129;" 
d="M172 536l-38 18q15 48 44.5 84.5t68.5 36.5q31 0 71 -36q34 -30 51 -30q36 0 69 66l38 -18q-15 -48 -44.5 -84.5t-68.5 -36.5q-30 0 -66 32q-38 34 -56 34q-36 0 -69 -66zM110 0v67h158v302h-158v67h237v-369h144v-67h-381z" />
    <glyph glyph-name="Imacron" unicode="&#x12a;" 
d="M157 659v67h286v-67h-286zM121 0v71h138v422h-138v71h358v-71h-137v-422h137v-71h-358z" />
    <glyph glyph-name="imacron" unicode="&#x12b;" 
d="M162 568v67h286v-67h-286zM110 0v67h158v302h-158v67h237v-369h144v-67h-381z" />
    <glyph glyph-name="Ibreve" unicode="&#x12c;" 
d="M300 632q-65 0 -107 40t-56 82l34 23q49 -75 129 -75t129 75l34 -23q-14 -42 -56 -82t-107 -40zM121 0v71h138v422h-138v71h358v-71h-137v-422h137v-71h-358z" />
    <glyph glyph-name="ibreve" unicode="&#x12d;" 
d="M305 541q-65 0 -107 40t-56 82l34 23q49 -75 129 -75t129 75l34 -23q-14 -42 -56 -82t-107 -40zM110 0v67h158v302h-158v67h237v-369h144v-67h-381z" />
    <glyph glyph-name="Iogonek" unicode="&#x12e;" 
d="M284 -190q-42 0 -67.5 17.5t-25.5 47.5q0 33 29 58.5t97 66.5h-196v71h138v422h-138v71h358v-71h-137v-422h137v-71h-109q-58 -47 -80 -70.5t-22 -42.5q0 -27 37 -27q30 0 56 11l9 -41q-38 -20 -86 -20z" />
    <glyph glyph-name="iogonek" unicode="&#x12f;" 
d="M273 -190q-42 0 -67.5 17.5t-25.5 47.5q0 33 29 58.5t97 66.5h-196v67h158v302h-158v67h237v-369h144v-67h-132q-58 -47 -80 -70.5t-22 -42.5q0 -27 37 -27q30 0 56 11l9 -41q-37 -20 -86 -20zM257 537v101h101v-101h-101z" />
    <glyph glyph-name="Idotaccent" unicode="&#x130;" 
d="M249 642v102h102v-102h-102zM121 0v71h138v422h-138v71h358v-71h-137v-422h137v-71h-358z" />
    <glyph glyph-name="dotlessi" unicode="&#x131;" 
d="M110 0v67h158v302h-158v67h237v-369h144v-67h-381z" />
    <glyph glyph-name="IJ" unicode="&#x132;" 
d="M300 -10q-99 0 -146 50t-47 159v15h83v-15q0 -75 25 -105.5t85 -30.5t85 30.5t25 105.5v365h83v-365q0 -109 -47 -159t-146 -50zM107 309v255h83v-255h-83z" />
    <glyph glyph-name="ij" unicode="&#x133;" 
d="M219 -185v66q180 0 180 150v405h79v-413q0 -104 -67.5 -156t-191.5 -52zM122 0v436h79v-436h-79zM111 537v101h101v-101h-101zM388 537v101h101v-101h-101z" />
    <glyph glyph-name="Jcircumflex" unicode="&#x134;" 
d="M301 602l108 194h76l108 -194h-52l-94 118l-94 -118h-52zM290 -10q-92 0 -143.5 53.5t-51.5 140.5q0 21 3 36h80q-2 -14 -2 -34q0 -58 28.5 -90.5t84.5 -32.5q117 0 117 155v346h83v-350q0 -224 -199 -224z" />
    <glyph glyph-name="jcircumflex" unicode="&#x135;" 
d="M215 494l108 194h76l108 -194h-52l-94 118l-94 -118h-52zM142 -185v66q180 0 180 150v338h-169v67h248v-413q0 -104 -67.5 -156t-191.5 -52z" />
    <glyph glyph-name="Kcommaaccent" unicode="&#x136;" 
d="M289 -237q-25 0 -25 24q0 4 3 25l23 149h95l-74 -183q-5 -15 -22 -15zM122 0v564h83v-265l234 265h100l-214 -236l234 -328h-104l-184 270l-66 -73v-197h-83z" />
    <glyph glyph-name="kcommaaccent" unicode="&#x137;" 
d="M276 -237q-25 0 -25 24q0 4 3 25l23 149h95l-74 -183q-5 -15 -22 -15zM122 0v638h79v-391l221 189h105l-193 -162l203 -274h-97l-162 229l-77 -63v-166h-79z" />
    <glyph glyph-name="kgreenlandic" unicode="&#x138;" 
d="M122 0v436h79v-189l221 189h105l-193 -162l203 -274h-97l-162 229l-77 -63v-166h-79z" />
    <glyph glyph-name="Lacute" unicode="&#x139;" 
d="M111 603l77 194h96l-126 -194h-47zM122 0v564h83v-493h289v-71h-372z" />
    <glyph glyph-name="lacute" unicode="&#x13a;" 
d="M248 683l77 194h96l-126 -194h-47zM110 0v67h151v505h-151v66h230v-571h151v-67h-381z" />
    <glyph glyph-name="Lcommaaccent" unicode="&#x13b;" 
d="M282 -237q-25 0 -25 24q0 4 3 25l23 149h95l-74 -183q-5 -15 -22 -15zM122 0v564h83v-493h289v-71h-372z" />
    <glyph glyph-name="lcommaaccent" unicode="&#x13c;" 
d="M265 -237q-25 0 -25 24q0 4 3 25l23 149h95l-74 -183q-5 -15 -22 -15zM110 0v67h151v505h-151v66h230v-571h151v-67h-381z" />
    <glyph glyph-name="Lcaron" unicode="&#x13d;" 
d="M358 366q-25 0 -25 24q0 4 3 25l23 149h95l-74 -183q-5 -15 -22 -15zM122 0v564h83v-493h289v-71h-372z" />
    <glyph glyph-name="lcaron" unicode="&#x13e;" 
d="M436 440q-25 0 -25 24q0 4 3 25l23 149h95l-74 -183q-5 -15 -22 -15zM110 0v67h151v505h-151v66h230v-571h151v-67h-381z" />
    <glyph glyph-name="Ldot" unicode="&#x13f;" 
d="M122 0v564h83v-493h289v-71h-372zM385 227v123h122v-123h-122z" />
    <glyph glyph-name="ldot" unicode="&#x140;" 
d="M110 0v67h151v505h-151v66h230v-571h151v-67h-381zM468 227v120h119v-120h-119z" />
    <glyph glyph-name="Lslash" unicode="&#x141;" 
d="M122 0v262l-70 -17v69l70 17v233h83v-213l107 26v-69l-107 -26v-211h289v-71h-372z" />
    <glyph glyph-name="lslash" unicode="&#x142;" 
d="M110 0v67h151v200l-90 -22v69l90 22v236h-151v66h230v-283l91 22v-69l-91 -22v-219h151v-67h-381z" />
    <glyph glyph-name="Nacute" unicode="&#x143;" 
d="M246 602l77 194h96l-126 -194h-47zM123 0v564h111l177 -483l-9 162v321h75v-564h-111l-177 483l9 -162v-321h-75z" />
    <glyph glyph-name="nacute" unicode="&#x144;" 
d="M246 494l77 194h96l-126 -194h-47zM122 0v436h66v-58q46 68 143 68q147 0 147 -178v-268h-79v251q0 67 -18.5 98t-72.5 31q-69 0 -107 -46v-334h-79z" />
    <glyph glyph-name="Ncommaaccent" unicode="&#x145;" 
d="M265 -237q-25 0 -25 24q0 4 3 25l23 149h95l-74 -183q-5 -15 -22 -15zM123 0v564h111l177 -483l-9 162v321h75v-564h-111l-177 483l9 -162v-321h-75z" />
    <glyph glyph-name="ncommaaccent" unicode="&#x146;" 
d="M265 -237q-25 0 -25 24q0 4 3 25l23 149h95l-74 -183q-5 -15 -22 -15zM122 0v436h66v-58q46 68 143 68q147 0 147 -178v-268h-79v251q0 67 -18.5 98t-72.5 31q-69 0 -107 -46v-334h-79z" />
    <glyph glyph-name="Ncaron" unicode="&#x147;" 
d="M262 602l-108 194h52l94 -118l94 118h52l-108 -194h-76zM123 0v564h111l177 -483l-9 162v321h75v-564h-111l-177 483l9 -162v-321h-75z" />
    <glyph glyph-name="ncaron" unicode="&#x148;" 
d="M262 494l-108 194h52l94 -118l94 118h52l-108 -194h-76zM122 0v436h66v-58q46 68 143 68q147 0 147 -178v-268h-79v251q0 67 -18.5 98t-72.5 31q-69 0 -107 -46v-334h-79z" />
    <glyph glyph-name="napostrophe" unicode="&#x149;" 
d="M83 443q-25 0 -25 24q0 3 3 24l23 147h93l-73 -180q-5 -15 -21 -15zM122 0v436h66v-58q46 68 143 68q147 0 147 -178v-268h-79v251q0 67 -18.5 98t-72.5 31q-69 0 -107 -46v-334h-79z" />
    <glyph glyph-name="Eng" unicode="&#x14a;" 
d="M218 -185v68q165 0 179 117h-31l-177 483l9 -162v-321h-75v564h111l177 -483l-9 162v321h75v-532q0 -217 -259 -217z" />
    <glyph glyph-name="eng" unicode="&#x14b;" 
d="M219 -185v66q180 0 180 150v220q0 67 -18.5 98t-72.5 31q-69 0 -107 -46v-334h-79v436h66v-58q46 68 143 68q147 0 147 -178v-245q0 -104 -67.5 -156t-191.5 -52z" />
    <glyph glyph-name="Omacron" unicode="&#x14c;" 
d="M157 659v67h286v-67h-286zM298 -10q-111 0 -165.5 75.5t-54.5 213.5q0 141 56 218.5t168 77.5q111 0 165.5 -75.5t54.5 -214.5q0 -141 -56 -218t-168 -77zM300 62q44 0 73 20t42 56t17 68.5t4 75.5t-4 75.5t-17 69t-42 56.5t-73 20t-73 -20t-42 -56.5t-17 -69t-4 -75.5
t4 -75.5t17 -68.5t42 -56t73 -20z" />
    <glyph glyph-name="omacron" unicode="&#x14d;" 
d="M157 551v67h286v-67h-286zM298 -10q-40 0 -75.5 11.5t-67 36.5t-49.5 71t-18 108q0 64 19 110.5t51 71t68 36t76 11.5t75.5 -11t66.5 -35.5t49.5 -70.5t18.5 -109q0 -64 -19 -111t-51.5 -71.5t-68 -36t-75.5 -11.5zM300 56q133 0 133 162t-133 162t-133 -162t133 -162z
" />
    <glyph glyph-name="Obreve" unicode="&#x14e;" 
d="M300 632q-65 0 -107 40t-56 82l34 23q49 -75 129 -75t129 75l34 -23q-14 -42 -56 -82t-107 -40zM298 -10q-111 0 -165.5 75.5t-54.5 213.5q0 141 56 218.5t168 77.5q111 0 165.5 -75.5t54.5 -214.5q0 -141 -56 -218t-168 -77zM300 62q44 0 73 20t42 56t17 68.5t4 75.5
t-4 75.5t-17 69t-42 56.5t-73 20t-73 -20t-42 -56.5t-17 -69t-4 -75.5t4 -75.5t17 -68.5t42 -56t73 -20z" />
    <glyph glyph-name="obreve" unicode="&#x14f;" 
d="M300 524q-65 0 -107 40t-56 82l34 23q49 -75 129 -75t129 75l34 -23q-14 -42 -56 -82t-107 -40zM298 -10q-40 0 -75.5 11.5t-67 36.5t-49.5 71t-18 108q0 64 19 110.5t51 71t68 36t76 11.5t75.5 -11t66.5 -35.5t49.5 -70.5t18.5 -109q0 -64 -19 -111t-51.5 -71.5t-68 -36
t-75.5 -11.5zM300 56q133 0 133 162t-133 162t-133 -162t133 -162z" />
    <glyph glyph-name="Ohungarumlaut" unicode="&#x150;" 
d="M171 602l79 194h94l-128 -194h-45zM367 602l79 194h94l-128 -194h-45zM298 -10q-111 0 -165.5 75.5t-54.5 213.5q0 141 56 218.5t168 77.5q111 0 165.5 -75.5t54.5 -214.5q0 -141 -56 -218t-168 -77zM300 62q44 0 73 20t42 56t17 68.5t4 75.5t-4 75.5t-17 69t-42 56.5
t-73 20t-73 -20t-42 -56.5t-17 -69t-4 -75.5t4 -75.5t17 -68.5t42 -56t73 -20z" />
    <glyph glyph-name="ohungarumlaut" unicode="&#x151;" 
d="M171 494l79 194h94l-128 -194h-45zM367 494l79 194h94l-128 -194h-45zM298 -10q-40 0 -75.5 11.5t-67 36.5t-49.5 71t-18 108q0 64 19 110.5t51 71t68 36t76 11.5t75.5 -11t66.5 -35.5t49.5 -70.5t18.5 -109q0 -64 -19 -111t-51.5 -71.5t-68 -36t-75.5 -11.5zM300 56
q133 0 133 162t-133 162t-133 -162t133 -162z" />
    <glyph glyph-name="OE" unicode="&#x152;" 
d="M233 -10q-210 0 -210 292t209 292q47 0 76 -10h270v-71h-193v-170h155v-71h-155v-181h193v-71h-271q-32 -10 -74 -10zM240 59q41 0 62 10v426q-21 10 -62 10q-40 0 -67 -16.5t-41 -48.5t-19 -69t-5 -89t5 -89t19 -69t41 -48.5t67 -16.5z" />
    <glyph glyph-name="oe" unicode="&#x153;" 
d="M175 -10q-71 0 -113 56.5t-42 170.5q0 115 42.5 172t113.5 57q85 0 125 -80q42 80 128 80q71 0 111 -59t40 -169v-8h-243q1 -77 25.5 -117.5t68.5 -40.5q36 0 56.5 25.5t20.5 62.5h71q-3 -66 -42.5 -108t-104.5 -42q-89 0 -132 80q-38 -80 -125 -80zM179 52q42 0 64 43.5
t22 122.5t-22 122.5t-64 43.5t-64 -43.5t-22 -122.5t22 -122.5t64 -43.5zM339 264h170q-11 120 -84 120q-75 0 -86 -120z" />
    <glyph glyph-name="Racute" unicode="&#x154;" 
d="M242 602l77 194h96l-126 -194h-47zM122 0v564h146q110 0 172 -44.5t62 -127.5q0 -66 -37.5 -109.5t-98.5 -58.5l175 -224h-104l-157 210h-75v-210h-83zM205 493v-214h64q147 0 147 107t-147 107h-64z" />
    <glyph glyph-name="racute" unicode="&#x155;" 
d="M260 494l77 194h96l-126 -194h-47zM110 0v67h113v302h-113v67h179v-99q45 109 152 109q45 0 76 -14v-81q-28 13 -74 13q-91 0 -141 -72v-225h189v-67h-381z" />
    <glyph glyph-name="Rcommaaccent" unicode="&#x156;" 
d="M283 -237q-25 0 -25 24q0 4 3 25l23 149h95l-74 -183q-5 -15 -22 -15zM122 0v564h146q110 0 172 -44.5t62 -127.5q0 -66 -37.5 -109.5t-98.5 -58.5l175 -224h-104l-157 210h-75v-210h-83zM205 493v-214h64q147 0 147 107t-147 107h-64z" />
    <glyph glyph-name="rcommaaccent" unicode="&#x157;" 
d="M228 -237q-25 0 -25 24q0 4 3 25l23 149h95l-74 -183q-5 -15 -22 -15zM110 0v67h113v302h-113v67h179v-99q45 109 152 109q45 0 76 -14v-81q-28 13 -74 13q-91 0 -141 -72v-225h189v-67h-381z" />
    <glyph glyph-name="Rcaron" unicode="&#x158;" 
d="M258 602l-108 194h52l94 -118l94 118h52l-108 -194h-76zM122 0v564h146q110 0 172 -44.5t62 -127.5q0 -66 -37.5 -109.5t-98.5 -58.5l175 -224h-104l-157 210h-75v-210h-83zM205 493v-214h64q147 0 147 107t-147 107h-64z" />
    <glyph glyph-name="rcaron" unicode="&#x159;" 
d="M276 494l-108 194h52l94 -118l94 118h52l-108 -194h-76zM110 0v67h113v302h-113v67h179v-99q45 109 152 109q45 0 76 -14v-81q-28 13 -74 13q-91 0 -141 -72v-225h189v-67h-381z" />
    <glyph glyph-name="Sacute" unicode="&#x15a;" 
d="M246 602l77 194h96l-126 -194h-47zM301 -10q-98 0 -154.5 44.5t-56.5 127.5h81q6 -101 130 -101q58 0 92 22.5t34 64.5q0 31 -19.5 49t-60.5 33l-121 43q-125 44 -125 149q0 73 55.5 113t142.5 40q89 0 141 -43.5t53 -127.5h-80q-5 99 -116 99q-53 0 -82.5 -21.5
t-29.5 -57.5q0 -53 72 -78l121 -43q70 -25 101.5 -58.5t31.5 -89.5q0 -82 -58.5 -123.5t-151.5 -41.5z" />
    <glyph glyph-name="sacute" unicode="&#x15b;" 
d="M245 494l77 194h96l-126 -194h-47zM305 -10q-201 0 -207 148h74q5 -81 140 -81q111 0 111 60q0 23 -18.5 37.5t-43 21.5t-72.5 17q-16 3 -25 5q-74 16 -115 42.5t-41 82.5q0 62 52 92.5t135 30.5q181 0 192 -138h-74q-13 71 -121 71q-105 0 -105 -51q0 -11 4 -19.5
t14 -15.5t18.5 -11.5t26.5 -9l28.5 -7t34.5 -7l34 -6.5q76 -16 115.5 -43t39.5 -85q0 -68 -54.5 -101t-142.5 -33z" />
    <glyph glyph-name="Scircumflex" unicode="&#x15c;" 
d="M154 602l108 194h76l108 -194h-52l-94 118l-94 -118h-52zM301 -10q-98 0 -154.5 44.5t-56.5 127.5h81q6 -101 130 -101q58 0 92 22.5t34 64.5q0 31 -19.5 49t-60.5 33l-121 43q-125 44 -125 149q0 73 55.5 113t142.5 40q89 0 141 -43.5t53 -127.5h-80q-5 99 -116 99
q-53 0 -82.5 -21.5t-29.5 -57.5q0 -53 72 -78l121 -43q70 -25 101.5 -58.5t31.5 -89.5q0 -82 -58.5 -123.5t-151.5 -41.5z" />
    <glyph glyph-name="scircumflex" unicode="&#x15d;" 
d="M153 494l108 194h76l108 -194h-52l-94 118l-94 -118h-52zM305 -10q-201 0 -207 148h74q5 -81 140 -81q111 0 111 60q0 23 -18.5 37.5t-43 21.5t-72.5 17q-16 3 -25 5q-74 16 -115 42.5t-41 82.5q0 62 52 92.5t135 30.5q181 0 192 -138h-74q-13 71 -121 71
q-105 0 -105 -51q0 -11 4 -19.5t14 -15.5t18.5 -11.5t26.5 -9l28.5 -7t34.5 -7l34 -6.5q76 -16 115.5 -43t39.5 -85q0 -68 -54.5 -101t-142.5 -33z" />
    <glyph glyph-name="Scedilla" unicode="&#x15e;" 
d="M312 -190q-56 0 -82 18l11 41q26 -11 53 -11q39 0 39 23q0 26 -78 44l14 67q-84 7 -131.5 50.5t-47.5 119.5h81q6 -101 130 -101q58 0 92 22.5t34 64.5q0 31 -19.5 49t-60.5 33l-121 43q-125 44 -125 149q0 73 55.5 113t142.5 40q89 0 141 -43.5t53 -127.5h-80
q-5 99 -116 99q-53 0 -82.5 -21.5t-29.5 -57.5q0 -53 72 -78l121 -43q70 -25 101.5 -58.5t31.5 -89.5q0 -79 -54 -120.5t-143 -44.5l-7 -32q98 -28 98 -83q0 -29 -23.5 -47t-69.5 -18z" />
    <glyph glyph-name="scedilla" unicode="&#x15f;" 
d="M311 -190q-56 0 -82 18l11 41q26 -11 53 -11q39 0 39 23q0 26 -78 44l14 67q-166 13 -170 146h74q5 -81 140 -81q111 0 111 60q0 23 -18.5 37.5t-43 21.5t-72.5 17q-16 3 -25 5q-74 16 -115 42.5t-41 82.5q0 62 52 92.5t135 30.5q181 0 192 -138h-74q-13 71 -121 71
q-105 0 -105 -51q0 -11 4 -19.5t14 -15.5t18.5 -11.5t26.5 -9l28.5 -7t34.5 -7l34 -6.5q76 -16 115.5 -43t39.5 -85q0 -67 -52 -99.5t-137 -34.5l-7 -32q98 -28 98 -83q0 -29 -23.5 -47t-69.5 -18z" />
    <glyph glyph-name="Scaron" unicode="&#x160;" 
d="M262 602l-108 194h52l94 -118l94 118h52l-108 -194h-76zM301 -10q-98 0 -154.5 44.5t-56.5 127.5h81q6 -101 130 -101q58 0 92 22.5t34 64.5q0 31 -19.5 49t-60.5 33l-121 43q-125 44 -125 149q0 73 55.5 113t142.5 40q89 0 141 -43.5t53 -127.5h-80q-5 99 -116 99
q-53 0 -82.5 -21.5t-29.5 -57.5q0 -53 72 -78l121 -43q70 -25 101.5 -58.5t31.5 -89.5q0 -82 -58.5 -123.5t-151.5 -41.5z" />
    <glyph glyph-name="scaron" unicode="&#x161;" 
d="M261 494l-108 194h52l94 -118l94 118h52l-108 -194h-76zM305 -10q-201 0 -207 148h74q5 -81 140 -81q111 0 111 60q0 23 -18.5 37.5t-43 21.5t-72.5 17q-16 3 -25 5q-74 16 -115 42.5t-41 82.5q0 62 52 92.5t135 30.5q181 0 192 -138h-74q-13 71 -121 71q-105 0 -105 -51
q0 -11 4 -19.5t14 -15.5t18.5 -11.5t26.5 -9l28.5 -7t34.5 -7l34 -6.5q76 -16 115.5 -43t39.5 -85q0 -68 -54.5 -101t-142.5 -33z" />
    <glyph glyph-name="Tcommaaccent" unicode="&#x162;" 
d="M265 -237q-25 0 -25 24q0 4 3 25l23 149h95l-74 -183q-5 -15 -22 -15zM258 0v493h-190v71h465v-71h-192v-493h-83z" />
    <glyph glyph-name="tcommaaccent" unicode="&#x163;" 
d="M338 -237q-25 0 -25 24q0 4 3 25l23 149h95l-74 -183q-5 -15 -22 -15zM373 -10q-84 0 -123.5 40.5t-39.5 146.5v192h-143v67h143v202h79v-202h214v-67h-214v-189q0 -69 19.5 -95.5t75.5 -26.5q55 0 106 19v-67q-40 -20 -117 -20z" />
    <glyph glyph-name="Tcaron" unicode="&#x164;" 
d="M262 602l-108 194h52l94 -118l94 118h52l-108 -194h-76zM258 0v493h-190v71h465v-71h-192v-493h-83z" />
    <glyph glyph-name="tcaron" unicode="&#x165;" 
d="M373 -10q-84 0 -123.5 40.5t-39.5 146.5v124h-143v67h143v270h79v-270h214v-67h-214v-121q0 -69 19.5 -95.5t75.5 -26.5q55 0 106 19v-67q-40 -20 -117 -20zM387 440q-25 0 -25 24q0 4 3 25l23 149h95l-74 -183q-5 -15 -22 -15z" />
    <glyph glyph-name="Tbar" unicode="&#x166;" 
d="M258 0v252h-121v61h121v180h-190v71h465v-71h-192v-180h122v-61h-122v-252h-83z" />
    <glyph glyph-name="tbar" unicode="&#x167;" 
d="M373 -10q-84 0 -123.5 40.5t-39.5 146.5v40h-82v67h82v85h-143v67h143v202h79v-202h214v-67h-214v-85h124v-67h-124v-37q0 -69 19.5 -95.5t75.5 -26.5q55 0 106 19v-67q-40 -20 -117 -20z" />
    <glyph glyph-name="Utilde" unicode="&#x168;" 
d="M167 627l-38 18q15 48 44.5 84.5t68.5 36.5q31 0 71 -36q34 -30 51 -30q36 0 69 66l38 -18q-15 -48 -44.5 -84.5t-68.5 -36.5q-30 0 -66 32q-38 34 -56 34q-36 0 -69 -66zM300 -10q-99 0 -146 50t-47 159v365h83v-365q0 -75 25 -105.5t85 -30.5t85 30.5t25 105.5v365h83
v-365q0 -109 -47 -159t-146 -50z" />
    <glyph glyph-name="utilde" unicode="&#x169;" 
d="M167 519l-38 18q15 48 44.5 84.5t68.5 36.5q31 0 71 -36q34 -30 51 -30q36 0 69 66l38 -18q-15 -48 -44.5 -84.5t-68.5 -36.5q-30 0 -66 32q-38 34 -56 34q-36 0 -69 -66zM269 -10q-147 0 -147 178v268h79v-251q0 -67 18.5 -98t72.5 -31q69 0 107 46v334h79v-436h-66v58
q-46 -68 -143 -68z" />
    <glyph glyph-name="Umacron" unicode="&#x16a;" 
d="M157 659v67h286v-67h-286zM300 -10q-99 0 -146 50t-47 159v365h83v-365q0 -75 25 -105.5t85 -30.5t85 30.5t25 105.5v365h83v-365q0 -109 -47 -159t-146 -50z" />
    <glyph glyph-name="umacron" unicode="&#x16b;" 
d="M157 551v67h286v-67h-286zM269 -10q-147 0 -147 178v268h79v-251q0 -67 18.5 -98t72.5 -31q69 0 107 46v334h79v-436h-66v58q-46 -68 -143 -68z" />
    <glyph glyph-name="Ubreve" unicode="&#x16c;" 
d="M300 632q-65 0 -107 40t-56 82l34 23q49 -75 129 -75t129 75l34 -23q-14 -42 -56 -82t-107 -40zM300 -10q-99 0 -146 50t-47 159v365h83v-365q0 -75 25 -105.5t85 -30.5t85 30.5t25 105.5v365h83v-365q0 -109 -47 -159t-146 -50z" />
    <glyph glyph-name="ubreve" unicode="&#x16d;" 
d="M300 524q-65 0 -107 40t-56 82l34 23q49 -75 129 -75t129 75l34 -23q-14 -42 -56 -82t-107 -40zM269 -10q-147 0 -147 178v268h79v-251q0 -67 18.5 -98t72.5 -31q69 0 107 46v334h79v-436h-66v58q-46 -68 -143 -68z" />
    <glyph glyph-name="Uring" unicode="&#x16e;" 
d="M300 590q-55 0 -92 36.5t-37 89.5t37 89.5t92 36.5t92 -36.5t37 -89.5t-37 -89.5t-92 -36.5zM300 639q33 0 55 22t22 55t-22 55t-55 22t-55 -22t-22 -55t22 -55t55 -22zM300 -10q-99 0 -146 50t-47 159v365h83v-365q0 -75 25 -105.5t85 -30.5t85 30.5t25 105.5v365h83
v-365q0 -109 -47 -159t-146 -50z" />
    <glyph glyph-name="uring" unicode="&#x16f;" 
d="M300 482q-55 0 -92 36.5t-37 89.5t37 89.5t92 36.5t92 -36.5t37 -89.5t-37 -89.5t-92 -36.5zM300 531q33 0 55 22t22 55t-22 55t-55 22t-55 -22t-22 -55t22 -55t55 -22zM269 -10q-147 0 -147 178v268h79v-251q0 -67 18.5 -98t72.5 -31q69 0 107 46v334h79v-436h-66v58
q-46 -68 -143 -68z" />
    <glyph glyph-name="Uhungarumlaut" unicode="&#x170;" 
d="M171 602l79 194h94l-128 -194h-45zM367 602l79 194h94l-128 -194h-45zM300 -10q-99 0 -146 50t-47 159v365h83v-365q0 -75 25 -105.5t85 -30.5t85 30.5t25 105.5v365h83v-365q0 -109 -47 -159t-146 -50z" />
    <glyph glyph-name="uhungarumlaut" unicode="&#x171;" 
d="M171 494l79 194h94l-128 -194h-45zM367 494l79 194h94l-128 -194h-45zM269 -10q-147 0 -147 178v268h79v-251q0 -67 18.5 -98t72.5 -31q69 0 107 46v334h79v-436h-66v58q-46 -68 -143 -68z" />
    <glyph glyph-name="Uogonek" unicode="&#x172;" 
d="M314 -190q-42 0 -67.5 17.5t-25.5 47.5q0 31 26.5 56t85.5 61q-22 -2 -35 -2q-97 0 -144 51t-47 158v365h83v-365q0 -75 25 -105.5t85 -30.5t85 30.5t25 105.5v365h83v-365q0 -120 -61 -172q-85 -72 -109.5 -97t-24.5 -43q0 -27 37 -27q30 0 56 11l9 -41q-38 -20 -86 -20
z" />
    <glyph glyph-name="uogonek" unicode="&#x173;" 
d="M269 -10q-147 0 -147 178v268h79v-251q0 -67 18.5 -98t72.5 -31q69 0 107 46v334h79v-436q-58 -47 -80 -70.5t-22 -42.5q0 -27 37 -27q30 0 56 11l9 -41q-38 -20 -86 -20q-42 0 -67.5 17.5t-25.5 47.5q0 33 29 58.5t97 66.5l-13 58q-46 -68 -143 -68z" />
    <glyph glyph-name="Wcircumflex" unicode="&#x174;" 
d="M154 602l108 194h76l108 -194h-52l-94 118l-94 -118h-52zM115 0l-70 564h81l34 -308l17 -181l85 299h78l84 -299l18 181l33 308h80l-70 -564h-106l-79 275l-79 -275h-106z" />
    <glyph glyph-name="wcircumflex" unicode="&#x175;" 
d="M154 494l108 194h76l108 -194h-52l-94 118l-94 -118h-52zM127 0l-76 436h76l54 -369l77 278h85l78 -278l54 369h74l-76 -436h-97l-76 267l-76 -267h-97z" />
    <glyph glyph-name="Ycircumflex" unicode="&#x176;" 
d="M154 602l108 194h76l108 -194h-52l-94 118l-94 -118h-52zM259 0v225l-220 339h96l83 -132l83 -142l84 142l83 132h93l-219 -339v-225h-83z" />
    <glyph glyph-name="ycircumflex" unicode="&#x177;" 
d="M154 494l108 194h76l108 -194h-52l-94 118l-94 -118h-52zM83 -185v67q68 0 108 26t67 86l-191 442h86l94 -233l54 -140l54 138l96 235h82l-185 -429q-46 -107 -104 -149.5t-161 -42.5z" />
    <glyph glyph-name="Ydieresis" unicode="&#x178;" 
d="M145 645v101h101v-101h-101zM354 645v101h101v-101h-101zM259 0v225l-220 339h96l83 -132l83 -142l84 142l83 132h93l-219 -339v-225h-83z" />
    <glyph glyph-name="Zacute" unicode="&#x179;" 
d="M250 602l77 194h96l-126 -194h-47zM95 0v62l302 431h-297v71h399v-62l-302 -431h307v-71h-409z" />
    <glyph glyph-name="zacute" unicode="&#x17a;" 
d="M246 494l77 194h96l-126 -194h-47zM107 0v57l276 312h-271v67h376v-57l-277 -312h282v-67h-386z" />
    <glyph glyph-name="Zdotaccent" unicode="&#x17b;" 
d="M253 642v102h102v-102h-102zM95 0v62l302 431h-297v71h399v-62l-302 -431h307v-71h-409z" />
    <glyph glyph-name="zdotaccent" unicode="&#x17c;" 
d="M249 534v102h102v-102h-102zM107 0v57l276 312h-271v67h376v-57l-277 -312h282v-67h-386z" />
    <glyph glyph-name="Zcaron" unicode="&#x17d;" 
d="M266 602l-108 194h52l94 -118l94 118h52l-108 -194h-76zM95 0v62l302 431h-297v71h399v-62l-302 -431h307v-71h-409z" />
    <glyph glyph-name="zcaron" unicode="&#x17e;" 
d="M262 494l-108 194h52l94 -118l94 118h52l-108 -194h-76zM107 0v57l276 312h-271v67h376v-57l-277 -312h282v-67h-386z" />
    <glyph glyph-name="uni0180" unicode="&#x180;" 
d="M330 -10q-91 0 -142 66v-56h-66v500h-40v65h40v73h79v-73h126v-65h-126v-108q17 20 51 37t78 17q77 0 129.5 -56t52.5 -172q0 -113 -52 -170.5t-130 -57.5zM309 56q62 0 92.5 43.5t30.5 118.5t-30.5 118.5t-92.5 43.5q-64 0 -108 -44v-236q44 -44 108 -44z" />
    <glyph glyph-name="uni018F" unicode="&#x18f;" 
d="M297 -10q-110 0 -165 77t-55 214v19h361q-7 204 -143 204q-58 0 -92 -34t-44 -92h-83q17 94 74.5 145.5t146.5 51.5q111 0 168 -78.5t57 -213.5t-57 -214t-168 -79zM298 59q125 0 138 176h-275q13 -176 137 -176z" />
    <glyph glyph-name="florin" unicode="&#x192;" 
d="M84 -185v67q175 0 175 138v230h-148v67h148v52q0 99 69 149.5t188 50.5v-66q-174 0 -174 -139v-47h149v-67h-149v-235q0 -98 -69.5 -149t-188.5 -51z" />
    <glyph glyph-name="Ohorn" unicode="&#x1a0;" 
d="M298 -10q-111 0 -165.5 75.5t-54.5 213.5q0 141 56 218.5t168 77.5q102 0 157 -66q55 9 55 75q0 28 -5 58h71q4 -24 4 -57q0 -55 -24 -83t-73 -37q35 -72 35 -180q0 -141 -56 -218t-168 -77zM300 62q44 0 73 20t42 56t17 68.5t4 75.5t-4 75.5t-17 69t-42 56.5t-73 20
t-73 -20t-42 -56.5t-17 -69t-4 -75.5t4 -75.5t17 -68.5t42 -56t73 -20z" />
    <glyph glyph-name="ohorn" unicode="&#x1a1;" 
d="M298 -10q-87 0 -148 53.5t-61 173.5q0 64 18.5 110.5t50.5 71.5t67.5 36t76.5 11q103 0 159 -68q51 9 51 72q0 21 -5 58h71q4 -24 4 -57q0 -100 -92 -117q21 -45 21 -115q0 -64 -18.5 -110.5t-50.5 -71.5t-67.5 -36t-76.5 -11zM300 60q130 0 130 158t-130 158t-130 -158
t130 -158z" />
    <glyph glyph-name="Uhorn" unicode="&#x1af;" 
d="M300 -10q-99 0 -146 50t-47 159v365h83v-365q0 -75 25 -105.5t85 -30.5t85 30.5t25 105.5v365h40q45 0 62.5 18t17.5 58q0 28 -5 58h71q4 -24 4 -57q0 -58 -26.5 -86t-80.5 -35v-321q0 -109 -47 -159t-146 -50z" />
    <glyph glyph-name="uhorn" unicode="&#x1b0;" 
d="M269 -10q-147 0 -147 178v268h79v-251q0 -67 18.5 -98t72.5 -31q69 0 107 46v334h42q45 0 62.5 18t17.5 58q0 28 -5 58h71q4 -24 4 -57q0 -60 -28 -88.5t-85 -33.5v-391h-66v58q-46 -68 -143 -68z" />
    <glyph glyph-name="uni01CD" unicode="&#x1cd;" 
d="M262 602l-108 194h52l94 -118l94 118h52l-108 -194h-76zM56 0l199 564h90l199 -564h-90l-45 134h-220l-45 -134h-88zM238 287l-29 -85h178l-29 85l-60 191z" />
    <glyph glyph-name="uni01CE" unicode="&#x1ce;" 
d="M261 494l-108 194h52l94 -118l94 118h52l-108 -194h-76zM238 -10q-67 0 -108.5 30.5t-41.5 92.5q0 126 173 126q72 0 125 -17v38q0 60 -19.5 90t-83.5 30q-109 0 -109 -91h-76q0 45 17 77t46 48.5t60.5 24t67.5 7.5q176 0 176 -170v-198q0 -13 5.5 -18t18.5 -5q21 0 49 7
v-56q-37 -16 -76 -16q-65 0 -65 59v8q-51 -67 -159 -67zM251 57q78 0 135 41v68q-44 11 -110 11q-54 0 -81.5 -14t-27.5 -48q0 -58 84 -58z" />
    <glyph glyph-name="uni01CF" unicode="&#x1cf;" 
d="M262 602l-108 194h52l94 -118l94 118h52l-108 -194h-76zM121 0v71h138v422h-138v71h358v-71h-137v-422h137v-71h-358z" />
    <glyph glyph-name="uni01D0" unicode="&#x1d0;" 
d="M267 511l-108 194h52l94 -118l94 118h52l-108 -194h-76zM110 0v67h158v302h-158v67h237v-369h144v-67h-381z" />
    <glyph glyph-name="uni01D1" unicode="&#x1d1;" 
d="M262 602l-108 194h52l94 -118l94 118h52l-108 -194h-76zM298 -10q-111 0 -165.5 75.5t-54.5 213.5q0 141 56 218.5t168 77.5q111 0 165.5 -75.5t54.5 -214.5q0 -141 -56 -218t-168 -77zM300 62q44 0 73 20t42 56t17 68.5t4 75.5t-4 75.5t-17 69t-42 56.5t-73 20t-73 -20
t-42 -56.5t-17 -69t-4 -75.5t4 -75.5t17 -68.5t42 -56t73 -20z" />
    <glyph glyph-name="uni01D2" unicode="&#x1d2;" 
d="M262 494l-108 194h52l94 -118l94 118h52l-108 -194h-76zM298 -10q-40 0 -75.5 11.5t-67 36.5t-49.5 71t-18 108q0 64 19 110.5t51 71t68 36t76 11.5t75.5 -11t66.5 -35.5t49.5 -70.5t18.5 -109q0 -64 -19 -111t-51.5 -71.5t-68 -36t-75.5 -11.5zM300 56q133 0 133 162
t-133 162t-133 -162t133 -162z" />
    <glyph glyph-name="uni01D3" unicode="&#x1d3;" 
d="M262 602l-108 194h52l94 -118l94 118h52l-108 -194h-76zM300 -10q-99 0 -146 50t-47 159v365h83v-365q0 -75 25 -105.5t85 -30.5t85 30.5t25 105.5v365h83v-365q0 -109 -47 -159t-146 -50z" />
    <glyph glyph-name="uni01D4" unicode="&#x1d4;" 
d="M262 494l-108 194h52l94 -118l94 118h52l-108 -194h-76zM269 -10q-147 0 -147 178v268h79v-251q0 -67 18.5 -98t72.5 -31q69 0 107 46v334h79v-436h-66v58q-46 -68 -143 -68z" />
    <glyph glyph-name="uni01D5" unicode="&#x1d5;" 
d="M145 604v101h101v-101h-101zM354 604v101h101v-101h-101zM157 755v67h286v-67h-286zM300 -10q-99 0 -146 50t-47 159v365h83v-365q0 -75 25 -105.5t85 -30.5t85 30.5t25 105.5v365h83v-365q0 -109 -47 -159t-146 -50z" />
    <glyph glyph-name="uni01D6" unicode="&#x1d6;" 
d="M157 712v67h286v-67h-286zM145 537v101h101v-101h-101zM354 537v101h101v-101h-101zM269 -10q-147 0 -147 178v268h79v-251q0 -67 18.5 -98t72.5 -31q69 0 107 46v334h79v-436h-66v58q-46 -68 -143 -68z" />
    <glyph glyph-name="uni01D7" unicode="&#x1d7;" 
d="M277 714l65 151h96l-117 -151h-44zM145 604v101h101v-101h-101zM354 604v101h101v-101h-101zM300 -10q-99 0 -146 50t-47 159v365h83v-365q0 -75 25 -105.5t85 -30.5t85 30.5t25 105.5v365h83v-365q0 -109 -47 -159t-146 -50z" />
    <glyph glyph-name="uni01D8" unicode="&#x1d8;" 
d="M145 537v101h101v-101h-101zM354 537v101h101v-101h-101zM276 669l76 194h97l-125 -194h-48zM269 -10q-147 0 -147 178v268h79v-251q0 -67 18.5 -98t72.5 -31q69 0 107 46v334h79v-436h-66v58q-46 -68 -143 -68z" />
    <glyph glyph-name="uni01D9" unicode="&#x1d9;" 
d="M265 714l-106 151h51l90 -86l90 86h51l-106 -151h-70zM145 604v101h101v-101h-101zM354 604v101h101v-101h-101zM300 -10q-99 0 -146 50t-47 159v365h83v-365q0 -75 25 -105.5t85 -30.5t85 30.5t25 105.5v365h83v-365q0 -109 -47 -159t-146 -50z" />
    <glyph glyph-name="uni01DA" unicode="&#x1da;" 
d="M145 537v101h101v-101h-101zM354 537v101h101v-101h-101zM262 669l-108 194h52l94 -118l94 118h52l-108 -194h-76zM269 -10q-147 0 -147 178v268h79v-251q0 -67 18.5 -98t72.5 -31q69 0 107 46v334h79v-436h-66v58q-46 -68 -143 -68z" />
    <glyph glyph-name="uni01DB" unicode="&#x1db;" 
d="M145 604v101h101v-101h-101zM354 604v101h101v-101h-101zM258 865l65 -151h-44l-117 151h96zM300 -10q-99 0 -146 50t-47 159v365h83v-365q0 -75 25 -105.5t85 -30.5t85 30.5t25 105.5v365h83v-365q0 -109 -47 -159t-146 -50z" />
    <glyph glyph-name="uni01DC" unicode="&#x1dc;" 
d="M354 537v101h101v-101h-101zM145 537v101h101v-101h-101zM276 669l-125 194h97l76 -194h-48zM269 -10q-147 0 -147 178v268h79v-251q0 -67 18.5 -98t72.5 -31q69 0 107 46v334h79v-436h-66v58q-46 -68 -143 -68z" />
    <glyph glyph-name="uni01E6" unicode="&#x1e6;" 
d="M260 602l-108 194h52l94 -118l94 118h52l-108 -194h-76zM283 -10q-55 0 -96 24t-64 66.5t-34 92.5t-11 109q0 138 58 215.5t168 77.5q85 0 138.5 -48.5t57.5 -148.5h-80q-6 64 -32.5 94.5t-80.5 30.5q-37 0 -63.5 -14t-41.5 -35t-24 -52.5t-11.5 -59t-2.5 -61.5
q0 -47 5.5 -83t19.5 -68.5t42.5 -50t70.5 -17.5q66 0 117 48v125h-132v69h212v-304h-65v62q-17 -27 -56 -49.5t-95 -22.5z" />
    <glyph glyph-name="uni01E7" unicode="&#x1e7;" 
d="M244 494l-108 194h52l94 -118l94 118h52l-108 -194h-76zM283 -190q-188 0 -189 156h77q1 -47 27.5 -70t84.5 -23q71 0 93.5 29.5t22.5 86.5v58q-48 -51 -128 -51q-79 0 -131 56.5t-52 167.5q0 112 52.5 169t130.5 57q48 0 85 -20t56 -46v56h66v-453q0 -86 -46 -129.5
t-149 -43.5zM292 62q63 0 107 44v230q-44 44 -107 44q-62 0 -93 -42.5t-31 -116.5t31 -116.5t93 -42.5z" />
    <glyph glyph-name="uni01EA" unicode="&#x1ea;" 
d="M300 62q44 0 73 20t42 56t17 68.5t4 75.5t-4 75.5t-17 69t-42 56.5t-73 20t-73 -20t-42 -56.5t-17 -69t-4 -75.5t4 -75.5t17 -68.5t42 -56t73 -20zM314 -190q-42 0 -67.5 17.5t-25.5 47.5q0 23 18 45t37.5 35.5t61.5 39.5q-20 -5 -40 -5q-111 0 -165.5 75.5t-54.5 213.5
q0 141 56 218.5t168 77.5q111 0 165.5 -76t54.5 -215q0 -92 -26 -160t-96 -124q-58 -47 -80 -70.5t-22 -42.5q0 -27 37 -27q30 0 56 11l9 -41q-38 -20 -86 -20z" />
    <glyph glyph-name="uni01EB" unicode="&#x1eb;" 
d="M218 -125q0 32 28.5 58.5t87.5 60.5q-16 -4 -36 -4q-40 0 -75.5 11.5t-67 36.5t-49.5 71t-18 108q0 64 19 110.5t51 71t68 36t76 11.5t75.5 -11t66.5 -35.5t49.5 -70.5t18.5 -109q0 -68 -21 -115t-70 -86l-57 -46.5t-36 -32t-27 -31t-6 -22.5q0 -27 37 -27q30 0 56 11
l9 -41q-37 -20 -86 -20q-42 0 -67.5 17.5t-25.5 47.5zM300 56q133 0 133 162t-133 162t-133 -162t133 -162z" />
    <glyph glyph-name="uni01F8" unicode="&#x1f8;" 
d="M307 602l-126 194h96l77 -194h-47zM123 0v564h111l177 -483l-9 162v321h75v-564h-111l-177 483l9 -162v-321h-75z" />
    <glyph glyph-name="uni01F9" unicode="&#x1f9;" 
d="M307 494l-126 194h96l77 -194h-47zM122 0v436h66v-58q46 68 143 68q147 0 147 -178v-268h-79v251q0 67 -18.5 98t-72.5 31q-69 0 -107 -46v-334h-79z" />
    <glyph glyph-name="AEacute" unicode="&#x1fc;" 
d="M264 602l77 194h96l-126 -194h-47zM28 0l96 564h437v-71h-193v-170h156v-71h-156v-181h193v-71h-276v252h-131l-41 -252h-85zM192 493l-26 -170h119v170h-93z" />
    <glyph glyph-name="aeacute" unicode="&#x1fd;" 
d="M245 494l77 194h96l-126 -194h-47zM166 -10q-62 0 -99.5 33.5t-37.5 93.5q0 64 41.5 91.5t100.5 27.5q45 0 94 -14v51q0 49 -20.5 78t-61.5 29q-36 0 -54 -24t-18 -63h-69q0 68 38.5 110.5t104.5 42.5q18 0 34.5 -3.5t28 -10t20.5 -13t15.5 -14.5t10.5 -14t7 -11l3 -6
q42 72 119 72q70 0 109 -59t39 -170v-7h-236q3 -158 90 -158q36 0 55 25t20 63h70q-3 -66 -41 -108t-103 -42q-79 0 -123 64q-52 -64 -137 -64zM179 51q55 0 105 39q-14 34 -19 83q-44 7 -75 7q-87 0 -87 -62q0 -33 20.5 -50t55.5 -17zM336 264h164q-9 120 -81 120t-83 -120
z" />
    <glyph glyph-name="Oslashacute" unicode="&#x1fe;" 
d="M246 602l77 194h96l-126 -194h-47zM298 -10q-104 0 -160 68l-51 -58h-76l97 109q-30 67 -30 170q0 141 56 218.5t168 77.5q104 0 159 -69l52 58h76l-97 -109q30 -67 30 -170q0 -141 -56 -218t-168 -77zM300 62q44 0 73 20t42 56t17 68.5t4 75.5q0 57 -8 101l-234 -263
q33 -58 106 -58zM172 181l234 263q-34 59 -106 59q-44 0 -73 -20t-42 -56.5t-17 -69t-4 -75.5q0 -63 8 -101z" />
    <glyph glyph-name="oslashacute" unicode="&#x1ff;" 
d="M246 494l77 194h96l-126 -194h-47zM298 -10q-93 0 -149 53l-46 -43h-77l91 85q-29 53 -29 132q0 64 19 110.5t51 71t68 36t76 11.5q93 0 149 -53l46 43h77l-92 -85q30 -52 30 -131q0 -64 -19 -111t-51.5 -71.5t-68 -36t-75.5 -11.5zM300 57q132 0 132 161q0 42 -11 77
l-217 -201q34 -37 96 -37zM178 141l217 201q-33 37 -95 37q-132 0 -132 -161q0 -46 10 -77z" />
    <glyph glyph-name="Scommaaccent" unicode="&#x218;" 
d="M265 -237q-25 0 -25 24q0 4 3 25l23 149h95l-74 -183q-5 -15 -22 -15zM301 -10q-98 0 -154.5 44.5t-56.5 127.5h81q6 -101 130 -101q58 0 92 22.5t34 64.5q0 31 -19.5 49t-60.5 33l-121 43q-125 44 -125 149q0 73 55.5 113t142.5 40q89 0 141 -43.5t53 -127.5h-80
q-5 99 -116 99q-53 0 -82.5 -21.5t-29.5 -57.5q0 -53 72 -78l121 -43q70 -25 101.5 -58.5t31.5 -89.5q0 -82 -58.5 -123.5t-151.5 -41.5z" />
    <glyph glyph-name="scommaaccent" unicode="&#x219;" 
d="M264 -237q-25 0 -25 24q0 4 3 25l23 149h95l-74 -183q-5 -15 -22 -15zM305 -10q-201 0 -207 148h74q5 -81 140 -81q111 0 111 60q0 23 -18.5 37.5t-43 21.5t-72.5 17q-16 3 -25 5q-74 16 -115 42.5t-41 82.5q0 62 52 92.5t135 30.5q181 0 192 -138h-74q-13 71 -121 71
q-105 0 -105 -51q0 -11 4 -19.5t14 -15.5t18.5 -11.5t26.5 -9l28.5 -7t34.5 -7l34 -6.5q76 -16 115.5 -43t39.5 -85q0 -68 -54.5 -101t-142.5 -33z" />
    <glyph glyph-name="uni021A" unicode="&#x21a;" 
d="M265 -237q-25 0 -25 24q0 4 3 25l23 149h95l-74 -183q-5 -15 -22 -15zM258 0v493h-190v71h465v-71h-192v-493h-83z" />
    <glyph glyph-name="uni021B" unicode="&#x21b;" 
d="M338 -237q-25 0 -25 24q0 4 3 25l23 149h95l-74 -183q-5 -15 -22 -15zM373 -10q-84 0 -123.5 40.5t-39.5 146.5v192h-143v67h143v202h79v-202h214v-67h-214v-189q0 -69 19.5 -95.5t75.5 -26.5q55 0 106 19v-67q-40 -20 -117 -20z" />
    <glyph glyph-name="uni0226" unicode="&#x226;" 
d="M249 642v102h102v-102h-102zM56 0l199 564h90l199 -564h-90l-45 134h-220l-45 -134h-88zM238 287l-29 -85h178l-29 85l-60 191z" />
    <glyph glyph-name="uni0227" unicode="&#x227;" 
d="M248 534v102h102v-102h-102zM238 -10q-67 0 -108.5 30.5t-41.5 92.5q0 126 173 126q72 0 125 -17v38q0 60 -19.5 90t-83.5 30q-109 0 -109 -91h-76q0 45 17 77t46 48.5t60.5 24t67.5 7.5q176 0 176 -170v-198q0 -13 5.5 -18t18.5 -5q21 0 49 7v-56q-37 -16 -76 -16
q-65 0 -65 59v8q-51 -67 -159 -67zM251 57q78 0 135 41v68q-44 11 -110 11q-54 0 -81.5 -14t-27.5 -48q0 -58 84 -58z" />
    <glyph glyph-name="uni022E" unicode="&#x22e;" 
d="M249 642v102h102v-102h-102zM298 -10q-111 0 -165.5 75.5t-54.5 213.5q0 141 56 218.5t168 77.5q111 0 165.5 -75.5t54.5 -214.5q0 -141 -56 -218t-168 -77zM300 62q44 0 73 20t42 56t17 68.5t4 75.5t-4 75.5t-17 69t-42 56.5t-73 20t-73 -20t-42 -56.5t-17 -69t-4 -75.5
t4 -75.5t17 -68.5t42 -56t73 -20z" />
    <glyph glyph-name="uni022F" unicode="&#x22f;" 
d="M249 534v102h102v-102h-102zM298 -10q-40 0 -75.5 11.5t-67 36.5t-49.5 71t-18 108q0 64 19 110.5t51 71t68 36t76 11.5t75.5 -11t66.5 -35.5t49.5 -70.5t18.5 -109q0 -64 -19 -111t-51.5 -71.5t-68 -36t-75.5 -11.5zM300 56q133 0 133 162t-133 162t-133 -162t133 -162z
" />
    <glyph glyph-name="uni0237" unicode="&#x237;" 
d="M142 -185v66q180 0 180 150v338h-169v67h248v-413q0 -104 -67.5 -156t-191.5 -52z" />
    <glyph glyph-name="uni0243" unicode="&#x243;" 
d="M122 0v131h-49v67h49v366h175q91 0 147 -42t56 -113q0 -81 -80 -116q43 -14 72.5 -46.5t29.5 -84.5q0 -73 -58 -117.5t-149 -44.5h-193zM205 493v-170h82q126 0 126 82q0 88 -122 88h-86zM317 131h-112v-60h107q64 0 94 26t30 67q0 88 -127 88h-104v-54h112v-67z" />
    <glyph glyph-name="uni0259" unicode="&#x259;" 
d="M300 -10q-40 0 -75.5 11.5t-67.5 36.5t-51 71t-19 109v16h346q-6 147 -140 147q-52 0 -85 -22t-40 -63h-80q6 41 27.5 72t52 47t62 23.5t65.5 7.5q95 0 156 -55.5t61 -171.5q0 -62 -18.5 -108.5t-50 -71.5t-67.5 -37t-76 -12zM300 55q55 0 90 30.5t42 88.5h-264
q7 -58 42 -88.5t90 -30.5z" />
    <glyph glyph-name="uni02BB" unicode="&#x2bb;" 
d="M239 496l74 183q5 15 22 15q25 0 25 -24q0 -4 -3 -25l-23 -149h-95z" />
    <glyph glyph-name="uni02BC" unicode="&#x2bc;" 
d="M260 440q-25 0 -25 24q0 4 3 25l23 149h95l-74 -183q-5 -15 -22 -15z" />
    <glyph glyph-name="circumflex" unicode="&#x2c6;" 
d="M154 494l108 194h76l108 -194h-52l-94 118l-94 -118h-52z" />
    <glyph glyph-name="caron" unicode="&#x2c7;" 
d="M262 494l-108 194h52l94 -118l94 118h52l-108 -194h-76z" />
    <glyph glyph-name="breve" unicode="&#x2d8;" 
d="M300 524q-65 0 -107 40t-56 82l34 23q49 -75 129 -75t129 75l34 -23q-14 -42 -56 -82t-107 -40z" />
    <glyph glyph-name="dotaccent" unicode="&#x2d9;" 
d="M249 534v102h102v-102h-102z" />
    <glyph glyph-name="ring" unicode="&#x2da;" 
d="M300 482q-55 0 -92 36.5t-37 89.5t37 89.5t92 36.5t92 -36.5t37 -89.5t-37 -89.5t-92 -36.5zM300 531q33 0 55 22t22 55t-22 55t-55 22t-55 -22t-22 -55t22 -55t55 -22z" />
    <glyph glyph-name="ogonek" unicode="&#x2db;" 
d="M304 -190q-42 0 -67.5 17.5t-25.5 47.5q0 33 29 58.5t97 66.5h53q-58 -47 -80 -70.5t-22 -42.5q0 -27 37 -27q30 0 56 11l9 -41q-38 -20 -86 -20z" />
    <glyph glyph-name="tilde" unicode="&#x2dc;" 
d="M167 519l-38 18q15 48 44.5 84.5t68.5 36.5q31 0 71 -36q34 -30 51 -30q36 0 69 66l38 -18q-15 -48 -44.5 -84.5t-68.5 -36.5q-30 0 -66 32q-38 34 -56 34q-36 0 -69 -66z" />
    <glyph glyph-name="hungarumlaut" unicode="&#x2dd;" 
d="M115 494l79 194h94l-128 -194h-45zM311 494l79 194h94l-128 -194h-45z" />
    <glyph glyph-name="uni0300" unicode="&#x300;" horiz-adv-x="0" 
d="M6 494l-126 194h96l77 -194h-47z" />
    <glyph glyph-name="uni0301" unicode="&#x301;" horiz-adv-x="0" 
d="M-53 494l77 194h96l-126 -194h-47z" />
    <glyph glyph-name="uni0302" unicode="&#x302;" horiz-adv-x="0" 
d="M-146 494l108 194h76l108 -194h-52l-94 118l-94 -118h-52z" />
    <glyph glyph-name="uni0303" unicode="&#x303;" horiz-adv-x="0" 
d="M-133 519l-38 18q15 48 44.5 84.5t68.5 36.5q31 0 71 -36q34 -30 51 -30q36 0 69 66l38 -18q-15 -48 -44.5 -84.5t-68.5 -36.5q-30 0 -66 32q-38 34 -56 34q-36 0 -69 -66z" />
    <glyph glyph-name="uni0304" unicode="&#x304;" horiz-adv-x="0" 
d="M-143 551v67h286v-67h-286z" />
    <glyph glyph-name="uni0306" unicode="&#x306;" horiz-adv-x="0" 
d="M0 524q-65 0 -107 40t-56 82l34 23q49 -75 129 -75t129 75l34 -23q-14 -42 -56 -82t-107 -40z" />
    <glyph glyph-name="uni0307" unicode="&#x307;" horiz-adv-x="0" 
d="M-51 534v102h102v-102h-102z" />
    <glyph glyph-name="uni0308" unicode="&#x308;" horiz-adv-x="0" 
d="M-155 537v101h101v-101h-101zM54 537v101h101v-101h-101z" />
    <glyph glyph-name="uni0309" unicode="&#x309;" horiz-adv-x="0" 
d="M-6 492l-24 30q66 51 66 85q0 38 -45 38q-44 0 -44 -40h-55q0 48 28.5 70t74.5 22q49 0 75.5 -22t26.5 -57q0 -34 -24.5 -62t-78.5 -64z" />
    <glyph glyph-name="uni030A" unicode="&#x30a;" horiz-adv-x="0" 
d="M0 482q-55 0 -92 36.5t-37 89.5t37 89.5t92 36.5t92 -36.5t37 -89.5t-37 -89.5t-92 -36.5zM0 531q33 0 55 22t22 55t-22 55t-55 22t-55 -22t-22 -55t22 -55t55 -22z" />
    <glyph glyph-name="uni030B" unicode="&#x30b;" horiz-adv-x="0" 
d="M-131 494l79 194h94l-128 -194h-45zM65 494l79 194h94l-128 -194h-45z" />
    <glyph glyph-name="uni030C" unicode="&#x30c;" horiz-adv-x="0" 
d="M-38 494l-108 194h52l94 -118l94 118h52l-108 -194h-76z" />
    <glyph glyph-name="uni030D" unicode="&#x30d;" horiz-adv-x="0" 
d="M-30 494v194h60v-194h-60z" />
    <glyph glyph-name="uni030E" unicode="&#x30e;" horiz-adv-x="0" 
d="M49 494v194h60v-194h-60zM-109 494v194h60v-194h-60z" />
    <glyph glyph-name="uni030F" unicode="&#x30f;" horiz-adv-x="0" 
d="M89 494l-128 194h94l79 -194h-45zM-107 494l-128 194h94l79 -194h-45z" />
    <glyph glyph-name="uni0312" unicode="&#x312;" horiz-adv-x="0" 
d="M-47 496l74 183q5 15 22 15q25 0 25 -24q0 -4 -3 -25l-23 -149h-95z" />
    <glyph glyph-name="uni0313" unicode="&#x313;" horiz-adv-x="0" 
d="M91 694l-74 -183q-5 -15 -22 -15q-25 0 -25 24q0 4 3 25l23 149h95z" />
    <glyph glyph-name="uni0315" unicode="&#x315;" horiz-adv-x="0" 
d="M-40 440q-25 0 -25 24q0 4 3 25l23 149h95l-74 -183q-5 -15 -22 -15z" />
    <glyph glyph-name="uni031B" unicode="&#x31b;" horiz-adv-x="0" 
d="M-75 390v46q45 0 62.5 18t17.5 58q0 28 -5 58h71q4 -24 4 -57q0 -68 -37 -95.5t-113 -27.5z" />
    <glyph glyph-name="uni0323" unicode="&#x323;" horiz-adv-x="0" 
d="M-51 -169v102h102v-102h-102z" />
    <glyph glyph-name="uni0324" unicode="&#x324;" horiz-adv-x="0" 
d="M-154 -168v101h101v-101h-101zM54 -168v101h102v-101h-102z" />
    <glyph glyph-name="uni0326" unicode="&#x326;" horiz-adv-x="0" 
d="M-35 -237q-25 0 -25 24q0 4 3 25l23 149h95l-74 -183q-5 -15 -22 -15z" />
    <glyph glyph-name="uni0327" unicode="&#x327;" horiz-adv-x="0" 
d="M12 -190q-56 0 -82 18l11 41q26 -11 53 -11q39 0 39 23q0 26 -78 44l16 75h45l-9 -42q98 -28 98 -83q0 -29 -23.5 -47t-69.5 -18z" />
    <glyph glyph-name="uni0328" unicode="&#x328;" horiz-adv-x="0" 
d="M-55 -190q-42 0 -67.5 17.5t-25.5 47.5q0 33 29 58.5t97 66.5h53q-58 -47 -80 -70.5t-22 -42.5q0 -27 37 -27q30 0 56 11l9 -41q-37 -20 -86 -20z" />
    <glyph glyph-name="uni032E" unicode="&#x32e;" horiz-adv-x="0" 
d="M0 -192q-65 0 -107 40t-56 82l34 23q49 -75 129 -75t129 75l34 -23q-14 -42 -56 -82t-107 -40z" />
    <glyph glyph-name="uni0331" unicode="&#x331;" horiz-adv-x="0" 
d="M-143 -148v67h286v-67h-286z" />
    <glyph glyph-name="uni0340" unicode="&#x340;" horiz-adv-x="0" 
d="M6 494l-126 194h96l77 -194h-47z" />
    <glyph glyph-name="uni0341" unicode="&#x341;" horiz-adv-x="0" 
d="M-53 494l77 194h96l-126 -194h-47z" />
    <glyph glyph-name="uni0342" unicode="&#x342;" horiz-adv-x="0" 
d="M-133 519l-38 18q15 48 44.5 84.5t68.5 36.5q31 0 71 -36q34 -30 51 -30q36 0 69 66l38 -18q-15 -48 -44.5 -84.5t-68.5 -36.5q-30 0 -66 32q-38 34 -56 34q-36 0 -69 -66z" />
    <glyph glyph-name="uni0343" unicode="&#x343;" horiz-adv-x="0" 
d="M91 694l-74 -183q-5 -15 -22 -15q-25 0 -25 24q0 4 3 25l23 149h95z" />
    <glyph glyph-name="tonos" unicode="&#x384;" 
d="M284 494l-32 195h96l-32 -195h-32z" />
    <glyph glyph-name="dieresistonos" unicode="&#x385;" 
d="M118 548v92h92v-92h-92zM285 494l-30 195h90l-30 -195h-30zM390 548v92h92v-92h-92z" />
    <glyph glyph-name="Alphatonos" unicode="&#x386;" 
d="M95 369l-32 195h96l-32 -195h-32zM70 0l199 564h90l199 -564h-90l-45 134h-220l-45 -134h-88zM252 287l-29 -85h178l-29 85l-60 191z" />
    <glyph glyph-name="Epsilontonos" unicode="&#x388;" 
d="M210 0v564h304v-71h-221v-170h184v-71h-184v-181h221v-71h-304zM69 369l-32 195h96l-32 -195h-32z" />
    <glyph glyph-name="Etatonos" unicode="&#x389;" 
d="M208 0v564h80v-241h149v241h80v-564h-80v253h-149v-253h-80zM69 369l-32 195h96l-32 -195h-32z" />
    <glyph glyph-name="Iotatonos" unicode="&#x38a;" 
d="M183 0v71h117v422h-117v71h317v-71h-117v-422h117v-71h-317zM69 369l-32 195h96l-32 -195h-32z" />
    <glyph glyph-name="Omicrontonos" unicode="&#x38c;" 
d="M349 -10q-183 0 -183 292q0 138 45 215.5t138 77.5q183 0 183 -292q0 -138 -45 -215.5t-138 -77.5zM349 61q100 0 100 222q0 221 -100 221t-100 -222q0 -221 100 -221zM69 369l-32 195h94l-32 -195h-30z" />
    <glyph glyph-name="Upsilontonos" unicode="&#x38e;" 
d="M321 0v228l-169 336h86l67 -135l57 -129l56 129l66 135h84l-169 -338v-226h-78zM62 369l-32 195h96l-32 -195h-32z" />
    <glyph glyph-name="Omegatonos" unicode="&#x38f;" 
d="M158 0v65h94q-87 96 -87 254q0 122 47 189t136 67q90 0 136 -66.5t46 -189.5q0 -158 -87 -254h94v-65h-158v59q68 121 68 258q0 188 -99 188q-100 0 -100 -188q0 -139 68 -258v-59h-158zM69 369l-32 195h94l-32 -195h-30z" />
    <glyph glyph-name="iotadieresistonos" unicode="&#x390;" 
d="M113 544v92h92v-92h-92zM280 490l-30 195h90l-30 -195h-30zM385 544v92h92v-92h-92zM421 -10q-83 0 -124 41.5t-41 146.5v191h-158v67h237v-249q0 -71 20.5 -99t75.5 -28q51 0 88 14v-69q-40 -15 -98 -15z" />
    <glyph glyph-name="Alpha" unicode="&#x391;" 
d="M56 0l199 564h90l199 -564h-90l-45 134h-220l-45 -134h-88zM238 287l-29 -85h178l-29 85l-60 191z" />
    <glyph glyph-name="Beta" unicode="&#x392;" 
d="M122 0v564h175q91 0 147 -42t56 -113q0 -81 -80 -116q43 -14 72.5 -46.5t29.5 -84.5q0 -73 -58 -117.5t-149 -44.5h-193zM205 252v-181h107q64 0 94 26t30 67q0 88 -127 88h-104zM205 493v-170h82q126 0 126 82q0 88 -122 88h-86z" />
    <glyph glyph-name="Gamma" unicode="&#x393;" 
d="M122 0v564h372v-71h-288v-493h-84z" />
    <glyph glyph-name="uni0394" unicode="&#x394;" 
d="M72 0v62l180 502h96l180 -502v-62h-456zM234 291l-75 -222h279l-74 221l-66 194z" />
    <glyph glyph-name="Epsilon" unicode="&#x395;" 
d="M122 0v564h367v-71h-284v-170h247v-71h-247v-181h284v-71h-367z" />
    <glyph glyph-name="Zeta" unicode="&#x396;" 
d="M95 0v62l302 431h-297v71h399v-62l-302 -431h307v-71h-409z" />
    <glyph glyph-name="Eta" unicode="&#x397;" 
d="M122 0v564h83v-241h190v241h83v-564h-83v253h-190v-253h-83z" />
    <glyph glyph-name="Theta" unicode="&#x398;" 
d="M298 -10q-111 0 -165.5 75.5t-54.5 213.5q0 141 56 218.5t168 77.5q111 0 165.5 -75.5t54.5 -214.5q0 -141 -56 -218t-168 -77zM300 62q44 0 73 20t42 56t17 68.5t4 75.5t-4 75.5t-17 69t-42 56.5t-73 20t-73 -20t-42 -56.5t-17 -69t-4 -75.5t4 -75.5t17 -68.5t42 -56
t73 -20zM208 251v64h184v-64h-184z" />
    <glyph glyph-name="Iota" unicode="&#x399;" 
d="M121 0v71h138v422h-138v71h358v-71h-137v-422h137v-71h-358z" />
    <glyph glyph-name="Kappa" unicode="&#x39a;" 
d="M122 0v564h83v-265l234 265h100l-214 -236l234 -328h-104l-184 270l-66 -73v-197h-83z" />
    <glyph glyph-name="Lambda" unicode="&#x39b;" 
d="M56 0l198 564h92l198 -564h-89l-101 305l-56 177l-54 -175l-101 -307h-87z" />
    <glyph glyph-name="Mu" unicode="&#x39c;" 
d="M90 0v564h110l64 -188l38 -124l37 124l64 188h107v-564h-75v330l7 157l-110 -329h-64l-110 329l7 -157v-330h-75z" />
    <glyph glyph-name="Nu" unicode="&#x39d;" 
d="M123 0v564h111l177 -483l-9 162v321h75v-564h-111l-177 483l9 -162v-321h-75z" />
    <glyph glyph-name="Xi" unicode="&#x39e;" 
d="M111 0v71h378v-71h-378zM153 252v71h294v-71h-294zM111 493v71h378v-71h-378z" />
    <glyph glyph-name="Omicron" unicode="&#x39f;" 
d="M298 -10q-111 0 -165.5 75.5t-54.5 213.5q0 141 56 218.5t168 77.5q111 0 165.5 -75.5t54.5 -214.5q0 -141 -56 -218t-168 -77zM300 62q44 0 73 20t42 56t17 68.5t4 75.5t-4 75.5t-17 69t-42 56.5t-73 20t-73 -20t-42 -56.5t-17 -69t-4 -75.5t4 -75.5t17 -68.5t42 -56
t73 -20z" />
    <glyph glyph-name="Pi" unicode="&#x3a0;" 
d="M122 0v564h356v-564h-83v493h-190v-493h-83z" />
    <glyph glyph-name="Rho" unicode="&#x3a1;" 
d="M122 0v564h165q109 0 171.5 -45t62.5 -133t-62.5 -133t-171.5 -45h-82v-208h-83zM205 493v-214h83q147 0 147 107t-147 107h-83z" />
    <glyph glyph-name="Sigma" unicode="&#x3a3;" 
d="M106 0v63l228 219l-228 219v63h388v-71h-279l198 -186v-50l-198 -186h279v-71h-388z" />
    <glyph glyph-name="Tau" unicode="&#x3a4;" 
d="M258 0v493h-190v71h465v-71h-192v-493h-83z" />
    <glyph glyph-name="Upsilon" unicode="&#x3a5;" 
d="M259 0v225l-220 339h96l83 -132l83 -142l84 142l83 132h93l-219 -339v-225h-83z" />
    <glyph glyph-name="Phi" unicode="&#x3a6;" 
d="M261 0v48q-103 4 -166 70t-63 164q0 97 64 163t165 70v49h78v-49q103 -4 166 -69.5t63 -163.5q0 -96 -63.5 -163t-165.5 -71v-48h-78zM261 118v328q-72 -2 -109 -49.5t-37 -114.5t37 -114.5t109 -49.5zM339 118q72 2 109 49.5t37 114.5t-37 114.5t-109 49.5v-328z" />
    <glyph glyph-name="Chi" unicode="&#x3a7;" 
d="M55 0l198 289l-187 275h96l82 -126l57 -90l58 90l82 126h94l-187 -273l197 -291h-96l-94 144l-56 87l-55 -87l-96 -144h-93z" />
    <glyph glyph-name="Psi" unicode="&#x3a8;" 
d="M260 0v180q-100 0 -155 53t-55 149v182h79v-174q0 -140 131 -140v314h80v-314q131 0 131 140v174h79v-182q0 -95 -56 -148.5t-154 -53.5v-180h-80z" />
    <glyph glyph-name="uni03A9" unicode="&#x3a9;" 
d="M75 0v67h114q-41 34 -73 97.5t-32 153.5q0 124 55.5 190.5t160.5 66.5q108 0 162 -65.5t54 -190.5q0 -91 -31.5 -155t-73.5 -97h114v-67h-185v63q91 115 91 252q0 189 -131 189t-131 -189q0 -137 91 -252v-63h-185z" />
    <glyph glyph-name="Iotadieresis" unicode="&#x3aa;" 
d="M145 645v101h101v-101h-101zM354 645v101h101v-101h-101zM121 0v71h138v422h-138v71h358v-71h-137v-422h137v-71h-358z" />
    <glyph glyph-name="Upsilondieresis" unicode="&#x3ab;" 
d="M145 645v101h101v-101h-101zM354 645v101h101v-101h-101zM259 0v225l-220 339h96l83 -132l83 -142l84 142l83 132h93l-219 -339v-225h-83z" />
    <glyph glyph-name="alphatonos" unicode="&#x3ac;" 
d="M262 490l-32 195h96l-32 -195h-32zM264 -10q-77 0 -127 57t-50 167q0 113 52 172.5t130 59.5q89 0 139 -82v72h71v-358q0 -13 5.5 -17.5t20.5 -4.5q19 0 48 6v-56q-39 -16 -76 -16q-69 0 -69 67v14q-47 -81 -144 -81zM284 57q36 0 68 21t48 47v186q-16 26 -48 47t-68 21
q-60 0 -87.5 -47t-27.5 -114t27.5 -114t87.5 -47z" />
    <glyph glyph-name="epsilontonos" unicode="&#x3ad;" 
d="M291 490l-32 195h96l-32 -195h-32zM303 -10q-91 0 -142.5 33.5t-51.5 95.5q0 40 23.5 70t64.5 40q-77 26 -77 97q0 59 51 89.5t134 30.5q81 0 132 -33.5t55 -108.5h-76q-5 77 -114 77q-102 0 -102 -60q0 -63 105 -63h33v-60h-33q-53 0 -83.5 -18.5t-30.5 -55.5
q0 -69 113 -69t118 78h76q-4 -74 -56.5 -108.5t-138.5 -34.5z" />
    <glyph glyph-name="etatonos" unicode="&#x3ae;" 
d="M283 494l-32 195h96l-32 -195h-32zM399 -180v431q0 67 -18.5 98t-72.5 31q-69 0 -107 -46v-334h-79v436h66v-58q46 68 143 68q147 0 147 -178v-448h-79z" />
    <glyph glyph-name="iotatonos" unicode="&#x3af;" 
d="M279 490l-32 195h96l-32 -195h-32zM421 -10q-83 0 -124 41.5t-41 146.5v191h-158v67h237v-249q0 -71 20.5 -99t75.5 -28q51 0 88 14v-69q-40 -15 -98 -15z" />
    <glyph glyph-name="upsilondieresistonos" unicode="&#x3b0;" 
d="M118 548v92h92v-92h-92zM285 494l-30 195h90l-30 -195h-30zM390 548v92h92v-92h-92zM300 -10q-85 0 -131.5 42t-46.5 144v260h79v-251q0 -66 21 -97.5t78 -31.5t78 31.5t21 97.5v251h79v-259q0 -187 -178 -187z" />
    <glyph glyph-name="alpha" unicode="&#x3b1;" 
d="M264 -10q-77 0 -127 57t-50 167q0 113 52 172.5t130 59.5q89 0 139 -82v72h71v-358q0 -13 5.5 -17.5t20.5 -4.5q19 0 48 6v-56q-39 -16 -76 -16q-69 0 -69 67v14q-47 -81 -144 -81zM284 57q36 0 68 21t48 47v186q-16 26 -48 47t-68 21q-60 0 -87.5 -47t-27.5 -114
t27.5 -114t87.5 -47z" />
    <glyph glyph-name="beta" unicode="&#x3b2;" 
d="M116 -180v615q0 107 50 160t142 53q88 0 137.5 -42t49.5 -119q0 -116 -138 -167q29 -9 54.5 -21.5t51 -32t40.5 -50t15 -67.5q0 -70 -51.5 -114.5t-137.5 -44.5q-76 0 -134 36v-206h-79zM195 438v-348q56 -30 125 -30q56 0 87 23t31 68q0 52 -42.5 85t-126.5 57v50
q79 24 113.5 57t34.5 83q0 47 -27.5 72.5t-79.5 25.5q-59 0 -87 -35t-28 -108z" />
    <glyph glyph-name="gamma" unicode="&#x3b3;" 
d="M261 -180v166l-194 450h86l94 -233l54 -139l54 137l96 235h82l-194 -450v-166h-78z" />
    <glyph glyph-name="delta" unicode="&#x3b4;" 
d="M300 -10q-56 0 -102.5 20t-78 69t-31.5 121q0 101 55 154t131 53q55 0 90 -27l1 2l-39 29l-193 171v56h344v-65h-240l156 -136q63 -55 91 -110t28 -121q0 -109 -61.5 -162.5t-150.5 -53.5zM300 57q67 0 100 39.5t33 103.5t-33 103.5t-101 39.5q-67 0 -99.5 -38
t-32.5 -103t33 -105t100 -40z" />
    <glyph glyph-name="epsilon" unicode="&#x3b5;" 
d="M303 -10q-91 0 -142.5 33.5t-51.5 95.5q0 40 23.5 70t64.5 40q-77 26 -77 97q0 59 51 89.5t134 30.5q81 0 132 -33.5t55 -108.5h-76q-5 77 -114 77q-102 0 -102 -60q0 -63 105 -63h33v-60h-33q-53 0 -83.5 -18.5t-30.5 -55.5q0 -69 113 -69t118 78h76
q-4 -74 -56.5 -108.5t-138.5 -34.5z" />
    <glyph glyph-name="zeta" unicode="&#x3b6;" 
d="M425 -177l-44 39q28 25 39.5 42t11.5 39q0 29 -24 45t-89 34q-35 10 -54.5 16.5t-48.5 21.5t-44 32t-27 45t-12 64t10.5 67t37 65t54.5 62t81 76l112 102h-276v65h383v-56l-166 -157q-87 -82 -120.5 -126t-33.5 -95q0 -50 31 -73t99 -43q6 -2 27.5 -8.5l28.5 -8.5
t25 -8.5t24.5 -10.5l20 -12t18.5 -15.5l12 -17.5t9.5 -22.5t2.5 -26.5q0 -83 -88 -135z" />
    <glyph glyph-name="eta" unicode="&#x3b7;" 
d="M399 -180v431q0 67 -18.5 98t-72.5 31q-69 0 -107 -46v-334h-79v436h66v-58q46 68 143 68q147 0 147 -178v-448h-79z" />
    <glyph glyph-name="theta" unicode="&#x3b8;" 
d="M300 -10q-198 0 -198 250v156q0 252 198 252t198 -250v-155q0 -253 -198 -253zM300 57q65 0 92.5 47.5t27.5 148.5v33h-240v-33q0 -101 27.5 -148.5t92.5 -47.5zM180 386v-33h240v33q0 101 -27.5 148t-92.5 47t-92.5 -47t-27.5 -148z" />
    <glyph glyph-name="iota" unicode="&#x3b9;" 
d="M421 -10q-83 0 -124 41.5t-41 146.5v191h-158v67h237v-249q0 -71 20.5 -99t75.5 -28q51 0 88 14v-69q-40 -15 -98 -15z" />
    <glyph glyph-name="kappa" unicode="&#x3ba;" 
d="M122 0v436h79v-189l221 189h105l-193 -162l203 -274h-97l-162 229l-77 -63v-166h-79z" />
    <glyph glyph-name="lambda" unicode="&#x3bb;" 
d="M76 0l192 388l-30 67q-30 65 -72.5 93.5t-113.5 28.5v66q96 0 153.5 -33.5t102.5 -127.5l232 -482h-88l-87 189l-54 125l-59 -127l-89 -187h-87z" />
    <glyph glyph-name="uni03BC" unicode="&#x3bc;" 
d="M122 -180v616h79v-369h71q76 0 114 45v324h79v-358q0 -13 5.5 -17.5t19.5 -4.5q21 0 48 6v-56q-37 -16 -76 -16q-64 0 -64 59v17q-13 -23 -47.5 -44.5t-91.5 -21.5h-58v-180h-79z" />
    <glyph glyph-name="nu" unicode="&#x3bd;" 
d="M255 0l-188 436h86l94 -233l54 -139l54 137l96 235h82l-188 -436h-90z" />
    <glyph glyph-name="xi" unicode="&#x3be;" 
d="M404 -177l-43 39q28 25 39.5 42t11.5 39q0 29 -24 45t-89 34q-33 9 -54 16.5t-49 22t-44 31t-27.5 43.5t-11.5 60q0 116 118 160q-107 33 -107 137q0 69 49.5 112.5t143.5 43.5q84 0 136.5 -36.5t58.5 -111.5h-77q-13 81 -117 81q-114 0 -114 -90q0 -26 11 -45t26 -29
t40.5 -15.5t45 -6.5t48.5 -1h57v-66h-59q-82 0 -130 -35t-48 -91q0 -27 10.5 -46.5t33 -32.5t39 -19.5t47.5 -15.5q90 -26 115 -41q52 -31 52 -89q0 -83 -88 -135z" />
    <glyph glyph-name="omicron" unicode="&#x3bf;" 
d="M298 -10q-40 0 -75.5 11.5t-67 36.5t-49.5 71t-18 108q0 64 19 110.5t51 71t68 36t76 11.5t75.5 -11t66.5 -35.5t49.5 -70.5t18.5 -109q0 -64 -19 -111t-51.5 -71.5t-68 -36t-75.5 -11.5zM300 56q133 0 133 162t-133 162t-133 -162t133 -162z" />
    <glyph glyph-name="pi" unicode="&#x3c0;" 
d="M137 0v369h-64v67h454v-67h-64v-369h-79v369h-168v-369h-79z" />
    <glyph glyph-name="rho" unicode="&#x3c1;" 
d="M116 -180v388q0 119 53.5 178.5t150.5 59.5q90 0 144 -53t54 -170q0 -121 -56 -177t-135 -56q-87 0 -132 57v-227h-79zM307 56q131 0 131 163q0 160 -121 160q-122 0 -122 -166v-111q46 -46 112 -46z" />
    <glyph glyph-name="sigma1" unicode="&#x3c2;" 
d="M387 -177l-42 39q27 25 38.5 42t11.5 39q0 28 -23.5 43.5t-91.5 36.5q-41 13 -69.5 27.5t-56.5 38t-42.5 60t-14.5 85.5q0 102 60 157t151 55q76 0 130.5 -41.5t57.5 -137.5h-75q-10 112 -114 112q-65 0 -97 -38.5t-32 -105.5t31 -96t100 -51q92 -29 118 -46
q48 -31 48 -85q0 -82 -88 -134z" />
    <glyph glyph-name="sigma" unicode="&#x3c3;" 
d="M292 -10q-89 0 -150.5 53t-61.5 171q0 65 20.5 110.5t56 68.5t73 33t81.5 10h229v-65h-105q69 -53 69 -164t-61.5 -164t-150.5 -53zM425 214q0 99 -58 157h-46q-81 0 -121.5 -36.5t-40.5 -118.5q0 -78 34 -119t99 -41t99 40.5t34 117.5z" />
    <glyph glyph-name="tau" unicode="&#x3c4;" 
d="M373 -10q-84 0 -123.5 40.5t-39.5 146.5v192h-143v67h436v-67h-214v-189q0 -69 19.5 -95.5t75.5 -26.5q55 0 106 19v-67q-40 -20 -117 -20z" />
    <glyph glyph-name="upsilon" unicode="&#x3c5;" 
d="M300 -10q-85 0 -131.5 42t-46.5 144v260h79v-251q0 -66 21 -97.5t78 -31.5t78 31.5t21 97.5v251h79v-259q0 -187 -178 -187z" />
    <glyph glyph-name="phi" unicode="&#x3c6;" 
d="M260 -180v170q-39 1 -72 10.5t-65 32t-50 67.5t-18 109q0 66 18 129t44 98h85q-70 -96 -70 -224q0 -83 32.5 -119.5t95.5 -37.5v162q0 69 11 116t31 70.5t42.5 33t52.5 9.5q148 0 148 -204q0 -71 -18 -122t-49 -78t-66 -39t-77 -13v-170h-75zM335 219v-164q69 1 100 46.5
t31 139.5q0 139 -67 139q-35 0 -49.5 -38t-14.5 -123z" />
    <glyph glyph-name="chi" unicode="&#x3c7;" 
d="M56 -180l200 316l-192 300h90l146 -240l145 240h88l-190 -301l201 -315h-90l-155 253l-155 -253h-88z" />
    <glyph glyph-name="psi" unicode="&#x3c8;" 
d="M262 -180v170q-83 0 -137.5 45.5t-54.5 144.5v256h77v-244q0 -135 115 -135v379h76v-379q115 0 115 135v244h77v-254q0 -100 -55 -146t-137 -46v-170h-76z" />
    <glyph glyph-name="omega" unicode="&#x3c9;" 
d="M190 -10q-73 0 -106.5 59.5t-33.5 153.5q0 71 17.5 133t44.5 100h85q-70 -97 -70 -236q0 -145 71 -145q65 0 65 141v115h74v-115q0 -141 65 -141q71 0 71 145q0 139 -70 236h85q27 -38 44.5 -100t17.5 -133q0 -94 -33.5 -153.5t-106.5 -59.5q-80 0 -110 71
q-31 -71 -110 -71z" />
    <glyph glyph-name="iotadieresis" unicode="&#x3ca;" 
d="M140 533v101h101v-101h-101zM349 533v101h101v-101h-101zM421 -10q-83 0 -124 41.5t-41 146.5v191h-158v67h237v-249q0 -71 20.5 -99t75.5 -28q51 0 88 14v-69q-40 -15 -98 -15z" />
    <glyph glyph-name="upsilondieresis" unicode="&#x3cb;" 
d="M145 537v101h101v-101h-101zM354 537v101h101v-101h-101zM300 -10q-85 0 -131.5 42t-46.5 144v260h79v-251q0 -66 21 -97.5t78 -31.5t78 31.5t21 97.5v251h79v-259q0 -187 -178 -187z" />
    <glyph glyph-name="omicrontonos" unicode="&#x3cc;" 
d="M284 494l-32 195h96l-32 -195h-32zM298 -10q-40 0 -75.5 11.5t-67 36.5t-49.5 71t-18 108q0 64 19 110.5t51 71t68 36t76 11.5t75.5 -11t66.5 -35.5t49.5 -70.5t18.5 -109q0 -64 -19 -111t-51.5 -71.5t-68 -36t-75.5 -11.5zM300 56q133 0 133 162t-133 162t-133 -162
t133 -162z" />
    <glyph glyph-name="upsilontonos" unicode="&#x3cd;" 
d="M284 494l-32 195h96l-32 -195h-32zM300 -10q-85 0 -131.5 42t-46.5 144v260h79v-251q0 -66 21 -97.5t78 -31.5t78 31.5t21 97.5v251h79v-259q0 -187 -178 -187z" />
    <glyph glyph-name="omegatonos" unicode="&#x3ce;" 
d="M284 494l-32 195h96l-32 -195h-32zM190 -10q-73 0 -106.5 59.5t-33.5 153.5q0 71 17.5 133t44.5 100h85q-70 -97 -70 -236q0 -145 71 -145q65 0 65 141v115h74v-115q0 -141 65 -141q71 0 71 145q0 139 -70 236h85q27 -38 44.5 -100t17.5 -133q0 -94 -33.5 -153.5
t-106.5 -59.5q-80 0 -110 71q-31 -71 -110 -71z" />
    <glyph glyph-name="uni0400" unicode="&#x400;" 
d="M315 602l-126 194h96l77 -194h-47zM122 0v564h367v-71h-284v-170h247v-71h-247v-181h284v-71h-367z" />
    <glyph glyph-name="uni0401" unicode="&#x401;" 
d="M153 645v101h101v-101h-101zM362 645v101h101v-101h-101zM122 0v564h367v-71h-284v-170h247v-71h-247v-181h284v-71h-367z" />
    <glyph glyph-name="uni0402" unicode="&#x402;" 
d="M343 -6q-27 0 -42 3v70q15 -3 33 -3q57 0 84 26t27 67q0 45 -31.5 71t-95.5 26h-69v-254h-83v493h-136v71h354v-71h-135v-168h75q93 0 150 -44t57 -121q0 -75 -52.5 -120.5t-135.5 -45.5z" />
    <glyph glyph-name="uni0403" unicode="&#x403;" 
d="M257 602l77 194h96l-126 -194h-47zM122 0v564h372v-71h-288v-493h-84z" />
    <glyph glyph-name="uni0404" unicode="&#x404;" 
d="M310 -10q-116 0 -174 75t-58 215q0 143 60.5 219t174.5 76q39 0 73.5 -9.5t65 -30.5t49.5 -60.5t21 -93.5h-80q-12 122 -131 122q-136 0 -146 -182h241v-69h-242q2 -54 13 -92t44.5 -67.5t89.5 -30.5q121 -4 130 121h81q-2 -69 -34.5 -114t-77 -62t-100.5 -17z" />
    <glyph glyph-name="uni0405" unicode="&#x405;" 
d="M301 -10q-98 0 -154.5 44.5t-56.5 127.5h81q6 -101 130 -101q58 0 92 22.5t34 64.5q0 31 -19.5 49t-60.5 33l-121 43q-125 44 -125 149q0 73 55.5 113t142.5 40q89 0 141 -43.5t53 -127.5h-80q-5 99 -116 99q-53 0 -82.5 -21.5t-29.5 -57.5q0 -53 72 -78l121 -43
q70 -25 101.5 -58.5t31.5 -89.5q0 -82 -58.5 -123.5t-151.5 -41.5z" />
    <glyph glyph-name="uni0406" unicode="&#x406;" 
d="M121 0v71h138v422h-138v71h358v-71h-137v-422h137v-71h-358z" />
    <glyph glyph-name="uni0407" unicode="&#x407;" 
d="M145 645v101h101v-101h-101zM354 645v101h101v-101h-101zM121 0v71h138v422h-138v71h358v-71h-137v-422h137v-71h-358z" />
    <glyph glyph-name="uni0408" unicode="&#x408;" 
d="M290 -10q-92 0 -143.5 53.5t-51.5 140.5q0 21 3 36h80q-2 -14 -2 -34q0 -58 28.5 -90.5t84.5 -32.5q117 0 117 155v346h83v-350q0 -224 -199 -224z" />
    <glyph glyph-name="uni0409" unicode="&#x409;" 
d="M13 -5v64q58 0 82.5 32t29.5 112l19 361h240v-240h12q89 0 144.5 -42.5t55.5 -118.5q0 -75 -56 -119t-144 -44h-88v494h-91l-16 -304q-6 -100 -47 -147.5t-141 -47.5zM384 257v-190h10q61 0 92.5 26t31.5 69t-31.5 69t-92.5 26h-10z" />
    <glyph glyph-name="uni040A" unicode="&#x40a;" 
d="M53 0v564h76v-240h141v240h76v-240h35q89 0 144.5 -43t55.5 -119q0 -74 -56.5 -118t-143.5 -44h-111v257h-141v-257h-76zM346 257v-190h33q61 0 92.5 26t31.5 69t-31.5 69t-92.5 26h-33z" />
    <glyph glyph-name="uni040B" unicode="&#x40b;" 
d="M174 0v493h-144v71h372v-71h-145v-177q50 14 109 14q85 0 126 -44t41 -139v-147h-83v139q0 67 -21 92.5t-85 25.5q-43 0 -87 -10v-247h-83z" />
    <glyph glyph-name="uni040C" unicode="&#x40c;" 
d="M277 602l77 194h96l-126 -194h-47zM122 0v564h83v-265l234 265h100l-214 -236l234 -328h-104l-184 270l-66 -73v-197h-83z" />
    <glyph glyph-name="uni040D" unicode="&#x40d;" 
d="M307 602l-126 194h96l77 -194h-47zM123 0v564h75v-321l-9 -162l177 483h111v-564h-75v321l9 162l-177 -483h-111z" />
    <glyph glyph-name="uni040E" unicode="&#x40e;" 
d="M315 632q-65 0 -107 40t-56 82l34 23q49 -75 129 -75t129 75l34 -23q-14 -42 -56 -82t-107 -40zM115 -5v70q62 0 102.5 23t67.5 76l-228 400h101l105 -198l66 -129l52 129l81 198h91l-168 -383q-45 -103 -105.5 -144.5t-164.5 -41.5z" />
    <glyph glyph-name="uni040F" unicode="&#x40f;" 
d="M261 -136v136h-139v564h84v-493h188v493h84v-564h-140v-136h-77z" />
    <glyph glyph-name="uni0410" unicode="&#x410;" 
d="M56 0l199 564h90l199 -564h-90l-45 134h-220l-45 -134h-88zM238 287l-29 -85h178l-29 85l-60 191z" />
    <glyph glyph-name="uni0411" unicode="&#x411;" 
d="M122 0v564h372v-71h-289v-169h112q93 0 149 -42.5t56 -118.5t-57.5 -119.5t-149.5 -43.5h-193zM205 252v-181h107q64 0 94 26t30 67q0 88 -127 88h-104z" />
    <glyph glyph-name="uni0412" unicode="&#x412;" 
d="M122 0v564h175q91 0 147 -42t56 -113q0 -81 -80 -116q43 -14 72.5 -46.5t29.5 -84.5q0 -73 -58 -117.5t-149 -44.5h-193zM205 252v-181h107q64 0 94 26t30 67q0 88 -127 88h-104zM205 493v-170h82q126 0 126 82q0 88 -122 88h-86z" />
    <glyph glyph-name="uni0413" unicode="&#x413;" 
d="M122 0v564h372v-71h-288v-493h-84z" />
    <glyph glyph-name="uni0414" unicode="&#x414;" 
d="M24 -136v206q70 0 95.5 24t35.5 103l50 367h281v-494h79v-206h-77v136h-387v-136h-77zM189 70h215v424h-126l-41 -302q-13 -96 -48 -122z" />
    <glyph glyph-name="uni0415" unicode="&#x415;" 
d="M122 0v564h367v-71h-284v-170h247v-71h-247v-181h284v-71h-367z" />
    <glyph glyph-name="uni0416" unicode="&#x416;" 
d="M-2 0l159 340l-144 224h88l120 -194l42 -78v272h74v-272l42 78l120 194h88l-144 -224l159 -340h-82l-127 280l-56 -78v-202h-74v202l-56 78l-127 -280h-82z" />
    <glyph glyph-name="uni0417" unicode="&#x417;" 
d="M300 -10q-95 0 -154 46.5t-63 136.5h81q9 -114 133 -114q59 0 93 25t34 72q0 49 -37 76t-97 27h-18v66h17q122 0 122 87q0 44 -31 69t-84 25q-52 0 -86.5 -27t-38.5 -88h-82q5 93 64 138.5t147 45.5q90 0 143 -44.5t53 -115.5q0 -87 -87 -122q47 -17 73.5 -54t26.5 -87
q0 -73 -56.5 -117.5t-152.5 -44.5z" />
    <glyph glyph-name="uni0418" unicode="&#x418;" 
d="M123 0v564h75v-321l-9 -162l177 483h111v-564h-75v321l9 162l-177 -483h-111z" />
    <glyph glyph-name="uni0419" unicode="&#x419;" 
d="M300 632q-65 0 -107 40t-56 82l34 23q49 -75 129 -75t129 75l34 -23q-14 -42 -56 -82t-107 -40zM123 0v564h75v-321l-9 -162l177 483h111v-564h-75v321l9 162l-177 -483h-111z" />
    <glyph glyph-name="uni041A" unicode="&#x41a;" 
d="M122 0v564h83v-265l234 265h100l-214 -236l234 -328h-104l-184 270l-66 -73v-197h-83z" />
    <glyph glyph-name="uni041B" unicode="&#x41b;" 
d="M14 -5v70q63 0 88 26t36 106l50 367h291v-564h-83v493h-135l-42 -307q-14 -106 -57 -148.5t-148 -42.5z" />
    <glyph glyph-name="uni041C" unicode="&#x41c;" 
d="M90 0v564h110l64 -188l38 -124l37 124l64 188h107v-564h-75v330l7 157l-110 -329h-64l-110 329l7 -157v-330h-75z" />
    <glyph glyph-name="uni041D" unicode="&#x41d;" 
d="M122 0v564h83v-241h190v241h83v-564h-83v253h-190v-253h-83z" />
    <glyph glyph-name="uni041E" unicode="&#x41e;" 
d="M298 -10q-111 0 -165.5 75.5t-54.5 213.5q0 141 56 218.5t168 77.5q111 0 165.5 -75.5t54.5 -214.5q0 -141 -56 -218t-168 -77zM300 62q44 0 73 20t42 56t17 68.5t4 75.5t-4 75.5t-17 69t-42 56.5t-73 20t-73 -20t-42 -56.5t-17 -69t-4 -75.5t4 -75.5t17 -68.5t42 -56
t73 -20z" />
    <glyph glyph-name="uni041F" unicode="&#x41f;" 
d="M122 0v564h356v-564h-83v493h-190v-493h-83z" />
    <glyph glyph-name="uni0420" unicode="&#x420;" 
d="M122 0v564h165q109 0 171.5 -45t62.5 -133t-62.5 -133t-171.5 -45h-82v-208h-83zM205 493v-214h83q147 0 147 107t-147 107h-83z" />
    <glyph glyph-name="uni0421" unicode="&#x421;" 
d="M310 -10q-116 0 -174 75t-58 215q0 143 60.5 219t174.5 76q39 0 73.5 -9.5t65 -30.5t49.5 -60.5t21 -93.5h-80q-12 122 -131 122q-45 0 -76 -18.5t-45.5 -52.5t-20 -69.5t-5.5 -82.5q0 -44 5.5 -78.5t20 -68.5t45.5 -52.5t76 -18.5q63 0 94 29t36 92h81
q-2 -69 -34.5 -114t-77 -62t-100.5 -17z" />
    <glyph glyph-name="uni0422" unicode="&#x422;" 
d="M258 0v493h-190v71h465v-71h-192v-493h-83z" />
    <glyph glyph-name="uni0423" unicode="&#x423;" 
d="M115 -5v70q62 0 102.5 23t67.5 76l-228 400h101l105 -198l66 -129l52 129l81 198h91l-168 -383q-45 -103 -105.5 -144.5t-164.5 -41.5z" />
    <glyph glyph-name="uni0424" unicode="&#x424;" 
d="M261 0v81q-106 0 -167.5 54.5t-61.5 145.5t62 146.5t167 55.5v81h78v-81q106 0 167.5 -54.5t61.5 -145.5t-62 -146.5t-167 -55.5v-81h-78zM261 149v266q-75 0 -111 -36.5t-36 -96.5t36 -96.5t111 -36.5zM339 415v-266q75 0 111 36.5t36 96.5t-36 96.5t-111 36.5z" />
    <glyph glyph-name="uni0425" unicode="&#x425;" 
d="M55 0l198 289l-187 275h96l82 -126l57 -90l58 90l82 126h94l-187 -273l197 -291h-96l-94 144l-56 87l-55 -87l-96 -144h-93z" />
    <glyph glyph-name="uni0426" unicode="&#x426;" 
d="M450 -136v136h-328v564h84v-493h188v493h84v-493h49v-207h-77z" />
    <glyph glyph-name="uni0427" unicode="&#x427;" 
d="M394 0v247q-50 -13 -110 -13q-86 0 -128.5 44.5t-42.5 141.5v144h84v-137q0 -68 21.5 -94.5t86.5 -26.5q49 0 89 10v248h84v-564h-84z" />
    <glyph glyph-name="uni0428" unicode="&#x428;" 
d="M58 0v564h79v-494h124v494h78v-494h124v494h79v-564h-484z" />
    <glyph glyph-name="uni0429" unicode="&#x429;" 
d="M509 -136v136h-451v564h79v-494h124v494h78v-494h124v494h79v-494h44v-206h-77z" />
    <glyph glyph-name="uni042A" unicode="&#x42a;" 
d="M205 0v493h-143v71h227v-240h31q93 0 149 -42.5t56 -118.5t-57.5 -119.5t-149.5 -43.5h-113zM289 254v-184h24q63 0 94.5 24.5t31.5 67.5t-31.5 67.5t-94.5 24.5h-24z" />
    <glyph glyph-name="uni042B" unicode="&#x42b;" 
d="M73 0v564h84v-240h27q93 0 149 -42.5t56 -118.5t-57.5 -119.5t-149.5 -43.5h-109zM157 254v-184h20q63 0 94.5 24.5t31.5 67.5t-31.5 67.5t-94.5 24.5h-20zM443 0v564h84v-564h-84z" />
    <glyph glyph-name="uni042C" unicode="&#x42c;" 
d="M122 0v564h84v-240h111q93 0 149 -42.5t56 -118.5t-57.5 -119.5t-149.5 -43.5h-193zM206 254v-184h104q63 0 94.5 24.5t31.5 67.5t-31.5 67.5t-94.5 24.5h-104z" />
    <glyph glyph-name="uni042D" unicode="&#x42d;" 
d="M287 -10q-40 0 -74.5 9.5t-65 30.5t-49 60t-20.5 93h83q12 -121 128 -121q140 0 146 193h-241v64h241q-10 184 -146 184q-116 0 -128 -122h-83q2 70 34.5 115t77 62t99.5 17q116 0 174.5 -75.5t58.5 -214.5q0 -143 -60.5 -219t-174.5 -76z" />
    <glyph glyph-name="uni042E" unicode="&#x42e;" 
d="M385 -10q-61 0 -98.5 35t-52 90t-16.5 137h-80v-252h-79v564h79v-243h80q5 121 44 187.5t126 66.5q93 0 131 -76.5t38 -213.5q0 -140 -39 -217.5t-133 -77.5zM387 62q36 0 56 29.5t26 74t6 116.5q0 73 -6 117.5t-26 74t-56 29.5q-52 0 -71 -56t-19 -165t19 -164.5
t71 -55.5z" />
    <glyph glyph-name="uni042F" unicode="&#x42f;" 
d="M59 0l177 225q-64 17 -101 59t-37 107q0 85 63 129t172 44h145v-564h-84v212h-73l-159 -212h-103zM332 280h62v213h-62q-148 0 -148 -106q0 -107 148 -107z" />
    <glyph glyph-name="uni0430" unicode="&#x430;" 
d="M238 -10q-67 0 -108.5 30.5t-41.5 92.5q0 126 173 126q72 0 125 -17v38q0 60 -19.5 90t-83.5 30q-109 0 -109 -91h-76q0 45 17 77t46 48.5t60.5 24t67.5 7.5q176 0 176 -170v-198q0 -13 5.5 -18t18.5 -5q21 0 49 7v-56q-37 -16 -76 -16q-65 0 -65 59v8q-51 -67 -159 -67z
M251 57q78 0 135 41v68q-44 11 -110 11q-54 0 -81.5 -14t-27.5 -48q0 -58 84 -58z" />
    <glyph glyph-name="uni0431" unicode="&#x431;" 
d="M297 -10q-104 0 -158 66q-51 62 -51 212q0 110 22 178t57.5 97.5t92.5 44.5l219 55v-75l-188 -47q-64 -16 -91.5 -49t-35.5 -96q48 68 147 68q39 0 73 -11t63.5 -35.5t47 -70t17.5 -107.5q0 -65 -19 -112.5t-51.5 -72t-68 -35t-76.5 -10.5zM300 59q130 0 130 158
q0 157 -130 157t-130 -157q0 -158 130 -158z" />
    <glyph glyph-name="uni0432" unicode="&#x432;" 
d="M122 0v436h177q85 0 131 -32t46 -87q0 -62 -58 -89q35 -13 57 -40t22 -65q0 -56 -47 -89.5t-134 -33.5h-194zM201 191v-126h112q103 0 103 64q0 31 -24.5 46.5t-81.5 15.5h-109zM201 371v-118h89q58 0 81 14t23 44q0 29 -22 44.5t-80 15.5h-91z" />
    <glyph glyph-name="uni0433" unicode="&#x433;" 
d="M140 0v436h337v-67h-258v-369h-79z" />
    <glyph glyph-name="uni0434" unicode="&#x434;" 
d="M38 -118v184h10q53 0 74.5 19t30.5 80l40 271h287v-370h65v-184h-73v118h-361v-118h-73zM187 66h216v304h-142l-31 -211q-11 -71 -43 -93z" />
    <glyph glyph-name="uni0435" unicode="&#x435;" 
d="M305 -10q-95 0 -156 55.5t-61 171.5q0 62 18.5 108.5t50 71.5t67.5 37t76 12t75.5 -11.5t67.5 -36.5t51 -71t19 -109v-16h-346q6 -147 140 -147q52 0 85 22t40 63h80q-6 -41 -27.5 -72t-52 -47t-62 -23.5t-65.5 -7.5zM168 262h264q-7 58 -42 89t-90 31t-90 -31t-42 -89z
" />
    <glyph glyph-name="uni0436" unicode="&#x436;" 
d="M-2 0l167 251l-157 185h85l111 -132l61 -78v210h70v-210l62 78l110 132h85l-158 -185l168 -251h-83l-135 207l-49 -58v-149h-70v149l-49 58l-135 -207h-83z" />
    <glyph glyph-name="uni0437" unicode="&#x437;" 
d="M299 -10q-187 0 -194 143h76q5 -78 118 -78t113 67q0 70 -115 70h-32v60h32q50 0 78 17t28 49q0 63 -105 63t-112 -77h-76q4 75 56 108.5t132 33.5q83 0 134 -32.5t51 -91.5q0 -74 -78 -99q42 -10 65 -38.5t23 -68.5q0 -60 -52.5 -93t-141.5 -33z" />
    <glyph glyph-name="uni0438" unicode="&#x438;" 
d="M122 0v436h76v-229l-8 -128l191 357h99v-436h-76v229l8 128l-191 -357h-99z" />
    <glyph glyph-name="uni0439" unicode="&#x439;" 
d="M300 524q-65 0 -107 40t-56 82l34 23q49 -75 129 -75t129 75l34 -23q-14 -42 -56 -82t-107 -40zM122 0v436h76v-229l-8 -128l191 357h99v-436h-76v229l8 128l-191 -357h-99z" />
    <glyph glyph-name="uni043A" unicode="&#x43a;" 
d="M122 0v436h79v-189l221 189h105l-193 -162l203 -274h-97l-162 229l-77 -63v-166h-79z" />
    <glyph glyph-name="uni043B" unicode="&#x43b;" 
d="M45 -5v68q58 0 81.5 23t33.5 97l35 253h283v-436h-79v369h-135l-27 -197q-14 -96 -53.5 -136.5t-138.5 -40.5z" />
    <glyph glyph-name="uni043C" unicode="&#x43c;" 
d="M96 0v436h104l67 -161l34 -94l33 94l67 161h103v-436h-71v246l9 124l-112 -269h-60l-112 269l9 -124v-246h-71z" />
    <glyph glyph-name="uni043D" unicode="&#x43d;" 
d="M122 0v436h79v-181h198v181h79v-436h-79v188h-198v-188h-79z" />
    <glyph glyph-name="uni043E" unicode="&#x43e;" 
d="M298 -10q-40 0 -75.5 11.5t-67 36.5t-49.5 71t-18 108q0 64 19 110.5t51 71t68 36t76 11.5t75.5 -11t66.5 -35.5t49.5 -70.5t18.5 -109q0 -64 -19 -111t-51.5 -71.5t-68 -36t-75.5 -11.5zM300 56q133 0 133 162t-133 162t-133 -162t133 -162z" />
    <glyph glyph-name="uni043F" unicode="&#x43f;" 
d="M122 0v436h356v-436h-79v369h-198v-369h-79z" />
    <glyph glyph-name="uni0440" unicode="&#x440;" 
d="M122 -180v616h66v-56q51 66 142 66q77 0 129.5 -56t52.5 -172q0 -113 -52 -170.5t-130 -57.5q-44 0 -78 17t-51 37v-224h-79zM309 56q62 0 92.5 43.5t30.5 118.5t-30.5 118.5t-92.5 43.5q-64 0 -108 -44v-236q44 -44 108 -44z" />
    <glyph glyph-name="uni0441" unicode="&#x441;" 
d="M306 -10q-42 0 -78 11t-69 35.5t-52 71t-19 110.5q0 65 19.5 111.5t53 71t69.5 35t76 10.5q34 0 65 -7.5t60.5 -25t48 -51.5t21.5 -80h-79q-10 95 -114 95q-139 0 -139 -159t139 -159q104 0 114 95h79q-3 -46 -22 -79.5t-48.5 -51t-60.5 -25.5t-64 -8z" />
    <glyph glyph-name="uni0442" unicode="&#x442;" 
d="M260 0v369h-185v67h449v-67h-185v-369h-79z" />
    <glyph glyph-name="uni0443" unicode="&#x443;" 
d="M83 -185v67q68 0 108 26t67 86l-191 442h86l94 -233l54 -140l54 138l96 235h82l-185 -429q-46 -107 -104 -149.5t-161 -42.5z" />
    <glyph glyph-name="uni0444" unicode="&#x444;" 
d="M264 -180v216q-34 -46 -97 -46q-66 0 -105.5 56t-39.5 172q0 115 40 171.5t105 56.5q63 0 97 -46v238h73v-238q35 46 97 46q66 0 105.5 -56t39.5 -172q0 -115 -40 -171.5t-105 -56.5q-62 0 -97 46v-216h-73zM188 58q27 0 48.5 11t27.5 23v252q-6 12 -27.5 23t-48.5 11
q-91 0 -91 -160t91 -160zM413 58q91 0 91 160t-91 160q-27 0 -48.5 -11t-27.5 -23v-252q6 -12 27.5 -23t48.5 -11z" />
    <glyph glyph-name="uni0445" unicode="&#x445;" 
d="M57 0l198 223l-188 213h96l139 -161l137 161h94l-186 -213l196 -223h-96l-148 171l-148 -171h-94z" />
    <glyph glyph-name="uni0446" unicode="&#x446;" 
d="M450 -118v118h-328v436h79v-369h198v369h79v-369h45v-185h-73z" />
    <glyph glyph-name="uni0447" unicode="&#x447;" 
d="M399 0v182q-61 -13 -115 -13q-84 0 -126.5 42.5t-42.5 133.5v91h78v-87q0 -63 24 -88t90 -25q47 0 92 9v191h79v-436h-79z" />
    <glyph glyph-name="uni0448" unicode="&#x448;" 
d="M57 0v436h76v-368h130v368h75v-368h130v368h76v-436h-487z" />
    <glyph glyph-name="uni0449" unicode="&#x449;" 
d="M513 -118v118h-456v436h76v-368h130v368h75v-368h130v368h76v-368h41v-186h-72z" />
    <glyph glyph-name="uni044A" unicode="&#x44a;" 
d="M208 0v369h-143v67h222v-182h65q77 0 122 -31.5t45 -94.5q0 -64 -45 -96t-122 -32h-144zM287 189v-124h59q92 0 92 62t-92 62h-59z" />
    <glyph glyph-name="uni044B" unicode="&#x44b;" 
d="M74 0v436h79v-182h62q77 0 122 -31.5t45 -94.5q0 -64 -45 -96t-122 -32h-141zM153 189v-124h56q92 0 92 62t-92 62h-56zM447 0v436h79v-436h-79z" />
    <glyph glyph-name="uni044C" unicode="&#x44c;" 
d="M122 0v436h79v-182h137q77 0 122 -31.5t45 -94.5q0 -64 -45 -96t-122 -32h-216zM201 189v-124h131q92 0 92 62t-92 62h-131z" />
    <glyph glyph-name="uni044D" unicode="&#x44d;" 
d="M294 -10q-35 0 -66 8t-60.5 25.5t-48 51t-21.5 79.5h75q9 -97 119 -97q127 0 139 134h-196v58h195q-13 130 -137 130q-52 0 -84 -23.5t-36 -73.5h-75q3 46 22 79.5t49 51t61.5 25.5t65.5 8q41 0 77 -11t68.5 -36t51.5 -71t19 -109q0 -64 -19.5 -111t-52.5 -71.5
t-69 -35.5t-77 -11z" />
    <glyph glyph-name="uni044E" unicode="&#x44e;" 
d="M384 -10q-162 0 -171 200h-77v-190h-77v436h77v-182h78q14 192 173 192q171 0 171 -226q0 -230 -174 -230zM385 56q94 0 94 162t-94 162q-51 0 -73.5 -40.5t-22.5 -121.5t22.5 -121.5t73.5 -40.5z" />
    <glyph glyph-name="uni044F" unicode="&#x44f;" 
d="M77 0l154 171q-115 33 -115 129q0 66 56.5 101t152.5 35h153v-436h-79v160h-85l-137 -160h-100zM325 222h74v149h-74q-127 0 -127 -75q0 -74 127 -74z" />
    <glyph glyph-name="uni0450" unicode="&#x450;" 
d="M306 494l-126 194h96l77 -194h-47zM305 -10q-95 0 -156 55.5t-61 171.5q0 62 18.5 108.5t50 71.5t67.5 37t76 12t75.5 -11.5t67.5 -36.5t51 -71t19 -109v-16h-346q6 -147 140 -147q52 0 85 22t40 63h80q-6 -41 -27.5 -72t-52 -47t-62 -23.5t-65.5 -7.5zM168 262h264
q-7 58 -42 89t-90 31t-90 -31t-42 -89z" />
    <glyph glyph-name="uni0451" unicode="&#x451;" 
d="M144 537v101h101v-101h-101zM353 537v101h101v-101h-101zM305 -10q-95 0 -156 55.5t-61 171.5q0 62 18.5 108.5t50 71.5t67.5 37t76 12t75.5 -11.5t67.5 -36.5t51 -71t19 -109v-16h-346q6 -147 140 -147q52 0 85 22t40 63h80q-6 -41 -27.5 -72t-52 -47t-62 -23.5
t-65.5 -7.5zM168 262h264q-7 58 -42 89t-90 31t-90 -31t-42 -89z" />
    <glyph glyph-name="uni0452" unicode="&#x452;" 
d="M219 -185v66q180 0 180 150v220q0 67 -18.5 98t-72.5 31q-69 0 -107 -46v-334h-79v500h-49v65h49v73h79v-73h117v-65h-117v-111q44 57 128 57q149 0 149 -178v-245q0 -104 -67.5 -156t-191.5 -52z" />
    <glyph glyph-name="uni0453" unicode="&#x453;" 
d="M255 494l77 194h96l-126 -194h-47zM140 0v436h337v-67h-258v-369h-79z" />
    <glyph glyph-name="uni0454" unicode="&#x454;" 
d="M303 -10q-41 0 -77 11t-68 36t-51 71t-19 109q0 64 19.5 111t52.5 71.5t69 35.5t77 11q35 0 66 -8t60.5 -25.5t48 -51t21.5 -79.5h-75q-9 97 -119 97q-126 0 -139 -130h196v-58h-196q12 -134 138 -134q52 0 84 23.5t36 73.5h75q-3 -46 -22 -79.5t-49 -51t-61.5 -25.5
t-66.5 -8z" />
    <glyph glyph-name="uni0455" unicode="&#x455;" 
d="M305 -10q-201 0 -207 148h74q5 -81 140 -81q111 0 111 60q0 23 -18.5 37.5t-43 21.5t-72.5 17q-16 3 -25 5q-74 16 -115 42.5t-41 82.5q0 62 52 92.5t135 30.5q181 0 192 -138h-74q-13 71 -121 71q-105 0 -105 -51q0 -11 4 -19.5t14 -15.5t18.5 -11.5t26.5 -9l28.5 -7
t34.5 -7l34 -6.5q76 -16 115.5 -43t39.5 -85q0 -68 -54.5 -101t-142.5 -33z" />
    <glyph glyph-name="uni0456" unicode="&#x456;" 
d="M110 0v67h158v302h-158v67h237v-369h144v-67h-381zM257 537v101h101v-101h-101z" />
    <glyph glyph-name="uni0457" unicode="&#x457;" 
d="M150 554v101h101v-101h-101zM359 554v101h101v-101h-101zM110 0v67h158v302h-158v67h237v-369h144v-67h-381z" />
    <glyph glyph-name="uni0458" unicode="&#x458;" 
d="M142 -185v66q180 0 180 150v338h-169v67h248v-413q0 -104 -67.5 -156t-191.5 -52zM311 537v101h101v-101h-101z" />
    <glyph glyph-name="uni0459" unicode="&#x459;" 
d="M15 -5v66q53 0 73.5 22t29.5 92l33 261h230v-182h48q77 0 121.5 -31.5t44.5 -95.5q0 -63 -45 -95t-121 -32h-124v372h-87l-26 -206q-12 -93 -49 -132t-128 -39zM381 191v-128h43q92 0 92 64t-92 64h-43z" />
    <glyph glyph-name="uni045A" unicode="&#x45a;" 
d="M43 0v436h77v-182h147v182h77v-182h77q77 0 121.5 -31.5t44.5 -95.5q0 -63 -45 -95t-121 -32h-154v191h-147v-191h-77zM344 191v-128h72q92 0 92 64q0 33 -22 48.5t-70 15.5h-72z" />
    <glyph glyph-name="uni045B" unicode="&#x45b;" 
d="M122 0v502h-49v61h49v75h79v-75h117v-61h-117v-113q44 57 128 57q149 0 149 -178v-268h-79v251q0 67 -18.5 98t-72.5 31q-69 0 -107 -46v-334h-79z" />
    <glyph glyph-name="uni045C" unicode="&#x45c;" 
d="M256 494l77 194h96l-126 -194h-47zM122 0v436h79v-189l221 189h105l-193 -162l203 -274h-97l-162 229l-77 -63v-166h-79z" />
    <glyph glyph-name="uni045D" unicode="&#x45d;" 
d="M307 494l-126 194h96l77 -194h-47zM122 0v436h76v-229l-8 -128l191 357h99v-436h-76v229l8 128l-191 -357h-99z" />
    <glyph glyph-name="uni045E" unicode="&#x45e;" 
d="M300 524q-65 0 -107 40t-56 82l34 23q49 -75 129 -75t129 75l34 -23q-14 -42 -56 -82t-107 -40zM83 -185v67q68 0 108 26t67 86l-191 442h86l94 -233l54 -140l54 138l96 235h82l-185 -429q-46 -107 -104 -149.5t-161 -42.5z" />
    <glyph glyph-name="uni045F" unicode="&#x45f;" 
d="M264 -118v118h-142v436h79v-369h198v369h79v-436h-142v-118h-72z" />
    <glyph glyph-name="uni0472" unicode="&#x472;" 
d="M300 62q42 0 70 18t41.5 51t18.5 64t6 72q-33 -46 -72 -46q-24 0 -70.5 27t-66.5 27q-32 0 -62 -40q10 -173 135 -173zM372 289q32 0 62 41q-10 173 -134 173q-134 0 -136 -205q31 46 71 46q25 0 71 -27.5t66 -27.5zM298 -10q-111 0 -165.5 75.5t-54.5 213.5
q0 141 56 218.5t168 77.5q111 0 165.5 -75.5t54.5 -214.5q0 -141 -56 -218t-168 -77z" />
    <glyph glyph-name="uni0473" unicode="&#x473;" 
d="M300 54q127 0 134 144q-23 -36 -62 -36q-24 0 -78 25t-73 25q-28 0 -54 -31q15 -127 133 -127zM379 221q29 0 54 30q-13 131 -133 131q-128 0 -135 -149q23 38 64 38q24 0 77.5 -25t72.5 -25zM298 -10q-40 0 -75.5 11.5t-67 36.5t-49.5 71t-18 108q0 64 19 110.5t51 71
t68 36t76 11.5t75.5 -11t66.5 -35.5t49.5 -70.5t18.5 -109q0 -64 -19 -111t-51.5 -71.5t-68 -36t-75.5 -11.5z" />
    <glyph glyph-name="uni0490" unicode="&#x490;" 
d="M122 0v564h296v136h76v-207h-288v-493h-84z" />
    <glyph glyph-name="uni0491" unicode="&#x491;" 
d="M140 0v436h265v118h72v-185h-258v-369h-79z" />
    <glyph glyph-name="uni0492" unicode="&#x492;" 
d="M133 0v250h-83v71h83v243h372v-71h-288v-172h208v-71h-208v-250h-84z" />
    <glyph glyph-name="uni0493" unicode="&#x493;" 
d="M154 0v185h-74v66h74v185h337v-67h-258v-118h181v-66h-181v-185h-79z" />
    <glyph glyph-name="uni0496" unicode="&#x496;" 
d="M533 -136v136h-13l-127 280l-56 -78v-202h-74v202l-56 78l-127 -280h-82l159 340l-144 224h88l120 -194l42 -78v272h74v-272l42 78l120 194h88l-144 -224l126 -271h41v-205h-77z" />
    <glyph glyph-name="uni0497" unicode="&#x497;" 
d="M529 -118v118h-10l-135 207l-49 -58v-149h-70v149l-49 58l-135 -207h-83l167 251l-157 185h85l111 -132l61 -78v210h70v-210l62 78l110 132h85l-158 -185l123 -184h45v-185h-73z" />
    <glyph glyph-name="uni0498" unicode="&#x498;" 
d="M262 -136v128q-80 9 -127.5 54.5t-51.5 126.5h81q9 -114 133 -114q59 0 93 25t34 72q0 49 -37 76t-97 27h-18v66h17q122 0 122 87q0 44 -31 69t-84 25q-52 0 -86.5 -27t-38.5 -88h-82q5 93 64 138.5t147 45.5q90 0 143 -44.5t53 -115.5q0 -87 -87 -122q47 -17 73.5 -54
t26.5 -87q0 -65 -45.5 -108t-124.5 -52v-128h-77z" />
    <glyph glyph-name="uni0499" unicode="&#x499;" 
d="M262 -118v110q-151 13 -157 141h76q5 -78 118 -78t113 67q0 70 -115 70h-32v60h32q50 0 78 17t28 49q0 63 -105 63t-112 -77h-76q4 75 56 108.5t132 33.5q83 0 134 -32.5t51 -91.5q0 -74 -78 -99q42 -10 65 -38.5t23 -68.5q0 -54 -42 -86t-116 -38v-110h-73z" />
    <glyph glyph-name="uni049A" unicode="&#x49a;" 
d="M483 -136v136h-28l-184 270l-66 -73v-197h-83v564h83v-265l234 265h100l-214 -236l185 -259h51v-205h-78z" />
    <glyph glyph-name="uni049B" unicode="&#x49b;" 
d="M466 -118v118h-32l-158 225l-75 -62v-163h-79v436h79v-188l221 188h104l-193 -163l153 -206h52v-185h-72z" />
    <glyph glyph-name="uni049C" unicode="&#x49c;" 
d="M112 0v564h81v-241h39v93h57v-93h23l138 241h94l-161 -272l181 -292h-96l-151 252h-28v-94h-57v94h-39v-252h-81z" />
    <glyph glyph-name="uni049D" unicode="&#x49d;" 
d="M116 0v436h76v-181h38v80h55v-80h23l121 181h89l-143 -211l161 -225h-92l-132 190h-27v-80h-55v80h-38v-190h-76z" />
    <glyph glyph-name="uni04A0" unicode="&#x4a0;" 
d="M142 0v493h-133v71h216v-265l234 265h100l-214 -236l234 -328h-104l-184 270l-66 -73v-197h-83z" />
    <glyph glyph-name="uni04A1" unicode="&#x4a1;" 
d="M155 0v369h-139v67h218v-188l221 188h104l-193 -163l203 -273h-102l-158 225l-75 -62v-163h-79z" />
    <glyph glyph-name="uni04A2" unicode="&#x4a2;" 
d="M450 -136v136h-55v252h-190v-252h-83v564h83v-241h190v241h83v-495h49v-205h-77z" />
    <glyph glyph-name="uni04A3" unicode="&#x4a3;" 
d="M450 -118v118h-51v188h-198v-188h-79v436h79v-181h198v181h79v-369h45v-185h-73z" />
    <glyph glyph-name="uni04AA" unicode="&#x4aa;" 
d="M273 -136v129q-97 11 -146 85t-49 202q0 143 60.5 219t174.5 76q39 0 73.5 -9.5t65 -30.5t49.5 -60.5t21 -93.5h-80q-12 122 -131 122q-45 0 -76 -18.5t-45.5 -52.5t-20 -69.5t-5.5 -82.5q0 -44 5.5 -78.5t20 -68.5t45.5 -52.5t76 -18.5q63 0 94 29t36 92h81
q-4 -89 -51 -135t-121 -55v-129h-77z" />
    <glyph glyph-name="uni04AB" unicode="&#x4ab;" 
d="M270 -118v110q-79 9 -130.5 62.5t-51.5 162.5q0 64 19.5 111t52.5 71.5t69 35.5t77 11q35 0 66 -8t60.5 -25.5t48 -51t21.5 -79.5h-75q-9 97 -119 97q-140 0 -140 -160q0 -162 139 -162q52 0 84 23.5t36 73.5h75q-5 -75 -50.5 -114t-109.5 -47v-111h-72z" />
    <glyph glyph-name="uni04AE" unicode="&#x4ae;" 
d="M259 0v225l-220 339h96l83 -132l83 -142l84 142l83 132h93l-219 -339v-225h-83z" />
    <glyph glyph-name="uni04AF" unicode="&#x4af;" 
d="M261 -180v166l-194 450h86l94 -233l54 -139l54 137l96 235h82l-194 -450v-166h-78z" />
    <glyph glyph-name="uni04B0" unicode="&#x4b0;" 
d="M259 0v125h-150v67h150v33l-220 339h96l83 -132l83 -142l84 142l83 132h93l-219 -339v-33h150v-67h-150v-125h-83z" />
    <glyph glyph-name="uni04B1" unicode="&#x4b1;" 
d="M261 -180v180h-155v67h120l-159 369h86l94 -233l54 -142l54 140l96 235h82l-159 -369h120v-67h-155v-180h-78z" />
    <glyph glyph-name="uni04B2" unicode="&#x4b2;" 
d="M476 -136v136h-27l-94 144l-56 87l-55 -87l-96 -144h-93l198 289l-187 275h96l82 -126l57 -90l58 90l82 126h94l-187 -273l150 -222h55v-205h-77z" />
    <glyph glyph-name="uni04B3" unicode="&#x4b3;" 
d="M471 -118v118h-24l-148 171l-148 -171h-94l198 223l-188 213h96l139 -161l137 161h94l-186 -213l137 -156h60v-185h-73z" />
    <glyph glyph-name="uni04B6" unicode="&#x4b6;" 
d="M450 -136v136h-56v247q-50 -13 -110 -13q-86 0 -128.5 44.5t-42.5 141.5v144h84v-137q0 -68 21.5 -94.5t86.5 -26.5q49 0 89 10v248h84v-495h49v-205h-77z" />
    <glyph glyph-name="uni04B7" unicode="&#x4b7;" 
d="M450 -118v118h-51v182q-61 -13 -115 -13q-84 0 -126.5 42.5t-42.5 133.5v91h78v-87q0 -63 24 -88t90 -25q47 0 92 9v191h79v-369h45v-185h-73z" />
    <glyph glyph-name="uni04B8" unicode="&#x4b8;" 
d="M395 0v247q-37 -9 -67 -11v-92h-59v90q-79 4 -117.5 48.5t-38.5 137.5v144h83v-137q0 -59 15 -85.5t58 -33.5v89h59v-91q31 3 67 10v248h84v-564h-84z" />
    <glyph glyph-name="uni04B9" unicode="&#x4b9;" 
d="M401 0v183q-26 -7 -74 -12v-84h-55v82q-79 3 -118.5 45.5t-39.5 130.5v91h79v-87q0 -55 17 -80t62 -31v82h55v-84q36 1 74 9v191h79v-436h-79z" />
    <glyph glyph-name="uni04BA" unicode="&#x4ba;" 
d="M122 0v564h84v-248q52 14 111 14q86 0 128 -44.5t42 -142.5v-143h-84v137q0 68 -21.5 94t-86.5 26q-43 0 -89 -10v-247h-84z" />
    <glyph glyph-name="uni04BB" unicode="&#x4bb;" 
d="M122 0v638h79v-249q44 57 128 57q149 0 149 -178v-268h-79v251q0 67 -18.5 98t-72.5 31q-69 0 -107 -46v-334h-79z" />
    <glyph glyph-name="uni04C1" unicode="&#x4c1;" 
d="M300 632q-65 0 -107 40t-56 82l34 23q49 -75 129 -75t129 75l34 -23q-14 -42 -56 -82t-107 -40zM-2 0l159 340l-144 224h88l120 -194l42 -78v272h74v-272l42 78l120 194h88l-144 -224l159 -340h-82l-127 280l-56 -78v-202h-74v202l-56 78l-127 -280h-82z" />
    <glyph glyph-name="uni04C2" unicode="&#x4c2;" 
d="M300 524q-65 0 -107 40t-56 82l34 23q49 -75 129 -75t129 75l34 -23q-14 -42 -56 -82t-107 -40zM-2 0l167 251l-157 185h85l111 -132l61 -78v210h70v-210l62 78l110 132h85l-158 -185l168 -251h-83l-135 207l-49 -58v-149h-70v149l-49 58l-135 -207h-83z" />
    <glyph glyph-name="uni04D8" unicode="&#x4d8;" 
d="M297 -10q-110 0 -165 77t-55 214v19h361q-7 204 -143 204q-58 0 -92 -34t-44 -92h-83q17 94 74.5 145.5t146.5 51.5q111 0 168 -78.5t57 -213.5t-57 -214t-168 -79zM298 59q125 0 138 176h-275q13 -176 137 -176z" />
    <glyph glyph-name="uni04D9" unicode="&#x4d9;" 
d="M300 -10q-40 0 -75.5 11.5t-67.5 36.5t-51 71t-19 109v16h346q-6 147 -140 147q-52 0 -85 -22t-40 -63h-80q6 41 27.5 72t52 47t62 23.5t65.5 7.5q95 0 156 -55.5t61 -171.5q0 -62 -18.5 -108.5t-50 -71.5t-67.5 -37t-76 -12zM300 55q55 0 90 30.5t42 88.5h-264
q7 -58 42 -88.5t90 -30.5z" />
    <glyph glyph-name="uni04E2" unicode="&#x4e2;" 
d="M157 659v67h286v-67h-286zM123 0v564h75v-321l-9 -162l177 483h111v-564h-75v321l9 162l-177 -483h-111z" />
    <glyph glyph-name="uni04E3" unicode="&#x4e3;" 
d="M157 551v67h286v-67h-286zM122 0v436h76v-229l-8 -128l191 357h99v-436h-76v229l8 128l-191 -357h-99z" />
    <glyph glyph-name="uni04E8" unicode="&#x4e8;" 
d="M298 -10q-111 0 -165.5 75.5t-54.5 213.5q0 141 56 218.5t168 77.5q111 0 165.5 -75.5t54.5 -214.5q0 -141 -56 -218t-168 -77zM300 62q129 0 135 189h-271q1 -30 4.5 -54t13 -50.5t23.5 -44t38.5 -29t56.5 -11.5zM164 315h271q-6 188 -135 188q-128 0 -136 -188z" />
    <glyph glyph-name="uni04E9" unicode="&#x4e9;" 
d="M298 -10q-40 0 -75.5 11.5t-67 36.5t-49.5 71t-18 108q0 64 19 110.5t51 71t68 36t76 11.5t75.5 -11t66.5 -35.5t49.5 -70.5t18.5 -109q0 -64 -19 -111t-51.5 -71.5t-68 -36t-75.5 -11.5zM300 54q123 0 133 136h-267q12 -136 134 -136zM166 247h267q-12 135 -133 135
q-122 0 -134 -135z" />
    <glyph glyph-name="uni04EE" unicode="&#x4ee;" 
d="M172 659v67h286v-67h-286zM115 -5v70q62 0 102.5 23t67.5 76l-228 400h101l105 -198l66 -129l52 129l81 198h91l-168 -383q-45 -103 -105.5 -144.5t-164.5 -41.5z" />
    <glyph glyph-name="uni04EF" unicode="&#x4ef;" 
d="M157 551v67h286v-67h-286zM83 -185v67q68 0 108 26t67 86l-191 442h86l94 -233l54 -140l54 138l96 235h82l-185 -429q-46 -107 -104 -149.5t-161 -42.5z" />
    <glyph glyph-name="uni05B0" unicode="&#x5b0;" horiz-adv-x="0" 
d="M-35 -128v70h70v-70h-70zM-35 -238v70h70v-70h-70z" />
    <glyph glyph-name="uni05B1" unicode="&#x5b1;" horiz-adv-x="0" 
d="M-165 -128v70h70v-70h-70zM-35 -128v70h70v-70h-70zM95 -128v70h70v-70h-70zM-100 -238v70h70v-70h-70zM95 -238v70h70v-70h-70z" />
    <glyph glyph-name="uni05B2" unicode="&#x5b2;" horiz-adv-x="0" 
d="M82 -128v70h70v-70h-70zM-152 -124v62h176v-62h-176zM82 -238v70h70v-70h-70z" />
    <glyph glyph-name="uni05B3" unicode="&#x5b3;" horiz-adv-x="0" 
d="M82 -128v70h70v-70h-70zM-98 -220l11 96h-65v62h176v-62h-65l11 -96h-68zM82 -238v70h70v-70h-70z" />
    <glyph glyph-name="uni05B4" unicode="&#x5b4;" horiz-adv-x="0" 
d="M-35 -128v70h70v-70h-70z" />
    <glyph glyph-name="uni05B5" unicode="&#x5b5;" horiz-adv-x="0" 
d="M-99 -128v70h70v-70h-70zM29 -128v70h70v-70h-70z" />
    <glyph glyph-name="uni05B6" unicode="&#x5b6;" horiz-adv-x="0" 
d="M-99 -128v70h70v-70h-70zM29 -128v70h70v-70h-70zM-35 -238v70h70v-70h-70z" />
    <glyph glyph-name="uni05B7" unicode="&#x5b7;" horiz-adv-x="0" 
d="M-88 -124v62h176v-62h-176z" />
    <glyph glyph-name="uni05B8" unicode="&#x5b8;" horiz-adv-x="0" 
d="M-34 -220l11 96h-65v62h176v-62h-65l11 -96h-68z" />
    <glyph glyph-name="uni05B9" unicode="&#x5b9;" horiz-adv-x="0" 
d="M-35 554v70h70v-70h-70z" />
    <glyph glyph-name="uni05BA" unicode="&#x5ba;" horiz-adv-x="0" 
d="M-35 554v70h70v-70h-70z" />
    <glyph glyph-name="uni05BB" unicode="&#x5bb;" horiz-adv-x="0" 
d="M-130 -128v70h70v-70h-70zM-35 -183v70h70v-70h-70zM60 -238v70h70v-70h-70z" />
    <glyph glyph-name="uni05BC" unicode="&#x5bc;" horiz-adv-x="0" 
d="M-35 225v70h70v-70h-70z" />
    <glyph glyph-name="uni05BD" unicode="&#x5bd;" horiz-adv-x="0" 
d="M-31 -203v149h62v-149h-62z" />
    <glyph glyph-name="uni05BE" unicode="&#x5be;" 
d="M174 425v71h252v-71h-252z" />
    <glyph glyph-name="uni05BF" unicode="&#x5bf;" horiz-adv-x="0" 
d="M-89 552v58h178v-58h-178z" />
    <glyph glyph-name="uni05C0" unicode="&#x5c0;" 
d="M264 -180v818h72v-818h-72z" />
    <glyph glyph-name="uni05C1" unicode="&#x5c1;" horiz-adv-x="0" 
d="M-35 554v70h70v-70h-70z" />
    <glyph glyph-name="uni05C2" unicode="&#x5c2;" horiz-adv-x="0" 
d="M-35 554v70h70v-70h-70z" />
    <glyph glyph-name="uni05C3" unicode="&#x5c3;" 
d="M239 373v123h122v-123h-122zM239 0v123h122v-123h-122z" />
    <glyph glyph-name="uni05C7" unicode="&#x5c7;" horiz-adv-x="0" 
d="M-31 -184l9 60h-44v62h132v-62h-44l9 -60h-62z" />
    <glyph glyph-name="uni05D0" unicode="&#x5d0;" 
d="M89 0v193q0 112 90 161l-98 142h92l199 -286q60 36 60 113v173h79v-180q0 -115 -98 -165l106 -151h-92l-207 296q-52 -34 -52 -111v-185h-79z" />
    <glyph glyph-name="uni05D1" unicode="&#x5d1;" 
d="M108 0v67h277v240q0 67 -25.5 94.5t-97.5 27.5h-154v67h172q30 0 54.5 -3.5t49.5 -15t42 -31t27.5 -52.5t10.5 -78v-249h81v-67h-437z" />
    <glyph glyph-name="uni05D2" unicode="&#x5d2;" 
d="M90 0l57 121q42 89 99 124.5t131 35.5l-4 31q-9 68 -32.5 96t-78.5 28q-41 0 -74 -14v68q37 16 88 16q79 0 120 -41.5t54 -142.5l42 -322h-78l-28 217q-64 0 -100.5 -28.5t-67.5 -94.5l-45 -94h-83z" />
    <glyph glyph-name="uni05D3" unicode="&#x5d3;" 
d="M360 0v429h-296v67h454v-67h-79v-429h-79z" />
    <glyph glyph-name="uni05D4" unicode="&#x5d4;" 
d="M424 0v307q0 67 -25.5 94.5t-97.5 27.5h-205v67h223q39 0 68.5 -7t57.5 -24.5t43 -55t15 -93.5v-316h-79zM96 0v282h79v-282h-79z" />
    <glyph glyph-name="uni05D5" unicode="&#x5d5;" 
d="M310 0v429h-168v67h247v-496h-79z" />
    <glyph glyph-name="uni05D6" unicode="&#x5d6;" 
d="M337 0l-76 200q-22 57 -22 102q0 67 44 127h-179v67h391v-67h-131q-46 -59 -46 -124q0 -40 20 -92l81 -213h-82z" />
    <glyph glyph-name="uni05D7" unicode="&#x5d7;" 
d="M91 0v496h234q30 0 54.5 -3.5t49.5 -15t42 -31t27.5 -52.5t10.5 -78v-316h-79v307q0 67 -25.5 94.5t-97.5 27.5h-137v-429h-79z" />
    <glyph glyph-name="uni05D8" unicode="&#x5d8;" 
d="M67 238v258h79v-252q0 -185 154 -185t154 185v60q0 74 -20.5 103.5t-74.5 29.5q-50 0 -88 -16v67q39 18 99 18q83 0 123 -42.5t40 -150.5v-75q0 -71 -19.5 -121.5t-54 -77t-73.5 -38t-86 -11.5t-86 11.5t-73.5 38t-54 77t-19.5 121.5z" />
    <glyph glyph-name="uni05D9" unicode="&#x5d9;" 
d="M231 181v66q67 5 106.5 39t39.5 100v43h-234v67h313v-117q0 -88 -58 -139.5t-167 -58.5z" />
    <glyph glyph-name="uni05DA" unicode="&#x5da;" 
d="M407 -180v475q0 73 -29 104t-102 30h-194v67h209q42 0 74 -8t61 -27.5t44.5 -59t15.5 -96.5v-485h-79z" />
    <glyph glyph-name="uni05DB" unicode="&#x5db;" 
d="M112 0v67h167q167 0 167 181t-167 181h-167v67h168q50 0 91.5 -12t77.5 -39t56.5 -77t20.5 -119t-21 -119.5t-57.5 -77.5t-77.5 -39.5t-90 -12.5h-168z" />
    <glyph glyph-name="uni05DC" unicode="&#x5dc;" 
d="M240 -5v67q89 0 135 42t46 138v187h-343v209h74v-142h348v-262q0 -239 -260 -239z" />
    <glyph glyph-name="uni05DD" unicode="&#x5dd;" 
d="M91 0v496h234q30 0 54.5 -3.5t49.5 -15t42 -31t27.5 -52.5t10.5 -78v-316h-418zM170 67h260v240q0 67 -25.5 94.5t-97.5 27.5h-137v-362z" />
    <glyph glyph-name="uni05DE" unicode="&#x5de;" 
d="M75 0l46 352l-34 144h71l20 -86q55 96 175 96q170 0 170 -212v-294h-216v67h137v218q0 75 -24.5 113t-83.5 38q-87 0 -137 -82l-46 -354h-78z" />
    <glyph glyph-name="uni05DF" unicode="&#x5df;" 
d="M295 -180v609h-153v67h232v-676h-79z" />
    <glyph glyph-name="uni05E0" unicode="&#x5e0;" 
d="M127 0v67h250v243q0 69 -20.5 97.5t-74.5 28.5q-51 0 -89 -16v68q43 18 100 18q82 0 122.5 -41.5t40.5 -146.5v-318h-329z" />
    <glyph glyph-name="uni05E1" unicode="&#x5e1;" 
d="M300 60q155 0 155 188t-155 188t-155 -188t155 -188zM299 -10q-36 0 -68 7.5t-63 26t-53.5 47t-36 74t-13.5 103.5q0 72 20.5 124.5t56 80.5t75 40.5t84.5 12.5q36 0 68 -7.5t63 -26t53.5 -47t36 -74t13.5 -103.5q0 -72 -20.5 -124.5t-56 -80.5t-75 -40.5t-84.5 -12.5z
" />
    <glyph glyph-name="uni05E2" unicode="&#x5e2;" 
d="M47 0v67h133l-80 429h79l78 -429q124 6 145 132l51 297h80l-54 -312q-33 -184 -250 -184h-182z" />
    <glyph glyph-name="uni05E3" unicode="&#x5e3;" 
d="M433 -180v428q0 93 -39.5 138t-118.5 44h-110l-11 -85q-2 -16 -2 -31q0 -46 28 -64t82 -19v-65q-184 0 -184 138q0 16 3 41l20 151h179q232 0 232 -243v-433h-79z" />
    <glyph glyph-name="uni05E4" unicode="&#x5e4;" 
d="M104 0v67h177q167 0 167 181t-167 181h-109l-8 -62q-2 -16 -2 -31q0 -46 28 -64t82 -19v-65q-184 0 -184 138q0 16 3 41l17 129h174q50 0 91.5 -12t77.5 -39t56.5 -77t20.5 -119t-21 -119.5t-57.5 -77.5t-77.5 -39.5t-90 -12.5h-178z" />
    <glyph glyph-name="uni05E5" unicode="&#x5e5;" 
d="M207 -180l-104 676h80l48 -316l66 16q71 17 101 45.5t30 88.5v166h79v-174q0 -49 -12 -82.5t-40 -55t-60.5 -33.5t-86.5 -25l-66 -16l45 -290h-80z" />
    <glyph glyph-name="uni05E6" unicode="&#x5e6;" 
d="M71 0v67h314l-62 81l-251 348h93l184 -255q77 38 77 129v126h79v-134q0 -129 -115 -178l93 -128v-56h-412z" />
    <glyph glyph-name="uni05E7" unicode="&#x5e7;" 
d="M109 -180v462h79v-462h-79zM303 0l169 429h-363v67h448v-57l-173 -439h-81z" />
    <glyph glyph-name="uni05E8" unicode="&#x5e8;" 
d="M411 0v267q0 88 -39 125t-123 37h-165v67h178q228 0 228 -220v-276h-79z" />
    <glyph glyph-name="uni05E9" unicode="&#x5e9;" 
d="M56 198v298h74v-287q0 -13 1 -19l11 3q65 18 93 44t28 85v174h74v-179q0 -44 -12.5 -75t-39.5 -52t-57.5 -33t-79.5 -25q38 -75 152 -75q75 0 122.5 37.5t47.5 114.5v287h74v-298q0 -105 -70 -156.5t-174 -51.5t-174 51.5t-70 156.5z" />
    <glyph glyph-name="uni05EA" unicode="&#x5ea;" 
d="M56 0v67h74v212q0 87 25 150h-99v67h274q30 0 54.5 -3.5t49.5 -15t42 -31t27.5 -52.5t10.5 -78v-316h-79v307q0 67 -25.5 94.5t-97.5 27.5h-80q-23 -63 -23 -157v-272h-153z" />
    <glyph glyph-name="uni05F0" unicode="&#x5f0;" 
d="M164 0v429h-101v67h180v-496h-79zM402 0v429h-101v67h180v-496h-79z" />
    <glyph glyph-name="uni05F1" unicode="&#x5f1;" 
d="M434 0v429h-101v67h180v-496h-79zM74 188v65q121 14 121 132v44h-137v67h216v-113q0 -86 -51 -136.5t-149 -58.5z" />
    <glyph glyph-name="uni05F2" unicode="&#x5f2;" 
d="M73 188v65q121 14 121 132v44h-137v67h216v-113q0 -86 -51 -136.5t-149 -58.5zM343 188v65q121 14 121 132v44h-137v67h216v-113q0 -86 -51 -136.5t-149 -58.5z" />
    <glyph glyph-name="uni05F3" unicode="&#x5f3;" 
d="M217 321l63 226h127l-137 -239q-15 -27 -34 -27q-22 0 -22 22q0 7 3 18z" />
    <glyph glyph-name="uni05F4" unicode="&#x5f4;" 
d="M333 321l63 226h127l-137 -239q-15 -27 -34 -27q-22 0 -22 22q0 7 3 18zM124 321l63 226h127l-137 -239q-15 -27 -34 -27q-22 0 -22 22q0 7 3 18z" />
    <glyph glyph-name="uni0E3F" unicode="&#xe3f;" 
d="M334 -76h-66v76h-146v564h146v76h66v-78q76 -8 121 -49t45 -104q0 -81 -80 -116q43 -14 72.5 -46.5t29.5 -84.5q0 -69 -52 -113t-136 -49v-76zM436 164q0 79 -102 88v-181q52 4 77 29.5t25 63.5zM205 252v-181h63v181h-63zM205 493v-170h63v170h-63zM413 405q0 71 -79 85
v-165q79 13 79 80z" />
    <glyph glyph-name="uni1E04" unicode="&#x1e04;" 
d="M251 -169v102h102v-102h-102zM122 0v564h175q91 0 147 -42t56 -113q0 -81 -80 -116q43 -14 72.5 -46.5t29.5 -84.5q0 -73 -58 -117.5t-149 -44.5h-193zM205 252v-181h107q64 0 94 26t30 67q0 88 -127 88h-104zM205 493v-170h82q126 0 126 82q0 88 -122 88h-86z" />
    <glyph glyph-name="uni1E05" unicode="&#x1e05;" 
d="M262 -169v102h102v-102h-102zM330 -10q-91 0 -142 66v-56h-66v638h79v-246q17 20 51 37t78 17q77 0 129.5 -56t52.5 -172q0 -113 -52 -170.5t-130 -57.5zM309 56q62 0 92.5 43.5t30.5 118.5t-30.5 118.5t-92.5 43.5q-64 0 -108 -44v-236q44 -44 108 -44z" />
    <glyph glyph-name="uni1E0C" unicode="&#x1e0c;" 
d="M249 -169v102h102v-102h-102zM122 0v564h165q130 0 182.5 -72.5t52.5 -205.5q0 -136 -53.5 -211t-181.5 -75h-165zM205 493v-422h82q40 0 68.5 14t43.5 34t24 50.5t11 55t2 57.5q0 42 -4.5 72.5t-18 65.5t-45.5 54t-81 19h-82z" />
    <glyph glyph-name="uni1E0D" unicode="&#x1e0d;" 
d="M249 -169v102h102v-102h-102zM270 -10q-77 0 -129.5 56t-52.5 172q0 113 52 170.5t130 57.5q44 0 78 -17t51 -37v246h79v-638h-66v56q-51 -66 -142 -66zM291 56q64 0 108 44v236q-44 44 -108 44q-62 0 -92.5 -43.5t-30.5 -118.5t30.5 -118.5t92.5 -43.5z" />
    <glyph glyph-name="uni1E0E" unicode="&#x1e0e;" 
d="M157 -148v67h286v-67h-286zM122 0v564h165q130 0 182.5 -72.5t52.5 -205.5q0 -136 -53.5 -211t-181.5 -75h-165zM205 493v-422h82q40 0 68.5 14t43.5 34t24 50.5t11 55t2 57.5q0 42 -4.5 72.5t-18 65.5t-45.5 54t-81 19h-82z" />
    <glyph glyph-name="uni1E0F" unicode="&#x1e0f;" 
d="M157 -148v67h286v-67h-286zM270 -10q-77 0 -129.5 56t-52.5 172q0 113 52 170.5t130 57.5q44 0 78 -17t51 -37v246h79v-638h-66v56q-51 -66 -142 -66zM291 56q64 0 108 44v236q-44 44 -108 44q-62 0 -92.5 -43.5t-30.5 -118.5t30.5 -118.5t92.5 -43.5z" />
    <glyph glyph-name="uni1E20" unicode="&#x1e20;" 
d="M155 659v67h286v-67h-286zM283 -10q-55 0 -96 24t-64 66.5t-34 92.5t-11 109q0 138 58 215.5t168 77.5q85 0 138.5 -48.5t57.5 -148.5h-80q-6 64 -32.5 94.5t-80.5 30.5q-37 0 -63.5 -14t-41.5 -35t-24 -52.5t-11.5 -59t-2.5 -61.5q0 -47 5.5 -83t19.5 -68.5t42.5 -50
t70.5 -17.5q66 0 117 48v125h-132v69h212v-304h-65v62q-17 -27 -56 -49.5t-95 -22.5z" />
    <glyph glyph-name="uni1E21" unicode="&#x1e21;" 
d="M139 551v67h286v-67h-286zM283 -190q-188 0 -189 156h77q1 -47 27.5 -70t84.5 -23q71 0 93.5 29.5t22.5 86.5v58q-48 -51 -128 -51q-79 0 -131 56.5t-52 167.5q0 112 52.5 169t130.5 57q48 0 85 -20t56 -46v56h66v-453q0 -86 -46 -129.5t-149 -43.5zM292 62q63 0 107 44
v230q-44 44 -107 44q-62 0 -93 -42.5t-31 -116.5t31 -116.5t93 -42.5z" />
    <glyph glyph-name="uni1E24" unicode="&#x1e24;" 
d="M249 -169v102h102v-102h-102zM122 0v564h83v-241h190v241h83v-564h-83v253h-190v-253h-83z" />
    <glyph glyph-name="uni1E25" unicode="&#x1e25;" 
d="M249 -169v102h102v-102h-102zM122 0v638h79v-249q44 57 128 57q149 0 149 -178v-268h-79v251q0 67 -18.5 98t-72.5 31q-69 0 -107 -46v-334h-79z" />
    <glyph glyph-name="uni1E2A" unicode="&#x1e2a;" 
d="M300 -192q-65 0 -107 40t-56 82l34 23q49 -75 129 -75t129 75l34 -23q-14 -42 -56 -82t-107 -40zM122 0v564h83v-241h190v241h83v-564h-83v253h-190v-253h-83z" />
    <glyph glyph-name="uni1E2B" unicode="&#x1e2b;" 
d="M300 -192q-65 0 -107 40t-56 82l34 23q49 -75 129 -75t129 75l34 -23q-14 -42 -56 -82t-107 -40zM122 0v638h79v-249q44 57 128 57q149 0 149 -178v-268h-79v251q0 67 -18.5 98t-72.5 31q-69 0 -107 -46v-334h-79z" />
    <glyph glyph-name="uni1E32" unicode="&#x1e32;" 
d="M273 -169v102h102v-102h-102zM122 0v564h83v-265l234 265h100l-214 -236l234 -328h-104l-184 270l-66 -73v-197h-83z" />
    <glyph glyph-name="uni1E33" unicode="&#x1e33;" 
d="M260 -169v102h102v-102h-102zM122 0v638h79v-391l221 189h105l-193 -162l203 -274h-97l-162 229l-77 -63v-166h-79z" />
    <glyph glyph-name="uni1E36" unicode="&#x1e36;" 
d="M266 -169v102h102v-102h-102zM122 0v564h83v-493h289v-71h-372z" />
    <glyph glyph-name="uni1E37" unicode="&#x1e37;" 
d="M249 -169v102h102v-102h-102zM110 0v67h151v505h-151v66h230v-571h151v-67h-381z" />
    <glyph glyph-name="uni1E38" unicode="&#x1e38;" 
d="M266 -169v102h102v-102h-102zM22 660v67h286v-67h-286zM122 0v564h83v-493h289v-71h-372z" />
    <glyph glyph-name="uni1E39" unicode="&#x1e39;" 
d="M249 -169v102h102v-102h-102zM159 740v67h286v-67h-286zM110 0v67h151v505h-151v66h230v-571h151v-67h-381z" />
    <glyph glyph-name="uni1E3A" unicode="&#x1e3a;" 
d="M174 -148v67h286v-67h-286zM122 0v564h83v-493h289v-71h-372z" />
    <glyph glyph-name="uni1E3B" unicode="&#x1e3b;" 
d="M157 -148v67h286v-67h-286zM110 0v67h151v505h-151v66h230v-571h151v-67h-381z" />
    <glyph glyph-name="uni1E3E" unicode="&#x1e3e;" 
d="M246 603l77 194h96l-126 -194h-47zM90 0v564h110l64 -188l38 -124l37 124l64 188h107v-564h-75v330l7 157l-110 -329h-64l-110 329l7 -157v-330h-75z" />
    <glyph glyph-name="uni1E3F" unicode="&#x1e3f;" 
d="M246 494l77 194h96l-126 -194h-47zM68 0v436h62v-62q38 72 108 72q69 0 90 -68q37 68 106 68q48 0 73.5 -36t25.5 -104v-306h-75v286q0 48 -10 69t-35 21q-39 0 -75 -47v-329h-75v286q0 48 -10 69t-35 21q-39 0 -75 -47v-329h-75z" />
    <glyph glyph-name="uni1E40" unicode="&#x1e40;" 
d="M249 643v102h102v-102h-102zM90 0v564h110l64 -188l38 -124l37 124l64 188h107v-564h-75v330l7 157l-110 -329h-64l-110 329l7 -157v-330h-75z" />
    <glyph glyph-name="uni1E41" unicode="&#x1e41;" 
d="M249 534v102h102v-102h-102zM68 0v436h62v-62q38 72 108 72q69 0 90 -68q37 68 106 68q48 0 73.5 -36t25.5 -104v-306h-75v286q0 48 -10 69t-35 21q-39 0 -75 -47v-329h-75v286q0 48 -10 69t-35 21q-39 0 -75 -47v-329h-75z" />
    <glyph glyph-name="uni1E42" unicode="&#x1e42;" 
d="M249 -169v102h102v-102h-102zM90 0v564h110l64 -188l38 -124l37 124l64 188h107v-564h-75v330l7 157l-110 -329h-64l-110 329l7 -157v-330h-75z" />
    <glyph glyph-name="uni1E43" unicode="&#x1e43;" 
d="M249 -169v102h102v-102h-102zM68 0v436h62v-62q38 72 108 72q69 0 90 -68q37 68 106 68q48 0 73.5 -36t25.5 -104v-306h-75v286q0 48 -10 69t-35 21q-39 0 -75 -47v-329h-75v286q0 48 -10 69t-35 21q-39 0 -75 -47v-329h-75z" />
    <glyph glyph-name="uni1E44" unicode="&#x1e44;" 
d="M249 642v102h102v-102h-102zM123 0v564h111l177 -483l-9 162v321h75v-564h-111l-177 483l9 -162v-321h-75z" />
    <glyph glyph-name="uni1E45" unicode="&#x1e45;" 
d="M249 534v102h102v-102h-102zM122 0v436h66v-58q46 68 143 68q147 0 147 -178v-268h-79v251q0 67 -18.5 98t-72.5 31q-69 0 -107 -46v-334h-79z" />
    <glyph glyph-name="uni1E46" unicode="&#x1e46;" 
d="M249 -169v102h102v-102h-102zM123 0v564h111l177 -483l-9 162v321h75v-564h-111l-177 483l9 -162v-321h-75z" />
    <glyph glyph-name="uni1E47" unicode="&#x1e47;" 
d="M249 -169v102h102v-102h-102zM122 0v436h66v-58q46 68 143 68q147 0 147 -178v-268h-79v251q0 67 -18.5 98t-72.5 31q-69 0 -107 -46v-334h-79z" />
    <glyph glyph-name="uni1E48" unicode="&#x1e48;" 
d="M157 -148v67h286v-67h-286zM123 0v564h111l177 -483l-9 162v321h75v-564h-111l-177 483l9 -162v-321h-75z" />
    <glyph glyph-name="uni1E49" unicode="&#x1e49;" 
d="M157 -148v67h286v-67h-286zM122 0v436h66v-58q46 68 143 68q147 0 147 -178v-268h-79v251q0 67 -18.5 98t-72.5 31q-69 0 -107 -46v-334h-79z" />
    <glyph glyph-name="uni1E56" unicode="&#x1e56;" 
d="M247 643v102h102v-102h-102zM122 0v564h165q109 0 171.5 -45t62.5 -133t-62.5 -133t-171.5 -45h-82v-208h-83zM205 493v-214h83q147 0 147 107t-147 107h-83z" />
    <glyph glyph-name="uni1E57" unicode="&#x1e57;" 
d="M249 534v102h102v-102h-102zM122 -180v616h66v-56q51 66 142 66q77 0 129.5 -56t52.5 -172q0 -113 -52 -170.5t-130 -57.5q-44 0 -78 17t-51 37v-224h-79zM309 56q62 0 92.5 43.5t30.5 118.5t-30.5 118.5t-92.5 43.5q-64 0 -108 -44v-236q44 -44 108 -44z" />
    <glyph glyph-name="uni1E58" unicode="&#x1e58;" 
d="M245 642v102h102v-102h-102zM122 0v564h146q110 0 172 -44.5t62 -127.5q0 -66 -37.5 -109.5t-98.5 -58.5l175 -224h-104l-157 210h-75v-210h-83zM205 493v-214h64q147 0 147 107t-147 107h-64z" />
    <glyph glyph-name="uni1E59" unicode="&#x1e59;" 
d="M263 534v102h102v-102h-102zM110 0v67h113v302h-113v67h179v-99q45 109 152 109q45 0 76 -14v-81q-28 13 -74 13q-91 0 -141 -72v-225h189v-67h-381z" />
    <glyph glyph-name="uni1E5A" unicode="&#x1e5a;" 
d="M267 -169v102h102v-102h-102zM122 0v564h146q110 0 172 -44.5t62 -127.5q0 -66 -37.5 -109.5t-98.5 -58.5l175 -224h-104l-157 210h-75v-210h-83zM205 493v-214h64q147 0 147 107t-147 107h-64z" />
    <glyph glyph-name="uni1E5B" unicode="&#x1e5b;" 
d="M212 -169v102h102v-102h-102zM110 0v67h113v302h-113v67h179v-99q45 109 152 109q45 0 76 -14v-81q-28 13 -74 13q-91 0 -141 -72v-225h189v-67h-381z" />
    <glyph glyph-name="uni1E5C" unicode="&#x1e5c;" 
d="M267 -169v102h102v-102h-102zM153 659v67h286v-67h-286zM122 0v564h146q110 0 172 -44.5t62 -127.5q0 -66 -37.5 -109.5t-98.5 -58.5l175 -224h-104l-157 210h-75v-210h-83zM205 493v-214h64q147 0 147 107t-147 107h-64z" />
    <glyph glyph-name="uni1E5D" unicode="&#x1e5d;" 
d="M212 -169v102h102v-102h-102zM171 551v67h286v-67h-286zM110 0v67h113v302h-113v67h179v-99q45 109 152 109q45 0 76 -14v-81q-28 13 -74 13q-91 0 -141 -72v-225h189v-67h-381z" />
    <glyph glyph-name="uni1E5E" unicode="&#x1e5e;" 
d="M175 -148v67h286v-67h-286zM122 0v564h146q110 0 172 -44.5t62 -127.5q0 -66 -37.5 -109.5t-98.5 -58.5l175 -224h-104l-157 210h-75v-210h-83zM205 493v-214h64q147 0 147 107t-147 107h-64z" />
    <glyph glyph-name="uni1E5F" unicode="&#x1e5f;" 
d="M157 -148v67h286v-67h-286zM110 0v67h113v302h-113v67h179v-99q45 109 152 109q45 0 76 -14v-81q-28 13 -74 13q-91 0 -141 -72v-225h189v-67h-381z" />
    <glyph glyph-name="uni1E60" unicode="&#x1e60;" 
d="M249 642v102h102v-102h-102zM301 -10q-98 0 -154.5 44.5t-56.5 127.5h81q6 -101 130 -101q58 0 92 22.5t34 64.5q0 31 -19.5 49t-60.5 33l-121 43q-125 44 -125 149q0 73 55.5 113t142.5 40q89 0 141 -43.5t53 -127.5h-80q-5 99 -116 99q-53 0 -82.5 -21.5t-29.5 -57.5
q0 -53 72 -78l121 -43q70 -25 101.5 -58.5t31.5 -89.5q0 -82 -58.5 -123.5t-151.5 -41.5z" />
    <glyph glyph-name="uni1E61" unicode="&#x1e61;" 
d="M248 534v102h102v-102h-102zM305 -10q-201 0 -207 148h74q5 -81 140 -81q111 0 111 60q0 23 -18.5 37.5t-43 21.5t-72.5 17q-16 3 -25 5q-74 16 -115 42.5t-41 82.5q0 62 52 92.5t135 30.5q181 0 192 -138h-74q-13 71 -121 71q-105 0 -105 -51q0 -11 4 -19.5t14 -15.5
t18.5 -11.5t26.5 -9l28.5 -7t34.5 -7l34 -6.5q76 -16 115.5 -43t39.5 -85q0 -68 -54.5 -101t-142.5 -33z" />
    <glyph glyph-name="uni1E62" unicode="&#x1e62;" 
d="M249 -169v102h102v-102h-102zM301 -10q-98 0 -154.5 44.5t-56.5 127.5h81q6 -101 130 -101q58 0 92 22.5t34 64.5q0 31 -19.5 49t-60.5 33l-121 43q-125 44 -125 149q0 73 55.5 113t142.5 40q89 0 141 -43.5t53 -127.5h-80q-5 99 -116 99q-53 0 -82.5 -21.5t-29.5 -57.5
q0 -53 72 -78l121 -43q70 -25 101.5 -58.5t31.5 -89.5q0 -82 -58.5 -123.5t-151.5 -41.5z" />
    <glyph glyph-name="uni1E63" unicode="&#x1e63;" 
d="M248 -169v102h102v-102h-102zM305 -10q-201 0 -207 148h74q5 -81 140 -81q111 0 111 60q0 23 -18.5 37.5t-43 21.5t-72.5 17q-16 3 -25 5q-74 16 -115 42.5t-41 82.5q0 62 52 92.5t135 30.5q181 0 192 -138h-74q-13 71 -121 71q-105 0 -105 -51q0 -11 4 -19.5t14 -15.5
t18.5 -11.5t26.5 -9l28.5 -7t34.5 -7l34 -6.5q76 -16 115.5 -43t39.5 -85q0 -68 -54.5 -101t-142.5 -33z" />
    <glyph glyph-name="uni1E6C" unicode="&#x1e6c;" 
d="M249 -169v102h102v-102h-102zM258 0v493h-190v71h465v-71h-192v-493h-83z" />
    <glyph glyph-name="uni1E6D" unicode="&#x1e6d;" 
d="M322 -169v102h102v-102h-102zM373 -10q-84 0 -123.5 40.5t-39.5 146.5v192h-143v67h143v202h79v-202h214v-67h-214v-189q0 -69 19.5 -95.5t75.5 -26.5q55 0 106 19v-67q-40 -20 -117 -20z" />
    <glyph glyph-name="uni1E6E" unicode="&#x1e6e;" 
d="M157 -148v67h286v-67h-286zM258 0v493h-190v71h465v-71h-192v-493h-83z" />
    <glyph glyph-name="uni1E6F" unicode="&#x1e6f;" 
d="M230 -148v67h286v-67h-286zM373 -10q-84 0 -123.5 40.5t-39.5 146.5v192h-143v67h143v202h79v-202h214v-67h-214v-189q0 -69 19.5 -95.5t75.5 -26.5q55 0 106 19v-67q-40 -20 -117 -20z" />
    <glyph glyph-name="uni1E7E" unicode="&#x1e7e;" 
d="M249 -169v102h102v-102h-102zM254 0l-198 564h89l101 -305l56 -182l54 180l101 307h87l-198 -564h-92z" />
    <glyph glyph-name="uni1E7F" unicode="&#x1e7f;" 
d="M251 -169v102h102v-102h-102zM255 0l-188 436h86l94 -233l54 -139l54 137l96 235h82l-188 -436h-90z" />
    <glyph glyph-name="Wgrave" unicode="&#x1e80;" 
d="M307 602l-126 194h96l77 -194h-47zM115 0l-70 564h81l34 -308l17 -181l85 299h78l84 -299l18 181l33 308h80l-70 -564h-106l-79 275l-79 -275h-106z" />
    <glyph glyph-name="wgrave" unicode="&#x1e81;" 
d="M307 494l-126 194h96l77 -194h-47zM127 0l-76 436h76l54 -369l77 278h85l78 -278l54 369h74l-76 -436h-97l-76 267l-76 -267h-97z" />
    <glyph glyph-name="Wacute" unicode="&#x1e82;" 
d="M246 602l77 194h96l-126 -194h-47zM115 0l-70 564h81l34 -308l17 -181l85 299h78l84 -299l18 181l33 308h80l-70 -564h-106l-79 275l-79 -275h-106z" />
    <glyph glyph-name="wacute" unicode="&#x1e83;" 
d="M246 494l77 194h96l-126 -194h-47zM127 0l-76 436h76l54 -369l77 278h85l78 -278l54 369h74l-76 -436h-97l-76 267l-76 -267h-97z" />
    <glyph glyph-name="Wdieresis" unicode="&#x1e84;" 
d="M145 645v101h101v-101h-101zM354 645v101h101v-101h-101zM115 0l-70 564h81l34 -308l17 -181l85 299h78l84 -299l18 181l33 308h80l-70 -564h-106l-79 275l-79 -275h-106z" />
    <glyph glyph-name="wdieresis" unicode="&#x1e85;" 
d="M145 537v101h101v-101h-101zM354 537v101h101v-101h-101zM127 0l-76 436h76l54 -369l77 278h85l78 -278l54 369h74l-76 -436h-97l-76 267l-76 -267h-97z" />
    <glyph glyph-name="uni1E86" unicode="&#x1e86;" 
d="M249 642v102h102v-102h-102zM115 0l-70 564h81l34 -308l17 -181l85 299h78l84 -299l18 181l33 308h80l-70 -564h-106l-79 275l-79 -275h-106z" />
    <glyph glyph-name="uni1E87" unicode="&#x1e87;" 
d="M249 534v102h102v-102h-102zM127 0l-76 436h76l54 -369l77 278h85l78 -278l54 369h74l-76 -436h-97l-76 267l-76 -267h-97z" />
    <glyph glyph-name="uni1E88" unicode="&#x1e88;" 
d="M249 -169v102h102v-102h-102zM115 0l-70 564h81l34 -308l17 -181l85 299h78l84 -299l18 181l33 308h80l-70 -564h-106l-79 275l-79 -275h-106z" />
    <glyph glyph-name="uni1E89" unicode="&#x1e89;" 
d="M249 -169v102h102v-102h-102zM127 0l-76 436h76l54 -369l77 278h85l78 -278l54 369h74l-76 -436h-97l-76 267l-76 -267h-97z" />
    <glyph glyph-name="uni1E8A" unicode="&#x1e8a;" 
d="M249 643v102h102v-102h-102zM55 0l198 289l-187 275h96l82 -126l57 -90l58 90l82 126h94l-187 -273l197 -291h-96l-94 144l-56 87l-55 -87l-96 -144h-93z" />
    <glyph glyph-name="uni1E8B" unicode="&#x1e8b;" 
d="M249 534v102h102v-102h-102zM57 0l198 223l-188 213h96l139 -161l137 161h94l-186 -213l196 -223h-96l-148 171l-148 -171h-94z" />
    <glyph glyph-name="uni1E8E" unicode="&#x1e8e;" 
d="M249 642v102h102v-102h-102zM259 0v225l-220 339h96l83 -132l83 -142l84 142l83 132h93l-219 -339v-225h-83z" />
    <glyph glyph-name="uni1E8F" unicode="&#x1e8f;" 
d="M249 534v102h102v-102h-102zM83 -185v67q68 0 108 26t67 86l-191 442h86l94 -233l54 -140l54 138l96 235h82l-185 -429q-46 -107 -104 -149.5t-161 -42.5z" />
    <glyph glyph-name="uni1E92" unicode="&#x1e92;" 
d="M249 -169v102h102v-102h-102zM95 0v62l302 431h-297v71h399v-62l-302 -431h307v-71h-409z" />
    <glyph glyph-name="uni1E93" unicode="&#x1e93;" 
d="M249 -169v102h102v-102h-102zM107 0v57l276 312h-271v67h376v-57l-277 -312h282v-67h-386z" />
    <glyph glyph-name="uni1E97" unicode="&#x1e97;" 
d="M96 726v101h101v-101h-101zM305 726v101h101v-101h-101zM373 -10q-84 0 -123.5 40.5t-39.5 146.5v192h-143v67h143v202h79v-202h214v-67h-214v-189q0 -69 19.5 -95.5t75.5 -26.5q55 0 106 19v-67q-40 -20 -117 -20z" />
    <glyph glyph-name="uni1E9E" unicode="&#x1e9e;" 
d="M273 316l134 178h-202v-494h-83v564h374v-67l-142 -189q79 -17 126.5 -60t47.5 -112q0 -68 -45.5 -107t-117.5 -39q-59 0 -92 19v70q40 -20 84 -20q41 0 64 20t23 57q0 101 -171 124v56z" />
    <glyph glyph-name="uni1EA0" unicode="&#x1ea0;" 
d="M249 -169v102h102v-102h-102zM56 0l199 564h90l199 -564h-90l-45 134h-220l-45 -134h-88zM238 287l-29 -85h178l-29 85l-60 191z" />
    <glyph glyph-name="uni1EA1" unicode="&#x1ea1;" 
d="M261 -169v102h102v-102h-102zM238 -10q-67 0 -108.5 30.5t-41.5 92.5q0 126 173 126q72 0 125 -17v38q0 60 -19.5 90t-83.5 30q-109 0 -109 -91h-76q0 45 17 77t46 48.5t60.5 24t67.5 7.5q176 0 176 -170v-198q0 -13 5.5 -18t18.5 -5q21 0 49 7v-56q-37 -16 -76 -16
q-65 0 -65 59v8q-51 -67 -159 -67zM251 57q78 0 135 41v68q-44 11 -110 11q-54 0 -81.5 -14t-27.5 -48q0 -58 84 -58z" />
    <glyph glyph-name="uni1EA2" unicode="&#x1ea2;" 
d="M294 600l-24 30q66 51 66 85q0 38 -45 38q-44 0 -44 -40h-55q0 48 28.5 70t74.5 22q49 0 75.5 -22t26.5 -57q0 -34 -24.5 -62t-78.5 -64zM56 0l199 564h90l199 -564h-90l-45 134h-220l-45 -134h-88zM238 287l-29 -85h178l-29 85l-60 191z" />
    <glyph glyph-name="uni1EA3" unicode="&#x1ea3;" 
d="M293 492l-24 30q66 51 66 85q0 38 -45 38q-44 0 -44 -40h-55q0 48 28.5 70t74.5 22q49 0 75.5 -22t26.5 -57q0 -34 -24.5 -62t-78.5 -64zM238 -10q-67 0 -108.5 30.5t-41.5 92.5q0 126 173 126q72 0 125 -17v38q0 60 -19.5 90t-83.5 30q-109 0 -109 -91h-76q0 45 17 77
t46 48.5t60.5 24t67.5 7.5q176 0 176 -170v-198q0 -13 5.5 -18t18.5 -5q21 0 49 7v-56q-37 -16 -76 -16q-65 0 -65 59v8q-51 -67 -159 -67zM251 57q78 0 135 41v68q-44 11 -110 11q-54 0 -81.5 -14t-27.5 -48q0 -58 84 -58z" />
    <glyph glyph-name="uni1EA4" unicode="&#x1ea4;" 
d="M156 604l106 167h76l106 -167h-52l-92 100l-92 -100h-52zM407 714l65 151h96l-117 -151h-44zM56 0l199 564h90l199 -564h-90l-45 134h-220l-45 -134h-88zM238 287l-29 -85h178l-29 85l-60 191z" />
    <glyph glyph-name="uni1EA5" unicode="&#x1ea5;" 
d="M153 494l108 194h76l108 -194h-52l-94 118l-94 -118h-52zM396 669l76 194h97l-125 -194h-48zM238 -10q-67 0 -108.5 30.5t-41.5 92.5q0 126 173 126q72 0 125 -17v38q0 60 -19.5 90t-83.5 30q-109 0 -109 -91h-76q0 45 17 77t46 48.5t60.5 24t67.5 7.5q176 0 176 -170
v-198q0 -13 5.5 -18t18.5 -5q21 0 49 7v-56q-37 -16 -76 -16q-65 0 -65 59v8q-51 -67 -159 -67zM251 57q78 0 135 41v68q-44 11 -110 11q-54 0 -81.5 -14t-27.5 -48q0 -58 84 -58z" />
    <glyph glyph-name="uni1EA6" unicode="&#x1ea6;" 
d="M338 771l106 -167h-52l-92 100l-92 -100h-52l106 167h76zM128 865l65 -151h-44l-117 151h96zM56 0l199 564h90l199 -564h-90l-45 134h-220l-45 -134h-88zM238 287l-29 -85h178l-29 85l-60 191z" />
    <glyph glyph-name="uni1EA7" unicode="&#x1ea7;" 
d="M153 494l108 194h76l108 -194h-52l-94 118l-94 -118h-52zM154 669l-125 194h97l76 -194h-48zM238 -10q-67 0 -108.5 30.5t-41.5 92.5q0 126 173 126q72 0 125 -17v38q0 60 -19.5 90t-83.5 30q-109 0 -109 -91h-76q0 45 17 77t46 48.5t60.5 24t67.5 7.5q176 0 176 -170
v-198q0 -13 5.5 -18t18.5 -5q21 0 49 7v-56q-37 -16 -76 -16q-65 0 -65 59v8q-51 -67 -159 -67zM251 57q78 0 135 41v68q-44 11 -110 11q-54 0 -81.5 -14t-27.5 -48q0 -58 84 -58z" />
    <glyph glyph-name="uni1EA8" unicode="&#x1ea8;" 
d="M333 755l110 -151h-51l-92 86l-92 -86h-51l110 151h66zM439 672l-24 30q66 51 66 85q0 38 -45 38q-44 0 -44 -40h-55q0 48 28.5 70t74.5 22q49 0 75.5 -22t26.5 -57q0 -34 -24.5 -62t-78.5 -64zM56 0l199 564h90l199 -564h-90l-45 134h-220l-45 -134h-88zM238 287
l-29 -85h178l-29 85l-60 191z" />
    <glyph glyph-name="uni1EA9" unicode="&#x1ea9;" 
d="M153 494l108 194h76l108 -194h-52l-94 118l-94 -118h-52zM414 662l-24 30q66 51 66 85q0 38 -45 38q-44 0 -44 -40h-55q0 48 28.5 70t74.5 22q49 0 75.5 -22t26.5 -57q0 -34 -24.5 -62t-78.5 -64zM238 -10q-67 0 -108.5 30.5t-41.5 92.5q0 126 173 126q72 0 125 -17v38
q0 60 -19.5 90t-83.5 30q-109 0 -109 -91h-76q0 45 17 77t46 48.5t60.5 24t67.5 7.5q176 0 176 -170v-198q0 -13 5.5 -18t18.5 -5q21 0 49 7v-56q-37 -16 -76 -16q-65 0 -65 59v8q-51 -67 -159 -67zM251 57q78 0 135 41v68q-44 11 -110 11q-54 0 -81.5 -14t-27.5 -48
q0 -58 84 -58z" />
    <glyph glyph-name="uni1EAA" unicode="&#x1eaa;" 
d="M168 765l-31 17q15 36 43 63t65 27q28 0 71 -28q28 -19 49 -19q37 0 67 47l31 -17q-15 -36 -43 -63t-65 -27q-29 0 -65 24q-34 23 -55 23q-37 0 -67 -47zM334 746l109 -142h-51l-92 79l-92 -79h-51l109 142h68zM56 0l199 564h90l199 -564h-90l-45 134h-220l-45 -134h-88z
M238 287l-29 -85h178l-29 85l-60 191z" />
    <glyph glyph-name="uni1EAB" unicode="&#x1eab;" 
d="M153 494l108 191h76l108 -191h-52l-94 116l-94 -116h-52zM166 718l-38 18q15 48 44.5 84.5t68.5 36.5q31 0 73 -38q30 -28 49 -28q36 0 69 66l38 -18q-15 -48 -44.5 -84.5t-68.5 -36.5q-30 0 -66 32q-2 2 -8 7.5t-8 7t-7 6t-8 6t-7.5 3.5t-9 3t-8.5 1q-36 0 -69 -66z
M238 -10q-67 0 -108.5 30.5t-41.5 92.5q0 126 173 126q72 0 125 -17v38q0 60 -19.5 90t-83.5 30q-109 0 -109 -91h-76q0 45 17 77t46 48.5t60.5 24t67.5 7.5q176 0 176 -170v-198q0 -13 5.5 -18t18.5 -5q21 0 49 7v-56q-37 -16 -76 -16q-65 0 -65 59v8q-51 -67 -159 -67z
M251 57q78 0 135 41v68q-44 11 -110 11q-54 0 -81.5 -14t-27.5 -48q0 -58 84 -58z" />
    <glyph glyph-name="uni1EAC" unicode="&#x1eac;" 
d="M249 -169v102h102v-102h-102zM154 602l108 194h76l108 -194h-52l-94 118l-94 -118h-52zM56 0l199 564h90l199 -564h-90l-45 134h-220l-45 -134h-88zM238 287l-29 -85h178l-29 85l-60 191z" />
    <glyph glyph-name="uni1EAD" unicode="&#x1ead;" 
d="M261 -169v102h102v-102h-102zM153 494l108 194h76l108 -194h-52l-94 118l-94 -118h-52zM238 -10q-67 0 -108.5 30.5t-41.5 92.5q0 126 173 126q72 0 125 -17v38q0 60 -19.5 90t-83.5 30q-109 0 -109 -91h-76q0 45 17 77t46 48.5t60.5 24t67.5 7.5q176 0 176 -170v-198
q0 -13 5.5 -18t18.5 -5q21 0 49 7v-56q-37 -16 -76 -16q-65 0 -65 59v8q-51 -67 -159 -67zM251 57q78 0 135 41v68q-44 11 -110 11q-54 0 -81.5 -14t-27.5 -48q0 -58 84 -58z" />
    <glyph glyph-name="uni1EAE" unicode="&#x1eae;" 
d="M278 721l49 144h92l-100 -144h-41zM300 609q-65 0 -107 40t-56 82l34 23q49 -75 129 -75t129 75l34 -23q-14 -42 -56 -82t-107 -40zM56 0l199 564h90l199 -564h-90l-45 134h-220l-45 -134h-88zM238 287l-29 -85h178l-29 85l-60 191z" />
    <glyph glyph-name="uni1EAF" unicode="&#x1eaf;" 
d="M299 524q-65 0 -107 40t-56 82l34 23q49 -75 129 -75t129 75l34 -23q-14 -42 -56 -82t-107 -40zM275 669l76 194h97l-125 -194h-48zM238 -10q-67 0 -108.5 30.5t-41.5 92.5q0 126 173 126q72 0 125 -17v38q0 60 -19.5 90t-83.5 30q-109 0 -109 -91h-76q0 45 17 77
t46 48.5t60.5 24t67.5 7.5q176 0 176 -170v-198q0 -13 5.5 -18t18.5 -5q21 0 49 7v-56q-37 -16 -76 -16q-65 0 -65 59v8q-51 -67 -159 -67zM251 57q78 0 135 41v68q-44 11 -110 11q-54 0 -81.5 -14t-27.5 -48q0 -58 84 -58z" />
    <glyph glyph-name="uni1EB0" unicode="&#x1eb0;" 
d="M273 865l49 -144h-41l-100 144h92zM300 609q-65 0 -107 40t-56 82l34 23q49 -75 129 -75t129 75l34 -23q-14 -42 -56 -82t-107 -40zM56 0l199 564h90l199 -564h-90l-45 134h-220l-45 -134h-88zM238 287l-29 -85h178l-29 85l-60 191z" />
    <glyph glyph-name="uni1EB1" unicode="&#x1eb1;" 
d="M299 524q-65 0 -107 40t-56 82l34 23q49 -75 129 -75t129 75l34 -23q-14 -42 -56 -82t-107 -40zM275 669l-125 194h97l76 -194h-48zM238 -10q-67 0 -108.5 30.5t-41.5 92.5q0 126 173 126q72 0 125 -17v38q0 60 -19.5 90t-83.5 30q-109 0 -109 -91h-76q0 45 17 77
t46 48.5t60.5 24t67.5 7.5q176 0 176 -170v-198q0 -13 5.5 -18t18.5 -5q21 0 49 7v-56q-37 -16 -76 -16q-65 0 -65 59v8q-51 -67 -159 -67zM251 57q78 0 135 41v68q-44 11 -110 11q-54 0 -81.5 -14t-27.5 -48q0 -58 84 -58z" />
    <glyph glyph-name="uni1EB2" unicode="&#x1eb2;" 
d="M281 706l-8 32q69 16 69 51t-44 35q-45 0 -45 -39h-53q0 88 101 88q48 0 74 -20.5t26 -51.5q0 -35 -31 -61t-89 -34zM300 609q-65 0 -107 40t-56 82l34 23q49 -75 129 -75t129 75l34 -23q-14 -42 -56 -82t-107 -40zM56 0l199 564h90l199 -564h-90l-45 134h-220l-45 -134
h-88zM238 287l-29 -85h178l-29 85l-60 191z" />
    <glyph glyph-name="uni1EB3" unicode="&#x1eb3;" 
d="M299 524q-65 0 -107 40t-56 82l34 23q49 -75 129 -75t129 75l34 -23q-14 -42 -56 -82t-107 -40zM298 662l-24 30q66 51 66 85q0 38 -45 38q-44 0 -44 -40h-55q0 48 28.5 70t74.5 22q49 0 75.5 -22t26.5 -57q0 -34 -24.5 -62t-78.5 -64zM238 -10q-67 0 -108.5 30.5
t-41.5 92.5q0 126 173 126q72 0 125 -17v38q0 60 -19.5 90t-83.5 30q-109 0 -109 -91h-76q0 45 17 77t46 48.5t60.5 24t67.5 7.5q176 0 176 -170v-198q0 -13 5.5 -18t18.5 -5q21 0 49 7v-56q-37 -16 -76 -16q-65 0 -65 59v8q-51 -67 -159 -67zM251 57q78 0 135 41v68
q-44 11 -110 11q-54 0 -81.5 -14t-27.5 -48q0 -58 84 -58z" />
    <glyph glyph-name="uni1EB4" unicode="&#x1eb4;" 
d="M300 609q-64 0 -104.5 37t-55.5 78l31 21q49 -67 129 -67t129 67l31 -21q-15 -41 -55.5 -78t-104.5 -37zM168 765l-31 17q15 36 43 63t65 27q30 0 68 -26q31 -21 52 -21q37 0 67 47l31 -17q-15 -36 -43 -63t-65 -27q-28 0 -62 22q-40 25 -58 25q-37 0 -67 -47zM56 0
l199 564h90l199 -564h-90l-45 134h-220l-45 -134h-88zM238 287l-29 -85h178l-29 85l-60 191z" />
    <glyph glyph-name="uni1EB5" unicode="&#x1eb5;" 
d="M299 524q-65 0 -107 40t-56 82l34 23q49 -75 129 -75t129 75l34 -23q-14 -42 -56 -82t-107 -40zM169 720l-37 16q14 48 43 84.5t67 36.5q31 0 70 -37q32 -30 49 -30q33 0 68 67l37 -16q-14 -48 -43 -84.5t-67 -36.5q-28 0 -61 29q-3 3 -11.5 10.5t-12 11t-10.5 8t-13 6.5
t-12 2q-32 0 -67 -67zM238 -10q-67 0 -108.5 30.5t-41.5 92.5q0 126 173 126q72 0 125 -17v38q0 60 -19.5 90t-83.5 30q-109 0 -109 -91h-76q0 45 17 77t46 48.5t60.5 24t67.5 7.5q176 0 176 -170v-198q0 -13 5.5 -18t18.5 -5q21 0 49 7v-56q-37 -16 -76 -16q-65 0 -65 59v8
q-51 -67 -159 -67zM251 57q78 0 135 41v68q-44 11 -110 11q-54 0 -81.5 -14t-27.5 -48q0 -58 84 -58z" />
    <glyph glyph-name="uni1EB6" unicode="&#x1eb6;" 
d="M249 -169v102h102v-102h-102zM300 632q-65 0 -107 40t-56 82l34 23q49 -75 129 -75t129 75l34 -23q-14 -42 -56 -82t-107 -40zM56 0l199 564h90l199 -564h-90l-45 134h-220l-45 -134h-88zM238 287l-29 -85h178l-29 85l-60 191z" />
    <glyph glyph-name="uni1EB7" unicode="&#x1eb7;" 
d="M261 -169v102h102v-102h-102zM299 524q-65 0 -107 40t-56 82l34 23q49 -75 129 -75t129 75l34 -23q-14 -42 -56 -82t-107 -40zM238 -10q-67 0 -108.5 30.5t-41.5 92.5q0 126 173 126q72 0 125 -17v38q0 60 -19.5 90t-83.5 30q-109 0 -109 -91h-76q0 45 17 77t46 48.5
t60.5 24t67.5 7.5q176 0 176 -170v-198q0 -13 5.5 -18t18.5 -5q21 0 49 7v-56q-37 -16 -76 -16q-65 0 -65 59v8q-51 -67 -159 -67zM251 57q78 0 135 41v68q-44 11 -110 11q-54 0 -81.5 -14t-27.5 -48q0 -58 84 -58z" />
    <glyph glyph-name="uni1EB8" unicode="&#x1eb8;" 
d="M255 -169v102h102v-102h-102zM122 0v564h367v-71h-284v-170h247v-71h-247v-181h284v-71h-367z" />
    <glyph glyph-name="uni1EB9" unicode="&#x1eb9;" 
d="M248 -169v102h102v-102h-102zM305 -10q-95 0 -156 55.5t-61 171.5q0 62 18.5 108.5t50 71.5t67.5 37t76 12t75.5 -11.5t67.5 -36.5t51 -71t19 -109v-16h-346q6 -147 140 -147q52 0 85 22t40 63h80q-6 -41 -27.5 -72t-52 -47t-62 -23.5t-65.5 -7.5zM168 262h264
q-7 58 -42 89t-90 31t-90 -31t-42 -89z" />
    <glyph glyph-name="uni1EBA" unicode="&#x1eba;" 
d="M302 600l-24 30q66 51 66 85q0 38 -45 38q-44 0 -44 -40h-55q0 48 28.5 70t74.5 22q49 0 75.5 -22t26.5 -57q0 -34 -24.5 -62t-78.5 -64zM122 0v564h367v-71h-284v-170h247v-71h-247v-181h284v-71h-367z" />
    <glyph glyph-name="uni1EBB" unicode="&#x1ebb;" 
d="M293 492l-24 30q66 51 66 85q0 38 -45 38q-44 0 -44 -40h-55q0 48 28.5 70t74.5 22q49 0 75.5 -22t26.5 -57q0 -34 -24.5 -62t-78.5 -64zM305 -10q-95 0 -156 55.5t-61 171.5q0 62 18.5 108.5t50 71.5t67.5 37t76 12t75.5 -11.5t67.5 -36.5t51 -71t19 -109v-16h-346
q6 -147 140 -147q52 0 85 22t40 63h80q-6 -41 -27.5 -72t-52 -47t-62 -23.5t-65.5 -7.5zM168 262h264q-7 58 -42 89t-90 31t-90 -31t-42 -89z" />
    <glyph glyph-name="uni1EBC" unicode="&#x1ebc;" 
d="M175 627l-38 18q15 48 44.5 84.5t68.5 36.5q31 0 71 -36q34 -30 51 -30q36 0 69 66l38 -18q-15 -48 -44.5 -84.5t-68.5 -36.5q-30 0 -66 32q-38 34 -56 34q-36 0 -69 -66zM122 0v564h367v-71h-284v-170h247v-71h-247v-181h284v-71h-367z" />
    <glyph glyph-name="uni1EBD" unicode="&#x1ebd;" 
d="M166 519l-38 18q15 48 44.5 84.5t68.5 36.5q31 0 71 -36q34 -30 51 -30q36 0 69 66l38 -18q-15 -48 -44.5 -84.5t-68.5 -36.5q-30 0 -66 32q-38 34 -56 34q-36 0 -69 -66zM305 -10q-95 0 -156 55.5t-61 171.5q0 62 18.5 108.5t50 71.5t67.5 37t76 12t75.5 -11.5
t67.5 -36.5t51 -71t19 -109v-16h-346q6 -147 140 -147q52 0 85 22t40 63h80q-6 -41 -27.5 -72t-52 -47t-62 -23.5t-65.5 -7.5zM168 262h264q-7 58 -42 89t-90 31t-90 -31t-42 -89z" />
    <glyph glyph-name="uni1EBE" unicode="&#x1ebe;" 
d="M164 604l106 167h76l106 -167h-52l-92 100l-92 -100h-52zM415 714l65 151h96l-117 -151h-44zM122 0v564h367v-71h-284v-170h247v-71h-247v-181h284v-71h-367z" />
    <glyph glyph-name="uni1EBF" unicode="&#x1ebf;" 
d="M153 494l108 194h76l108 -194h-52l-94 118l-94 -118h-52zM396 669l76 194h97l-125 -194h-48zM305 -10q-95 0 -156 55.5t-61 171.5q0 62 18.5 108.5t50 71.5t67.5 37t76 12t75.5 -11.5t67.5 -36.5t51 -71t19 -109v-16h-346q6 -147 140 -147q52 0 85 22t40 63h80
q-6 -41 -27.5 -72t-52 -47t-62 -23.5t-65.5 -7.5zM168 262h264q-7 58 -42 89t-90 31t-90 -31t-42 -89z" />
    <glyph glyph-name="uni1EC0" unicode="&#x1ec0;" 
d="M346 771l106 -167h-52l-92 100l-92 -100h-52l106 167h76zM136 865l65 -151h-44l-117 151h96zM122 0v564h367v-71h-284v-170h247v-71h-247v-181h284v-71h-367z" />
    <glyph glyph-name="uni1EC1" unicode="&#x1ec1;" 
d="M153 494l108 194h76l108 -194h-52l-94 118l-94 -118h-52zM154 669l-125 194h97l76 -194h-48zM305 -10q-95 0 -156 55.5t-61 171.5q0 62 18.5 108.5t50 71.5t67.5 37t76 12t75.5 -11.5t67.5 -36.5t51 -71t19 -109v-16h-346q6 -147 140 -147q52 0 85 22t40 63h80
q-6 -41 -27.5 -72t-52 -47t-62 -23.5t-65.5 -7.5zM168 262h264q-7 58 -42 89t-90 31t-90 -31t-42 -89z" />
    <glyph glyph-name="uni1EC2" unicode="&#x1ec2;" 
d="M341 755l110 -151h-51l-92 86l-92 -86h-51l110 151h66zM447 672l-24 30q66 51 66 85q0 38 -45 38q-44 0 -44 -40h-55q0 48 28.5 70t74.5 22q49 0 75.5 -22t26.5 -57q0 -34 -24.5 -62t-78.5 -64zM122 0v564h367v-71h-284v-170h247v-71h-247v-181h284v-71h-367z" />
    <glyph glyph-name="uni1EC3" unicode="&#x1ec3;" 
d="M153 494l108 194h76l108 -194h-52l-94 118l-94 -118h-52zM414 662l-24 30q66 51 66 85q0 38 -45 38q-44 0 -44 -40h-55q0 48 28.5 70t74.5 22q49 0 75.5 -22t26.5 -57q0 -34 -24.5 -62t-78.5 -64zM305 -10q-95 0 -156 55.5t-61 171.5q0 62 18.5 108.5t50 71.5t67.5 37
t76 12t75.5 -11.5t67.5 -36.5t51 -71t19 -109v-16h-346q6 -147 140 -147q52 0 85 22t40 63h80q-6 -41 -27.5 -72t-52 -47t-62 -23.5t-65.5 -7.5zM168 262h264q-7 58 -42 89t-90 31t-90 -31t-42 -89z" />
    <glyph glyph-name="uni1EC4" unicode="&#x1ec4;" 
d="M176 765l-31 17q15 36 43 63t65 27q28 0 71 -28q28 -19 49 -19q37 0 67 47l31 -17q-15 -36 -43 -63t-65 -27q-29 0 -65 24q-34 23 -55 23q-37 0 -67 -47zM342 746l109 -142h-51l-92 79l-92 -79h-51l109 142h68zM122 0v564h367v-71h-284v-170h247v-71h-247v-181h284v-71
h-367z" />
    <glyph glyph-name="uni1EC5" unicode="&#x1ec5;" 
d="M153 494l108 191h76l108 -191h-52l-94 116l-94 -116h-52zM166 718l-38 18q15 48 44.5 84.5t68.5 36.5q31 0 73 -38q30 -28 49 -28q36 0 69 66l38 -18q-15 -48 -44.5 -84.5t-68.5 -36.5q-30 0 -66 32q-2 2 -8 7.5t-8 7t-7 6t-8 6t-7.5 3.5t-9 3t-8.5 1q-36 0 -69 -66z
M305 -10q-95 0 -156 55.5t-61 171.5q0 62 18.5 108.5t50 71.5t67.5 37t76 12t75.5 -11.5t67.5 -36.5t51 -71t19 -109v-16h-346q6 -147 140 -147q52 0 85 22t40 63h80q-6 -41 -27.5 -72t-52 -47t-62 -23.5t-65.5 -7.5zM168 262h264q-7 58 -42 89t-90 31t-90 -31t-42 -89z" />
    <glyph glyph-name="uni1EC6" unicode="&#x1ec6;" 
d="M255 -169v102h102v-102h-102zM162 602l108 194h76l108 -194h-52l-94 118l-94 -118h-52zM122 0v564h367v-71h-284v-170h247v-71h-247v-181h284v-71h-367z" />
    <glyph glyph-name="uni1EC7" unicode="&#x1ec7;" 
d="M248 -169v102h102v-102h-102zM153 494l108 194h76l108 -194h-52l-94 118l-94 -118h-52zM305 -10q-95 0 -156 55.5t-61 171.5q0 62 18.5 108.5t50 71.5t67.5 37t76 12t75.5 -11.5t67.5 -36.5t51 -71t19 -109v-16h-346q6 -147 140 -147q52 0 85 22t40 63h80
q-6 -41 -27.5 -72t-52 -47t-62 -23.5t-65.5 -7.5zM168 262h264q-7 58 -42 89t-90 31t-90 -31t-42 -89z" />
    <glyph glyph-name="uni1EC8" unicode="&#x1ec8;" 
d="M294 600l-24 30q66 51 66 85q0 38 -45 38q-44 0 -44 -40h-55q0 48 28.5 70t74.5 22q49 0 75.5 -22t26.5 -57q0 -34 -24.5 -62t-78.5 -64zM121 0v71h138v422h-138v71h358v-71h-137v-422h137v-71h-358z" />
    <glyph glyph-name="uni1EC9" unicode="&#x1ec9;" 
d="M299 509l-24 30q66 51 66 85q0 38 -45 38q-44 0 -44 -40h-55q0 48 28.5 70t74.5 22q49 0 75.5 -22t26.5 -57q0 -34 -24.5 -62t-78.5 -64zM110 0v67h158v302h-158v67h237v-369h144v-67h-381z" />
    <glyph glyph-name="uni1ECA" unicode="&#x1eca;" 
d="M249 -169v102h102v-102h-102zM121 0v71h138v422h-138v71h358v-71h-137v-422h137v-71h-358z" />
    <glyph glyph-name="uni1ECB" unicode="&#x1ecb;" 
d="M249 -169v102h102v-102h-102zM110 0v67h158v302h-158v67h237v-369h144v-67h-381zM257 537v101h101v-101h-101z" />
    <glyph glyph-name="uni1ECC" unicode="&#x1ecc;" 
d="M249 -169v102h102v-102h-102zM298 -10q-111 0 -165.5 75.5t-54.5 213.5q0 141 56 218.5t168 77.5q111 0 165.5 -75.5t54.5 -214.5q0 -141 -56 -218t-168 -77zM300 62q44 0 73 20t42 56t17 68.5t4 75.5t-4 75.5t-17 69t-42 56.5t-73 20t-73 -20t-42 -56.5t-17 -69
t-4 -75.5t4 -75.5t17 -68.5t42 -56t73 -20z" />
    <glyph glyph-name="uni1ECD" unicode="&#x1ecd;" 
d="M249 -169v102h102v-102h-102zM298 -10q-40 0 -75.5 11.5t-67 36.5t-49.5 71t-18 108q0 64 19 110.5t51 71t68 36t76 11.5t75.5 -11t66.5 -35.5t49.5 -70.5t18.5 -109q0 -64 -19 -111t-51.5 -71.5t-68 -36t-75.5 -11.5zM300 56q133 0 133 162t-133 162t-133 -162t133 -162
z" />
    <glyph glyph-name="uni1ECE" unicode="&#x1ece;" 
d="M294 600l-24 30q66 51 66 85q0 38 -45 38q-44 0 -44 -40h-55q0 48 28.5 70t74.5 22q49 0 75.5 -22t26.5 -57q0 -34 -24.5 -62t-78.5 -64zM298 -10q-111 0 -165.5 75.5t-54.5 213.5q0 141 56 218.5t168 77.5q111 0 165.5 -75.5t54.5 -214.5q0 -141 -56 -218t-168 -77z
M300 62q44 0 73 20t42 56t17 68.5t4 75.5t-4 75.5t-17 69t-42 56.5t-73 20t-73 -20t-42 -56.5t-17 -69t-4 -75.5t4 -75.5t17 -68.5t42 -56t73 -20z" />
    <glyph glyph-name="uni1ECF" unicode="&#x1ecf;" 
d="M294 492l-24 30q66 51 66 85q0 38 -45 38q-44 0 -44 -40h-55q0 48 28.5 70t74.5 22q49 0 75.5 -22t26.5 -57q0 -34 -24.5 -62t-78.5 -64zM298 -10q-40 0 -75.5 11.5t-67 36.5t-49.5 71t-18 108q0 64 19 110.5t51 71t68 36t76 11.5t75.5 -11t66.5 -35.5t49.5 -70.5
t18.5 -109q0 -64 -19 -111t-51.5 -71.5t-68 -36t-75.5 -11.5zM300 56q133 0 133 162t-133 162t-133 -162t133 -162z" />
    <glyph glyph-name="uni1ED0" unicode="&#x1ed0;" 
d="M156 604l106 167h76l106 -167h-52l-92 100l-92 -100h-52zM407 714l65 151h96l-117 -151h-44zM298 -10q-111 0 -165.5 75.5t-54.5 213.5q0 141 56 218.5t168 77.5q111 0 165.5 -75.5t54.5 -214.5q0 -141 -56 -218t-168 -77zM300 62q44 0 73 20t42 56t17 68.5t4 75.5
t-4 75.5t-17 69t-42 56.5t-73 20t-73 -20t-42 -56.5t-17 -69t-4 -75.5t4 -75.5t17 -68.5t42 -56t73 -20z" />
    <glyph glyph-name="uni1ED1" unicode="&#x1ed1;" 
d="M154 494l108 194h76l108 -194h-52l-94 118l-94 -118h-52zM397 669l76 194h97l-125 -194h-48zM298 -10q-40 0 -75.5 11.5t-67 36.5t-49.5 71t-18 108q0 64 19 110.5t51 71t68 36t76 11.5t75.5 -11t66.5 -35.5t49.5 -70.5t18.5 -109q0 -64 -19 -111t-51.5 -71.5t-68 -36
t-75.5 -11.5zM300 56q133 0 133 162t-133 162t-133 -162t133 -162z" />
    <glyph glyph-name="uni1ED2" unicode="&#x1ed2;" 
d="M338 771l106 -167h-52l-92 100l-92 -100h-52l106 167h76zM128 865l65 -151h-44l-117 151h96zM298 -10q-111 0 -165.5 75.5t-54.5 213.5q0 141 56 218.5t168 77.5q111 0 165.5 -75.5t54.5 -214.5q0 -141 -56 -218t-168 -77zM300 62q44 0 73 20t42 56t17 68.5t4 75.5
t-4 75.5t-17 69t-42 56.5t-73 20t-73 -20t-42 -56.5t-17 -69t-4 -75.5t4 -75.5t17 -68.5t42 -56t73 -20z" />
    <glyph glyph-name="uni1ED3" unicode="&#x1ed3;" 
d="M154 494l108 194h76l108 -194h-52l-94 118l-94 -118h-52zM155 669l-125 194h97l76 -194h-48zM298 -10q-40 0 -75.5 11.5t-67 36.5t-49.5 71t-18 108q0 64 19 110.5t51 71t68 36t76 11.5t75.5 -11t66.5 -35.5t49.5 -70.5t18.5 -109q0 -64 -19 -111t-51.5 -71.5t-68 -36
t-75.5 -11.5zM300 56q133 0 133 162t-133 162t-133 -162t133 -162z" />
    <glyph glyph-name="uni1ED4" unicode="&#x1ed4;" 
d="M333 755l110 -151h-51l-92 86l-92 -86h-51l110 151h66zM439 672l-24 30q66 51 66 85q0 38 -45 38q-44 0 -44 -40h-55q0 48 28.5 70t74.5 22q49 0 75.5 -22t26.5 -57q0 -34 -24.5 -62t-78.5 -64zM298 -10q-111 0 -165.5 75.5t-54.5 213.5q0 141 56 218.5t168 77.5
q111 0 165.5 -75.5t54.5 -214.5q0 -141 -56 -218t-168 -77zM300 62q44 0 73 20t42 56t17 68.5t4 75.5t-4 75.5t-17 69t-42 56.5t-73 20t-73 -20t-42 -56.5t-17 -69t-4 -75.5t4 -75.5t17 -68.5t42 -56t73 -20z" />
    <glyph glyph-name="uni1ED5" unicode="&#x1ed5;" 
d="M154 494l108 194h76l108 -194h-52l-94 118l-94 -118h-52zM415 662l-24 30q66 51 66 85q0 38 -45 38q-44 0 -44 -40h-55q0 48 28.5 70t74.5 22q49 0 75.5 -22t26.5 -57q0 -34 -24.5 -62t-78.5 -64zM298 -10q-40 0 -75.5 11.5t-67 36.5t-49.5 71t-18 108q0 64 19 110.5
t51 71t68 36t76 11.5t75.5 -11t66.5 -35.5t49.5 -70.5t18.5 -109q0 -64 -19 -111t-51.5 -71.5t-68 -36t-75.5 -11.5zM300 56q133 0 133 162t-133 162t-133 -162t133 -162z" />
    <glyph glyph-name="uni1ED6" unicode="&#x1ed6;" 
d="M168 765l-31 17q15 36 43 63t65 27q28 0 71 -28q28 -19 49 -19q37 0 67 47l31 -17q-15 -36 -43 -63t-65 -27q-29 0 -65 24q-34 23 -55 23q-37 0 -67 -47zM334 746l109 -142h-51l-92 79l-92 -79h-51l109 142h68zM298 -10q-111 0 -165.5 75.5t-54.5 213.5q0 141 56 218.5
t168 77.5q111 0 165.5 -75.5t54.5 -214.5q0 -141 -56 -218t-168 -77zM300 62q44 0 73 20t42 56t17 68.5t4 75.5t-4 75.5t-17 69t-42 56.5t-73 20t-73 -20t-42 -56.5t-17 -69t-4 -75.5t4 -75.5t17 -68.5t42 -56t73 -20z" />
    <glyph glyph-name="uni1ED7" unicode="&#x1ed7;" 
d="M154 494l108 191h76l108 -191h-52l-94 116l-94 -116h-52zM167 718l-38 18q15 48 44.5 84.5t68.5 36.5q31 0 73 -38q30 -28 49 -28q36 0 69 66l38 -18q-15 -48 -44.5 -84.5t-68.5 -36.5q-30 0 -66 32q-2 2 -8 7.5t-8 7t-7 6t-8 6t-7.5 3.5t-9 3t-8.5 1q-36 0 -69 -66z
M298 -10q-40 0 -75.5 11.5t-67 36.5t-49.5 71t-18 108q0 64 19 110.5t51 71t68 36t76 11.5t75.5 -11t66.5 -35.5t49.5 -70.5t18.5 -109q0 -64 -19 -111t-51.5 -71.5t-68 -36t-75.5 -11.5zM300 56q133 0 133 162t-133 162t-133 -162t133 -162z" />
    <glyph glyph-name="uni1ED8" unicode="&#x1ed8;" 
d="M249 -169v102h102v-102h-102zM154 602l108 194h76l108 -194h-52l-94 118l-94 -118h-52zM298 -10q-111 0 -165.5 75.5t-54.5 213.5q0 141 56 218.5t168 77.5q111 0 165.5 -75.5t54.5 -214.5q0 -141 -56 -218t-168 -77zM300 62q44 0 73 20t42 56t17 68.5t4 75.5t-4 75.5
t-17 69t-42 56.5t-73 20t-73 -20t-42 -56.5t-17 -69t-4 -75.5t4 -75.5t17 -68.5t42 -56t73 -20z" />
    <glyph glyph-name="uni1ED9" unicode="&#x1ed9;" 
d="M249 -169v102h102v-102h-102zM154 494l108 194h76l108 -194h-52l-94 118l-94 -118h-52zM298 -10q-40 0 -75.5 11.5t-67 36.5t-49.5 71t-18 108q0 64 19 110.5t51 71t68 36t76 11.5t75.5 -11t66.5 -35.5t49.5 -70.5t18.5 -109q0 -64 -19 -111t-51.5 -71.5t-68 -36
t-75.5 -11.5zM300 56q133 0 133 162t-133 162t-133 -162t133 -162z" />
    <glyph glyph-name="uni1EDA" unicode="&#x1eda;" 
d="M246 602l77 194h96l-126 -194h-47zM298 -10q-111 0 -165.5 75.5t-54.5 213.5q0 141 56 218.5t168 77.5q102 0 157 -66q55 9 55 75q0 28 -5 58h71q4 -24 4 -57q0 -55 -24 -83t-73 -37q35 -72 35 -180q0 -141 -56 -218t-168 -77zM300 62q44 0 73 20t42 56t17 68.5t4 75.5
t-4 75.5t-17 69t-42 56.5t-73 20t-73 -20t-42 -56.5t-17 -69t-4 -75.5t4 -75.5t17 -68.5t42 -56t73 -20z" />
    <glyph glyph-name="uni1EDB" unicode="&#x1edb;" 
d="M246 494l77 194h96l-126 -194h-47zM298 -10q-87 0 -148 53.5t-61 173.5q0 64 18.5 110.5t50.5 71.5t67.5 36t76.5 11q103 0 159 -68q51 9 51 72q0 21 -5 58h71q4 -24 4 -57q0 -100 -92 -117q21 -45 21 -115q0 -64 -18.5 -110.5t-50.5 -71.5t-67.5 -36t-76.5 -11zM300 60
q130 0 130 158t-130 158t-130 -158t130 -158z" />
    <glyph glyph-name="uni1EDC" unicode="&#x1edc;" 
d="M307 602l-126 194h96l77 -194h-47zM298 -10q-111 0 -165.5 75.5t-54.5 213.5q0 141 56 218.5t168 77.5q102 0 157 -66q55 9 55 75q0 28 -5 58h71q4 -24 4 -57q0 -55 -24 -83t-73 -37q35 -72 35 -180q0 -141 -56 -218t-168 -77zM300 62q44 0 73 20t42 56t17 68.5t4 75.5
t-4 75.5t-17 69t-42 56.5t-73 20t-73 -20t-42 -56.5t-17 -69t-4 -75.5t4 -75.5t17 -68.5t42 -56t73 -20z" />
    <glyph glyph-name="uni1EDD" unicode="&#x1edd;" 
d="M307 494l-126 194h96l77 -194h-47zM298 -10q-87 0 -148 53.5t-61 173.5q0 64 18.5 110.5t50.5 71.5t67.5 36t76.5 11q103 0 159 -68q51 9 51 72q0 21 -5 58h71q4 -24 4 -57q0 -100 -92 -117q21 -45 21 -115q0 -64 -18.5 -110.5t-50.5 -71.5t-67.5 -36t-76.5 -11zM300 60
q130 0 130 158t-130 158t-130 -158t130 -158z" />
    <glyph glyph-name="uni1EDE" unicode="&#x1ede;" 
d="M294 600l-24 30q66 51 66 85q0 38 -45 38q-44 0 -44 -40h-55q0 48 28.5 70t74.5 22q49 0 75.5 -22t26.5 -57q0 -34 -24.5 -62t-78.5 -64zM298 -10q-111 0 -165.5 75.5t-54.5 213.5q0 141 56 218.5t168 77.5q102 0 157 -66q55 9 55 75q0 28 -5 58h71q4 -24 4 -57
q0 -55 -24 -83t-73 -37q35 -72 35 -180q0 -141 -56 -218t-168 -77zM300 62q44 0 73 20t42 56t17 68.5t4 75.5t-4 75.5t-17 69t-42 56.5t-73 20t-73 -20t-42 -56.5t-17 -69t-4 -75.5t4 -75.5t17 -68.5t42 -56t73 -20z" />
    <glyph glyph-name="uni1EDF" unicode="&#x1edf;" 
d="M294 492l-24 30q66 51 66 85q0 38 -45 38q-44 0 -44 -40h-55q0 48 28.5 70t74.5 22q49 0 75.5 -22t26.5 -57q0 -34 -24.5 -62t-78.5 -64zM298 -10q-87 0 -148 53.5t-61 173.5q0 64 18.5 110.5t50.5 71.5t67.5 36t76.5 11q103 0 159 -68q51 9 51 72q0 21 -5 58h71
q4 -24 4 -57q0 -100 -92 -117q21 -45 21 -115q0 -64 -18.5 -110.5t-50.5 -71.5t-67.5 -36t-76.5 -11zM300 60q130 0 130 158t-130 158t-130 -158t130 -158z" />
    <glyph glyph-name="uni1EE0" unicode="&#x1ee0;" 
d="M167 627l-38 18q15 48 44.5 84.5t68.5 36.5q31 0 71 -36q34 -30 51 -30q36 0 69 66l38 -18q-15 -48 -44.5 -84.5t-68.5 -36.5q-30 0 -66 32q-38 34 -56 34q-36 0 -69 -66zM298 -10q-111 0 -165.5 75.5t-54.5 213.5q0 141 56 218.5t168 77.5q102 0 157 -66q55 9 55 75
q0 28 -5 58h71q4 -24 4 -57q0 -55 -24 -83t-73 -37q35 -72 35 -180q0 -141 -56 -218t-168 -77zM300 62q44 0 73 20t42 56t17 68.5t4 75.5t-4 75.5t-17 69t-42 56.5t-73 20t-73 -20t-42 -56.5t-17 -69t-4 -75.5t4 -75.5t17 -68.5t42 -56t73 -20z" />
    <glyph glyph-name="uni1EE1" unicode="&#x1ee1;" 
d="M167 519l-38 18q15 48 44.5 84.5t68.5 36.5q31 0 71 -36q34 -30 51 -30q36 0 69 66l38 -18q-15 -48 -44.5 -84.5t-68.5 -36.5q-30 0 -66 32q-38 34 -56 34q-36 0 -69 -66zM298 -10q-87 0 -148 53.5t-61 173.5q0 64 18.5 110.5t50.5 71.5t67.5 36t76.5 11q103 0 159 -68
q51 9 51 72q0 21 -5 58h71q4 -24 4 -57q0 -100 -92 -117q21 -45 21 -115q0 -64 -18.5 -110.5t-50.5 -71.5t-67.5 -36t-76.5 -11zM300 60q130 0 130 158t-130 158t-130 -158t130 -158z" />
    <glyph glyph-name="uni1EE2" unicode="&#x1ee2;" 
d="M249 -169v102h102v-102h-102zM298 -10q-111 0 -165.5 75.5t-54.5 213.5q0 141 56 218.5t168 77.5q102 0 157 -66q55 9 55 75q0 28 -5 58h71q4 -24 4 -57q0 -55 -24 -83t-73 -37q35 -72 35 -180q0 -141 -56 -218t-168 -77zM300 62q44 0 73 20t42 56t17 68.5t4 75.5
t-4 75.5t-17 69t-42 56.5t-73 20t-73 -20t-42 -56.5t-17 -69t-4 -75.5t4 -75.5t17 -68.5t42 -56t73 -20z" />
    <glyph glyph-name="uni1EE3" unicode="&#x1ee3;" 
d="M249 -169v102h102v-102h-102zM298 -10q-87 0 -148 53.5t-61 173.5q0 64 18.5 110.5t50.5 71.5t67.5 36t76.5 11q103 0 159 -68q51 9 51 72q0 21 -5 58h71q4 -24 4 -57q0 -100 -92 -117q21 -45 21 -115q0 -64 -18.5 -110.5t-50.5 -71.5t-67.5 -36t-76.5 -11zM300 60
q130 0 130 158t-130 158t-130 -158t130 -158z" />
    <glyph glyph-name="uni1EE4" unicode="&#x1ee4;" 
d="M249 -169v102h102v-102h-102zM300 -10q-99 0 -146 50t-47 159v365h83v-365q0 -75 25 -105.5t85 -30.5t85 30.5t25 105.5v365h83v-365q0 -109 -47 -159t-146 -50z" />
    <glyph glyph-name="uni1EE5" unicode="&#x1ee5;" 
d="M249 -169v102h102v-102h-102zM269 -10q-147 0 -147 178v268h79v-251q0 -67 18.5 -98t72.5 -31q69 0 107 46v334h79v-436h-66v58q-46 -68 -143 -68z" />
    <glyph glyph-name="uni1EE6" unicode="&#x1ee6;" 
d="M294 600l-24 30q66 51 66 85q0 38 -45 38q-44 0 -44 -40h-55q0 48 28.5 70t74.5 22q49 0 75.5 -22t26.5 -57q0 -34 -24.5 -62t-78.5 -64zM300 -10q-99 0 -146 50t-47 159v365h83v-365q0 -75 25 -105.5t85 -30.5t85 30.5t25 105.5v365h83v-365q0 -109 -47 -159t-146 -50z
" />
    <glyph glyph-name="uni1EE7" unicode="&#x1ee7;" 
d="M294 492l-24 30q66 51 66 85q0 38 -45 38q-44 0 -44 -40h-55q0 48 28.5 70t74.5 22q49 0 75.5 -22t26.5 -57q0 -34 -24.5 -62t-78.5 -64zM269 -10q-147 0 -147 178v268h79v-251q0 -67 18.5 -98t72.5 -31q69 0 107 46v334h79v-436h-66v58q-46 -68 -143 -68z" />
    <glyph glyph-name="uni1EE8" unicode="&#x1ee8;" 
d="M246 602l77 194h96l-126 -194h-47zM300 -10q-99 0 -146 50t-47 159v365h83v-365q0 -75 25 -105.5t85 -30.5t85 30.5t25 105.5v365h40q45 0 62.5 18t17.5 58q0 28 -5 58h71q4 -24 4 -57q0 -58 -26.5 -86t-80.5 -35v-321q0 -109 -47 -159t-146 -50z" />
    <glyph glyph-name="uni1EE9" unicode="&#x1ee9;" 
d="M246 494l77 194h96l-126 -194h-47zM269 -10q-147 0 -147 178v268h79v-251q0 -67 18.5 -98t72.5 -31q69 0 107 46v334h42q45 0 62.5 18t17.5 58q0 28 -5 58h71q4 -24 4 -57q0 -60 -28 -88.5t-85 -33.5v-391h-66v58q-46 -68 -143 -68z" />
    <glyph glyph-name="uni1EEA" unicode="&#x1eea;" 
d="M307 602l-126 194h96l77 -194h-47zM300 -10q-99 0 -146 50t-47 159v365h83v-365q0 -75 25 -105.5t85 -30.5t85 30.5t25 105.5v365h40q45 0 62.5 18t17.5 58q0 28 -5 58h71q4 -24 4 -57q0 -58 -26.5 -86t-80.5 -35v-321q0 -109 -47 -159t-146 -50z" />
    <glyph glyph-name="uni1EEB" unicode="&#x1eeb;" 
d="M307 494l-126 194h96l77 -194h-47zM269 -10q-147 0 -147 178v268h79v-251q0 -67 18.5 -98t72.5 -31q69 0 107 46v334h42q45 0 62.5 18t17.5 58q0 28 -5 58h71q4 -24 4 -57q0 -60 -28 -88.5t-85 -33.5v-391h-66v58q-46 -68 -143 -68z" />
    <glyph glyph-name="uni1EEC" unicode="&#x1eec;" 
d="M294 600l-24 30q66 51 66 85q0 38 -45 38q-44 0 -44 -40h-55q0 48 28.5 70t74.5 22q49 0 75.5 -22t26.5 -57q0 -34 -24.5 -62t-78.5 -64zM300 -10q-99 0 -146 50t-47 159v365h83v-365q0 -75 25 -105.5t85 -30.5t85 30.5t25 105.5v365h40q45 0 62.5 18t17.5 58q0 28 -5 58
h71q4 -24 4 -57q0 -58 -26.5 -86t-80.5 -35v-321q0 -109 -47 -159t-146 -50z" />
    <glyph glyph-name="uni1EED" unicode="&#x1eed;" 
d="M294 492l-24 30q66 51 66 85q0 38 -45 38q-44 0 -44 -40h-55q0 48 28.5 70t74.5 22q49 0 75.5 -22t26.5 -57q0 -34 -24.5 -62t-78.5 -64zM269 -10q-147 0 -147 178v268h79v-251q0 -67 18.5 -98t72.5 -31q69 0 107 46v334h42q45 0 62.5 18t17.5 58q0 28 -5 58h71
q4 -24 4 -57q0 -60 -28 -88.5t-85 -33.5v-391h-66v58q-46 -68 -143 -68z" />
    <glyph glyph-name="uni1EEE" unicode="&#x1eee;" 
d="M167 627l-38 18q15 48 44.5 84.5t68.5 36.5q31 0 71 -36q34 -30 51 -30q36 0 69 66l38 -18q-15 -48 -44.5 -84.5t-68.5 -36.5q-30 0 -66 32q-38 34 -56 34q-36 0 -69 -66zM300 -10q-99 0 -146 50t-47 159v365h83v-365q0 -75 25 -105.5t85 -30.5t85 30.5t25 105.5v365h40
q45 0 62.5 18t17.5 58q0 28 -5 58h71q4 -24 4 -57q0 -58 -26.5 -86t-80.5 -35v-321q0 -109 -47 -159t-146 -50z" />
    <glyph glyph-name="uni1EEF" unicode="&#x1eef;" 
d="M167 519l-38 18q15 48 44.5 84.5t68.5 36.5q31 0 71 -36q34 -30 51 -30q36 0 69 66l38 -18q-15 -48 -44.5 -84.5t-68.5 -36.5q-30 0 -66 32q-38 34 -56 34q-36 0 -69 -66zM269 -10q-147 0 -147 178v268h79v-251q0 -67 18.5 -98t72.5 -31q69 0 107 46v334h42q45 0 62.5 18
t17.5 58q0 28 -5 58h71q4 -24 4 -57q0 -60 -28 -88.5t-85 -33.5v-391h-66v58q-46 -68 -143 -68z" />
    <glyph glyph-name="uni1EF0" unicode="&#x1ef0;" 
d="M249 -169v102h102v-102h-102zM300 -10q-99 0 -146 50t-47 159v365h83v-365q0 -75 25 -105.5t85 -30.5t85 30.5t25 105.5v365h40q45 0 62.5 18t17.5 58q0 28 -5 58h71q4 -24 4 -57q0 -58 -26.5 -86t-80.5 -35v-321q0 -109 -47 -159t-146 -50z" />
    <glyph glyph-name="uni1EF1" unicode="&#x1ef1;" 
d="M248 -169v102h102v-102h-102zM269 -10q-147 0 -147 178v268h79v-251q0 -67 18.5 -98t72.5 -31q69 0 107 46v334h42q45 0 62.5 18t17.5 58q0 28 -5 58h71q4 -24 4 -57q0 -60 -28 -88.5t-85 -33.5v-391h-66v58q-46 -68 -143 -68z" />
    <glyph glyph-name="Ygrave" unicode="&#x1ef2;" 
d="M307 602l-126 194h96l77 -194h-47zM259 0v225l-220 339h96l83 -132l83 -142l84 142l83 132h93l-219 -339v-225h-83z" />
    <glyph glyph-name="ygrave" unicode="&#x1ef3;" 
d="M307 494l-126 194h96l77 -194h-47zM83 -185v67q68 0 108 26t67 86l-191 442h86l94 -233l54 -140l54 138l96 235h82l-185 -429q-46 -107 -104 -149.5t-161 -42.5z" />
    <glyph glyph-name="uni1EF4" unicode="&#x1ef4;" 
d="M249 -169v102h102v-102h-102zM259 0v225l-220 339h96l83 -132l83 -142l84 142l83 132h93l-219 -339v-225h-83z" />
    <glyph glyph-name="uni1EF5" unicode="&#x1ef5;" 
d="M349 -208v102h102v-102h-102zM83 -185v67q68 0 108 26t67 86l-191 442h86l94 -233l54 -140l54 138l96 235h82l-185 -429q-46 -107 -104 -149.5t-161 -42.5z" />
    <glyph glyph-name="uni1EF6" unicode="&#x1ef6;" 
d="M294 600l-24 30q66 51 66 85q0 38 -45 38q-44 0 -44 -40h-55q0 48 28.5 70t74.5 22q49 0 75.5 -22t26.5 -57q0 -34 -24.5 -62t-78.5 -64zM259 0v225l-220 339h96l83 -132l83 -142l84 142l83 132h93l-219 -339v-225h-83z" />
    <glyph glyph-name="uni1EF7" unicode="&#x1ef7;" 
d="M294 492l-24 30q66 51 66 85q0 38 -45 38q-44 0 -44 -40h-55q0 48 28.5 70t74.5 22q49 0 75.5 -22t26.5 -57q0 -34 -24.5 -62t-78.5 -64zM83 -185v67q68 0 108 26t67 86l-191 442h86l94 -233l54 -140l54 138l96 235h82l-185 -429q-46 -107 -104 -149.5t-161 -42.5z" />
    <glyph glyph-name="uni1EF8" unicode="&#x1ef8;" 
d="M167 627l-38 18q15 48 44.5 84.5t68.5 36.5q31 0 71 -36q34 -30 51 -30q36 0 69 66l38 -18q-15 -48 -44.5 -84.5t-68.5 -36.5q-30 0 -66 32q-38 34 -56 34q-36 0 -69 -66zM259 0v225l-220 339h96l83 -132l83 -142l84 142l83 132h93l-219 -339v-225h-83z" />
    <glyph glyph-name="uni1EF9" unicode="&#x1ef9;" 
d="M167 519l-38 18q15 48 44.5 84.5t68.5 36.5q31 0 71 -36q34 -30 51 -30q36 0 69 66l38 -18q-15 -48 -44.5 -84.5t-68.5 -36.5q-30 0 -66 32q-38 34 -56 34q-36 0 -69 -66zM83 -185v67q68 0 108 26t67 86l-191 442h86l94 -233l54 -140l54 138l96 235h82l-185 -429
q-46 -107 -104 -149.5t-161 -42.5z" />
    <glyph glyph-name="endash" unicode="&#x2013;" 
d="M111 184v70h378v-70h-378z" />
    <glyph glyph-name="emdash" unicode="&#x2014;" 
d="M0 184v70h600v-70h-600z" />
    <glyph glyph-name="quoteleft" unicode="&#x2018;" 
d="M201 340l143 250q16 26 34 26q22 0 22 -22q0 -8 -3 -17l-65 -237h-131z" />
    <glyph glyph-name="quoteright" unicode="&#x2019;" 
d="M222 328q-22 0 -22 21q0 7 3 18l65 237h131l-143 -250q-14 -26 -34 -26z" />
    <glyph glyph-name="quotesinglbase" unicode="&#x201a;" 
d="M206 -155q-21 0 -21 21q0 8 3 19l65 237h131l-144 -251q-15 -26 -34 -26z" />
    <glyph glyph-name="quotedblleft" unicode="&#x201c;" 
d="M85 340l144 250q14 26 33 26q23 0 23 -22q0 -8 -3 -17l-66 -237h-131zM295 340l144 250q14 26 34 26q22 0 22 -22q0 -8 -3 -17l-66 -237h-131z" />
    <glyph glyph-name="quotedblright" unicode="&#x201d;" 
d="M128 328q-23 0 -23 21q0 7 3 18l66 237h131l-144 -250q-14 -26 -33 -26zM338 328q-23 0 -23 21q0 7 3 18l66 237h131l-144 -250q-14 -26 -33 -26z" />
    <glyph glyph-name="quotedblbase" unicode="&#x201e;" 
d="M310 -155q-21 0 -21 21q0 8 3 19l65 237h131l-144 -251q-15 -26 -34 -26zM100 -155q-21 0 -21 21q0 8 3 19l65 237h131l-144 -251q-15 -26 -34 -26z" />
    <glyph glyph-name="dagger" unicode="&#x2020;" 
d="M266 183v271h-130v60h130v124h68v-124h130v-60h-130v-271h-68z" />
    <glyph glyph-name="daggerdbl" unicode="&#x2021;" 
d="M266 75v198h-130v60h130v121h-130v61h130v123h68v-123h130v-61h-130v-121h130v-60h-130v-198h-68z" />
    <glyph glyph-name="bullet" unicode="&#x2022;" 
d="M300 154q-53 0 -90.5 30t-37.5 98t37.5 98.5t90.5 30.5t90.5 -30.5t37.5 -98.5t-37.5 -98t-90.5 -30z" />
    <glyph glyph-name="ellipsis" unicode="&#x2026;" 
d="M66 0v93h94v-93h-94zM254 0v93h93v-93h-93zM441 0v93h93v-93h-93z" />
    </font>
</defs>
</svg>
