<?xml version="1.0" standalone="no"?>
<!DOCTYPE svg PUBLIC "-//W3C//DTD SVG 1.1//EN" "http://www.w3.org/Graphics/SVG/1.1/DTD/svg11.dtd" >
<svg>
<metadata>
Created by FontForge 20090622 at Sat Oct 22 08:21:42 2016
 By deploy user
Copyright &#194;&#169; 2007&#226;&#128;&#147;2016 Bold Monday. All rights reserved. Nitti is a trademark of Bold Monday. Unauthorized copying or modification of any of its data is illegal.
</metadata>
<defs>
<font id="Nitti-Medium" horiz-adv-x="600" >
  <font-face 
    font-family="Nitti Medium"
    font-weight="500"
    font-stretch="normal"
    units-per-em="1000"
    panose-1="2 11 6 9 4 0 0 6 0 4"
    ascent="780"
    descent="-220"
    x-height="442"
    cap-height="572"
    bbox="-270 -420 655 980"
    underline-thickness="66"
    underline-position="-83"
    unicode-range="U+0020-U+FB4F"
  />
<missing-glyph 
d="M292 137l-41 50q85 60 114.5 96t29.5 71q0 82 -102 82q-104 0 -104 -85h-106q0 88 57.5 131t157.5 43q98 0 153.5 -42t55.5 -113q0 -66 -50 -116t-165 -117zM229 -57v129h130v-129h-130zM0 -183v830h600v-830h-600zM51 602v-740h498v740h-498z" />
    <glyph glyph-name=".notdef" 
d="M292 137l-41 50q85 60 114.5 96t29.5 71q0 82 -102 82q-104 0 -104 -85h-106q0 88 57.5 131t157.5 43q98 0 153.5 -42t55.5 -113q0 -66 -50 -116t-165 -117zM229 -57v129h130v-129h-130zM0 -183v830h600v-830h-600zM51 602v-740h498v740h-498z" />
    <glyph glyph-name=".null" horiz-adv-x="0" 
 />
    <glyph glyph-name="nonmarkingreturn" horiz-adv-x="333" 
 />
    <glyph glyph-name="space" unicode=" " 
 />
    <glyph glyph-name="exclam" unicode="!" 
d="M278 208l-36 189v175h116v-175l-36 -189h-44zM235 0v129h130v-129h-130z" />
    <glyph glyph-name="quotedbl" unicode="&#x22;" 
d="M163 284q-32 217 -32 231q0 32 18.5 49.5t50.5 17.5t50.5 -17.5t18.5 -49.5q0 -14 -31 -231h-75zM363 284q-32 217 -32 231q0 32 18.5 49.5t50.5 17.5t50.5 -17.5t18.5 -49.5q0 -14 -31 -231h-75z" />
    <glyph glyph-name="numbersign" unicode="#" 
d="M103 0l27 141h-92l17 85h92l22 113h-93l17 85h93l29 148h92l-29 -148h99l29 148h92l-29 -148h93l-17 -85h-92l-22 -113h93l-17 -85h-93l-27 -141h-92l27 141h-99l-27 -141h-93zM262 339l-22 -113h99l22 113h-99z" />
    <glyph glyph-name="dollar" unicode="$" 
d="M251 -84v77q-81 9 -128.5 54.5t-47.5 124.5h108q7 -90 117 -90q54 0 84 18.5t30 52.5q0 27 -18 42t-55 28l-128 42q-124 41 -124 152q0 67 44 108.5t118 52.5v78h91v-77q76 -9 122 -52.5t47 -123.5h-109q-3 46 -27.5 66.5t-73.5 20.5q-51 0 -77 -18.5t-25 -47.5
q1 -25 15 -40.5t48 -26.5l130 -43q61 -20 96.5 -55t35.5 -98q0 -74 -50 -116.5t-132 -51.5v-77h-91z" />
    <glyph glyph-name="percent" unicode="%" 
d="M169 260q-66 0 -108 38.5t-42 122.5q0 81 43.5 121t106.5 40q66 0 108 -38.5t42 -122.5q0 -81 -43.5 -121t-106.5 -40zM169 341q59 0 59 80t-59 80t-59 -80t59 -80zM431 -10q-66 0 -108 39t-42 122q0 81 43.5 121.5t106.5 40.5q65 0 107.5 -39t42.5 -123
q0 -81 -43.5 -121t-106.5 -40zM431 71q59 0 59 80t-59 80t-59 -80t59 -80zM18 0l168 228h59v-59l-125 -169h-102zM355 344v58l125 170h102l-168 -228h-59z" />
    <glyph glyph-name="ampersand" unicode="&#x26;" 
d="M285 86h103v164h-100q-128 0 -128 -84q0 -80 125 -80zM282 0q-108 0 -170.5 39.5t-62.5 118.5q0 101 96 133q-82 36 -82 127q0 79 60 121.5t156 42.5q40 0 74.5 -8t66.5 -26.5t51.5 -54t22.5 -85.5h-107q-8 87 -109 87q-106 0 -106 -81q0 -79 123 -79h275v-85h-74v-250
h-214z" />
    <glyph glyph-name="quotesingle" unicode="'" 
d="M263 284q-32 217 -32 231q0 32 18.5 49.5t50.5 17.5t50.5 -17.5t18.5 -49.5q0 -14 -31 -231h-75z" />
    <glyph glyph-name="parenleft" unicode="(" 
d="M391 -182q-114 92 -170 202.5t-56 212.5t56 211.5t170 202.5h99q-118 -120 -171.5 -219.5t-53.5 -194.5t53.5 -195.5t171.5 -219.5h-99z" />
    <glyph glyph-name="parenright" unicode=")" 
d="M110 -182q118 119 171.5 219.5t53.5 194.5q0 95 -53.5 195.5t-171.5 219.5h99q114 -92 170 -202.5t56 -212.5t-56 -211.5t-170 -202.5h-99z" />
    <glyph glyph-name="asterisk" unicode="*" 
d="M198 221l-58 41l86 137l-150 59l22 67l157 -39l9 161h72l9 -161l157 39l22 -67l-150 -59l86 -137l-58 -41l-102 124z" />
    <glyph glyph-name="plus" unicode="+" 
d="M249 0v175h-172v93h172v174h103v-174h172v-93h-172v-175h-103z" />
    <glyph glyph-name="comma" unicode="," 
d="M229 -157q-19 0 -30 9.5t-11 24.5q0 8 2 22l34 253h160l-109 -279q-12 -30 -46 -30z" />
    <glyph glyph-name="hyphen" unicode="-" 
d="M148 239v94h304v-94h-304z" />
    <glyph glyph-name="period" unicode="." 
d="M224 0v152h152v-152h-152z" />
    <glyph glyph-name="slash" unicode="/" 
d="M-47 -182l520 829h99l-521 -829h-98z" />
    <glyph glyph-name="zero" unicode="0" 
d="M299 -10q-119 0 -177.5 76t-58.5 217q0 142 59.5 220.5t178.5 78.5q120 0 178 -76.5t58 -216.5q0 -141 -59 -220t-179 -79zM300 84q32 0 55.5 12t36.5 30t20.5 46.5t9.5 54t2 59.5q0 44 -4 75t-16 62.5t-38 48t-66 16.5t-66 -16.5t-38 -48t-16 -62.5t-4 -75
q0 -34 2 -59.5t9.5 -54t20.5 -46.5t36.5 -30t55.5 -12zM300 240q-20 0 -33 13t-13 33t13 33t33 13t33 -13t13 -33t-13 -33t-33 -13z" />
    <glyph glyph-name="one" unicode="1" 
d="M119 0v92h152v356q-40 -46 -129 -46h-23v99h45q99 0 133 71h83v-480h129v-92h-390z" />
    <glyph glyph-name="two" unicode="2" 
d="M107 0v39q0 71 31 120.5t92 88.5l76 49q47 30 71.5 56t24.5 59q0 37 -26.5 59t-70.5 22q-106 0 -113 -109h-109q4 97 65.5 147.5t160.5 50.5q91 0 148 -44.5t57 -122.5q0 -57 -29.5 -96t-92.5 -82l-80 -54q-40 -27 -61 -47t-24 -44h302v-92h-422z" />
    <glyph glyph-name="three" unicode="3" 
d="M304 -10q-104 0 -166 50.5t-66 140.5h109q8 -101 120 -101q52 0 82.5 22t30.5 62q0 42 -32.5 63.5t-86.5 21.5h-28v88h27q107 0 107 75q0 37 -26.5 59t-71.5 22q-47 0 -77.5 -25t-34.5 -78h-110q4 93 66.5 142.5t160.5 49.5q96 0 150.5 -45.5t54.5 -118.5q0 -88 -85 -125
q98 -38 98 -138q0 -76 -62 -120.5t-160 -44.5z" />
    <glyph glyph-name="four" unicode="4" 
d="M341 0v135h-295v69l305 368h95v-348h95v-89h-95v-135h-105zM175 224h166v200z" />
    <glyph glyph-name="five" unicode="5" 
d="M316 -10q-101 0 -161.5 48t-65.5 134h109q4 -43 32 -67.5t80 -24.5q51 0 79.5 27t28.5 76q0 50 -31 76.5t-85 26.5q-79 0 -129 -58l-72 22l33 322h364v-94h-272l-14 -136q51 34 121 34q88 0 143 -50.5t55 -137.5q0 -93 -61 -145.5t-154 -52.5z" />
    <glyph glyph-name="six" unicode="6" 
d="M319 -10q-107 0 -173 72.5t-66 223.5q0 137 64.5 216.5t180.5 79.5q89 0 144.5 -49t60.5 -133h-109q-4 40 -29 66.5t-71 26.5q-122 0 -130 -182q55 48 143 48q94 0 144.5 -51t50.5 -131q0 -84 -58 -135.5t-152 -51.5zM317 80q46 0 73 25.5t27 67.5q0 45 -26 71t-77 26
q-68 0 -121 -38q15 -152 124 -152z" />
    <glyph glyph-name="seven" unicode="7" 
d="M221 0v53q0 134 46.5 245t132.5 184h-228v-79h-96v169h456v-78q-199 -162 -199 -456v-38h-112z" />
    <glyph glyph-name="eight" unicode="8" 
d="M300 -10q-96 0 -164 43t-68 122q0 97 98 135q-85 42 -85 124q0 85 64 126.5t155 41.5q58 0 106 -16t80.5 -55t32.5 -97q0 -82 -85 -124q98 -38 98 -135q0 -79 -68 -122t-164 -43zM301 79q51 0 85 21.5t34 63.5q0 44 -33.5 65t-85.5 21q-53 0 -87 -21t-34 -65
q0 -42 34.5 -63.5t86.5 -21.5zM300 328q45 0 76 20t31 61q0 43 -31 64t-76 21t-76 -21t-31 -64q0 -41 31 -61t76 -20z" />
    <glyph glyph-name="nine" unicode="9" 
d="M286 -10q-94 0 -151.5 50t-61.5 132h109q3 -40 29 -66t78 -26q60 0 90 43t33 141q-53 -48 -141 -48q-95 0 -146 53t-51 130q0 82 58 132.5t151 50.5q107 0 173.5 -71.5t66.5 -227.5q0 -145 -64 -219t-173 -74zM288 305q68 0 121 38q-16 150 -123 150q-45 0 -72.5 -25.5
t-27.5 -68.5q0 -42 27 -68t75 -26z" />
    <glyph glyph-name="colon" unicode=":" 
d="M224 0v143h152v-143h-152zM224 298v144h152v-144h-152z" />
    <glyph glyph-name="semicolon" unicode=";" 
d="M229 -157q-19 0 -30 9.5t-11 24.5q0 8 2 22l34 253h160l-109 -279q-12 -30 -46 -30zM224 298v144h152v-144h-152z" />
    <glyph glyph-name="less" unicode="&#x3c;" 
d="M532 -10l-464 189v83l464 190v-98l-334 -132l334 -130v-102z" />
    <glyph glyph-name="equal" unicode="=" 
d="M106 73v94h388v-94h-388zM106 277v94h388v-94h-388z" />
    <glyph glyph-name="greater" unicode="&#x3e;" 
d="M68 -10v98l335 131l-335 131v102l464 -189v-83z" />
    <glyph glyph-name="question" unicode="?" 
d="M293 194l-41 50q85 60 114.5 96t29.5 71q0 82 -102 82q-104 0 -104 -85h-106q0 88 57.5 131t157.5 43q98 0 153.5 -42t55.5 -113q0 -66 -50 -116t-165 -117zM230 0v129h130v-129h-130z" />
    <glyph glyph-name="at" unicode="@" 
d="M186 -10q-57 0 -84.5 49.5t-27.5 181.5q0 129 29 180t83 51q57 0 85 -55v45h79v-325q0 -52 42 -52t42 52v289q0 89 -28 131t-106 42q-124 0 -124 -84h-90q0 28 10 54.5t32 51.5t66.5 40.5t105.5 15.5q46 0 82.5 -9.5t59.5 -23t39.5 -37t24.5 -42t12.5 -48.5t5 -46.5
t0.5 -44.5v-281q0 -52 -22 -84t-48.5 -41.5t-59.5 -9.5q-86 0 -111 69q-30 -69 -97 -69zM216 65q27 0 43 26v260q-16 26 -43 26q-29 0 -38.5 -28.5t-9.5 -127.5t9.5 -127.5t38.5 -28.5z" />
    <glyph glyph-name="A" unicode="A" 
d="M40 0l201 572h118l201 -572h-119l-42 126h-201l-41 -126h-117zM242 273l-19 -59h148l-19 59l-55 185z" />
    <glyph glyph-name="B" unicode="B" 
d="M106 0v572h196q99 0 157 -43t58 -117q0 -79 -75 -115q40 -14 68.5 -46.5t28.5 -84.5q0 -74 -60.5 -120t-158.5 -46h-214zM217 247v-155h96q110 0 110 79q0 76 -112 76h-94zM217 479v-144h72q60 0 86 17.5t26 52.5q0 74 -109 74h-75z" />
    <glyph glyph-name="C" unicode="C" 
d="M306 -10q-244 0 -244 296q0 140 63 218t183 78q220 0 230 -213h-113q-10 118 -117 118q-40 0 -67 -15.5t-40.5 -45t-18.5 -62.5t-5 -78t5 -77.5t18 -62t40.5 -45t67.5 -15.5q55 0 83.5 28.5t33.5 88.5h113q-6 -110 -67.5 -161.5t-164.5 -51.5z" />
    <glyph glyph-name="D" unicode="D" 
d="M106 0v572h179q137 0 195.5 -72.5t58.5 -213.5q0 -286 -254 -286h-179zM217 478v-384h68q44 0 72.5 15t42 44t18.5 59.5t5 73.5t-5 73.5t-18.5 59.5t-42 44t-72.5 15h-68z" />
    <glyph glyph-name="E" unicode="E" 
d="M106 0v572h399v-94h-288v-140h247v-94h-247v-150h288v-94h-399z" />
    <glyph glyph-name="F" unicode="F" 
d="M106 0v572h404v-94h-293v-165h254v-94h-254v-219h-111z" />
    <glyph glyph-name="G" unicode="G" 
d="M272 -10q-110 0 -160 81.5t-50 214.5q0 139 59.5 217.5t178.5 78.5q208 0 217 -199h-112q-5 52 -30 78t-75 26q-40 0 -66 -16.5t-37.5 -48.5t-15.5 -62.5t-4 -73.5q0 -48 4.5 -80.5t17.5 -61.5t39.5 -43.5t66.5 -14.5q60 0 102 40v101h-120v86h229v-313h-94v61
q-54 -71 -150 -71z" />
    <glyph glyph-name="H" unicode="H" 
d="M106 0v572h111v-234h166v234h111v-572h-111v245h-166v-245h-111z" />
    <glyph glyph-name="I" unicode="I" 
d="M105 0v94h139v384h-139v94h390v-94h-139v-384h139v-94h-390z" />
    <glyph glyph-name="J" unicode="J" 
d="M290 -10q-105 0 -159.5 56.5t-54.5 153.5q0 20 3 41h111q-2 -14 -2 -41q0 -113 102 -113q104 0 104 136v349h112v-349q0 -111 -55.5 -172t-160.5 -61z" />
    <glyph glyph-name="K" unicode="K" 
d="M106 0v572h111v-242l208 242h133l-210 -234l225 -338h-136l-162 259l-58 -63v-196h-111z" />
    <glyph glyph-name="L" unicode="L" 
d="M106 0v572h111v-478h293v-94h-404z" />
    <glyph glyph-name="M" unicode="M" 
d="M75 0v572h138l54 -166l36 -126l34 126l54 166h134v-572h-99v292l12 176l-99 -313h-78l-99 313l12 -176v-292h-99z" />
    <glyph glyph-name="N" unicode="N" 
d="M106 0v572h141l162 -464l-13 180v284h98v-572h-141l-162 464l13 -180v-284h-98z" />
    <glyph glyph-name="O" unicode="O" 
d="M299 -10q-119 0 -177.5 76t-58.5 217q0 142 59.5 220.5t178.5 78.5q120 0 178 -76.5t58 -216.5q0 -141 -59 -220t-179 -79zM300 84q32 0 55.5 12t36.5 30t20.5 46.5t9.5 54t2 59.5q0 44 -4 75t-16 62.5t-38 48t-66 16.5t-66 -16.5t-38 -48t-16 -62.5t-4 -75
q0 -34 2 -59.5t9.5 -54t20.5 -46.5t36.5 -30t55.5 -12z" />
    <glyph glyph-name="P" unicode="P" 
d="M106 0v572h188q110 0 177 -47t67 -142t-66.5 -142t-177.5 -47h-77v-194h-111zM217 478v-191h78q128 0 128 96q0 95 -128 95h-78z" />
    <glyph glyph-name="Q" unicode="Q" 
d="M300 84q23 0 41 6l-117 113h122l57 -56q21 44 21 139q0 44 -4 75t-16 62.5t-38 48t-66 16.5t-66 -16.5t-38 -48t-16 -62.5t-4 -75q0 -34 2 -59.5t9.5 -54t20.5 -46.5t36.5 -30t55.5 -12zM486 -49l-69 66q-52 -27 -118 -27q-119 0 -177.5 76t-58.5 217q0 142 59.5 220.5
t178.5 78.5q120 0 178 -76.5t58 -216.5q0 -138 -57 -216l127 -122h-121z" />
    <glyph glyph-name="R" unicode="R" 
d="M106 0v572h168q113 0 178.5 -46t65.5 -142q0 -59 -34.5 -102.5t-88.5 -61.5l164 -220h-136l-137 200h-69v-200h-111zM217 478v-188h57q130 0 130 94t-130 94h-57z" />
    <glyph glyph-name="S" unicode="S" 
d="M298 -10q-101 0 -162 46t-61 136h108q7 -90 117 -90q54 0 84 18.5t30 52.5q0 27 -18 42t-55 28l-128 42q-124 41 -124 152q0 78 59.5 121.5t153.5 43.5q92 0 150 -44t59 -135h-109q-3 46 -27.5 66.5t-73.5 20.5q-51 0 -77 -18.5t-25 -47.5q1 -25 15 -40.5t48 -26.5
l130 -43q61 -20 96.5 -55t35.5 -98q0 -83 -63 -127t-163 -44z" />
    <glyph glyph-name="T" unicode="T" 
d="M244 0v478h-189v94h490v-94h-189v-478h-112z" />
    <glyph glyph-name="U" unicode="U" 
d="M300 -10q-107 0 -157.5 54t-50.5 165v363h111v-363q0 -68 23 -95t74 -27t74 27t23 95v363h111v-363q0 -219 -208 -219z" />
    <glyph glyph-name="V" unicode="V" 
d="M243 0l-206 572h125l94 -289l47 -161l47 160l93 290h120l-206 -572h-114z" />
    <glyph glyph-name="W" unicode="W" 
d="M100 0l-67 572h108l27 -288l13 -181l74 284h93l73 -283l14 180l26 288h106l-67 -572h-131l-69 251l-69 -251h-131z" />
    <glyph glyph-name="X" unicode="X" 
d="M39 0l197 292l-185 280h131l77 -126l43 -72l45 72l78 126h125l-186 -275l197 -297h-131l-88 143l-44 73l-43 -73l-92 -143h-124z" />
    <glyph glyph-name="Y" unicode="Y" 
d="M244 0v226l-217 346h131l74 -125l69 -134l72 134l75 125h124l-216 -345v-227h-112z" />
    <glyph glyph-name="Z" unicode="Z" 
d="M79 0v79l292 399h-287v94h430v-79l-293 -399h300v-94h-442z" />
    <glyph glyph-name="bracketleft" unicode="[" 
d="M187 -182v829h314v-84h-218v-661h218v-84h-314z" />
    <glyph glyph-name="backslash" unicode="\" 
d="M549 -182l-521 829h99l520 -829h-98z" />
    <glyph glyph-name="bracketright" unicode="]" 
d="M100 -182v84h218v661h-218v84h313v-829h-313z" />
    <glyph glyph-name="asciicircum" unicode="^" 
d="M91 205l165 367h88l164 -367h-106l-104 255l-105 -255h-102z" />
    <glyph glyph-name="underscore" unicode="_" 
d="M22 -94v94h556v-94h-556z" />
    <glyph glyph-name="grave" unicode="`" 
d="M335 500l-134 199h120l78 -199h-64z" />
    <glyph glyph-name="a" unicode="a" 
d="M230 -10q-69 0 -112.5 31.5t-43.5 94.5q0 129 182 129q69 0 121 -16v36q0 50 -18 76t-74 26q-98 0 -98 -77h-101q0 58 30 95.5t74.5 52t101.5 14.5q192 0 192 -173v-183q0 -13 5.5 -18t18.5 -5q18 0 42 6v-71q-40 -18 -85 -18q-72 0 -72 62v8q-56 -70 -163 -70zM255 70
q77 0 122 37v56q-34 9 -98 9q-48 0 -73 -11.5t-25 -41.5q0 -49 74 -49z" />
    <glyph glyph-name="b" unicode="b" 
d="M344 -10q-96 0 -146 68v-58h-93v647h107v-251q50 56 132 56q80 0 132.5 -58t52.5 -173t-53 -173t-132 -58zM311 79q108 0 108 142t-108 142q-58 0 -99 -39v-206q41 -39 99 -39z" />
    <glyph glyph-name="c" unicode="c" 
d="M303 -10q-45 0 -83.5 11.5t-73 36t-54.5 71.5t-20 112q0 53 14 94t36 66t53 41.5t62.5 23t66.5 6.5q40 0 75 -9t66.5 -28.5t51.5 -56t23 -86.5h-108q-8 90 -107 90q-123 0 -123 -141t124 -141q98 0 106 89h108q-3 -49 -23 -85.5t-52.5 -56t-67.5 -28.5t-74 -9z" />
    <glyph glyph-name="d" unicode="d" 
d="M256 -10q-80 0 -132.5 58t-52.5 173t53 173t132 58q82 0 132 -56v251h107v-647h-93v58q-50 -68 -146 -68zM289 79q58 0 99 39v206q-41 39 -99 39q-108 0 -108 -142t108 -142z" />
    <glyph glyph-name="e" unicode="e" 
d="M306 -10q-104 0 -168.5 55.5t-64.5 173.5q0 64 19.5 111t53.5 72.5t72 37.5t82 12q45 0 83.5 -12t72 -37.5t52.5 -72t19 -109.5v-24h-346q5 -124 127 -124q45 0 73.5 17.5t34.5 49.5h110q-15 -79 -76.5 -114.5t-143.5 -35.5zM183 272h234q-6 49 -38.5 73t-78.5 24
t-78.5 -24t-38.5 -73z" />
    <glyph glyph-name="f" unicode="f" 
d="M94 0v84h134v266h-134v84h134v2q0 110 77 163t201 53v-85q-171 0 -171 -131v-2h171v-84h-171v-266h171v-84h-412z" />
    <glyph glyph-name="g" unicode="g" 
d="M281 -192q-198 0 -202 166h103q2 -42 25.5 -63.5t77.5 -21.5q63 0 83 27.5t20 80.5v63q-51 -53 -129 -53q-82 0 -135 56t-53 165t54 166.5t134 57.5q50 0 87.5 -20t55.5 -47v57h93v-454q0 -180 -214 -180zM291 95q57 0 97 38v192q-41 39 -97 39t-83 -36t-27 -99t27 -98.5
t83 -35.5z" />
    <glyph glyph-name="h" unicode="h" 
d="M106 0v647h107v-254q44 59 125 59q156 0 156 -179v-273h-107v252q0 58 -17 84.5t-63 26.5q-58 0 -94 -40v-323h-107z" />
    <glyph glyph-name="i" unicode="i" 
d="M99 0v84h154v273h-154v85h261v-358h141v-84h-402zM242 526v121h131v-121h-131z" />
    <glyph glyph-name="j" unicode="j" 
d="M128 -187v84q89 0 134.5 35t45.5 123v302h-171v85h278v-397q0 -232 -287 -232zM297 526v121h131v-121h-131z" />
    <glyph glyph-name="k" unicode="k" 
d="M106 0v647h107v-372l192 167h142l-191 -162l202 -280h-129l-149 221l-67 -54v-167h-107z" />
    <glyph glyph-name="l" unicode="l" 
d="M99 0v84h147v479h-147v84h254v-563h148v-84h-402z" />
    <glyph glyph-name="m" unicode="m" 
d="M58 0v442h81v-63q39 73 109 73q36 0 59 -20t31 -48q39 68 107 68q97 0 97 -147v-305h-95v288q0 41 -8.5 58.5t-29.5 17.5q-31 0 -61 -37v-327h-95v288q0 41 -8.5 58.5t-29.5 17.5q-32 0 -62 -37v-327h-95z" />
    <glyph glyph-name="n" unicode="n" 
d="M106 0v442h93v-60q51 70 137 70q158 0 158 -179v-273h-107v252q0 58 -17 84.5t-63 26.5q-58 0 -94 -40v-323h-107z" />
    <glyph glyph-name="o" unicode="o" 
d="M300 -10q-97 0 -162.5 54t-65.5 177q0 64 20.5 111t55 72t72.5 36.5t80 11.5q45 0 83.5 -11.5t72 -36.5t53 -71.5t19.5 -111.5q0 -63 -20.5 -110t-54.5 -72.5t-72.5 -37t-80.5 -11.5zM300 78q119 0 119 143t-119 143t-119 -143t119 -143z" />
    <glyph glyph-name="p" unicode="p" 
d="M105 -182v624h93v-58q50 68 146 68q80 0 132.5 -58t52.5 -173t-53 -173t-132 -58q-82 0 -132 56v-228h-107zM311 79q108 0 108 142q0 141 -108 141q-59 0 -99 -38v-207q40 -38 99 -38z" />
    <glyph glyph-name="q" unicode="q" 
d="M388 -182v228q-50 -56 -132 -56q-80 0 -132.5 58t-52.5 173t53 173t132 58q96 0 146 -68v58h93v-624h-107zM289 79q59 0 99 38v207q-40 38 -99 38q-108 0 -108 -141q0 -142 108 -142z" />
    <glyph glyph-name="r" unicode="r" 
d="M99 0v84h109v273h-109v85h202v-100q43 110 150 110q48 0 83 -19v-108q-36 21 -85 21q-85 0 -134 -64v-198h186v-84h-402z" />
    <glyph glyph-name="s" unicode="s" 
d="M297 -10q-96 0 -156 36t-62 113h105q6 -67 119 -67q109 0 109 50q0 27 -31 39t-100 24q-16 2 -25 4q-79 14 -124 42t-45 91q0 65 57.5 97.5t145.5 32.5q200 0 210 -140h-105q-8 58 -104 58q-95 0 -95 -42q0 -29 46 -43q24 -7 112 -21q48 -8 81.5 -19.5t60 -40t26.5 -71.5
q0 -75 -61.5 -109t-163.5 -34z" />
    <glyph glyph-name="t" unicode="t" 
d="M369 -10q-90 0 -132 43.5t-42 154.5v169h-141v85h141v205h107v-205h217v-85h-217v-165q0 -64 18 -88t72 -24q58 0 110 22v-86q-59 -26 -133 -26z" />
    <glyph glyph-name="u" unicode="u" 
d="M264 -10q-158 0 -158 179v273h107v-252q0 -58 17 -84.5t63 -26.5q58 0 94 40v323h107v-442h-93v60q-51 -70 -137 -70z" />
    <glyph glyph-name="v" unicode="v" 
d="M243 0l-195 442h120l84 -209l50 -136l50 135l86 210h114l-195 -442h-114z" />
    <glyph glyph-name="w" unicode="w" 
d="M112 0l-77 442h101l46 -357l63 269h112l65 -269l45 357h98l-77 -442h-125l-63 254l-63 -254h-125z" />
    <glyph glyph-name="x" unicode="x" 
d="M39 0l199 226l-189 216h132l123 -147l119 147h127l-186 -216l197 -226h-132l-130 155l-129 -155h-131z" />
    <glyph glyph-name="y" unicode="y" 
d="M69 -187v88q71 0 111 23.5t64 78.5l-196 439h120l85 -209l49 -136l50 135l86 210h114l-185 -420q-52 -118 -114.5 -163.5t-183.5 -45.5z" />
    <glyph glyph-name="z" unicode="z" 
d="M92 0v75l268 282h-263v85h406v-75l-269 -283h274v-84h-416z" />
    <glyph glyph-name="braceleft" unicode="{" 
d="M417 -182q-109 0 -158.5 32t-49.5 121q0 13 1 29l5 87q1 13 1 27q0 44 -25 61.5t-89 17.5v79q64 0 89 17.5t25 61.5q0 14 -1 27l-5 87q-1 16 -1 29q0 89 49.5 121t158.5 32h83v-84h-80q-64 0 -88.5 -17t-24.5 -68q0 -7 1 -21l5 -94q1 -12 1 -26q0 -41 -23 -69t-60 -35
q37 -7 60 -35.5t23 -69.5q0 -14 -1 -26l-5 -94q-1 -14 -1 -21q0 -51 24.5 -68t88.5 -17h80v-84h-83z" />
    <glyph glyph-name="bar" unicode="|" 
d="M252 -182v829h96v-829h-96z" />
    <glyph glyph-name="braceright" unicode="}" 
d="M100 -182v84h80q64 0 88.5 17t24.5 68q0 7 -1 21l-5 94q-1 12 -1 26q0 41 23 69t60 35q-37 7 -60 35.5t-23 69.5q0 14 1 26l5 94q1 14 1 21q0 51 -24.5 68t-88.5 17h-80v84h83q109 0 158.5 -32t49.5 -121q0 -13 -1 -29l-5 -87q-1 -13 -1 -27q0 -44 25 -61.5t89 -17.5v-79
q-64 0 -89 -17.5t-25 -61.5q0 -14 1 -27l5 -87q1 -16 1 -29q0 -89 -49.5 -121t-158.5 -32h-83z" />
    <glyph glyph-name="asciitilde" unicode="~" 
d="M120 145l-51 21q15 49 48 92t82 43q30 0 126 -37q61 -23 82 -23q41 0 73 60l51 -21q-15 -49 -48 -92t-82 -43q-29 0 -121 35q-65 25 -87 25q-41 0 -73 -60z" />
    <glyph glyph-name="uni00A0" unicode="&#xa0;" 
 />
    <glyph glyph-name="exclamdown" unicode="&#xa1;" 
d="M242 -130v175l36 189h44l36 -189v-175h-116zM235 313v129h130v-129h-130z" />
    <glyph glyph-name="cent" unicode="&#xa2;" 
d="M255 -84v143q-80 12 -131.5 66.5t-51.5 161.5q0 108 51 161.5t132 65.5v142h91v-141q72 -8 120.5 -51t53.5 -126h-108q-8 90 -107 90q-123 0 -123 -141t124 -141q98 0 106 89h108q-5 -82 -54 -124.5t-120 -51.5v-143h-91z" />
    <glyph glyph-name="sterling" unicode="&#xa3;" 
d="M93 0v88q105 20 105 91q0 8 -2 22l-7 54h-96v84h86q-3 22 -3 43q0 49 18 84.5t46.5 56.5t75 33t93 16t110.5 5v-91q-53 -3 -81.5 -5.5t-62.5 -10t-50 -19t-27 -32t-11 -50.5q0 -14 2 -30h162v-84h-151l6 -45q3 -23 3 -33q0 -59 -65 -86h286v-91h-437z" />
    <glyph glyph-name="currency" unicode="&#xa4;" 
d="M137 56l-65 63l77 77q-21 38 -21 89t21 89l-77 77l65 63l74 -76q43 20 89 20t89 -20l74 76l65 -63l-77 -77q21 -38 21 -89t-21 -89l77 -77l-65 -63l-74 76q-43 -20 -89 -20t-89 20zM300 197q36 0 57 23.5t21 64.5t-21 64.5t-57 23.5t-57 -23.5t-21 -64.5t21 -64.5
t57 -23.5z" />
    <glyph glyph-name="yen" unicode="&#xa5;" 
d="M86 0v87h158v131h-158v87h109l-168 267h131l74 -125l69 -138l72 138l75 125h124l-167 -267h110v-87h-159v-131h159v-87h-429z" />
    <glyph glyph-name="brokenbar" unicode="&#xa6;" 
d="M252 -182v335h96v-335h-96zM252 312v335h96v-335h-96z" />
    <glyph glyph-name="section" unicode="&#xa7;" 
d="M291 -140q-89 0 -139.5 38.5t-51.5 116.5h96q2 -78 99 -78q88 0 88 57q0 25 -19 42t-57 33l-130 55q-108 46 -108 128q0 70 74 112q-28 36 -28 82q0 64 50.5 100t137.5 36t135.5 -38.5t49.5 -117.5h-95q-3 78 -92 78q-39 0 -61.5 -14.5t-22.5 -42.5q0 -25 19 -42t57 -33
l130 -55q108 -46 108 -128q0 -69 -75 -113q29 -35 29 -81q0 -64 -52 -99.5t-142 -35.5zM371 137q22 -10 32 -16q26 25 26 54q0 26 -16.5 42t-54.5 32l-129 55q-12 5 -32 15q-26 -25 -26 -53q0 -26 16.5 -42t54.5 -32z" />
    <glyph glyph-name="dieresis" unicode="&#xa8;" 
d="M132 535v118h118v-118h-118zM350 535v118h118v-118h-118z" />
    <glyph glyph-name="copyright" unicode="&#xa9;" 
d="M300 124q-129 0 -129 154q0 75 33 115.5t99 40.5q113 0 118 -119h-69q-3 59 -52 59q-60 0 -60 -95t61 -95q48 0 51 58h69q-3 -59 -34.5 -88.5t-86.5 -29.5zM300 27q-121 0 -181.5 71.5t-60.5 180.5q0 108 60.5 180t181.5 72t181.5 -71.5t60.5 -180.5q0 -108 -60.5 -180
t-181.5 -72zM300 80q93 0 137.5 56t44.5 143t-44.5 143t-137.5 56t-137.5 -56t-44.5 -143t44.5 -143t137.5 -56z" />
    <glyph glyph-name="ordfeminine" unicode="&#xaa;" 
d="M254 222q-52 0 -85 25t-33 74q0 101 137 101q55 0 87 -13v28q0 36 -12.5 54t-49.5 18q-66 0 -66 -55h-85q0 66 43 97t112 31q148 0 148 -135v-134q0 -18 20 -18q13 0 25 4v-62q-26 -15 -62 -15q-31 0 -45 15.5t-14 37.5v3q-41 -56 -120 -56zM279 287q50 0 81 29v42
q-28 6 -65 6q-34 0 -50.5 -8.5t-16.5 -30.5q0 -38 51 -38zM147 99v76h322v-76h-322z" />
    <glyph glyph-name="guillemotleft" unicode="&#xab;" 
d="M216 51l-150 182l150 182h98l-136 -182l136 -182h-98zM436 51l-150 182l150 182h98l-136 -182l136 -182h-98z" />
    <glyph glyph-name="logicalnot" unicode="&#xac;" 
d="M361 31v144h-226v94h330v-238h-104z" />
    <glyph glyph-name="uni00AD" unicode="&#xad;" 
d="M148 239v94h304v-94h-304z" />
    <glyph glyph-name="registered" unicode="&#xae;" 
d="M200 258v298h93q57 0 91 -24.5t34 -72.5q0 -55 -54 -83q45 -40 45 -118h-72q0 61 -34 103h-36v-103h-67zM300 153q-121 0 -181.5 71.5t-60.5 180.5q0 108 60.5 180t181.5 72t181.5 -71.5t60.5 -180.5q0 -108 -60.5 -180t-181.5 -72zM300 206q93 0 137.5 56t44.5 143
t-44 143t-138 56t-138 -56t-44 -143t44.5 -143t137.5 -56zM267 498v-82h25q56 0 56 40q0 42 -56 42h-25z" />
    <glyph glyph-name="macron" unicode="&#xaf;" 
d="M141 553v85h318v-85h-318z" />
    <glyph glyph-name="degree" unicode="&#xb0;" 
d="M300 242q-71 0 -120 48t-49 122q0 75 49 122.5t120 47.5t120 -47.5t49 -122.5q0 -74 -49 -122t-120 -48zM300 318q38 0 62.5 26t24.5 68t-24.5 68t-62.5 26t-62.5 -26t-24.5 -68t24.5 -68t62.5 -26z" />
    <glyph glyph-name="plusminus" unicode="&#xb1;" 
d="M249 133v172h-172v93h172v174h103v-174h172v-93h-172v-172h-103zM77 0v93h447v-93h-447z" />
    <glyph glyph-name="twosuperior" unicode="&#xb2;" 
d="M193 277v21q0 70 64 108l40 24q51 30 51 58q0 37 -49 37q-53 0 -57 -51h-63q2 50 35.5 76.5t87.5 26.5q49 0 80.5 -23t31.5 -64q0 -30 -15.5 -50.5t-48.5 -41.5l-43 -27q-34 -21 -38 -41h150v-53h-226z" />
    <glyph glyph-name="threesuperior" unicode="&#xb3;" 
d="M304 272q-58 0 -91 26t-35 73h62q5 -48 61 -48t56 39q0 40 -59 40h-17v51h16q54 0 54 34q0 17 -13.5 27.5t-35.5 10.5q-24 0 -39.5 -12.5t-16.5 -35.5h-63q2 47 35 73.5t86 26.5q52 0 82.5 -24t30.5 -63q0 -43 -45 -63q52 -17 52 -70q0 -39 -35 -62t-85 -23z" />
    <glyph glyph-name="acute" unicode="&#xb4;" 
d="M201 500l78 199h120l-134 -199h-64z" />
    <glyph glyph-name="mu" unicode="&#xb5;" 
d="M106 -182v624h107v-355h47q87 0 117 42v313h107v-342q0 -14 6 -20t21 -6q17 0 39 6v-71q-38 -19 -86 -19q-37 0 -53 19t-16 47v15q-54 -71 -150 -71h-32v-182h-107z" />
    <glyph glyph-name="paragraph" unicode="&#xb6;" 
d="M254 -182v380q-51 0 -95 17t-76 61t-32 109q0 50 18.5 88t50 58.5t66.5 30.5t74 10h81v-754h-87zM254 281v209q-111 0 -111 -105q0 -104 111 -104zM425 -182v754h86v-754h-86z" />
    <glyph glyph-name="periodcentered" unicode="&#xb7;" 
d="M224 215v152h152v-152h-152z" />
    <glyph glyph-name="cedilla" unicode="&#xb8;" 
d="M294 -192q-55 0 -91 18l11 47q25 -11 53 -11q36 0 36 20q0 28 -77 42l16 76h54l-8 -39q108 -26 108 -87q0 -29 -26 -47.5t-76 -18.5z" />
    <glyph glyph-name="onesuperior" unicode="&#xb9;" 
d="M197 277v54h77v172q-22 -24 -69 -24h-12v57h24q54 0 72 36h49v-241h64v-54h-205z" />
    <glyph glyph-name="ordmasculine" unicode="&#xba;" 
d="M300 222q-74 0 -124 42.5t-50 137.5q0 96 50.5 138t123.5 42q74 0 124 -42.5t50 -137.5q0 -96 -50.5 -138t-123.5 -42zM300 300q80 0 80 102t-80 102t-80 -102t80 -102zM146 99v76h308v-76h-308z" />
    <glyph glyph-name="guillemotright" unicode="&#xbb;" 
d="M286 51l137 182l-137 182h98l150 -182l-150 -182h-98zM66 51l137 182l-137 182h98l150 -182l-150 -182h-98z" />
    <glyph glyph-name="onequarter" unicode="&#xbc;" 
d="M77 0l152 232h42v-43l-123 -189h-71zM329 340v43l123 189h71l-152 -232h-42zM47 277v54h77v172q-22 -24 -69 -24h-12v57h24q54 0 72 36h49v-241h64v-54h-205zM471 0v68h-157v41l161 186h53v-178h51v-49h-51v-68h-57zM382 117h89v103z" />
    <glyph glyph-name="onehalf" unicode="&#xbd;" 
d="M77 0l152 232h42v-43l-123 -189h-71zM329 340v43l123 189h71l-152 -232h-42zM47 277v54h77v172q-22 -24 -69 -24h-12v57h24q54 0 72 36h49v-241h64v-54h-205zM343 0v21q0 70 64 108l40 24q51 30 51 58q0 37 -49 37q-53 0 -57 -51h-63q2 50 35.5 76.5t87.5 26.5
q49 0 80.5 -23t31.5 -64q0 -30 -15.5 -50.5t-48.5 -41.5l-43 -27q-34 -21 -38 -41h150v-53h-226z" />
    <glyph glyph-name="threequarters" unicode="&#xbe;" 
d="M77 0l152 232h42v-43l-123 -189h-71zM329 340v43l123 189h71l-152 -232h-42zM154 272q-58 0 -91 26t-35 73h62q5 -48 61 -48t56 39q0 40 -59 40h-17v51h16q54 0 54 34q0 17 -13.5 27.5t-35.5 10.5q-24 0 -39.5 -12.5t-16.5 -35.5h-63q2 47 35 73.5t86 26.5q52 0 82.5 -24
t30.5 -63q0 -43 -45 -63q52 -17 52 -70q0 -39 -35 -62t-85 -23zM471 0v68h-157v41l161 186h53v-178h51v-49h-51v-68h-57zM382 117h89v103z" />
    <glyph glyph-name="questiondown" unicode="&#xbf;" 
d="M302 -141q-98 0 -153.5 42t-55.5 113q0 66 50 116t165 117l41 -50q-85 -60 -114.5 -96t-29.5 -71q0 -82 102 -82q104 0 104 85h106q0 -88 -57.5 -131t-157.5 -43zM241 313v129h130v-129h-130z" />
    <glyph glyph-name="Agrave" unicode="&#xc0;" 
d="M300 609l-134 199h120l78 -199h-64zM40 0l201 572h118l201 -572h-119l-42 126h-201l-41 -126h-117zM242 273l-19 -59h148l-19 59l-55 185z" />
    <glyph glyph-name="Aacute" unicode="&#xc1;" 
d="M235 609l78 199h120l-134 -199h-64zM40 0l201 572h118l201 -572h-119l-42 126h-201l-41 -126h-117zM242 273l-19 -59h148l-19 59l-55 185z" />
    <glyph glyph-name="Acircumflex" unicode="&#xc2;" 
d="M134 609l119 199h94l119 -199h-69l-97 110l-97 -110h-69zM40 0l201 572h118l201 -572h-119l-42 126h-201l-41 -126h-117zM242 273l-19 -59h148l-19 59l-55 185z" />
    <glyph glyph-name="Atilde" unicode="&#xc3;" 
d="M167 627l-48 23q16 51 46.5 90t76.5 39q33 0 75 -32q41 -31 60 -31q37 0 70 63l48 -23q-16 -51 -46.5 -90t-76.5 -39q-33 0 -74 31q-42 32 -61 32q-37 0 -70 -63zM40 0l201 572h118l201 -572h-119l-42 126h-201l-41 -126h-117zM242 273l-19 -59h148l-19 59l-55 185z" />
    <glyph glyph-name="Adieresis" unicode="&#xc4;" 
d="M132 644v118h118v-118h-118zM350 644v118h118v-118h-118zM40 0l201 572h118l201 -572h-119l-42 126h-201l-41 -126h-117zM242 273l-19 -59h148l-19 59l-55 185z" />
    <glyph glyph-name="Aring" unicode="&#xc5;" 
d="M300 596q-57 0 -95 37t-38 92t38 92t95 37t95 -37t38 -92t-38 -92t-95 -37zM300 655q31 0 50.5 19.5t19.5 50.5t-19.5 50.5t-50.5 19.5t-50.5 -19.5t-19.5 -50.5t19.5 -50.5t50.5 -19.5zM40 0l201 572h118l201 -572h-119l-42 126h-201l-41 -126h-117zM242 273l-19 -59
h148l-19 59l-55 185z" />
    <glyph glyph-name="AE" unicode="&#xc6;" 
d="M7 0l89 572h459v-94h-177v-141h143v-93h-143v-150h177v-94h-288v244h-112l-37 -244h-111zM189 478l-21 -141h99v141h-78z" />
    <glyph glyph-name="Ccedilla" unicode="&#xc7;" 
d="M312 -192q-55 0 -91 18l11 47q25 -11 53 -11q36 0 36 20q0 28 -77 42l14 70q-196 27 -196 292q0 140 63 218t183 78q220 0 230 -213h-113q-10 118 -117 118q-40 0 -67 -15.5t-40.5 -45t-18.5 -62.5t-5 -78t5 -77.5t18 -62t40.5 -45t67.5 -15.5q55 0 83.5 28.5t33.5 88.5
h113q-6 -108 -65.5 -159.5t-160.5 -53.5l-6 -29q108 -26 108 -87q0 -29 -26 -47.5t-76 -18.5z" />
    <glyph glyph-name="Egrave" unicode="&#xc8;" 
d="M307 609l-134 199h120l78 -199h-64zM106 0v572h399v-94h-288v-140h247v-94h-247v-150h288v-94h-399z" />
    <glyph glyph-name="Eacute" unicode="&#xc9;" 
d="M242 609l78 199h120l-134 -199h-64zM106 0v572h399v-94h-288v-140h247v-94h-247v-150h288v-94h-399z" />
    <glyph glyph-name="Ecircumflex" unicode="&#xca;" 
d="M141 609l119 199h94l119 -199h-69l-97 110l-97 -110h-69zM106 0v572h399v-94h-288v-140h247v-94h-247v-150h288v-94h-399z" />
    <glyph glyph-name="Edieresis" unicode="&#xcb;" 
d="M139 644v118h118v-118h-118zM357 644v118h118v-118h-118zM106 0v572h399v-94h-288v-140h247v-94h-247v-150h288v-94h-399z" />
    <glyph glyph-name="Igrave" unicode="&#xcc;" 
d="M300 609l-134 199h120l78 -199h-64zM105 0v94h139v384h-139v94h390v-94h-139v-384h139v-94h-390z" />
    <glyph glyph-name="Iacute" unicode="&#xcd;" 
d="M235 609l78 199h120l-134 -199h-64zM105 0v94h139v384h-139v94h390v-94h-139v-384h139v-94h-390z" />
    <glyph glyph-name="Icircumflex" unicode="&#xce;" 
d="M134 609l119 199h94l119 -199h-69l-97 110l-97 -110h-69zM105 0v94h139v384h-139v94h390v-94h-139v-384h139v-94h-390z" />
    <glyph glyph-name="Idieresis" unicode="&#xcf;" 
d="M132 644v118h118v-118h-118zM350 644v118h118v-118h-118zM105 0v94h139v384h-139v94h390v-94h-139v-384h139v-94h-390z" />
    <glyph glyph-name="Eth" unicode="&#xd0;" 
d="M106 0v245h-50v87h50v240h179q137 0 195.5 -72.5t58.5 -213.5q0 -286 -254 -286h-179zM217 245v-151h68q44 0 72.5 15t42 44t18.5 59.5t5 73.5t-5 73.5t-18.5 59.5t-42 44t-72.5 15h-68v-146h100v-87h-100z" />
    <glyph glyph-name="Ntilde" unicode="&#xd1;" 
d="M167 627l-48 23q16 51 46.5 90t76.5 39q33 0 75 -32q41 -31 60 -31q37 0 70 63l48 -23q-16 -51 -46.5 -90t-76.5 -39q-33 0 -74 31q-42 32 -61 32q-37 0 -70 -63zM106 0v572h141l162 -464l-13 180v284h98v-572h-141l-162 464l13 -180v-284h-98z" />
    <glyph glyph-name="Ograve" unicode="&#xd2;" 
d="M300 609l-134 199h120l78 -199h-64zM299 -10q-119 0 -177.5 76t-58.5 217q0 142 59.5 220.5t178.5 78.5q120 0 178 -76.5t58 -216.5q0 -141 -59 -220t-179 -79zM300 84q32 0 55.5 12t36.5 30t20.5 46.5t9.5 54t2 59.5q0 44 -4 75t-16 62.5t-38 48t-66 16.5t-66 -16.5
t-38 -48t-16 -62.5t-4 -75q0 -34 2 -59.5t9.5 -54t20.5 -46.5t36.5 -30t55.5 -12z" />
    <glyph glyph-name="Oacute" unicode="&#xd3;" 
d="M235 609l78 199h120l-134 -199h-64zM299 -10q-119 0 -177.5 76t-58.5 217q0 142 59.5 220.5t178.5 78.5q120 0 178 -76.5t58 -216.5q0 -141 -59 -220t-179 -79zM300 84q32 0 55.5 12t36.5 30t20.5 46.5t9.5 54t2 59.5q0 44 -4 75t-16 62.5t-38 48t-66 16.5t-66 -16.5
t-38 -48t-16 -62.5t-4 -75q0 -34 2 -59.5t9.5 -54t20.5 -46.5t36.5 -30t55.5 -12z" />
    <glyph glyph-name="Ocircumflex" unicode="&#xd4;" 
d="M134 609l119 199h94l119 -199h-69l-97 110l-97 -110h-69zM299 -10q-119 0 -177.5 76t-58.5 217q0 142 59.5 220.5t178.5 78.5q120 0 178 -76.5t58 -216.5q0 -141 -59 -220t-179 -79zM300 84q32 0 55.5 12t36.5 30t20.5 46.5t9.5 54t2 59.5q0 44 -4 75t-16 62.5t-38 48
t-66 16.5t-66 -16.5t-38 -48t-16 -62.5t-4 -75q0 -34 2 -59.5t9.5 -54t20.5 -46.5t36.5 -30t55.5 -12z" />
    <glyph glyph-name="Otilde" unicode="&#xd5;" 
d="M167 627l-48 23q16 51 46.5 90t76.5 39q33 0 75 -32q41 -31 60 -31q37 0 70 63l48 -23q-16 -51 -46.5 -90t-76.5 -39q-33 0 -74 31q-42 32 -61 32q-37 0 -70 -63zM299 -10q-119 0 -177.5 76t-58.5 217q0 142 59.5 220.5t178.5 78.5q120 0 178 -76.5t58 -216.5
q0 -141 -59 -220t-179 -79zM300 84q32 0 55.5 12t36.5 30t20.5 46.5t9.5 54t2 59.5q0 44 -4 75t-16 62.5t-38 48t-66 16.5t-66 -16.5t-38 -48t-16 -62.5t-4 -75q0 -34 2 -59.5t9.5 -54t20.5 -46.5t36.5 -30t55.5 -12z" />
    <glyph glyph-name="Odieresis" unicode="&#xd6;" 
d="M132 644v118h118v-118h-118zM350 644v118h118v-118h-118zM299 -10q-119 0 -177.5 76t-58.5 217q0 142 59.5 220.5t178.5 78.5q120 0 178 -76.5t58 -216.5q0 -141 -59 -220t-179 -79zM300 84q32 0 55.5 12t36.5 30t20.5 46.5t9.5 54t2 59.5q0 44 -4 75t-16 62.5t-38 48
t-66 16.5t-66 -16.5t-38 -48t-16 -62.5t-4 -75q0 -34 2 -59.5t9.5 -54t20.5 -46.5t36.5 -30t55.5 -12z" />
    <glyph glyph-name="multiply" unicode="&#xd7;" 
d="M135 -10l-66 67l164 163l-164 166l67 66l164 -165l164 165l66 -67l-164 -165l165 -164l-67 -66l-164 164z" />
    <glyph glyph-name="Oslash" unicode="&#xd8;" 
d="M299 -10q-104 0 -163 59l-43 -49h-85l90 103q-35 69 -35 180q0 142 59.5 220.5t178.5 78.5q105 0 163 -60l43 50h85l-90 -104q35 -72 35 -179q0 -141 -59 -220t-179 -79zM300 84q32 0 55.5 12t36.5 30t20.5 46.5t9.5 54t2 59.5q0 53 -6 87l-212 -243q30 -46 94 -46z
M181 199l213 243q-31 46 -94 46q-40 0 -66 -16.5t-38 -48t-16 -62.5t-4 -75q0 -53 5 -87z" />
    <glyph glyph-name="Ugrave" unicode="&#xd9;" 
d="M300 609l-134 199h120l78 -199h-64zM300 -10q-107 0 -157.5 54t-50.5 165v363h111v-363q0 -68 23 -95t74 -27t74 27t23 95v363h111v-363q0 -219 -208 -219z" />
    <glyph glyph-name="Uacute" unicode="&#xda;" 
d="M235 609l78 199h120l-134 -199h-64zM300 -10q-107 0 -157.5 54t-50.5 165v363h111v-363q0 -68 23 -95t74 -27t74 27t23 95v363h111v-363q0 -219 -208 -219z" />
    <glyph glyph-name="Ucircumflex" unicode="&#xdb;" 
d="M134 609l119 199h94l119 -199h-69l-97 110l-97 -110h-69zM300 -10q-107 0 -157.5 54t-50.5 165v363h111v-363q0 -68 23 -95t74 -27t74 27t23 95v363h111v-363q0 -219 -208 -219z" />
    <glyph glyph-name="Udieresis" unicode="&#xdc;" 
d="M132 644v118h118v-118h-118zM350 644v118h118v-118h-118zM300 -10q-107 0 -157.5 54t-50.5 165v363h111v-363q0 -68 23 -95t74 -27t74 27t23 95v363h111v-363q0 -219 -208 -219z" />
    <glyph glyph-name="Yacute" unicode="&#xdd;" 
d="M235 609l78 199h120l-134 -199h-64zM244 0v226l-217 346h131l74 -125l69 -134l72 134l75 125h124l-216 -345v-227h-112z" />
    <glyph glyph-name="Thorn" unicode="&#xde;" 
d="M106 0v572h111v-96h77q110 0 177 -47t67 -142t-66.5 -142t-177.5 -47h-77v-98h-111zM217 382v-190h77q128 0 128 95t-128 95h-77z" />
    <glyph glyph-name="germandbls" unicode="&#xdf;" 
d="M366 -10q-64 0 -100 19v87q40 -19 83 -19q74 0 74 54q0 73 -157 135v63q65 22 99 61t34 88q0 42 -25 66.5t-70 24.5q-100 0 -100 -136v-433h-107v436q0 106 52.5 163.5t157.5 57.5q95 0 147 -45.5t52 -120.5q0 -72 -42.5 -118.5t-91.5 -70.5q160 -74 160 -183
q0 -62 -48.5 -95.5t-117.5 -33.5z" />
    <glyph glyph-name="agrave" unicode="&#xe0;" 
d="M303 500l-134 199h120l78 -199h-64zM230 -10q-69 0 -112.5 31.5t-43.5 94.5q0 129 182 129q69 0 121 -16v36q0 50 -18 76t-74 26q-98 0 -98 -77h-101q0 58 30 95.5t74.5 52t101.5 14.5q192 0 192 -173v-183q0 -13 5.5 -18t18.5 -5q18 0 42 6v-71q-40 -18 -85 -18
q-72 0 -72 62v8q-56 -70 -163 -70zM255 70q77 0 122 37v56q-34 9 -98 9q-48 0 -73 -11.5t-25 -41.5q0 -49 74 -49z" />
    <glyph glyph-name="aacute" unicode="&#xe1;" 
d="M238 500l78 199h120l-134 -199h-64zM230 -10q-69 0 -112.5 31.5t-43.5 94.5q0 129 182 129q69 0 121 -16v36q0 50 -18 76t-74 26q-98 0 -98 -77h-101q0 58 30 95.5t74.5 52t101.5 14.5q192 0 192 -173v-183q0 -13 5.5 -18t18.5 -5q18 0 42 6v-71q-40 -18 -85 -18
q-72 0 -72 62v8q-56 -70 -163 -70zM255 70q77 0 122 37v56q-34 9 -98 9q-48 0 -73 -11.5t-25 -41.5q0 -49 74 -49z" />
    <glyph glyph-name="acircumflex" unicode="&#xe2;" 
d="M137 500l119 199h94l119 -199h-69l-97 110l-97 -110h-69zM230 -10q-69 0 -112.5 31.5t-43.5 94.5q0 129 182 129q69 0 121 -16v36q0 50 -18 76t-74 26q-98 0 -98 -77h-101q0 58 30 95.5t74.5 52t101.5 14.5q192 0 192 -173v-183q0 -13 5.5 -18t18.5 -5q18 0 42 6v-71
q-40 -18 -85 -18q-72 0 -72 62v8q-56 -70 -163 -70zM255 70q77 0 122 37v56q-34 9 -98 9q-48 0 -73 -11.5t-25 -41.5q0 -49 74 -49z" />
    <glyph glyph-name="atilde" unicode="&#xe3;" 
d="M150 518l-48 23q16 51 46.5 90t76.5 39q33 0 75 -32q41 -31 60 -31q37 0 70 63l48 -23q-16 -51 -46.5 -90t-76.5 -39q-33 0 -74 31q-42 32 -61 32q-37 0 -70 -63zM230 -10q-69 0 -112.5 31.5t-43.5 94.5q0 129 182 129q69 0 121 -16v36q0 50 -18 76t-74 26q-98 0 -98 -77
h-101q0 58 30 95.5t74.5 52t101.5 14.5q192 0 192 -173v-183q0 -13 5.5 -18t18.5 -5q18 0 42 6v-71q-40 -18 -85 -18q-72 0 -72 62v8q-56 -70 -163 -70zM255 70q77 0 122 37v56q-34 9 -98 9q-48 0 -73 -11.5t-25 -41.5q0 -49 74 -49z" />
    <glyph glyph-name="adieresis" unicode="&#xe4;" 
d="M135 535v118h118v-118h-118zM353 535v118h118v-118h-118zM230 -10q-69 0 -112.5 31.5t-43.5 94.5q0 129 182 129q69 0 121 -16v36q0 50 -18 76t-74 26q-98 0 -98 -77h-101q0 58 30 95.5t74.5 52t101.5 14.5q192 0 192 -173v-183q0 -13 5.5 -18t18.5 -5q18 0 42 6v-71
q-40 -18 -85 -18q-72 0 -72 62v8q-56 -70 -163 -70zM255 70q77 0 122 37v56q-34 9 -98 9q-48 0 -73 -11.5t-25 -41.5q0 -49 74 -49z" />
    <glyph glyph-name="aring" unicode="&#xe5;" 
d="M303 487q-57 0 -95 37t-38 92t38 92t95 37t95 -37t38 -92t-38 -92t-95 -37zM303 546q31 0 50.5 19.5t19.5 50.5t-19.5 50.5t-50.5 19.5t-50.5 -19.5t-19.5 -50.5t19.5 -50.5t50.5 -19.5zM230 -10q-69 0 -112.5 31.5t-43.5 94.5q0 129 182 129q69 0 121 -16v36
q0 50 -18 76t-74 26q-98 0 -98 -77h-101q0 58 30 95.5t74.5 52t101.5 14.5q192 0 192 -173v-183q0 -13 5.5 -18t18.5 -5q18 0 42 6v-71q-40 -18 -85 -18q-72 0 -72 62v8q-56 -70 -163 -70zM255 70q77 0 122 37v56q-34 9 -98 9q-48 0 -73 -11.5t-25 -41.5q0 -49 74 -49z" />
    <glyph glyph-name="ae" unicode="&#xe6;" 
d="M162 -10q-59 0 -98.5 34t-39.5 93q0 68 42.5 97.5t106.5 29.5q45 0 84 -11v39q0 95 -64 95q-61 0 -61 -77h-98q0 72 41 117t113 45q86 0 117 -61q35 61 109 61q81 0 122 -60t41 -171v-12h-228q3 -139 71 -139q61 0 61 91h96q0 -76 -41 -123.5t-116 -47.5q-78 0 -121 60
q-52 -60 -137 -60zM186 68q50 0 89 27q-12 30 -17 74q-25 5 -61 5q-75 0 -75 -54q0 -52 64 -52zM351 272h125q-10 101 -62 101t-63 -101z" />
    <glyph glyph-name="ccedilla" unicode="&#xe7;" 
d="M314 -192q-55 0 -91 18l11 47q25 -11 53 -11q36 0 36 20q0 28 -77 42l14 69q-82 10 -135 64.5t-53 163.5q0 53 14 94t36 66t53 41.5t62.5 23t66.5 6.5q40 0 75 -9t66.5 -28.5t51.5 -56t23 -86.5h-108q-8 90 -107 90q-123 0 -123 -141t124 -141q98 0 106 89h108
q-6 -92 -65 -134t-141 -45l-6 -29q108 -26 108 -87q0 -29 -26 -47.5t-76 -18.5z" />
    <glyph glyph-name="egrave" unicode="&#xe8;" 
d="M300 500l-134 199h120l78 -199h-64zM306 -10q-104 0 -168.5 55.5t-64.5 173.5q0 64 19.5 111t53.5 72.5t72 37.5t82 12q45 0 83.5 -12t72 -37.5t52.5 -72t19 -109.5v-24h-346q5 -124 127 -124q45 0 73.5 17.5t34.5 49.5h110q-15 -79 -76.5 -114.5t-143.5 -35.5zM183 272
h234q-6 49 -38.5 73t-78.5 24t-78.5 -24t-38.5 -73z" />
    <glyph glyph-name="eacute" unicode="&#xe9;" 
d="M235 500l78 199h120l-134 -199h-64zM306 -10q-104 0 -168.5 55.5t-64.5 173.5q0 64 19.5 111t53.5 72.5t72 37.5t82 12q45 0 83.5 -12t72 -37.5t52.5 -72t19 -109.5v-24h-346q5 -124 127 -124q45 0 73.5 17.5t34.5 49.5h110q-15 -79 -76.5 -114.5t-143.5 -35.5zM183 272
h234q-6 49 -38.5 73t-78.5 24t-78.5 -24t-38.5 -73z" />
    <glyph glyph-name="ecircumflex" unicode="&#xea;" 
d="M134 500l119 199h94l119 -199h-69l-97 110l-97 -110h-69zM306 -10q-104 0 -168.5 55.5t-64.5 173.5q0 64 19.5 111t53.5 72.5t72 37.5t82 12q45 0 83.5 -12t72 -37.5t52.5 -72t19 -109.5v-24h-346q5 -124 127 -124q45 0 73.5 17.5t34.5 49.5h110q-15 -79 -76.5 -114.5
t-143.5 -35.5zM183 272h234q-6 49 -38.5 73t-78.5 24t-78.5 -24t-38.5 -73z" />
    <glyph glyph-name="edieresis" unicode="&#xeb;" 
d="M132 535v118h118v-118h-118zM350 535v118h118v-118h-118zM306 -10q-104 0 -168.5 55.5t-64.5 173.5q0 64 19.5 111t53.5 72.5t72 37.5t82 12q45 0 83.5 -12t72 -37.5t52.5 -72t19 -109.5v-24h-346q5 -124 127 -124q45 0 73.5 17.5t34.5 49.5h110q-15 -79 -76.5 -114.5
t-143.5 -35.5zM183 272h234q-6 49 -38.5 73t-78.5 24t-78.5 -24t-38.5 -73z" />
    <glyph glyph-name="igrave" unicode="&#xec;" 
d="M305 500l-134 199h120l78 -199h-64zM99 0v84h154v273h-154v85h261v-358h141v-84h-402z" />
    <glyph glyph-name="iacute" unicode="&#xed;" 
d="M240 500l78 199h120l-134 -199h-64zM99 0v84h154v273h-154v85h261v-358h141v-84h-402z" />
    <glyph glyph-name="icircumflex" unicode="&#xee;" 
d="M139 500l119 199h94l119 -199h-69l-97 110l-97 -110h-69zM99 0v84h154v273h-154v85h261v-358h141v-84h-402z" />
    <glyph glyph-name="idieresis" unicode="&#xef;" 
d="M137 535v118h118v-118h-118zM355 535v118h118v-118h-118zM99 0v84h154v273h-154v85h261v-358h141v-84h-402z" />
    <glyph glyph-name="eth" unicode="&#xf0;" 
d="M300 -10q-94 0 -161 53.5t-67 163.5q0 100 59.5 157t144.5 57q49 0 76 -18l-46 88l-117 -29v86l77 19l-42 80h116l28 -55l115 29v-86l-76 -19l78 -153q43 -84 43 -156q0 -109 -67.5 -163t-160.5 -54zM300 78q57 0 88.5 34.5t31.5 94.5t-31.5 94t-88.5 34t-88.5 -34
t-31.5 -94t31.5 -94.5t88.5 -34.5z" />
    <glyph glyph-name="ntilde" unicode="&#xf1;" 
d="M160 518l-48 23q16 51 46.5 90t76.5 39q33 0 75 -32q41 -31 60 -31q37 0 70 63l48 -23q-16 -51 -46.5 -90t-76.5 -39q-33 0 -74 31q-42 32 -61 32q-37 0 -70 -63zM106 0v442h93v-60q51 70 137 70q158 0 158 -179v-273h-107v252q0 58 -17 84.5t-63 26.5q-58 0 -94 -40
v-323h-107z" />
    <glyph glyph-name="ograve" unicode="&#xf2;" 
d="M300 500l-134 199h120l78 -199h-64zM300 -10q-97 0 -162.5 54t-65.5 177q0 64 20.5 111t55 72t72.5 36.5t80 11.5q45 0 83.5 -11.5t72 -36.5t53 -71.5t19.5 -111.5q0 -63 -20.5 -110t-54.5 -72.5t-72.5 -37t-80.5 -11.5zM300 78q119 0 119 143t-119 143t-119 -143
t119 -143z" />
    <glyph glyph-name="oacute" unicode="&#xf3;" 
d="M235 500l78 199h120l-134 -199h-64zM300 -10q-97 0 -162.5 54t-65.5 177q0 64 20.5 111t55 72t72.5 36.5t80 11.5q45 0 83.5 -11.5t72 -36.5t53 -71.5t19.5 -111.5q0 -63 -20.5 -110t-54.5 -72.5t-72.5 -37t-80.5 -11.5zM300 78q119 0 119 143t-119 143t-119 -143
t119 -143z" />
    <glyph glyph-name="ocircumflex" unicode="&#xf4;" 
d="M134 500l119 199h94l119 -199h-69l-97 110l-97 -110h-69zM300 -10q-97 0 -162.5 54t-65.5 177q0 64 20.5 111t55 72t72.5 36.5t80 11.5q45 0 83.5 -11.5t72 -36.5t53 -71.5t19.5 -111.5q0 -63 -20.5 -110t-54.5 -72.5t-72.5 -37t-80.5 -11.5zM300 78q119 0 119 143
t-119 143t-119 -143t119 -143z" />
    <glyph glyph-name="otilde" unicode="&#xf5;" 
d="M160 518l-48 23q16 51 46.5 90t76.5 39q33 0 75 -32q41 -31 60 -31q37 0 70 63l48 -23q-16 -51 -46.5 -90t-76.5 -39q-33 0 -74 31q-42 32 -61 32q-37 0 -70 -63zM300 -10q-97 0 -162.5 54t-65.5 177q0 64 20.5 111t55 72t72.5 36.5t80 11.5q45 0 83.5 -11.5t72 -36.5
t53 -71.5t19.5 -111.5q0 -63 -20.5 -110t-54.5 -72.5t-72.5 -37t-80.5 -11.5zM300 78q119 0 119 143t-119 143t-119 -143t119 -143z" />
    <glyph glyph-name="odieresis" unicode="&#xf6;" 
d="M132 535v118h118v-118h-118zM350 535v118h118v-118h-118zM300 -10q-97 0 -162.5 54t-65.5 177q0 64 20.5 111t55 72t72.5 36.5t80 11.5q45 0 83.5 -11.5t72 -36.5t53 -71.5t19.5 -111.5q0 -63 -20.5 -110t-54.5 -72.5t-72.5 -37t-80.5 -11.5zM300 78q119 0 119 143
t-119 143t-119 -143t119 -143z" />
    <glyph glyph-name="divide" unicode="&#xf7;" 
d="M228 0v133h144v-133h-144zM118 209v65h364v-65h-364zM228 350v133h144v-133h-144z" />
    <glyph glyph-name="oslash" unicode="&#xf8;" 
d="M300 -10q-96 0 -155 47l-40 -37h-88l89 82q-34 55 -34 139q0 64 20.5 111t55 72t72.5 36.5t80 11.5q96 0 155 -47l40 37h88l-89 -82q34 -55 34 -139q0 -63 -20.5 -110t-54.5 -72.5t-72.5 -37t-80.5 -11.5zM300 78q119 0 119 143q0 35 -8 62l-192 -178q30 -27 81 -27z
M188 158l193 179q-30 27 -81 27q-119 0 -119 -143q0 -38 7 -63z" />
    <glyph glyph-name="ugrave" unicode="&#xf9;" 
d="M300 500l-134 199h120l78 -199h-64zM264 -10q-158 0 -158 179v273h107v-252q0 -58 17 -84.5t63 -26.5q58 0 94 40v323h107v-442h-93v60q-51 -70 -137 -70z" />
    <glyph glyph-name="uacute" unicode="&#xfa;" 
d="M235 500l78 199h120l-134 -199h-64zM264 -10q-158 0 -158 179v273h107v-252q0 -58 17 -84.5t63 -26.5q58 0 94 40v323h107v-442h-93v60q-51 -70 -137 -70z" />
    <glyph glyph-name="ucircumflex" unicode="&#xfb;" 
d="M134 500l119 199h94l119 -199h-69l-97 110l-97 -110h-69zM264 -10q-158 0 -158 179v273h107v-252q0 -58 17 -84.5t63 -26.5q58 0 94 40v323h107v-442h-93v60q-51 -70 -137 -70z" />
    <glyph glyph-name="udieresis" unicode="&#xfc;" 
d="M132 535v118h118v-118h-118zM350 535v118h118v-118h-118zM264 -10q-158 0 -158 179v273h107v-252q0 -58 17 -84.5t63 -26.5q58 0 94 40v323h107v-442h-93v60q-51 -70 -137 -70z" />
    <glyph glyph-name="yacute" unicode="&#xfd;" 
d="M235 500l78 199h120l-134 -199h-64zM69 -187v88q71 0 111 23.5t64 78.5l-196 439h120l85 -209l49 -136l50 135l86 210h114l-185 -420q-52 -118 -114.5 -163.5t-183.5 -45.5z" />
    <glyph glyph-name="thorn" unicode="&#xfe;" 
d="M105 -182v829h107v-251q48 56 132 56q80 0 132.5 -56.5t52.5 -174.5q0 -116 -53 -173.5t-132 -57.5q-84 0 -132 56v-228h-107zM311 79q108 0 108 142t-108 142q-58 0 -99 -39v-206q41 -39 99 -39z" />
    <glyph glyph-name="ydieresis" unicode="&#xff;" 
d="M132 535v118h118v-118h-118zM350 535v118h118v-118h-118zM69 -187v88q71 0 111 23.5t64 78.5l-196 439h120l85 -209l49 -136l50 135l86 210h114l-185 -420q-52 -118 -114.5 -163.5t-183.5 -45.5z" />
    <glyph glyph-name="Amacron" unicode="&#x100;" 
d="M141 662v85h318v-85h-318zM40 0l201 572h118l201 -572h-119l-42 126h-201l-41 -126h-117zM242 273l-19 -59h148l-19 59l-55 185z" />
    <glyph glyph-name="amacron" unicode="&#x101;" 
d="M131 553v85h318v-85h-318zM230 -10q-69 0 -112.5 31.5t-43.5 94.5q0 129 182 129q69 0 121 -16v36q0 50 -18 76t-74 26q-98 0 -98 -77h-101q0 58 30 95.5t74.5 52t101.5 14.5q192 0 192 -173v-183q0 -13 5.5 -18t18.5 -5q18 0 42 6v-71q-40 -18 -85 -18q-72 0 -72 62v8
q-56 -70 -163 -70zM255 70q77 0 122 37v56q-34 9 -98 9q-48 0 -73 -11.5t-25 -41.5q0 -49 74 -49z" />
    <glyph glyph-name="Abreve" unicode="&#x102;" 
d="M300 627q-40 0 -74.5 15t-56 37t-34.5 42t-18 36l42 32q51 -75 141 -75t141 75l42 -32q-5 -16 -18 -36t-34.5 -42t-56 -37t-74.5 -15zM40 0l201 572h118l201 -572h-119l-42 126h-201l-41 -126h-117zM242 273l-19 -59h148l-19 59l-55 185z" />
    <glyph glyph-name="abreve" unicode="&#x103;" 
d="M290 518q-40 0 -74.5 15t-56 37t-34.5 42t-18 36l42 32q51 -75 141 -75t141 75l42 -32q-5 -16 -18 -36t-34.5 -42t-56 -37t-74.5 -15zM230 -10q-69 0 -112.5 31.5t-43.5 94.5q0 129 182 129q69 0 121 -16v36q0 50 -18 76t-74 26q-98 0 -98 -77h-101q0 58 30 95.5t74.5 52
t101.5 14.5q192 0 192 -173v-183q0 -13 5.5 -18t18.5 -5q18 0 42 6v-71q-40 -18 -85 -18q-72 0 -72 62v8q-56 -70 -163 -70zM255 70q77 0 122 37v56q-34 9 -98 9q-48 0 -73 -11.5t-25 -41.5q0 -49 74 -49z" />
    <glyph glyph-name="Aogonek" unicode="&#x104;" 
d="M466 -193q-46 0 -72.5 18t-26.5 48q0 36 33.5 64t98.5 63h-58l-42 126h-201l-41 -126h-117l201 572h118l201 -572q-57 -45 -78.5 -67.5t-21.5 -41.5q0 -27 37 -27q30 0 52 10l10 -47q-37 -20 -93 -20zM242 273l-19 -59h148l-19 59l-55 185z" />
    <glyph glyph-name="aogonek" unicode="&#x105;" 
d="M456 -192q-46 0 -72.5 17.5t-26.5 47.5q0 56 103 117q-67 0 -67 62v8q-56 -70 -163 -70q-69 0 -112.5 31.5t-43.5 94.5q0 129 182 129q69 0 121 -16v36q0 50 -18 76t-74 26q-98 0 -98 -77h-101q0 58 30 95.5t74.5 52t101.5 14.5q192 0 192 -173v-183q0 -13 5 -17.5
t19 -4.5q22 0 42 5v-71q-99 -78 -99 -117q0 -27 37 -27q24 0 52 10l10 -46q-40 -20 -94 -20zM255 70q77 0 122 37v56q-34 9 -98 9q-48 0 -73 -11.5t-25 -41.5q0 -49 74 -49z" />
    <glyph glyph-name="Cacute" unicode="&#x106;" 
d="M234 609l78 199h120l-134 -199h-64zM306 -10q-244 0 -244 296q0 140 63 218t183 78q220 0 230 -213h-113q-10 118 -117 118q-40 0 -67 -15.5t-40.5 -45t-18.5 -62.5t-5 -78t5 -77.5t18 -62t40.5 -45t67.5 -15.5q55 0 83.5 28.5t33.5 88.5h113q-6 -110 -67.5 -161.5
t-164.5 -51.5z" />
    <glyph glyph-name="cacute" unicode="&#x107;" 
d="M236 500l78 199h120l-134 -199h-64zM303 -10q-45 0 -83.5 11.5t-73 36t-54.5 71.5t-20 112q0 53 14 94t36 66t53 41.5t62.5 23t66.5 6.5q40 0 75 -9t66.5 -28.5t51.5 -56t23 -86.5h-108q-8 90 -107 90q-123 0 -123 -141t124 -141q98 0 106 89h108q-3 -49 -23 -85.5
t-52.5 -56t-67.5 -28.5t-74 -9z" />
    <glyph glyph-name="Ccircumflex" unicode="&#x108;" 
d="M133 609l119 199h94l119 -199h-69l-97 110l-97 -110h-69zM306 -10q-244 0 -244 296q0 140 63 218t183 78q220 0 230 -213h-113q-10 118 -117 118q-40 0 -67 -15.5t-40.5 -45t-18.5 -62.5t-5 -78t5 -77.5t18 -62t40.5 -45t67.5 -15.5q55 0 83.5 28.5t33.5 88.5h113
q-6 -110 -67.5 -161.5t-164.5 -51.5z" />
    <glyph glyph-name="ccircumflex" unicode="&#x109;" 
d="M135 500l119 199h94l119 -199h-69l-97 110l-97 -110h-69zM303 -10q-45 0 -83.5 11.5t-73 36t-54.5 71.5t-20 112q0 53 14 94t36 66t53 41.5t62.5 23t66.5 6.5q40 0 75 -9t66.5 -28.5t51.5 -56t23 -86.5h-108q-8 90 -107 90q-123 0 -123 -141t124 -141q98 0 106 89h108
q-3 -49 -23 -85.5t-52.5 -56t-67.5 -28.5t-74 -9z" />
    <glyph glyph-name="Cdotaccent" unicode="&#x10a;" 
d="M240 644v118h118v-118h-118zM306 -10q-244 0 -244 296q0 140 63 218t183 78q220 0 230 -213h-113q-10 118 -117 118q-40 0 -67 -15.5t-40.5 -45t-18.5 -62.5t-5 -78t5 -77.5t18 -62t40.5 -45t67.5 -15.5q55 0 83.5 28.5t33.5 88.5h113q-6 -110 -67.5 -161.5t-164.5 -51.5
z" />
    <glyph glyph-name="cdotaccent" unicode="&#x10b;" 
d="M242 535v118h118v-118h-118zM303 -10q-45 0 -83.5 11.5t-73 36t-54.5 71.5t-20 112q0 53 14 94t36 66t53 41.5t62.5 23t66.5 6.5q40 0 75 -9t66.5 -28.5t51.5 -56t23 -86.5h-108q-8 90 -107 90q-123 0 -123 -141t124 -141q98 0 106 89h108q-3 -49 -23 -85.5t-52.5 -56
t-67.5 -28.5t-74 -9z" />
    <glyph glyph-name="Ccaron" unicode="&#x10c;" 
d="M252 609l-119 199h69l97 -111l97 111h69l-119 -199h-94zM306 -10q-244 0 -244 296q0 140 63 218t183 78q220 0 230 -213h-113q-10 118 -117 118q-40 0 -67 -15.5t-40.5 -45t-18.5 -62.5t-5 -78t5 -77.5t18 -62t40.5 -45t67.5 -15.5q55 0 83.5 28.5t33.5 88.5h113
q-6 -110 -67.5 -161.5t-164.5 -51.5z" />
    <glyph glyph-name="ccaron" unicode="&#x10d;" 
d="M254 500l-119 199h69l97 -111l97 111h69l-119 -199h-94zM303 -10q-45 0 -83.5 11.5t-73 36t-54.5 71.5t-20 112q0 53 14 94t36 66t53 41.5t62.5 23t66.5 6.5q40 0 75 -9t66.5 -28.5t51.5 -56t23 -86.5h-108q-8 90 -107 90q-123 0 -123 -141t124 -141q98 0 106 89h108
q-3 -49 -23 -85.5t-52.5 -56t-67.5 -28.5t-74 -9z" />
    <glyph glyph-name="Dcaron" unicode="&#x10e;" 
d="M253 609l-119 199h69l97 -111l97 111h69l-119 -199h-94zM106 0v572h179q137 0 195.5 -72.5t58.5 -213.5q0 -286 -254 -286h-179zM217 478v-384h68q44 0 72.5 15t42 44t18.5 59.5t5 73.5t-5 73.5t-18.5 59.5t-42 44t-72.5 15h-68z" />
    <glyph glyph-name="dcaron" unicode="&#x10f;" 
d="M247 -10q-79 0 -127.5 58t-48.5 171q0 114 50 173.5t129 59.5q76 0 121 -50v245h107v-647h-93v58q-51 -68 -138 -68zM285 79q52 0 86 34v216q-34 34 -86 34q-103 0 -103 -142t103 -142zM548 435q-29 0 -29 25q0 4 3 28l20 159h113l-74 -191q-9 -21 -33 -21z" />
    <glyph glyph-name="Dcroat" unicode="&#x110;" 
d="M106 0v245h-50v87h50v240h179q137 0 195.5 -72.5t58.5 -213.5q0 -286 -254 -286h-179zM217 245v-151h68q44 0 72.5 15t42 44t18.5 59.5t5 73.5t-5 73.5t-18.5 59.5t-42 44t-72.5 15h-68v-146h100v-87h-100z" />
    <glyph glyph-name="dcroat" unicode="&#x111;" 
d="M256 -10q-80 0 -132.5 58t-52.5 173t53 173t132 58q82 0 132 -56v103h-104v79h104v69h107v-69h50v-79h-50v-499h-93v58q-50 -68 -146 -68zM289 79q58 0 99 39v206q-41 39 -99 39q-108 0 -108 -142t108 -142z" />
    <glyph glyph-name="Emacron" unicode="&#x112;" 
d="M148 662v85h318v-85h-318zM106 0v572h399v-94h-288v-140h247v-94h-247v-150h288v-94h-399z" />
    <glyph glyph-name="emacron" unicode="&#x113;" 
d="M141 553v85h318v-85h-318zM306 -10q-104 0 -168.5 55.5t-64.5 173.5q0 64 19.5 111t53.5 72.5t72 37.5t82 12q45 0 83.5 -12t72 -37.5t52.5 -72t19 -109.5v-24h-346q5 -124 127 -124q45 0 73.5 17.5t34.5 49.5h110q-15 -79 -76.5 -114.5t-143.5 -35.5zM183 272h234
q-6 49 -38.5 73t-78.5 24t-78.5 -24t-38.5 -73z" />
    <glyph glyph-name="Ebreve" unicode="&#x114;" 
d="M307 627q-40 0 -74.5 15t-56 37t-34.5 42t-18 36l42 32q51 -75 141 -75t141 75l42 -32q-5 -16 -18 -36t-34.5 -42t-56 -37t-74.5 -15zM106 0v572h399v-94h-288v-140h247v-94h-247v-150h288v-94h-399z" />
    <glyph glyph-name="ebreve" unicode="&#x115;" 
d="M300 518q-40 0 -74.5 15t-56 37t-34.5 42t-18 36l42 32q51 -75 141 -75t141 75l42 -32q-5 -16 -18 -36t-34.5 -42t-56 -37t-74.5 -15zM306 -10q-104 0 -168.5 55.5t-64.5 173.5q0 64 19.5 111t53.5 72.5t72 37.5t82 12q45 0 83.5 -12t72 -37.5t52.5 -72t19 -109.5v-24
h-346q5 -124 127 -124q45 0 73.5 17.5t34.5 49.5h110q-15 -79 -76.5 -114.5t-143.5 -35.5zM183 272h234q-6 49 -38.5 73t-78.5 24t-78.5 -24t-38.5 -73z" />
    <glyph glyph-name="Edotaccent" unicode="&#x116;" 
d="M248 644v118h118v-118h-118zM106 0v572h399v-94h-288v-140h247v-94h-247v-150h288v-94h-399z" />
    <glyph glyph-name="edotaccent" unicode="&#x117;" 
d="M241 535v118h118v-118h-118zM306 -10q-104 0 -168.5 55.5t-64.5 173.5q0 64 19.5 111t53.5 72.5t72 37.5t82 12q45 0 83.5 -12t72 -37.5t52.5 -72t19 -109.5v-24h-346q5 -124 127 -124q45 0 73.5 17.5t34.5 49.5h110q-15 -79 -76.5 -114.5t-143.5 -35.5zM183 272h234
q-6 49 -38.5 73t-78.5 24t-78.5 -24t-38.5 -73z" />
    <glyph glyph-name="Eogonek" unicode="&#x118;" 
d="M411 -192q-46 0 -72.5 17.5t-26.5 47.5q0 24 21 48.5t44 39.5t67 39h-338v572h399v-94h-288v-140h247v-94h-247v-150h288v-94q-57 -47 -78 -69t-21 -40q0 -27 37 -27q25 0 52 10l10 -46q-40 -20 -94 -20z" />
    <glyph glyph-name="eogonek" unicode="&#x119;" 
d="M327 -193q-47 0 -74 18t-27 48q0 33 30.5 61t86.5 59q-13 -3 -37 -3q-104 0 -168.5 55.5t-64.5 173.5q0 64 19.5 111t53.5 72.5t72 37.5t82 12q45 0 83.5 -12t72 -37.5t52.5 -72t19 -109.5v-24h-346q5 -124 127 -124q45 0 73.5 17.5t34.5 49.5h110q-14 -69 -67 -108
q-138 -100 -138 -141q0 -27 37 -27q24 0 52 10l10 -47q-40 -20 -93 -20zM183 272h234q-6 49 -38.5 73t-78.5 24t-78.5 -24t-38.5 -73z" />
    <glyph glyph-name="Ecaron" unicode="&#x11a;" 
d="M260 609l-119 199h69l97 -111l97 111h69l-119 -199h-94zM106 0v572h399v-94h-288v-140h247v-94h-247v-150h288v-94h-399z" />
    <glyph glyph-name="ecaron" unicode="&#x11b;" 
d="M253 500l-119 199h69l97 -111l97 111h69l-119 -199h-94zM306 -10q-104 0 -168.5 55.5t-64.5 173.5q0 64 19.5 111t53.5 72.5t72 37.5t82 12q45 0 83.5 -12t72 -37.5t52.5 -72t19 -109.5v-24h-346q5 -124 127 -124q45 0 73.5 17.5t34.5 49.5h110q-15 -79 -76.5 -114.5
t-143.5 -35.5zM183 272h234q-6 49 -38.5 73t-78.5 24t-78.5 -24t-38.5 -73z" />
    <glyph glyph-name="Gcircumflex" unicode="&#x11c;" 
d="M129 609l119 199h94l119 -199h-69l-97 110l-97 -110h-69zM272 -10q-110 0 -160 81.5t-50 214.5q0 139 59.5 217.5t178.5 78.5q208 0 217 -199h-112q-5 52 -30 78t-75 26q-40 0 -66 -16.5t-37.5 -48.5t-15.5 -62.5t-4 -73.5q0 -48 4.5 -80.5t17.5 -61.5t39.5 -43.5
t66.5 -14.5q60 0 102 40v101h-120v86h229v-313h-94v61q-54 -71 -150 -71z" />
    <glyph glyph-name="gcircumflex" unicode="&#x11d;" 
d="M117 500l119 199h94l119 -199h-69l-97 110l-97 -110h-69zM281 -192q-198 0 -202 166h103q2 -42 25.5 -63.5t77.5 -21.5q63 0 83 27.5t20 80.5v63q-51 -53 -129 -53q-82 0 -135 56t-53 165t54 166.5t134 57.5q50 0 87.5 -20t55.5 -47v57h93v-454q0 -180 -214 -180zM291 95
q57 0 97 38v192q-41 39 -97 39t-83 -36t-27 -99t27 -98.5t83 -35.5z" />
    <glyph glyph-name="Gbreve" unicode="&#x11e;" 
d="M295 627q-40 0 -74.5 15t-56 37t-34.5 42t-18 36l42 32q51 -75 141 -75t141 75l42 -32q-5 -16 -18 -36t-34.5 -42t-56 -37t-74.5 -15zM272 -10q-110 0 -160 81.5t-50 214.5q0 139 59.5 217.5t178.5 78.5q208 0 217 -199h-112q-5 52 -30 78t-75 26q-40 0 -66 -16.5
t-37.5 -48.5t-15.5 -62.5t-4 -73.5q0 -48 4.5 -80.5t17.5 -61.5t39.5 -43.5t66.5 -14.5q60 0 102 40v101h-120v86h229v-313h-94v61q-54 -71 -150 -71z" />
    <glyph glyph-name="gbreve" unicode="&#x11f;" 
d="M283 518q-40 0 -74.5 15t-56 37t-34.5 42t-18 36l42 32q51 -75 141 -75t141 75l42 -32q-5 -16 -18 -36t-34.5 -42t-56 -37t-74.5 -15zM281 -192q-198 0 -202 166h103q2 -42 25.5 -63.5t77.5 -21.5q63 0 83 27.5t20 80.5v63q-51 -53 -129 -53q-82 0 -135 56t-53 165
t54 166.5t134 57.5q50 0 87.5 -20t55.5 -47v57h93v-454q0 -180 -214 -180zM291 95q57 0 97 38v192q-41 39 -97 39t-83 -36t-27 -99t27 -98.5t83 -35.5z" />
    <glyph glyph-name="Gdotaccent" unicode="&#x120;" 
d="M236 644v118h118v-118h-118zM272 -10q-110 0 -160 81.5t-50 214.5q0 139 59.5 217.5t178.5 78.5q208 0 217 -199h-112q-5 52 -30 78t-75 26q-40 0 -66 -16.5t-37.5 -48.5t-15.5 -62.5t-4 -73.5q0 -48 4.5 -80.5t17.5 -61.5t39.5 -43.5t66.5 -14.5q60 0 102 40v101h-120
v86h229v-313h-94v61q-54 -71 -150 -71z" />
    <glyph glyph-name="gdotaccent" unicode="&#x121;" 
d="M224 535v118h118v-118h-118zM281 -192q-198 0 -202 166h103q2 -42 25.5 -63.5t77.5 -21.5q63 0 83 27.5t20 80.5v63q-51 -53 -129 -53q-82 0 -135 56t-53 165t54 166.5t134 57.5q50 0 87.5 -20t55.5 -47v57h93v-454q0 -180 -214 -180zM291 95q57 0 97 38v192
q-41 39 -97 39t-83 -36t-27 -99t27 -98.5t83 -35.5z" />
    <glyph glyph-name="Gcommaaccent" unicode="&#x122;" 
d="M241 -253q-29 0 -29 25q0 4 3 28l20 159h113l-74 -191q-9 -21 -33 -21zM272 -10q-110 0 -160 81.5t-50 214.5q0 139 59.5 217.5t178.5 78.5q208 0 217 -199h-112q-5 52 -30 78t-75 26q-40 0 -66 -16.5t-37.5 -48.5t-15.5 -62.5t-4 -73.5q0 -48 4.5 -80.5t17.5 -61.5
t39.5 -43.5t66.5 -14.5q60 0 102 40v101h-120v86h229v-313h-94v61q-54 -71 -150 -71z" />
    <glyph glyph-name="gcommaaccent" unicode="&#x123;" 
d="M222 507l74 191q9 21 33 21q29 0 29 -25q0 -4 -3 -28l-20 -159h-113zM281 -192q-198 0 -202 166h103q2 -42 25.5 -63.5t77.5 -21.5q63 0 83 27.5t20 80.5v63q-51 -53 -129 -53q-82 0 -135 56t-53 165t54 166.5t134 57.5q50 0 87.5 -20t55.5 -47v57h93v-454
q0 -180 -214 -180zM291 95q57 0 97 38v192q-41 39 -97 39t-83 -36t-27 -99t27 -98.5t83 -35.5z" />
    <glyph glyph-name="Hcircumflex" unicode="&#x124;" 
d="M134 609l119 199h94l119 -199h-69l-97 110l-97 -110h-69zM106 0v572h111v-234h166v234h111v-572h-111v245h-166v-245h-111z" />
    <glyph glyph-name="hcircumflex" unicode="&#x125;" 
d="M-7 647l119 199h94l119 -199h-69l-97 110l-97 -110h-69zM106 0v647h107v-254q44 59 125 59q156 0 156 -179v-273h-107v252q0 58 -17 84.5t-63 26.5q-58 0 -94 -40v-323h-107z" />
    <glyph glyph-name="Hbar" unicode="&#x126;" 
d="M106 0v416h-48v77h48v79h111v-79h166v79h111v-79h48v-77h-48v-416h-111v245h-166v-245h-111zM217 416v-78h166v78h-166z" />
    <glyph glyph-name="hbar" unicode="&#x127;" 
d="M106 0v499h-50v79h50v69h107v-69h105v-79h-105v-106q44 59 125 59q156 0 156 -179v-273h-107v252q0 58 -17 84.5t-63 26.5q-58 0 -94 -40v-323h-107z" />
    <glyph glyph-name="Itilde" unicode="&#x128;" 
d="M167 627l-48 23q16 51 46.5 90t76.5 39q33 0 75 -32q41 -31 60 -31q37 0 70 63l48 -23q-16 -51 -46.5 -90t-76.5 -39q-33 0 -74 31q-42 32 -61 32q-37 0 -70 -63zM105 0v94h139v384h-139v94h390v-94h-139v-384h139v-94h-390z" />
    <glyph glyph-name="itilde" unicode="&#x129;" 
d="M165 518l-48 23q16 51 46.5 90t76.5 39q33 0 75 -32q41 -31 60 -31q37 0 70 63l48 -23q-16 -51 -46.5 -90t-76.5 -39q-33 0 -74 31q-42 32 -61 32q-37 0 -70 -63zM99 0v84h154v273h-154v85h261v-358h141v-84h-402z" />
    <glyph glyph-name="Imacron" unicode="&#x12a;" 
d="M141 662v85h318v-85h-318zM105 0v94h139v384h-139v94h390v-94h-139v-384h139v-94h-390z" />
    <glyph glyph-name="imacron" unicode="&#x12b;" 
d="M146 553v85h318v-85h-318zM99 0v84h154v273h-154v85h261v-358h141v-84h-402z" />
    <glyph glyph-name="Ibreve" unicode="&#x12c;" 
d="M300 627q-40 0 -74.5 15t-56 37t-34.5 42t-18 36l42 32q51 -75 141 -75t141 75l42 -32q-5 -16 -18 -36t-34.5 -42t-56 -37t-74.5 -15zM105 0v94h139v384h-139v94h390v-94h-139v-384h139v-94h-390z" />
    <glyph glyph-name="ibreve" unicode="&#x12d;" 
d="M305 518q-40 0 -74.5 15t-56 37t-34.5 42t-18 36l42 32q51 -75 141 -75t141 75l42 -32q-5 -16 -18 -36t-34.5 -42t-56 -37t-74.5 -15zM99 0v84h154v273h-154v85h261v-358h141v-84h-402z" />
    <glyph glyph-name="Iogonek" unicode="&#x12e;" 
d="M288 -192q-46 0 -72.5 17.5t-26.5 47.5q0 24 21 48.5t44 39.5t67 39h-216v94h139v384h-139v94h390v-94h-139v-384h139v-94h-113q-57 -47 -78 -69t-21 -40q0 -27 37 -27q24 0 52 10l10 -46q-40 -20 -94 -20z" />
    <glyph glyph-name="iogonek" unicode="&#x12f;" 
d="M279 -192q-46 0 -72.5 17.5t-26.5 47.5q0 24 21 48.5t44 39.5t67 39h-213v84h154v273h-154v85h261v-358h141v-84h-128q-57 -47 -78 -69t-21 -40q0 -27 37 -27q25 0 52 10l10 -46q-40 -20 -94 -20zM242 526v121h131v-121h-131z" />
    <glyph glyph-name="Idotaccent" unicode="&#x130;" 
d="M241 644v118h118v-118h-118zM105 0v94h139v384h-139v94h390v-94h-139v-384h139v-94h-390z" />
    <glyph glyph-name="dotlessi" unicode="&#x131;" 
d="M99 0v84h154v273h-154v85h261v-358h141v-84h-402z" />
    <glyph glyph-name="IJ" unicode="&#x132;" 
d="M300 -10q-107 0 -157.5 54t-50.5 165v10h111v-10q0 -68 23 -95t74 -27t74 27t23 95v363h111v-363q0 -219 -208 -219zM92 314v258h111v-258h-111z" />
    <glyph glyph-name="ij" unicode="&#x133;" 
d="M207 -187v84q89 0 134.5 35t45.5 123v387h107v-397q0 -232 -287 -232zM106 0v442h107v-442h-107zM95 526v121h129v-121h-129zM376 526v121h129v-121h-129z" />
    <glyph glyph-name="Jcircumflex" unicode="&#x134;" 
d="M284 609l119 199h94l119 -199h-69l-97 110l-97 -110h-69zM290 -10q-105 0 -159.5 56.5t-54.5 153.5q0 20 3 41h111q-2 -14 -2 -41q0 -113 102 -113q104 0 104 136v349h112v-349q0 -111 -55.5 -172t-160.5 -61z" />
    <glyph glyph-name="jcircumflex" unicode="&#x135;" 
d="M195 500l119 199h94l119 -199h-69l-97 110l-97 -110h-69zM130 -187v84q89 0 133.5 35.5t44.5 122.5v302h-171v85h278v-392q0 -237 -285 -237z" />
    <glyph glyph-name="Kcommaaccent" unicode="&#x136;" 
d="M284 -253q-29 0 -29 25q0 4 3 28l20 159h113l-74 -191q-9 -21 -33 -21zM106 0v572h111v-242l208 242h133l-210 -234l225 -338h-136l-162 259l-58 -63v-196h-111z" />
    <glyph glyph-name="kcommaaccent" unicode="&#x137;" 
d="M277 -253q-29 0 -29 25q0 4 3 28l20 159h113l-74 -191q-9 -21 -33 -21zM106 0v647h107v-372l192 167h142l-191 -162l202 -280h-129l-149 221l-67 -54v-167h-107z" />
    <glyph glyph-name="kgreenlandic" unicode="&#x138;" 
d="M106 0v442h107v-167l192 167h142l-191 -162l202 -280h-129l-149 221l-67 -54v-167h-107z" />
    <glyph glyph-name="Lacute" unicode="&#x139;" 
d="M98 609l78 199h120l-134 -199h-64zM106 0v572h111v-478h293v-94h-404z" />
    <glyph glyph-name="lacute" unicode="&#x13a;" 
d="M236 684l78 199h120l-134 -199h-64zM99 0v84h147v479h-147v84h254v-563h148v-84h-402z" />
    <glyph glyph-name="Lcommaaccent" unicode="&#x13b;" 
d="M273 -253q-29 0 -29 25q0 4 3 28l20 159h113l-74 -191q-9 -21 -33 -21zM106 0v572h111v-478h293v-94h-404z" />
    <glyph glyph-name="lcommaaccent" unicode="&#x13c;" 
d="M260 -253q-29 0 -29 25q0 4 3 28l20 159h113l-74 -191q-9 -21 -33 -21zM99 0v84h147v479h-147v84h254v-563h148v-84h-402z" />
    <glyph glyph-name="Lcaron" unicode="&#x13d;" 
d="M106 0v572h111v-478h293v-94h-404z" />
    <glyph glyph-name="lcaron" unicode="&#x13e;" 
d="M553 647l-74 -191q-9 -21 -33 -21q-29 0 -29 25q0 4 3 28l20 159h113zM99 0v84h147v479h-147v84h254v-563h148v-84h-402z" />
    <glyph glyph-name="Ldot" unicode="&#x13f;" 
d="M106 0v572h111v-478h293v-94h-404zM375 228v145h145v-145h-145z" />
    <glyph glyph-name="ldot" unicode="&#x140;" 
d="M99 0v84h147v479h-147v84h254v-563h148v-84h-402zM456 216v142h143v-142h-143z" />
    <glyph glyph-name="Lslash" unicode="&#x141;" 
d="M106 0v252l-65 -16v86l65 16v234h111v-207l117 29v-86l-117 -29v-185h293v-94h-404z" />
    <glyph glyph-name="lslash" unicode="&#x142;" 
d="M99 0v84h147v174l-91 -22v86l91 22v219h-147v84h254v-277l95 24v-86l-95 -24v-200h148v-84h-402z" />
    <glyph glyph-name="Nacute" unicode="&#x143;" 
d="M235 609l78 199h120l-134 -199h-64zM106 0v572h141l162 -464l-13 180v284h98v-572h-141l-162 464l13 -180v-284h-98z" />
    <glyph glyph-name="nacute" unicode="&#x144;" 
d="M235 500l78 199h120l-134 -199h-64zM106 0v442h93v-60q51 70 137 70q158 0 158 -179v-273h-107v252q0 58 -17 84.5t-63 26.5q-58 0 -94 -40v-323h-107z" />
    <glyph glyph-name="Ncommaaccent" unicode="&#x145;" 
d="M259 -253q-29 0 -29 25q0 4 3 28l20 159h113l-74 -191q-9 -21 -33 -21zM106 0v572h141l162 -464l-13 180v284h98v-572h-141l-162 464l13 -180v-284h-98z" />
    <glyph glyph-name="ncommaaccent" unicode="&#x146;" 
d="M260 -253q-29 0 -29 25q0 4 3 28l20 159h113l-74 -191q-9 -21 -33 -21zM106 0v442h93v-60q51 70 137 70q158 0 158 -179v-273h-107v252q0 58 -17 84.5t-63 26.5q-58 0 -94 -40v-323h-107z" />
    <glyph glyph-name="Ncaron" unicode="&#x147;" 
d="M253 609l-119 199h69l97 -111l97 111h69l-119 -199h-94zM106 0v572h141l162 -464l-13 180v284h98v-572h-141l-162 464l13 -180v-284h-98z" />
    <glyph glyph-name="ncaron" unicode="&#x148;" 
d="M253 500l-119 199h69l97 -111l97 111h69l-119 -199h-94zM106 0v442h93v-60q51 70 137 70q158 0 158 -179v-273h-107v252q0 58 -17 84.5t-63 26.5q-58 0 -94 -40v-323h-107z" />
    <glyph glyph-name="napostrophe" unicode="&#x149;" 
d="M77 443q-28 0 -28 24q0 6 3 27l19 153h108l-71 -183q-8 -21 -31 -21zM106 0v442h93v-60q51 70 137 70q158 0 158 -179v-273h-107v252q0 58 -17 84.5t-63 26.5q-58 0 -94 -40v-323h-107z" />
    <glyph glyph-name="Eng" unicode="&#x14a;" 
d="M219 -188v85q80 0 121 23.5t48 79.5h-35l-162 464l13 -180v-284h-98v572h141l162 -464l-13 179v285h98v-525q0 -128 -69 -181.5t-206 -53.5z" />
    <glyph glyph-name="eng" unicode="&#x14b;" 
d="M225 -187v84q84 0 123 34t39 115v206q0 58 -17 84.5t-63 26.5q-58 0 -94 -40v-323h-107v442h93v-60q51 70 137 70q158 0 158 -179v-232q0 -65 -20.5 -111t-58.5 -71t-84 -35.5t-106 -10.5z" />
    <glyph glyph-name="Omacron" unicode="&#x14c;" 
d="M141 662v85h318v-85h-318zM299 -10q-119 0 -177.5 76t-58.5 217q0 142 59.5 220.5t178.5 78.5q120 0 178 -76.5t58 -216.5q0 -141 -59 -220t-179 -79zM300 84q32 0 55.5 12t36.5 30t20.5 46.5t9.5 54t2 59.5q0 44 -4 75t-16 62.5t-38 48t-66 16.5t-66 -16.5t-38 -48
t-16 -62.5t-4 -75q0 -34 2 -59.5t9.5 -54t20.5 -46.5t36.5 -30t55.5 -12z" />
    <glyph glyph-name="omacron" unicode="&#x14d;" 
d="M141 553v85h318v-85h-318zM300 -10q-97 0 -162.5 54t-65.5 177q0 64 20.5 111t55 72t72.5 36.5t80 11.5q45 0 83.5 -11.5t72 -36.5t53 -71.5t19.5 -111.5q0 -63 -20.5 -110t-54.5 -72.5t-72.5 -37t-80.5 -11.5zM300 78q119 0 119 143t-119 143t-119 -143t119 -143z" />
    <glyph glyph-name="Obreve" unicode="&#x14e;" 
d="M300 627q-40 0 -74.5 15t-56 37t-34.5 42t-18 36l42 32q51 -75 141 -75t141 75l42 -32q-5 -16 -18 -36t-34.5 -42t-56 -37t-74.5 -15zM299 -10q-119 0 -177.5 76t-58.5 217q0 142 59.5 220.5t178.5 78.5q120 0 178 -76.5t58 -216.5q0 -141 -59 -220t-179 -79zM300 84
q32 0 55.5 12t36.5 30t20.5 46.5t9.5 54t2 59.5q0 44 -4 75t-16 62.5t-38 48t-66 16.5t-66 -16.5t-38 -48t-16 -62.5t-4 -75q0 -34 2 -59.5t9.5 -54t20.5 -46.5t36.5 -30t55.5 -12z" />
    <glyph glyph-name="obreve" unicode="&#x14f;" 
d="M300 518q-40 0 -74.5 15t-56 37t-34.5 42t-18 36l42 32q51 -75 141 -75t141 75l42 -32q-5 -16 -18 -36t-34.5 -42t-56 -37t-74.5 -15zM300 -10q-97 0 -162.5 54t-65.5 177q0 64 20.5 111t55 72t72.5 36.5t80 11.5q45 0 83.5 -11.5t72 -36.5t53 -71.5t19.5 -111.5
q0 -63 -20.5 -110t-54.5 -72.5t-72.5 -37t-80.5 -11.5zM300 78q119 0 119 143t-119 143t-119 -143t119 -143z" />
    <glyph glyph-name="Ohungarumlaut" unicode="&#x150;" 
d="M153 609l81 199h117l-137 -199h-61zM363 609l81 199h117l-137 -199h-61zM299 -10q-119 0 -177.5 76t-58.5 217q0 142 59.5 220.5t178.5 78.5q120 0 178 -76.5t58 -216.5q0 -141 -59 -220t-179 -79zM300 84q32 0 55.5 12t36.5 30t20.5 46.5t9.5 54t2 59.5q0 44 -4 75
t-16 62.5t-38 48t-66 16.5t-66 -16.5t-38 -48t-16 -62.5t-4 -75q0 -34 2 -59.5t9.5 -54t20.5 -46.5t36.5 -30t55.5 -12z" />
    <glyph glyph-name="ohungarumlaut" unicode="&#x151;" 
d="M153 500l81 199h117l-137 -199h-61zM363 500l81 199h117l-137 -199h-61zM300 -10q-97 0 -162.5 54t-65.5 177q0 64 20.5 111t55 72t72.5 36.5t80 11.5q45 0 83.5 -11.5t72 -36.5t53 -71.5t19.5 -111.5q0 -63 -20.5 -110t-54.5 -72.5t-72.5 -37t-80.5 -11.5zM300 78
q119 0 119 143t-119 143t-119 -143t119 -143z" />
    <glyph glyph-name="OE" unicode="&#x152;" 
d="M229 -10q-60 0 -102.5 22t-66 64t-33.5 93t-10 117q0 296 212 296q39 0 74 -10h277v-94h-179v-140h144v-94h-144v-150h179v-94h-277q-33 -10 -74 -10zM239 83q31 0 51 9v388q-19 9 -51 9q-64 0 -86.5 -50.5t-22.5 -152.5t22.5 -152.5t86.5 -50.5z" />
    <glyph glyph-name="oe" unicode="&#x153;" 
d="M177 -10q-76 0 -117.5 59t-41.5 172t43 172t119 59q80 0 120 -69q44 69 126 69q77 0 116.5 -60t39.5 -170v-14h-233q3 -140 77 -140q30 0 46.5 20t17.5 52h92q-4 -68 -45 -109t-108 -41q-86 0 -130 69q-39 -69 -122 -69zM185 68q69 0 69 153q0 152 -69 152t-69 -152
q0 -153 69 -153zM351 268h141q-9 106 -70 106q-62 0 -71 -106z" />
    <glyph glyph-name="Racute" unicode="&#x154;" 
d="M239 609l78 199h120l-134 -199h-64zM106 0v572h168q113 0 178.5 -46t65.5 -142q0 -59 -34.5 -102.5t-88.5 -61.5l164 -220h-136l-137 200h-69v-200h-111zM217 478v-188h57q130 0 130 94t-130 94h-57z" />
    <glyph glyph-name="racute" unicode="&#x155;" 
d="M251 500l78 199h120l-134 -199h-64zM99 0v84h109v273h-109v85h202v-100q43 110 150 110q48 0 83 -19v-108q-36 21 -85 21q-85 0 -134 -64v-198h186v-84h-402z" />
    <glyph glyph-name="Rcommaaccent" unicode="&#x156;" 
d="M279 -253q-29 0 -29 25q0 4 3 28l20 159h113l-74 -191q-9 -21 -33 -21zM106 0v572h168q113 0 178.5 -46t65.5 -142q0 -59 -34.5 -102.5t-88.5 -61.5l164 -220h-136l-137 200h-69v-200h-111zM217 478v-188h57q130 0 130 94t-130 94h-57z" />
    <glyph glyph-name="rcommaaccent" unicode="&#x157;" 
d="M223 -253q-29 0 -29 25q0 4 3 28l20 159h113l-74 -191q-9 -21 -33 -21zM99 0v84h109v273h-109v85h202v-100q43 110 150 110q48 0 83 -19v-108q-36 21 -85 21q-85 0 -134 -64v-198h186v-84h-402z" />
    <glyph glyph-name="Rcaron" unicode="&#x158;" 
d="M257 609l-119 199h69l97 -111l97 111h69l-119 -199h-94zM106 0v572h168q113 0 178.5 -46t65.5 -142q0 -59 -34.5 -102.5t-88.5 -61.5l164 -220h-136l-137 200h-69v-200h-111zM217 478v-188h57q130 0 130 94t-130 94h-57z" />
    <glyph glyph-name="rcaron" unicode="&#x159;" 
d="M269 500l-119 199h69l97 -111l97 111h69l-119 -199h-94zM99 0v84h109v273h-109v85h202v-100q43 110 150 110q48 0 83 -19v-108q-36 21 -85 21q-85 0 -134 -64v-198h186v-84h-402z" />
    <glyph glyph-name="Sacute" unicode="&#x15a;" 
d="M235 609l78 199h120l-134 -199h-64zM298 -10q-101 0 -162 46t-61 136h108q7 -90 117 -90q54 0 84 18.5t30 52.5q0 27 -18 42t-55 28l-128 42q-124 41 -124 152q0 78 59.5 121.5t153.5 43.5q92 0 150 -44t59 -135h-109q-3 46 -27.5 66.5t-73.5 20.5q-51 0 -77 -18.5
t-25 -47.5q1 -25 15 -40.5t48 -26.5l130 -43q61 -20 96.5 -55t35.5 -98q0 -83 -63 -127t-163 -44z" />
    <glyph glyph-name="sacute" unicode="&#x15b;" 
d="M234 500l78 199h120l-134 -199h-64zM297 -10q-96 0 -156 36t-62 113h105q6 -67 119 -67q109 0 109 50q0 27 -31 39t-100 24q-16 2 -25 4q-79 14 -124 42t-45 91q0 65 57.5 97.5t145.5 32.5q200 0 210 -140h-105q-8 58 -104 58q-95 0 -95 -42q0 -29 46 -43q24 -7 112 -21
q48 -8 81.5 -19.5t60 -40t26.5 -71.5q0 -75 -61.5 -109t-163.5 -34z" />
    <glyph glyph-name="Scircumflex" unicode="&#x15c;" 
d="M134 609l119 199h94l119 -199h-69l-97 110l-97 -110h-69zM298 -10q-101 0 -162 46t-61 136h108q7 -90 117 -90q54 0 84 18.5t30 52.5q0 27 -18 42t-55 28l-128 42q-124 41 -124 152q0 78 59.5 121.5t153.5 43.5q92 0 150 -44t59 -135h-109q-3 46 -27.5 66.5t-73.5 20.5
q-51 0 -77 -18.5t-25 -47.5q1 -25 15 -40.5t48 -26.5l130 -43q61 -20 96.5 -55t35.5 -98q0 -83 -63 -127t-163 -44z" />
    <glyph glyph-name="scircumflex" unicode="&#x15d;" 
d="M133 500l119 199h94l119 -199h-69l-97 110l-97 -110h-69zM297 -10q-96 0 -156 36t-62 113h105q6 -67 119 -67q109 0 109 50q0 27 -31 39t-100 24q-16 2 -25 4q-79 14 -124 42t-45 91q0 65 57.5 97.5t145.5 32.5q200 0 210 -140h-105q-8 58 -104 58q-95 0 -95 -42
q0 -29 46 -43q24 -7 112 -21q48 -8 81.5 -19.5t60 -40t26.5 -71.5q0 -75 -61.5 -109t-163.5 -34z" />
    <glyph glyph-name="Scedilla" unicode="&#x15e;" 
d="M313 -192q-55 0 -91 18l11 47q25 -11 53 -11q36 0 36 20q0 28 -77 42l14 68q-85 8 -134.5 53.5t-49.5 126.5h108q7 -90 117 -90q54 0 84 18.5t30 52.5q0 27 -18 42t-55 28l-128 42q-124 41 -124 152q0 78 59.5 121.5t153.5 43.5q92 0 150 -44t59 -135h-109
q-3 46 -27.5 66.5t-73.5 20.5q-51 0 -77 -18.5t-25 -47.5q1 -25 15 -40.5t48 -26.5l130 -43q61 -20 96.5 -55t35.5 -98q0 -80 -58.5 -123.5t-152.5 -46.5l-6 -30q108 -26 108 -87q0 -29 -26 -47.5t-76 -18.5z" />
    <glyph glyph-name="scedilla" unicode="&#x15f;" 
d="M312 -192q-55 0 -91 18l11 47q25 -11 53 -11q36 0 36 20q0 28 -77 42l14 68q-81 6 -129.5 42t-49.5 105h105q6 -67 119 -67q109 0 109 50q0 27 -31 39t-100 24q-16 2 -25 4q-79 14 -124 42t-45 91q0 65 57.5 97.5t145.5 32.5q200 0 210 -140h-105q-8 58 -104 58
q-95 0 -95 -42q0 -29 46 -43q24 -7 112 -21q48 -8 81.5 -19.5t60 -40t26.5 -71.5q0 -138 -210 -143l-6 -29q108 -26 108 -87q0 -29 -26 -47.5t-76 -18.5z" />
    <glyph glyph-name="Scaron" unicode="&#x160;" 
d="M253 609l-119 199h69l97 -111l97 111h69l-119 -199h-94zM298 -10q-101 0 -162 46t-61 136h108q7 -90 117 -90q54 0 84 18.5t30 52.5q0 27 -18 42t-55 28l-128 42q-124 41 -124 152q0 78 59.5 121.5t153.5 43.5q92 0 150 -44t59 -135h-109q-3 46 -27.5 66.5t-73.5 20.5
q-51 0 -77 -18.5t-25 -47.5q1 -25 15 -40.5t48 -26.5l130 -43q61 -20 96.5 -55t35.5 -98q0 -83 -63 -127t-163 -44z" />
    <glyph glyph-name="scaron" unicode="&#x161;" 
d="M252 500l-119 199h69l97 -111l97 111h69l-119 -199h-94zM297 -10q-96 0 -156 36t-62 113h105q6 -67 119 -67q109 0 109 50q0 27 -31 39t-100 24q-16 2 -25 4q-79 14 -124 42t-45 91q0 65 57.5 97.5t145.5 32.5q200 0 210 -140h-105q-8 58 -104 58q-95 0 -95 -42
q0 -29 46 -43q24 -7 112 -21q48 -8 81.5 -19.5t60 -40t26.5 -71.5q0 -75 -61.5 -109t-163.5 -34z" />
    <glyph glyph-name="Tcommaaccent" unicode="&#x162;" 
d="M260 -253q-29 0 -29 25q0 4 3 28l20 159h113l-74 -191q-9 -21 -33 -21zM244 0v478h-189v94h490v-94h-189v-478h-112z" />
    <glyph glyph-name="tcommaaccent" unicode="&#x163;" 
d="M318 -253q-29 0 -29 25q0 4 3 28l20 159h113l-74 -191q-9 -21 -33 -21zM369 -10q-90 0 -132 43.5t-42 154.5v169h-141v85h141v205h107v-205h217v-85h-217v-165q0 -64 18 -88t72 -24q58 0 110 22v-86q-59 -26 -133 -26z" />
    <glyph glyph-name="Tcaron" unicode="&#x164;" 
d="M253 609l-119 199h69l97 -111l97 111h69l-119 -199h-94zM244 0v478h-189v94h490v-94h-189v-478h-112z" />
    <glyph glyph-name="tcaron" unicode="&#x165;" 
d="M369 -10q-90 0 -132 43.5t-42 154.5v99h-141v85h141v275h107v-275h217v-85h-217v-95q0 -64 18 -88t72 -24q58 0 110 22v-86q-59 -26 -133 -26zM400 435q-29 0 -29 25q0 4 3 28l20 159h113l-74 -191q-9 -21 -33 -21z" />
    <glyph glyph-name="Tbar" unicode="&#x166;" 
d="M244 0v239h-120v79h120v160h-189v94h490v-94h-189v-160h121v-79h-121v-239h-112z" />
    <glyph glyph-name="tbar" unicode="&#x167;" 
d="M369 -10q-90 0 -132 43.5t-42 154.5v20h-81v77h81v72h-141v85h141v205h107v-205h217v-85h-217v-72h127v-77h-127v-16q0 -64 18 -88t72 -24q58 0 110 22v-86q-59 -26 -133 -26z" />
    <glyph glyph-name="Utilde" unicode="&#x168;" 
d="M167 627l-48 23q16 51 46.5 90t76.5 39q33 0 75 -32q41 -31 60 -31q37 0 70 63l48 -23q-16 -51 -46.5 -90t-76.5 -39q-33 0 -74 31q-42 32 -61 32q-37 0 -70 -63zM300 -10q-107 0 -157.5 54t-50.5 165v363h111v-363q0 -68 23 -95t74 -27t74 27t23 95v363h111v-363
q0 -219 -208 -219z" />
    <glyph glyph-name="utilde" unicode="&#x169;" 
d="M167 518l-48 23q16 51 46.5 90t76.5 39q33 0 75 -32q41 -31 60 -31q37 0 70 63l48 -23q-16 -51 -46.5 -90t-76.5 -39q-33 0 -74 31q-42 32 -61 32q-37 0 -70 -63zM264 -10q-158 0 -158 179v273h107v-252q0 -58 17 -84.5t63 -26.5q58 0 94 40v323h107v-442h-93v60
q-51 -70 -137 -70z" />
    <glyph glyph-name="Umacron" unicode="&#x16a;" 
d="M141 662v85h318v-85h-318zM300 -10q-107 0 -157.5 54t-50.5 165v363h111v-363q0 -68 23 -95t74 -27t74 27t23 95v363h111v-363q0 -219 -208 -219z" />
    <glyph glyph-name="umacron" unicode="&#x16b;" 
d="M141 553v85h318v-85h-318zM264 -10q-158 0 -158 179v273h107v-252q0 -58 17 -84.5t63 -26.5q58 0 94 40v323h107v-442h-93v60q-51 -70 -137 -70z" />
    <glyph glyph-name="Ubreve" unicode="&#x16c;" 
d="M300 627q-40 0 -74.5 15t-56 37t-34.5 42t-18 36l42 32q51 -75 141 -75t141 75l42 -32q-5 -16 -18 -36t-34.5 -42t-56 -37t-74.5 -15zM300 -10q-107 0 -157.5 54t-50.5 165v363h111v-363q0 -68 23 -95t74 -27t74 27t23 95v363h111v-363q0 -219 -208 -219z" />
    <glyph glyph-name="ubreve" unicode="&#x16d;" 
d="M300 518q-40 0 -74.5 15t-56 37t-34.5 42t-18 36l42 32q51 -75 141 -75t141 75l42 -32q-5 -16 -18 -36t-34.5 -42t-56 -37t-74.5 -15zM264 -10q-158 0 -158 179v273h107v-252q0 -58 17 -84.5t63 -26.5q58 0 94 40v323h107v-442h-93v60q-51 -70 -137 -70z" />
    <glyph glyph-name="Uring" unicode="&#x16e;" 
d="M300 596q-57 0 -95 37t-38 92t38 92t95 37t95 -37t38 -92t-38 -92t-95 -37zM300 655q31 0 50.5 19.5t19.5 50.5t-19.5 50.5t-50.5 19.5t-50.5 -19.5t-19.5 -50.5t19.5 -50.5t50.5 -19.5zM300 -10q-107 0 -157.5 54t-50.5 165v363h111v-363q0 -68 23 -95t74 -27t74 27
t23 95v363h111v-363q0 -219 -208 -219z" />
    <glyph glyph-name="uring" unicode="&#x16f;" 
d="M300 487q-57 0 -95 37t-38 92t38 92t95 37t95 -37t38 -92t-38 -92t-95 -37zM300 546q31 0 50.5 19.5t19.5 50.5t-19.5 50.5t-50.5 19.5t-50.5 -19.5t-19.5 -50.5t19.5 -50.5t50.5 -19.5zM264 -10q-158 0 -158 179v273h107v-252q0 -58 17 -84.5t63 -26.5q58 0 94 40v323
h107v-442h-93v60q-51 -70 -137 -70z" />
    <glyph glyph-name="Uhungarumlaut" unicode="&#x170;" 
d="M153 609l81 199h117l-137 -199h-61zM363 609l81 199h117l-137 -199h-61zM300 -10q-107 0 -157.5 54t-50.5 165v363h111v-363q0 -68 23 -95t74 -27t74 27t23 95v363h111v-363q0 -219 -208 -219z" />
    <glyph glyph-name="uhungarumlaut" unicode="&#x171;" 
d="M153 500l81 199h117l-137 -199h-61zM363 500l81 199h117l-137 -199h-61zM264 -10q-158 0 -158 179v273h107v-252q0 -58 17 -84.5t63 -26.5q58 0 94 40v323h107v-442h-93v60q-51 -70 -137 -70z" />
    <glyph glyph-name="Uogonek" unicode="&#x172;" 
d="M311 -192q-46 0 -72.5 17.5t-26.5 47.5q0 33 30 60t87 59q-10 -2 -29 -2q-107 0 -157.5 54t-50.5 165v363h111v-363q0 -68 23 -95t74 -27t74 27t23 95v363h111v-363q0 -125 -65 -178q-85 -69 -111 -95t-26 -45q0 -27 37 -27q25 0 52 10l10 -46q-40 -20 -94 -20z" />
    <glyph glyph-name="uogonek" unicode="&#x173;" 
d="M264 -10q-158 0 -158 179v273h107v-252q0 -58 17 -84.5t63 -26.5q58 0 94 40v323h107v-442q-57 -47 -78 -69t-21 -40q0 -27 37 -27q24 0 52 10l10 -46q-40 -20 -94 -20q-46 0 -72.5 17.5t-26.5 47.5q0 24 21 48.5t44 39.5t67 39l-24 61q-54 -71 -145 -71z" />
    <glyph glyph-name="Wcircumflex" unicode="&#x174;" 
d="M134 609l119 199h94l119 -199h-69l-97 110l-97 -110h-69zM100 0l-67 572h108l27 -288l13 -181l74 284h93l73 -283l14 180l26 288h106l-67 -572h-131l-69 251l-69 -251h-131z" />
    <glyph glyph-name="wcircumflex" unicode="&#x175;" 
d="M134 500l119 199h94l119 -199h-69l-97 110l-97 -110h-69zM112 0l-77 442h101l46 -357l63 269h112l65 -269l45 357h98l-77 -442h-125l-63 254l-63 -254h-125z" />
    <glyph glyph-name="Ycircumflex" unicode="&#x176;" 
d="M134 609l119 199h94l119 -199h-69l-97 110l-97 -110h-69zM244 0v226l-217 346h131l74 -125l69 -134l72 134l75 125h124l-216 -345v-227h-112z" />
    <glyph glyph-name="ycircumflex" unicode="&#x177;" 
d="M134 500l119 199h94l119 -199h-69l-97 110l-97 -110h-69zM69 -187v88q71 0 111 23.5t64 78.5l-196 439h120l85 -209l49 -136l50 135l86 210h114l-185 -420q-52 -118 -114.5 -163.5t-183.5 -45.5z" />
    <glyph glyph-name="Ydieresis" unicode="&#x178;" 
d="M132 644v118h118v-118h-118zM350 644v118h118v-118h-118zM244 0v226l-217 346h131l74 -125l69 -134l72 134l75 125h124l-216 -345v-227h-112z" />
    <glyph glyph-name="Zacute" unicode="&#x179;" 
d="M238 609l78 199h120l-134 -199h-64zM79 0v79l292 399h-287v94h430v-79l-293 -399h300v-94h-442z" />
    <glyph glyph-name="zacute" unicode="&#x17a;" 
d="M235 500l78 199h120l-134 -199h-64zM92 0v75l268 282h-263v85h406v-75l-269 -283h274v-84h-416z" />
    <glyph glyph-name="Zdotaccent" unicode="&#x17b;" 
d="M244 644v118h118v-118h-118zM79 0v79l292 399h-287v94h430v-79l-293 -399h300v-94h-442z" />
    <glyph glyph-name="zdotaccent" unicode="&#x17c;" 
d="M241 535v118h118v-118h-118zM92 0v75l268 282h-263v85h406v-75l-269 -283h274v-84h-416z" />
    <glyph glyph-name="Zcaron" unicode="&#x17d;" 
d="M256 609l-119 199h69l97 -111l97 111h69l-119 -199h-94zM79 0v79l292 399h-287v94h430v-79l-293 -399h300v-94h-442z" />
    <glyph glyph-name="zcaron" unicode="&#x17e;" 
d="M253 500l-119 199h69l97 -111l97 111h69l-119 -199h-94zM92 0v75l268 282h-263v85h406v-75l-269 -283h274v-84h-416z" />
    <glyph glyph-name="uni0180" unicode="&#x180;" 
d="M344 -10q-96 0 -146 68v-58h-93v499h-50v79h50v69h107v-69h105v-79h-105v-103q50 56 132 56q80 0 132.5 -58t52.5 -173t-53 -173t-132 -58zM311 79q108 0 108 142t-108 142q-58 0 -99 -39v-206q41 -39 99 -39z" />
    <glyph glyph-name="uni018F" unicode="&#x18f;" 
d="M297 -10q-118 0 -177 77t-59 217v27h364q-3 86 -32.5 132.5t-99.5 46.5q-103 0 -123 -103h-109q16 95 78 145t158 50q120 0 180.5 -77.5t60.5 -216.5q0 -138 -60 -218t-181 -80zM298 80q114 0 126 150h-251q6 -72 34.5 -111t90.5 -39z" />
    <glyph glyph-name="florin" unicode="&#x192;" 
d="M75 -187v84q169 0 169 132v216h-148v84h148v37q0 109 78.5 160t203.5 51v-84q-170 0 -170 -132v-32h153v-84h-153v-221q0 -109 -78 -160t-203 -51z" />
    <glyph glyph-name="Ohorn" unicode="&#x1a0;" 
d="M301 582q100 0 157 -54q25 6 35.5 23.5t10.5 49.5q0 23 -5 60h84q5 -24 5 -60q0 -103 -92 -122q41 -72 41 -190q0 -141 -59 -220t-179 -79q-119 0 -177.5 76t-58.5 217q0 142 59.5 220.5t178.5 78.5zM300 84q32 0 55.5 12t36.5 30t20.5 46.5t9.5 54t2 59.5q0 44 -4 75
t-16 62.5t-38 48t-66 16.5t-66 -16.5t-38 -48t-16 -62.5t-4 -75q0 -34 2 -59.5t9.5 -54t20.5 -46.5t36.5 -30t55.5 -12z" />
    <glyph glyph-name="ohorn" unicode="&#x1a1;" 
d="M300 -10q-97 0 -162.5 54t-65.5 177q0 64 20.5 111t55 72t72.5 36.5t80 11.5q108 0 168 -60q34 15 34 70q0 23 -5 60h84q5 -24 5 -60q0 -97 -82 -120q24 -50 24 -121q0 -63 -20.5 -110t-54.5 -72.5t-72.5 -37t-80.5 -11.5zM300 78q119 0 119 143t-119 143t-119 -143
t119 -143z" />
    <glyph glyph-name="Uhorn" unicode="&#x1af;" 
d="M300 -10q-107 0 -157.5 54t-50.5 165v363h111v-363q0 -68 23 -95t74 -27t74 27t23 95v363h45q41 0 57.5 18t16.5 58q0 23 -5 60h84q5 -24 5 -60q0 -103 -92 -123v-316q0 -219 -208 -219z" />
    <glyph glyph-name="uhorn" unicode="&#x1b0;" 
d="M264 -10q-158 0 -158 179v273h107v-252q0 -58 17 -84.5t63 -26.5q58 0 94 40v323h49q41 0 57.5 18t16.5 58q0 23 -5 60h84q5 -24 5 -60q0 -107 -100 -124v-394h-93v60q-51 -70 -137 -70z" />
    <glyph glyph-name="uni01CD" unicode="&#x1cd;" 
d="M253 609l-119 199h69l97 -111l97 111h69l-119 -199h-94zM40 0l201 572h118l201 -572h-119l-42 126h-201l-41 -126h-117zM242 273l-19 -59h148l-19 59l-55 185z" />
    <glyph glyph-name="uni01CE" unicode="&#x1ce;" 
d="M243 500l-119 199h69l97 -111l97 111h69l-119 -199h-94zM230 -10q-69 0 -112.5 31.5t-43.5 94.5q0 129 182 129q69 0 121 -16v36q0 50 -18 76t-74 26q-98 0 -98 -77h-101q0 58 30 95.5t74.5 52t101.5 14.5q192 0 192 -173v-183q0 -13 5.5 -18t18.5 -5q18 0 42 6v-71
q-40 -18 -85 -18q-72 0 -72 62v8q-56 -70 -163 -70zM255 70q77 0 122 37v56q-34 9 -98 9q-48 0 -73 -11.5t-25 -41.5q0 -49 74 -49z" />
    <glyph glyph-name="uni01CF" unicode="&#x1cf;" 
d="M253 609l-119 199h69l97 -111l97 111h69l-119 -199h-94zM105 0v94h139v384h-139v94h390v-94h-139v-384h139v-94h-390z" />
    <glyph glyph-name="uni01D0" unicode="&#x1d0;" 
d="M258 500l-119 199h69l97 -111l97 111h69l-119 -199h-94zM99 0v84h154v273h-154v85h261v-358h141v-84h-402z" />
    <glyph glyph-name="uni01D1" unicode="&#x1d1;" 
d="M253 609l-119 199h69l97 -111l97 111h69l-119 -199h-94zM299 -10q-119 0 -177.5 76t-58.5 217q0 142 59.5 220.5t178.5 78.5q120 0 178 -76.5t58 -216.5q0 -141 -59 -220t-179 -79zM300 84q32 0 55.5 12t36.5 30t20.5 46.5t9.5 54t2 59.5q0 44 -4 75t-16 62.5t-38 48
t-66 16.5t-66 -16.5t-38 -48t-16 -62.5t-4 -75q0 -34 2 -59.5t9.5 -54t20.5 -46.5t36.5 -30t55.5 -12z" />
    <glyph glyph-name="uni01D2" unicode="&#x1d2;" 
d="M253 500l-119 199h69l97 -111l97 111h69l-119 -199h-94zM300 -10q-97 0 -162.5 54t-65.5 177q0 64 20.5 111t55 72t72.5 36.5t80 11.5q45 0 83.5 -11.5t72 -36.5t53 -71.5t19.5 -111.5q0 -63 -20.5 -110t-54.5 -72.5t-72.5 -37t-80.5 -11.5zM300 78q119 0 119 143
t-119 143t-119 -143t119 -143z" />
    <glyph glyph-name="uni01D3" unicode="&#x1d3;" 
d="M253 609l-119 199h69l97 -111l97 111h69l-119 -199h-94zM300 -10q-107 0 -157.5 54t-50.5 165v363h111v-363q0 -68 23 -95t74 -27t74 27t23 95v363h111v-363q0 -219 -208 -219z" />
    <glyph glyph-name="uni01D4" unicode="&#x1d4;" 
d="M253 500l-119 199h69l97 -111l97 111h69l-119 -199h-94zM264 -10q-158 0 -158 179v273h107v-252q0 -58 17 -84.5t63 -26.5q58 0 94 40v323h107v-442h-93v60q-51 -70 -137 -70z" />
    <glyph glyph-name="uni01D5" unicode="&#x1d5;" 
d="M135 614v92h111v-92h-111zM354 614v92h111v-92h-111zM142 764v73h316v-73h-316zM300 -10q-107 0 -157.5 54t-50.5 165v363h111v-363q0 -68 23 -95t74 -27t74 27t23 95v363h111v-363q0 -219 -208 -219z" />
    <glyph glyph-name="uni01D6" unicode="&#x1d6;" 
d="M135 545v110h111v-110h-111zM354 545v110h111v-110h-111zM142 727v79h316v-79h-316zM264 -10q-158 0 -158 179v273h107v-252q0 -58 17 -84.5t63 -26.5q58 0 94 40v323h107v-442h-93v60q-51 -70 -137 -70z" />
    <glyph glyph-name="uni01D7" unicode="&#x1d7;" 
d="M135 614v92h111v-92h-111zM354 614v92h111v-92h-111zM272 724l57 151h116l-117 -151h-56zM300 -10q-107 0 -157.5 54t-50.5 165v363h111v-363q0 -68 23 -95t74 -27t74 27t23 95v363h111v-363q0 -219 -208 -219z" />
    <glyph glyph-name="uni01D8" unicode="&#x1d8;" 
d="M135 545v110h111v-110h-111zM354 545v110h111v-110h-111zM270 688l71 185h118l-128 -185h-61zM264 -10q-158 0 -158 179v273h107v-252q0 -58 17 -84.5t63 -26.5q58 0 94 40v323h107v-442h-93v60q-51 -70 -137 -70z" />
    <glyph glyph-name="uni01D9" unicode="&#x1d9;" 
d="M135 614v92h111v-92h-111zM354 614v92h111v-92h-111zM259 724l-113 151h66l88 -83l88 83h66l-113 -151h-82zM300 -10q-107 0 -157.5 54t-50.5 165v363h111v-363q0 -68 23 -95t74 -27t74 27t23 95v363h111v-363q0 -219 -208 -219z" />
    <glyph glyph-name="uni01DA" unicode="&#x1da;" 
d="M135 545v110h111v-110h-111zM354 545v110h111v-110h-111zM256 687l-122 186h69l97 -106l97 106h69l-122 -186h-88zM264 -10q-158 0 -158 179v273h107v-252q0 -58 17 -84.5t63 -26.5q58 0 94 40v323h107v-442h-93v60q-51 -70 -137 -70z" />
    <glyph glyph-name="uni01DB" unicode="&#x1db;" 
d="M465 706v-92h-111v92h111zM246 706v-92h-111v92h111zM271 875l57 -151h-56l-117 151h116zM300 -10q-107 0 -157.5 54t-50.5 165v363h111v-363q0 -68 23 -95t74 -27t74 27t23 95v363h111v-363q0 -219 -208 -219z" />
    <glyph glyph-name="uni01DC" unicode="&#x1dc;" 
d="M135 545v110h111v-110h-111zM354 545v110h111v-110h-111zM260 873l71 -185h-61l-128 185h118zM264 -10q-158 0 -158 179v273h107v-252q0 -58 17 -84.5t63 -26.5q58 0 94 40v323h107v-442h-93v60q-51 -70 -137 -70z" />
    <glyph glyph-name="uni01E6" unicode="&#x1e6;" 
d="M248 609l-119 199h69l97 -111l97 111h69l-119 -199h-94zM272 -10q-110 0 -160 81.5t-50 214.5q0 139 59.5 217.5t178.5 78.5q208 0 217 -199h-112q-5 52 -30 78t-75 26q-40 0 -66 -16.5t-37.5 -48.5t-15.5 -62.5t-4 -73.5q0 -48 4.5 -80.5t17.5 -61.5t39.5 -43.5
t66.5 -14.5q60 0 102 40v101h-120v86h229v-313h-94v61q-54 -71 -150 -71z" />
    <glyph glyph-name="uni01E7" unicode="&#x1e7;" 
d="M236 500l-119 199h69l97 -111l97 111h69l-119 -199h-94zM281 -192q-198 0 -202 166h103q2 -42 25.5 -63.5t77.5 -21.5q63 0 83 27.5t20 80.5v63q-51 -53 -129 -53q-82 0 -135 56t-53 165t54 166.5t134 57.5q50 0 87.5 -20t55.5 -47v57h93v-454q0 -180 -214 -180zM291 95
q57 0 97 38v192q-41 39 -97 39t-83 -36t-27 -99t27 -98.5t83 -35.5z" />
    <glyph glyph-name="uni01EA" unicode="&#x1ea;" 
d="M313 -192q-46 0 -72.5 17.5t-26.5 47.5q0 33 31 60.5t90 60.5q-16 -4 -41 -4q-116 0 -173.5 76t-57.5 217q0 142 59.5 220.5t178.5 78.5q120 0 178 -76.5t58 -216.5q0 -97 -27 -162t-103 -127q-57 -47 -78 -69t-21 -40q0 -27 37 -27q25 0 52 10l10 -46q-40 -20 -94 -20z
M300 84q32 0 55.5 12t36.5 30t20.5 46.5t9.5 54t2 59.5q0 44 -4 75t-16 62.5t-38 48t-66 16.5t-66 -16.5t-38 -48t-16 -62.5t-4 -75q0 -34 2 -59.5t9.5 -54t20.5 -46.5t36.5 -30t55.5 -12z" />
    <glyph glyph-name="uni01EB" unicode="&#x1eb;" 
d="M213 -127q0 34 31.5 61.5t90.5 59.5q-15 -4 -37 -4q-43 0 -81 11.5t-71.5 36.5t-53.5 72t-20 111t20.5 111t55 72t72.5 36.5t80 11.5q45 0 83.5 -11.5t72 -36.5t53 -71.5t19.5 -111.5q0 -73 -23.5 -116t-72.5 -84l-32 -25.5l-34.5 -28l-28.5 -25.5t-22.5 -27t-7.5 -24
q0 -27 37 -27q24 0 52 10l10 -46q-40 -20 -94 -20q-46 0 -72.5 17.5t-26.5 47.5zM300 78q119 0 119 143t-119 143t-119 -143t119 -143z" />
    <glyph glyph-name="uni01F8" unicode="&#x1f8;" 
d="M300 609l-134 199h120l78 -199h-64zM106 0v572h141l162 -464l-13 180v284h98v-572h-141l-162 464l13 -180v-284h-98z" />
    <glyph glyph-name="uni01F9" unicode="&#x1f9;" 
d="M300 500l-134 199h120l78 -199h-64zM106 0v442h93v-60q51 70 137 70q158 0 158 -179v-273h-107v252q0 58 -17 84.5t-63 26.5q-58 0 -94 -40v-323h-107z" />
    <glyph glyph-name="AEacute" unicode="&#x1fc;" 
d="M245 609l78 199h120l-134 -199h-64zM7 0l89 572h459v-94h-177v-141h143v-93h-143v-150h177v-94h-288v244h-112l-37 -244h-111zM189 478l-21 -141h99v141h-78z" />
    <glyph glyph-name="aeacute" unicode="&#x1fd;" 
d="M238 500l78 199h120l-134 -199h-64zM162 -10q-59 0 -98.5 34t-39.5 93q0 68 42.5 97.5t106.5 29.5q45 0 84 -11v39q0 95 -64 95q-61 0 -61 -77h-98q0 72 41 117t113 45q86 0 117 -61q35 61 109 61q81 0 122 -60t41 -171v-12h-228q3 -139 71 -139q61 0 61 91h96
q0 -76 -41 -123.5t-116 -47.5q-78 0 -121 60q-52 -60 -137 -60zM186 68q50 0 89 27q-12 30 -17 74q-25 5 -61 5q-75 0 -75 -54q0 -52 64 -52zM351 272h125q-10 101 -62 101t-63 -101z" />
    <glyph glyph-name="Oslashacute" unicode="&#x1fe;" 
d="M235 609l78 199h120l-134 -199h-64zM299 -10q-104 0 -163 59l-43 -49h-85l90 103q-35 69 -35 180q0 142 59.5 220.5t178.5 78.5q105 0 163 -60l43 50h85l-90 -104q35 -72 35 -179q0 -141 -59 -220t-179 -79zM300 84q32 0 55.5 12t36.5 30t20.5 46.5t9.5 54t2 59.5
q0 53 -6 87l-212 -243q30 -46 94 -46zM181 199l213 243q-31 46 -94 46q-40 0 -66 -16.5t-38 -48t-16 -62.5t-4 -75q0 -53 5 -87z" />
    <glyph glyph-name="oslashacute" unicode="&#x1ff;" 
d="M235 500l78 199h120l-134 -199h-64zM300 -10q-96 0 -155 47l-40 -37h-88l89 82q-34 55 -34 139q0 64 20.5 111t55 72t72.5 36.5t80 11.5q96 0 155 -47l40 37h88l-89 -82q34 -55 34 -139q0 -63 -20.5 -110t-54.5 -72.5t-72.5 -37t-80.5 -11.5zM300 78q119 0 119 143
q0 35 -8 62l-192 -178q30 -27 81 -27zM188 158l193 179q-30 27 -81 27q-119 0 -119 -143q0 -38 7 -63z" />
    <glyph glyph-name="Scommaaccent" unicode="&#x218;" 
d="M260 -253q-29 0 -29 25q0 4 3 28l20 159h113l-74 -191q-9 -21 -33 -21zM298 -10q-101 0 -162 46t-61 136h108q7 -90 117 -90q54 0 84 18.5t30 52.5q0 27 -18 42t-55 28l-128 42q-124 41 -124 152q0 78 59.5 121.5t153.5 43.5q92 0 150 -44t59 -135h-109q-3 46 -27.5 66.5
t-73.5 20.5q-51 0 -77 -18.5t-25 -47.5q1 -25 15 -40.5t48 -26.5l130 -43q61 -20 96.5 -55t35.5 -98q0 -83 -63 -127t-163 -44z" />
    <glyph glyph-name="scommaaccent" unicode="&#x219;" 
d="M259 -253q-29 0 -29 25q0 4 3 28l20 159h113l-74 -191q-9 -21 -33 -21zM297 -10q-96 0 -156 36t-62 113h105q6 -67 119 -67q109 0 109 50q0 27 -31 39t-100 24q-16 2 -25 4q-79 14 -124 42t-45 91q0 65 57.5 97.5t145.5 32.5q200 0 210 -140h-105q-8 58 -104 58
q-95 0 -95 -42q0 -29 46 -43q24 -7 112 -21q48 -8 81.5 -19.5t60 -40t26.5 -71.5q0 -75 -61.5 -109t-163.5 -34z" />
    <glyph glyph-name="uni021A" unicode="&#x21a;" 
d="M260 -253q-29 0 -29 25q0 4 3 28l20 159h113l-74 -191q-9 -21 -33 -21zM244 0v478h-189v94h490v-94h-189v-478h-112z" />
    <glyph glyph-name="uni021B" unicode="&#x21b;" 
d="M318 -253q-29 0 -29 25q0 4 3 28l20 159h113l-74 -191q-9 -21 -33 -21zM369 -10q-90 0 -132 43.5t-42 154.5v169h-141v85h141v205h107v-205h217v-85h-217v-165q0 -64 18 -88t72 -24q58 0 110 22v-86q-59 -26 -133 -26z" />
    <glyph glyph-name="uni0226" unicode="&#x226;" 
d="M241 644v118h118v-118h-118zM40 0l201 572h118l201 -572h-119l-42 126h-201l-41 -126h-117zM242 273l-19 -59h148l-19 59l-55 185z" />
    <glyph glyph-name="uni0227" unicode="&#x227;" 
d="M231 535v118h118v-118h-118zM230 -10q-69 0 -112.5 31.5t-43.5 94.5q0 129 182 129q69 0 121 -16v36q0 50 -18 76t-74 26q-98 0 -98 -77h-101q0 58 30 95.5t74.5 52t101.5 14.5q192 0 192 -173v-183q0 -13 5.5 -18t18.5 -5q18 0 42 6v-71q-40 -18 -85 -18q-72 0 -72 62v8
q-56 -70 -163 -70zM255 70q77 0 122 37v56q-34 9 -98 9q-48 0 -73 -11.5t-25 -41.5q0 -49 74 -49z" />
    <glyph glyph-name="uni022E" unicode="&#x22e;" 
d="M241 644v118h118v-118h-118zM299 -10q-119 0 -177.5 76t-58.5 217q0 142 59.5 220.5t178.5 78.5q120 0 178 -76.5t58 -216.5q0 -141 -59 -220t-179 -79zM300 84q32 0 55.5 12t36.5 30t20.5 46.5t9.5 54t2 59.5q0 44 -4 75t-16 62.5t-38 48t-66 16.5t-66 -16.5t-38 -48
t-16 -62.5t-4 -75q0 -34 2 -59.5t9.5 -54t20.5 -46.5t36.5 -30t55.5 -12z" />
    <glyph glyph-name="uni022F" unicode="&#x22f;" 
d="M241 535v118h118v-118h-118zM300 -10q-97 0 -162.5 54t-65.5 177q0 64 20.5 111t55 72t72.5 36.5t80 11.5q45 0 83.5 -11.5t72 -36.5t53 -71.5t19.5 -111.5q0 -63 -20.5 -110t-54.5 -72.5t-72.5 -37t-80.5 -11.5zM300 78q119 0 119 143t-119 143t-119 -143t119 -143z" />
    <glyph glyph-name="uni0237" unicode="&#x237;" 
d="M130 -187v84q89 0 133.5 35.5t44.5 122.5v302h-171v85h278v-392q0 -237 -285 -237z" />
    <glyph glyph-name="uni0243" unicode="&#x243;" 
d="M106 0v134h-49v75h49v363h196q99 0 157 -43t58 -117q0 -79 -75 -115q40 -14 68.5 -46.5t28.5 -84.5q0 -74 -60.5 -120t-158.5 -46h-214zM217 479v-144h72q60 0 86 17.5t26 52.5q0 74 -109 74h-75zM317 134h-100v-42h96q110 0 110 79q0 76 -112 76h-94v-38h100v-75z" />
    <glyph glyph-name="uni0259" unicode="&#x259;" 
d="M300 -10q-45 0 -83.5 12t-72 37.5t-52.5 72t-19 109.5v24h346q-5 124 -127 124q-45 0 -73.5 -17.5t-34.5 -49.5h-110q15 79 76.5 114.5t143.5 35.5q104 0 168.5 -55.5t64.5 -173.5q0 -64 -19.5 -111t-53.5 -72.5t-72 -37.5t-82 -12zM300 73q46 0 78.5 24t38.5 73h-234
q6 -49 38.5 -73t78.5 -24z" />
    <glyph glyph-name="uni02BB" unicode="&#x2bb;" 
d="M232 507l74 191q9 21 33 21q29 0 29 -25q0 -4 -3 -28l-20 -159h-113z" />
    <glyph glyph-name="uni02BC" unicode="&#x2bc;" 
d="M364 647l-74 -191q-9 -21 -33 -21q-29 0 -29 25q0 4 3 28l20 159h113z" />
    <glyph glyph-name="circumflex" unicode="&#x2c6;" 
d="M134 500l119 199h94l119 -199h-69l-97 110l-97 -110h-69z" />
    <glyph glyph-name="caron" unicode="&#x2c7;" 
d="M253 500l-119 199h69l97 -111l97 111h69l-119 -199h-94z" />
    <glyph glyph-name="breve" unicode="&#x2d8;" 
d="M300 518q-40 0 -74.5 15t-56 37t-34.5 42t-18 36l42 32q51 -75 141 -75t141 75l42 -32q-5 -16 -18 -36t-34.5 -42t-56 -37t-74.5 -15z" />
    <glyph glyph-name="dotaccent" unicode="&#x2d9;" 
d="M241 535v118h118v-118h-118z" />
    <glyph glyph-name="ring" unicode="&#x2da;" 
d="M300 487q-57 0 -95 37t-38 92t38 92t95 37t95 -37t38 -92t-38 -92t-95 -37zM300 546q31 0 50.5 19.5t19.5 50.5t-19.5 50.5t-50.5 19.5t-50.5 -19.5t-19.5 -50.5t19.5 -50.5t50.5 -19.5z" />
    <glyph glyph-name="ogonek" unicode="&#x2db;" 
d="M303 -192q-46 0 -72.5 17.5t-26.5 47.5q0 24 21 48.5t44 39.5t67 39h61q-57 -47 -78 -69t-21 -40q0 -27 37 -27q25 0 52 10l10 -46q-40 -20 -94 -20z" />
    <glyph glyph-name="tilde" unicode="&#x2dc;" 
d="M160 518l-48 23q16 51 46.5 90t76.5 39q33 0 75 -32q41 -31 60 -31q37 0 70 63l48 -23q-16 -51 -46.5 -90t-76.5 -39q-33 0 -74 31q-42 32 -61 32q-37 0 -70 -63z" />
    <glyph glyph-name="hungarumlaut" unicode="&#x2dd;" 
d="M96 500l81 199h117l-137 -199h-61zM306 500l81 199h117l-137 -199h-61z" />
    <glyph glyph-name="uni0300" unicode="&#x300;" horiz-adv-x="0" 
d="M0 500l-134 199h120l78 -199h-64z" />
    <glyph glyph-name="uni0301" unicode="&#x301;" horiz-adv-x="0" 
d="M-65 500l78 199h120l-134 -199h-64z" />
    <glyph glyph-name="uni0302" unicode="&#x302;" horiz-adv-x="0" 
d="M-166 500l119 199h94l119 -199h-69l-97 110l-97 -110h-69z" />
    <glyph glyph-name="uni0303" unicode="&#x303;" horiz-adv-x="0" 
d="M-140 518l-48 23q16 51 46.5 90t76.5 39q33 0 75 -32q41 -31 60 -31q37 0 70 63l48 -23q-16 -51 -46.5 -90t-76.5 -39q-33 0 -74 31q-42 32 -61 32q-37 0 -70 -63z" />
    <glyph glyph-name="uni0304" unicode="&#x304;" horiz-adv-x="0" 
d="M-159 553v85h318v-85h-318z" />
    <glyph glyph-name="uni0306" unicode="&#x306;" horiz-adv-x="0" 
d="M0 518q-40 0 -74.5 15t-56 37t-34.5 42t-18 36l42 32q51 -75 141 -75t141 75l42 -32q-5 -16 -18 -36t-34.5 -42t-56 -37t-74.5 -15z" />
    <glyph glyph-name="uni0307" unicode="&#x307;" horiz-adv-x="0" 
d="M-59 535v118h118v-118h-118z" />
    <glyph glyph-name="uni0308" unicode="&#x308;" horiz-adv-x="0" 
d="M-168 535v118h118v-118h-118zM50 535v118h118v-118h-118z" />
    <glyph glyph-name="uni0309" unicode="&#x309;" horiz-adv-x="0" 
d="M-8 495l-27 36q68 51 68 86q0 38 -42 38q-44 0 -44 -41h-66q0 52 30.5 77t83.5 25q52 0 81 -23t29 -63q0 -38 -27 -68t-86 -67z" />
    <glyph glyph-name="uni030A" unicode="&#x30a;" horiz-adv-x="0" 
d="M0 487q-57 0 -95 37t-38 92t38 92t95 37t95 -37t38 -92t-38 -92t-95 -37zM0 546q31 0 50.5 19.5t19.5 50.5t-19.5 50.5t-50.5 19.5t-50.5 -19.5t-19.5 -50.5t19.5 -50.5t50.5 -19.5z" />
    <glyph glyph-name="uni030B" unicode="&#x30b;" horiz-adv-x="0" 
d="M-147 500l81 199h117l-137 -199h-61zM63 500l81 199h117l-137 -199h-61z" />
    <glyph glyph-name="uni030C" unicode="&#x30c;" horiz-adv-x="0" 
d="M-47 500l-119 199h69l97 -111l97 111h69l-119 -199h-94z" />
    <glyph glyph-name="uni030D" unicode="&#x30d;" horiz-adv-x="0" 
d="M-38 500v199h76v-199h-76z" />
    <glyph glyph-name="uni030E" unicode="&#x30e;" horiz-adv-x="0" 
d="M45 500v199h76v-199h-76zM-121 500v199h76v-199h-76z" />
    <glyph glyph-name="uni030F" unicode="&#x30f;" horiz-adv-x="0" 
d="M-124 500l-137 199h117l81 -199h-61zM86 500l-137 199h117l81 -199h-61z" />
    <glyph glyph-name="uni0312" unicode="&#x312;" horiz-adv-x="0" 
d="M-61 507l74 191q9 21 33 21q29 0 29 -25q0 -4 -3 -28l-20 -159h-113z" />
    <glyph glyph-name="uni0313" unicode="&#x313;" horiz-adv-x="0" 
d="M102 719l-74 -191q-9 -21 -33 -21q-29 0 -29 25q0 4 3 28l20 159h113z" />
    <glyph glyph-name="uni0315" unicode="&#x315;" horiz-adv-x="0" 
d="M64 647l-74 -191q-9 -21 -33 -21q-29 0 -29 25q0 4 3 28l20 159h113z" />
    <glyph glyph-name="uni031B" unicode="&#x31b;" horiz-adv-x="0" 
d="M-79 390v52q41 0 57.5 18t16.5 58q0 23 -5 60h84q5 -24 5 -60q0 -71 -39 -99.5t-119 -28.5z" />
    <glyph glyph-name="uni0323" unicode="&#x323;" horiz-adv-x="0" 
d="M-59 -182v118h118v-118h-118z" />
    <glyph glyph-name="uni0324" unicode="&#x324;" horiz-adv-x="0" 
d="M-168 -182v118h118v-118h-118zM50 -182v118h118v-118h-118z" />
    <glyph glyph-name="uni0326" unicode="&#x326;" horiz-adv-x="0" 
d="M-40 -253q-29 0 -29 25q0 4 3 28l20 159h113l-74 -191q-9 -21 -33 -21z" />
    <glyph glyph-name="uni0327" unicode="&#x327;" horiz-adv-x="0" 
d="M13 -192q-55 0 -91 18l11 47q25 -11 53 -11q36 0 36 20q0 28 -77 42l16 76h54l-8 -39q108 -26 108 -87q0 -29 -26 -47.5t-76 -18.5z" />
    <glyph glyph-name="uni0328" unicode="&#x328;" horiz-adv-x="0" 
d="M-56 -192q-46 0 -72.5 17.5t-26.5 47.5q0 24 21 48.5t44 39.5t67 39h61q-57 -47 -78 -69t-21 -40q0 -27 37 -27q24 0 52 10l10 -46q-40 -20 -94 -20z" />
    <glyph glyph-name="uni032E" unicode="&#x32e;" horiz-adv-x="0" 
d="M0 -198q-74 0 -121 41.5t-60 79.5l42 33q48 -68 139 -68t139 68l42 -33q-13 -38 -60 -79.5t-121 -41.5z" />
    <glyph glyph-name="uni0331" unicode="&#x331;" horiz-adv-x="0" 
d="M-159 -163v85h318v-85h-318z" />
    <glyph glyph-name="uni0340" unicode="&#x340;" horiz-adv-x="0" 
d="M0 500l-134 199h120l78 -199h-64z" />
    <glyph glyph-name="uni0341" unicode="&#x341;" horiz-adv-x="0" 
d="M-65 500l78 199h120l-134 -199h-64z" />
    <glyph glyph-name="uni0342" unicode="&#x342;" horiz-adv-x="0" 
d="M-140 518l-48 23q16 51 46.5 90t76.5 39q33 0 75 -32q41 -31 60 -31q37 0 70 63l48 -23q-16 -51 -46.5 -90t-76.5 -39q-33 0 -74 31q-42 32 -61 32q-37 0 -70 -63z" />
    <glyph glyph-name="uni0343" unicode="&#x343;" horiz-adv-x="0" 
d="M102 719l-74 -191q-9 -21 -33 -21q-29 0 -29 25q0 4 3 28l20 159h113z" />
    <glyph glyph-name="tonos" unicode="&#x384;" 
d="M279 499l-39 200h120l-39 -200h-42z" />
    <glyph glyph-name="dieresistonos" unicode="&#x385;" 
d="M104 545v106h106v-106h-106zM282 500l-35 199h106l-35 -199h-36zM390 545v106h106v-106h-106z" />
    <glyph glyph-name="Alphatonos" unicode="&#x386;" 
d="M71 372l-39 200h120l-39 -200h-42zM59 0l201 572h118l201 -572h-119l-42 126h-201l-41 -126h-117zM261 273l-19 -59h148l-19 59l-55 185z" />
    <glyph glyph-name="Epsilontonos" unicode="&#x388;" 
d="M212 0v572h318v-94h-207v-140h165v-93h-165v-151h207v-94h-318zM57 372l-38 200h120l-39 -200h-43z" />
    <glyph glyph-name="Etatonos" unicode="&#x389;" 
d="M207 0v572h98v-237h129v237h98v-572h-98v249h-129v-249h-98zM58 372l-39 200h120l-39 -200h-42z" />
    <glyph glyph-name="Iotatonos" unicode="&#x38a;" 
d="M184 0v94h117v384h-117v94h346v-94h-117v-384h117v-94h-346zM58 372l-39 200h120l-39 -200h-42z" />
    <glyph glyph-name="Omicrontonos" unicode="&#x38c;" 
d="M361 -10q-199 0 -199 296q0 140 49 218t150 78q199 0 199 -296q0 -140 -49 -218t-150 -78zM361 82q89 0 89 204t-89 204t-89 -204t89 -204zM54 372l-39 200h120l-39 -200h-42z" />
    <glyph glyph-name="Upsilontonos" unicode="&#x38e;" 
d="M315 0v227l-166 345h113l62 -133l46 -120l46 120l62 133h106l-166 -345v-227h-103zM54 372l-39 200h120l-39 -200h-42z" />
    <glyph glyph-name="Omegatonos" unicode="&#x38f;" 
d="M152 0v82h95q-88 101 -88 246q0 119 50.5 186.5t149.5 67.5q100 0 149.5 -67t49.5 -187q0 -145 -88 -246h95v-82h-177v73q59 117 59 249q0 168 -88 168q-89 0 -89 -168q0 -135 59 -249v-73h-177zM54 372l-39 200h120l-39 -200h-42z" />
    <glyph glyph-name="iotadieresistonos" unicode="&#x390;" 
d="M98 535v106h106v-106h-106zM276 490l-35 199h106l-35 -199h-36zM384 535v106h106v-106h-106zM415 -10q-89 0 -131.5 44.5t-42.5 153.5v169h-154v85h261v-247q0 -64 18 -89t69 -25t92 16v-88q-45 -19 -112 -19z" />
    <glyph glyph-name="Alpha" unicode="&#x391;" 
d="M40 0l201 572h118l201 -572h-119l-42 126h-201l-41 -126h-117zM242 273l-19 -59h148l-19 59l-55 185z" />
    <glyph glyph-name="Beta" unicode="&#x392;" 
d="M106 0v572h196q99 0 157 -43t58 -117q0 -79 -75 -115q40 -14 68.5 -46.5t28.5 -84.5q0 -74 -60.5 -120t-158.5 -46h-214zM217 247v-155h96q110 0 110 79q0 76 -112 76h-94zM217 479v-144h72q60 0 86 17.5t26 52.5q0 74 -109 74h-75z" />
    <glyph glyph-name="Gamma" unicode="&#x393;" 
d="M106 0v572h404v-93h-292v-479h-112z" />
    <glyph glyph-name="uni0394" unicode="&#x394;" 
d="M58 0v78l182 494h121l182 -494v-78h-485zM236 274l-62 -185h248l-62 184l-62 190z" />
    <glyph glyph-name="Epsilon" unicode="&#x395;" 
d="M106 0v572h399v-94h-288v-140h247v-94h-247v-150h288v-94h-399z" />
    <glyph glyph-name="Zeta" unicode="&#x396;" 
d="M79 0v79l292 399h-287v94h430v-79l-293 -399h300v-94h-442z" />
    <glyph glyph-name="Eta" unicode="&#x397;" 
d="M106 0v572h111v-234h166v234h111v-572h-111v245h-166v-245h-111z" />
    <glyph glyph-name="Theta" unicode="&#x398;" 
d="M299 -10q-119 0 -177.5 76t-58.5 217q0 142 59.5 220.5t178.5 78.5q120 0 178 -76.5t58 -216.5q0 -141 -59 -220t-179 -79zM300 84q32 0 55.5 12t36.5 30t20.5 46.5t9.5 54t2 59.5q0 44 -4 75t-16 62.5t-38 48t-66 16.5t-66 -16.5t-38 -48t-16 -62.5t-4 -75
q0 -34 2 -59.5t9.5 -54t20.5 -46.5t36.5 -30t55.5 -12zM211 248v78h178v-78h-178z" />
    <glyph glyph-name="Iota" unicode="&#x399;" 
d="M105 0v94h139v384h-139v94h390v-94h-139v-384h139v-94h-390z" />
    <glyph glyph-name="Kappa" unicode="&#x39a;" 
d="M106 0v572h111v-242l208 242h133l-210 -234l225 -338h-136l-162 259l-58 -63v-196h-111z" />
    <glyph glyph-name="Lambda" unicode="&#x39b;" 
d="M37 0l206 572h114l206 -572h-125l-94 289l-47 161l-47 -160l-93 -290h-120z" />
    <glyph glyph-name="Mu" unicode="&#x39c;" 
d="M75 0v572h138l54 -166l36 -126l34 126l54 166h134v-572h-99v292l12 176l-99 -313h-78l-99 313l12 -176v-292h-99z" />
    <glyph glyph-name="Nu" unicode="&#x39d;" 
d="M106 0v572h141l162 -464l-13 180v284h98v-572h-141l-162 464l13 -180v-284h-98z" />
    <glyph glyph-name="Xi" unicode="&#x39e;" 
d="M95 0v94h410v-94h-410zM142 244v94h316v-94h-316zM95 478v94h410v-94h-410z" />
    <glyph glyph-name="Omicron" unicode="&#x39f;" 
d="M299 -10q-119 0 -177.5 76t-58.5 217q0 142 59.5 220.5t178.5 78.5q120 0 178 -76.5t58 -216.5q0 -141 -59 -220t-179 -79zM300 84q32 0 55.5 12t36.5 30t20.5 46.5t9.5 54t2 59.5q0 44 -4 75t-16 62.5t-38 48t-66 16.5t-66 -16.5t-38 -48t-16 -62.5t-4 -75
q0 -34 2 -59.5t9.5 -54t20.5 -46.5t36.5 -30t55.5 -12z" />
    <glyph glyph-name="Pi" unicode="&#x3a0;" 
d="M106 0v572h388v-572h-111v478h-166v-478h-111z" />
    <glyph glyph-name="Rho" unicode="&#x3a1;" 
d="M106 0v572h188q110 0 177 -47t67 -142t-66.5 -142t-177.5 -47h-77v-194h-111zM217 478v-191h78q128 0 128 96q0 95 -128 95h-78z" />
    <glyph glyph-name="Sigma" unicode="&#x3a3;" 
d="M90 0v79l220 207l-220 207v79h422v-94h-267l169 -155v-74l-169 -155h267v-94h-422z" />
    <glyph glyph-name="Tau" unicode="&#x3a4;" 
d="M244 0v478h-189v94h490v-94h-189v-478h-112z" />
    <glyph glyph-name="Upsilon" unicode="&#x3a5;" 
d="M244 0v226l-217 346h131l74 -125l69 -134l72 134l75 125h124l-216 -345v-227h-112z" />
    <glyph glyph-name="Phi" unicode="&#x3a6;" 
d="M250 0v48q-103 5 -166.5 70.5t-63.5 166.5t63.5 168t166.5 71v48h100v-48q103 -4 166.5 -70t63.5 -167t-64 -167.5t-166 -71.5v-48h-100zM250 137v299q-61 -3 -92 -46.5t-31 -103.5t31.5 -103.5t91.5 -45.5zM350 137q60 2 91.5 45.5t31.5 103.5t-31 103.5t-92 46.5v-299z
" />
    <glyph glyph-name="Chi" unicode="&#x3a7;" 
d="M39 0l197 292l-185 280h131l77 -126l43 -72l45 72l78 126h125l-186 -275l197 -297h-131l-88 143l-44 73l-43 -73l-92 -143h-124z" />
    <glyph glyph-name="Psi" unicode="&#x3a8;" 
d="M247 0v169q-95 0 -155 52.5t-60 154.5v196h107v-187q0 -124 108 -124v311h107v-311q108 0 108 124v187h107v-196q0 -101 -61.5 -154t-153.5 -53v-169h-107z" />
    <glyph glyph-name="uni03A9" unicode="&#x3a9;" 
d="M55 0v85h112q-41 32 -71.5 93.5t-30.5 147.5q0 120 60.5 188t174.5 68q116 0 175.5 -65.5t59.5 -188.5q0 -87 -30.5 -149t-71.5 -94h112v-85h-206v77q82 107 82 240q0 170 -121 170t-121 -170q0 -133 82 -240v-77h-206z" />
    <glyph glyph-name="Iotadieresis" unicode="&#x3aa;" 
d="M132 644v118h118v-118h-118zM350 644v118h118v-118h-118zM105 0v94h139v384h-139v94h390v-94h-139v-384h139v-94h-390z" />
    <glyph glyph-name="Upsilondieresis" unicode="&#x3ab;" 
d="M132 644v118h118v-118h-118zM350 644v118h118v-118h-118zM244 0v226l-217 346h131l74 -125l69 -134l72 134l75 125h124l-216 -345v-227h-112z" />
    <glyph glyph-name="alphatonos" unicode="&#x3ac;" 
d="M252 489l-39 200h120l-39 -200h-42zM250 -10q-79 0 -129 58t-50 170q0 115 51.5 174.5t130.5 59.5q97 0 148 -85v75h94v-346q0 -13 5.5 -17.5t19.5 -4.5q17 0 42 5v-71q-38 -18 -85 -18q-76 0 -76 72v12q-49 -84 -151 -84zM282 80q33 0 62 18.5t44 42.5v160
q-15 25 -44 43.5t-62 18.5q-100 0 -100 -142q0 -141 100 -141z" />
    <glyph glyph-name="epsilontonos" unicode="&#x3ad;" 
d="M284 489l-39 200h120l-39 -200h-42zM303 -10q-101 0 -158.5 35.5t-57.5 99.5q0 37 22.5 66t60.5 41q-69 26 -69 94q0 62 56.5 94t147.5 32q89 0 144.5 -35t61.5 -112h-102q-5 64 -107 64q-94 0 -94 -51q0 -53 96 -53h39v-72h-39q-107 0 -107 -60t107 -60q105 0 111 65
h101q-4 -77 -62 -112.5t-151 -35.5z" />
    <glyph glyph-name="etatonos" unicode="&#x3ae;" 
d="M279 499l-39 200h120l-39 -200h-42zM387 -182v434q0 58 -17 84.5t-63 26.5q-58 0 -94 -40v-323h-107v442h93v-60q51 70 137 70q158 0 158 -179v-455h-107z" />
    <glyph glyph-name="iotatonos" unicode="&#x3af;" 
d="M273 489l-39 200h120l-39 -200h-42zM415 -10q-89 0 -131.5 44.5t-42.5 153.5v169h-154v85h261v-247q0 -64 18 -89t69 -25t92 16v-88q-45 -19 -112 -19z" />
    <glyph glyph-name="upsilondieresistonos" unicode="&#x3b0;" 
d="M104 545v106h106v-106h-106zM282 500l-35 199h106l-35 -199h-36zM390 545v106h106v-106h-106zM300 -10q-94 0 -144 43.5t-50 145.5v263h107v-252q0 -57 18.5 -83.5t68.5 -26.5t68.5 26.5t18.5 83.5v252h107v-263q0 -189 -194 -189z" />
    <glyph glyph-name="alpha" unicode="&#x3b1;" 
d="M250 -10q-79 0 -129 58t-50 170q0 115 51.5 174.5t130.5 59.5q97 0 148 -85v75h94v-346q0 -13 5.5 -17.5t19.5 -4.5q17 0 42 5v-71q-38 -18 -85 -18q-76 0 -76 72v12q-49 -84 -151 -84zM282 80q33 0 62 18.5t44 42.5v160q-15 25 -44 43.5t-62 18.5q-100 0 -100 -142
q0 -141 100 -141z" />
    <glyph glyph-name="beta" unicode="&#x3b2;" 
d="M100 -182v617q0 109 56 165.5t157 56.5q94 0 146.5 -46.5t52.5 -123.5q0 -115 -130 -167q67 -19 110 -60t43 -106q0 -72 -54 -118t-143 -46q-77 0 -131 34v-206h-107zM207 438v-333q52 -25 114 -25q105 0 105 79q0 46 -37 75.5t-115 50.5v63q70 23 100.5 54.5t30.5 77.5
q0 89 -95 89q-53 0 -78 -31.5t-25 -99.5z" />
    <glyph glyph-name="gamma" unicode="&#x3b3;" 
d="M246 -182v176l-198 448h120l84 -209l50 -136l50 135l86 210h114l-199 -451v-173h-107z" />
    <glyph glyph-name="delta" unicode="&#x3b4;" 
d="M300 -10q-95 0 -161.5 53.5t-66.5 162.5q0 99 54 153.5t129 54.5q54 0 90 -25l2 3l-61 40l-164 141v74h367v-83h-230l149 -126q120 -101 120 -228q0 -75 -34 -126.5t-83.5 -72.5t-110.5 -21zM300 79q59 0 89 33t30 94t-30.5 94.5t-88.5 33.5q-59 0 -89 -33t-30 -94
t30.5 -94.5t88.5 -33.5z" />
    <glyph glyph-name="epsilon" unicode="&#x3b5;" 
d="M303 -10q-101 0 -158.5 35.5t-57.5 99.5q0 37 22.5 66t60.5 41q-69 26 -69 94q0 62 56.5 94t147.5 32q89 0 144.5 -35t61.5 -112h-102q-5 64 -107 64q-94 0 -94 -51q0 -53 96 -53h39v-72h-39q-107 0 -107 -60t107 -60q105 0 111 65h101q-4 -77 -62 -112.5t-151 -35.5z
" />
    <glyph glyph-name="zeta" unicode="&#x3b6;" 
d="M426 -186l-58 47q50 45 50 80q0 28 -23.5 43t-83.5 33q-39 12 -56.5 18t-51 22t-49.5 33.5t-29.5 47.5t-13.5 68q0 49 23 93t61 82t108 95l109 88h-281v83h418v-74l-181 -161q-81 -73 -113.5 -114t-32.5 -86q0 -19 7 -34.5t15.5 -25t28.5 -19t32.5 -14t39.5 -13.5
q96 -30 122 -46q58 -33 58 -97q0 -92 -99 -149z" />
    <glyph glyph-name="eta" unicode="&#x3b7;" 
d="M387 -182v434q0 58 -17 84.5t-63 26.5q-58 0 -94 -40v-323h-107v442h93v-60q51 70 137 70q158 0 158 -179v-455h-107z" />
    <glyph glyph-name="theta" unicode="&#x3b8;" 
d="M300 -10q-212 0 -212 248v169q0 250 212 250q45 0 80.5 -11t66.5 -37t48 -77t17 -123v-168q0 -251 -212 -251zM300 77q58 0 82.5 41t24.5 130v34h-214v-34q0 -89 24.5 -130t82.5 -41zM193 399v-33h214v33q0 89 -24.5 130t-82.5 41t-82.5 -41t-24.5 -130z" />
    <glyph glyph-name="iota" unicode="&#x3b9;" 
d="M415 -10q-89 0 -131.5 44.5t-42.5 153.5v169h-154v85h261v-247q0 -64 18 -89t69 -25t92 16v-88q-45 -19 -112 -19z" />
    <glyph glyph-name="kappa" unicode="&#x3ba;" 
d="M106 0v442h107v-167l192 167h142l-191 -162l202 -280h-129l-149 221l-67 -54v-167h-107z" />
    <glyph glyph-name="lambda" unicode="&#x3bb;" 
d="M53 0l196 396l-28 59q-29 60 -70 87t-117 27v83q111 0 172 -33t108 -128l242 -491h-120l-80 175l-51 125l-53 -126l-81 -174h-118z" />
    <glyph glyph-name="uni03BC" unicode="&#x3bc;" 
d="M106 -182v624h107v-355h47q87 0 117 42v313h107v-342q0 -14 6 -20t21 -6q17 0 39 6v-71q-38 -19 -86 -19q-37 0 -53 19t-16 47v15q-54 -71 -150 -71h-32v-182h-107z" />
    <glyph glyph-name="nu" unicode="&#x3bd;" 
d="M243 0l-195 442h120l84 -209l50 -136l50 135l86 210h114l-195 -442h-114z" />
    <glyph glyph-name="xi" unicode="&#x3be;" 
d="M412 -186l-57 47q49 44 49 80q0 28 -23 43t-83 33q-38 11 -56 17t-51 22t-49.5 32.5t-30 45t-13.5 64.5q0 59 32 99t86 59q-48 16 -77.5 51t-29.5 88q0 71 54 116.5t155 45.5q91 0 148 -40.5t64 -123.5h-102q-14 78 -109 78q-102 0 -102 -78q0 -37 25 -58t56.5 -26.5
t78.5 -5.5h57v-83h-59q-78 0 -122.5 -29.5t-44.5 -80.5q0 -19 7.5 -34.5t17 -25t29.5 -19t32 -13.5l37 -12q7 -2 28 -8.5t28 -9l25 -9t24.5 -10l20 -11t19 -13.5l14.5 -15.5t12 -19t6 -21.5t3 -26q0 -92 -99 -149z" />
    <glyph glyph-name="omicron" unicode="&#x3bf;" 
d="M300 -10q-97 0 -162.5 54t-65.5 177q0 64 20.5 111t55 72t72.5 36.5t80 11.5q45 0 83.5 -11.5t72 -36.5t53 -71.5t19.5 -111.5q0 -63 -20.5 -110t-54.5 -72.5t-72.5 -37t-80.5 -11.5zM300 78q119 0 119 143t-119 143t-119 -143t119 -143z" />
    <glyph glyph-name="pi" unicode="&#x3c0;" 
d="M121 0v357h-57v85h472v-85h-57v-357h-107v357h-144v-357h-107z" />
    <glyph glyph-name="rho" unicode="&#x3c1;" 
d="M96 -182v386q0 248 223 248q101 0 158.5 -54.5t57.5 -171.5q0 -121 -57.5 -178.5t-139.5 -57.5q-45 0 -81 16t-54 37v-225h-107zM307 79q117 0 117 142t-109 142q-112 0 -112 -154v-92q44 -38 104 -38z" />
    <glyph glyph-name="sigma1" unicode="&#x3c2;" 
d="M393 -186l-57 47q49 44 49 80q0 27 -23 43t-84 34q-46 14 -77.5 29t-61 39t-44.5 61t-15 86q0 106 63 162.5t163 56.5q87 0 146 -46t61 -146h-104q-9 105 -105 105q-58 0 -86.5 -34.5t-28.5 -92.5q0 -59 29 -85t95 -47q96 -31 122 -47q57 -34 57 -96q0 -92 -99 -149z" />
    <glyph glyph-name="sigma" unicode="&#x3c3;" 
d="M289 -10q-43 0 -81 11.5t-71.5 36.5t-53.5 71t-20 108q0 65 22 111.5t59.5 70t78 33.5t87.5 10h240v-85h-93q62 -51 62 -153q0 -103 -66 -158.5t-164 -55.5zM410 217q0 84 -44 140h-40q-79 0 -116.5 -32t-37.5 -107q0 -140 120 -140q118 0 118 139z" />
    <glyph glyph-name="tau" unicode="&#x3c4;" 
d="M369 -10q-90 0 -132 43.5t-42 154.5v169h-141v85h465v-85h-217v-165q0 -64 18 -88t72 -24q58 0 110 22v-86q-59 -26 -133 -26z" />
    <glyph glyph-name="upsilon" unicode="&#x3c5;" 
d="M300 -10q-94 0 -144 43.5t-50 145.5v263h107v-252q0 -57 18.5 -83.5t68.5 -26.5t68.5 26.5t18.5 83.5v252h107v-263q0 -189 -194 -189z" />
    <glyph glyph-name="phi" unicode="&#x3c6;" 
d="M248 -182v172q-40 2 -73.5 12.5t-66 34.5t-51.5 70t-19 110q0 61 16 124t42 101h108q-29 -39 -48 -98.5t-19 -122.5q0 -143 111 -147v146q0 69 12 117t34.5 72t47.5 33.5t58 9.5q161 0 161 -208q0 -70 -18.5 -121t-51 -78.5t-68.5 -40t-79 -14.5v-172h-96zM344 222v-148
q62 4 91 45t29 124q0 124 -61 124q-32 0 -45.5 -33.5t-13.5 -111.5z" />
    <glyph glyph-name="chi" unicode="&#x3c7;" 
d="M39 -183l203 321l-195 304h123l131 -221l131 221h119l-193 -306l204 -319h-125l-139 235l-139 -235h-120z" />
    <glyph glyph-name="psi" unicode="&#x3c8;" 
d="M251 -182v172q-86 0 -140.5 46.5t-54.5 144.5v261h99v-250q0 -114 96 -114v364h99v-364q96 0 96 114v250h99v-260q0 -99 -54.5 -145.5t-140.5 -46.5v-172h-99z" />
    <glyph glyph-name="omega" unicode="&#x3c9;" 
d="M184 -10q-78 0 -113 62t-35 159q0 143 58 231h108q-67 -89 -67 -238q0 -128 61 -128q56 0 56 132v115h96v-115q0 -132 56 -132q61 0 61 128q0 149 -67 238h108q58 -88 58 -231q0 -97 -35 -159t-113 -62q-84 0 -116 71q-34 -71 -116 -71z" />
    <glyph glyph-name="iotadieresis" unicode="&#x3ca;" 
d="M126 525v118h118v-118h-118zM344 525v118h118v-118h-118zM415 -10q-89 0 -131.5 44.5t-42.5 153.5v169h-154v85h261v-247q0 -64 18 -89t69 -25t92 16v-88q-45 -19 -112 -19z" />
    <glyph glyph-name="upsilondieresis" unicode="&#x3cb;" 
d="M132 535v118h118v-118h-118zM350 535v118h118v-118h-118zM300 -10q-94 0 -144 43.5t-50 145.5v263h107v-252q0 -57 18.5 -83.5t68.5 -26.5t68.5 26.5t18.5 83.5v252h107v-263q0 -189 -194 -189z" />
    <glyph glyph-name="omicrontonos" unicode="&#x3cc;" 
d="M279 499l-39 200h120l-39 -200h-42zM300 -10q-97 0 -162.5 54t-65.5 177q0 64 20.5 111t55 72t72.5 36.5t80 11.5q45 0 83.5 -11.5t72 -36.5t53 -71.5t19.5 -111.5q0 -63 -20.5 -110t-54.5 -72.5t-72.5 -37t-80.5 -11.5zM300 78q119 0 119 143t-119 143t-119 -143
t119 -143z" />
    <glyph glyph-name="upsilontonos" unicode="&#x3cd;" 
d="M279 499l-39 200h120l-39 -200h-42zM300 -10q-94 0 -144 43.5t-50 145.5v263h107v-252q0 -57 18.5 -83.5t68.5 -26.5t68.5 26.5t18.5 83.5v252h107v-263q0 -189 -194 -189z" />
    <glyph glyph-name="omegatonos" unicode="&#x3ce;" 
d="M279 499l-39 200h120l-39 -200h-42zM184 -10q-78 0 -113 62t-35 159q0 143 58 231h108q-67 -89 -67 -238q0 -128 61 -128q56 0 56 132v115h96v-115q0 -132 56 -132q61 0 61 128q0 149 -67 238h108q58 -88 58 -231q0 -97 -35 -159t-113 -62q-84 0 -116 71
q-34 -71 -116 -71z" />
    <glyph glyph-name="uni0400" unicode="&#x400;" 
d="M307 609l-134 199h120l78 -199h-64zM106 0v572h399v-94h-288v-140h247v-94h-247v-150h288v-94h-399z" />
    <glyph glyph-name="uni0401" unicode="&#x401;" 
d="M139 644v118h118v-118h-118zM357 644v118h118v-118h-118zM106 0v572h399v-94h-288v-140h247v-94h-247v-150h288v-94h-399z" />
    <glyph glyph-name="uni0402" unicode="&#x402;" 
d="M344 -6q-26 0 -41 3v92q12 -3 29 -3q51 0 73 22.5t22 57.5q0 82 -111 82h-66v-248h-112v479h-118v93h362v-93h-132v-138h74q101 0 160 -45.5t59 -127.5q0 -79 -55 -126.5t-144 -47.5z" />
    <glyph glyph-name="uni0403" unicode="&#x403;" 
d="M245 609l78 199h120l-134 -199h-64zM106 0v572h404v-93h-292v-479h-112z" />
    <glyph glyph-name="uni0404" unicode="&#x404;" 
d="M306 -10q-244 0 -244 296q0 140 63 218t183 78q220 0 230 -213h-113q-10 118 -117 118q-68 0 -97 -42t-33 -117h201v-80h-201q4 -76 32.5 -119t97.5 -43q55 0 83.5 28.5t33.5 88.5h113q-6 -110 -67.5 -161.5t-164.5 -51.5z" />
    <glyph glyph-name="uni0405" unicode="&#x405;" 
d="M298 -10q-101 0 -162 46t-61 136h108q7 -90 117 -90q54 0 84 18.5t30 52.5q0 27 -18 42t-55 28l-128 42q-124 41 -124 152q0 78 59.5 121.5t153.5 43.5q92 0 150 -44t59 -135h-109q-3 46 -27.5 66.5t-73.5 20.5q-51 0 -77 -18.5t-25 -47.5q1 -25 15 -40.5t48 -26.5
l130 -43q61 -20 96.5 -55t35.5 -98q0 -83 -63 -127t-163 -44z" />
    <glyph glyph-name="uni0406" unicode="&#x406;" 
d="M105 0v94h139v384h-139v94h390v-94h-139v-384h139v-94h-390z" />
    <glyph glyph-name="uni0407" unicode="&#x407;" 
d="M132 644v118h118v-118h-118zM350 644v118h118v-118h-118zM105 0v94h139v384h-139v94h390v-94h-139v-384h139v-94h-390z" />
    <glyph glyph-name="uni0408" unicode="&#x408;" 
d="M290 -10q-105 0 -159.5 56.5t-54.5 153.5q0 20 3 41h111q-2 -14 -2 -41q0 -113 102 -113q104 0 104 136v349h112v-349q0 -111 -55.5 -172t-160.5 -61z" />
    <glyph glyph-name="uni0409" unicode="&#x409;" 
d="M6 -5v82q51 0 71.5 27t24.5 100l21 368h265v-232h7q93 0 148 -44.5t55 -124.5q0 -79 -56.5 -125t-146.5 -46h-105v482h-74l-17 -294q-6 -101 -47.5 -147t-145.5 -46zM388 255v-170h5q54 0 79.5 24.5t25.5 60.5t-25.5 60.5t-79.5 24.5h-5z" />
    <glyph glyph-name="uni040A" unicode="&#x40a;" 
d="M49 0v572h98v-232h117v232h98v-232h21q92 0 147.5 -44.5t55.5 -125.5q0 -79 -56.5 -124.5t-146.5 -45.5h-119v255h-117v-255h-98zM362 255v-170h19q54 0 79.5 24.5t25.5 60.5t-25.5 60.5t-79.5 24.5h-19z" />
    <glyph glyph-name="uni040B" unicode="&#x40b;" 
d="M161 0v479h-141v93h393v-93h-141v-146q48 13 98 13q178 0 178 -192v-154h-113v145q0 61 -18 83t-75 22q-38 0 -70 -8v-242h-111z" />
    <glyph glyph-name="uni040C" unicode="&#x40c;" 
d="M251 609l78 199h120l-134 -199h-64zM106 0v572h111v-242l208 242h133l-210 -234l225 -338h-136l-162 259l-58 -63v-196h-111z" />
    <glyph glyph-name="uni040D" unicode="&#x40d;" 
d="M300 609l-134 199h120l78 -199h-64zM106 0v572h98v-284l-13 -180l162 464h141v-572h-98v284l13 180l-162 -464h-141z" />
    <glyph glyph-name="uni040E" unicode="&#x40e;" 
d="M320 627q-40 0 -74.5 15t-56 37t-34.5 42t-18 36l42 32q51 -75 141 -75t141 75l42 -32q-5 -16 -18 -36t-34.5 -42t-56 -37t-74.5 -15zM94 -5v91q63 0 104.5 22.5t69.5 77.5l-227 386h133l89 -165l64 -126l51 126l68 165h122l-183 -392q-48 -103 -111 -144t-180 -41z" />
    <glyph glyph-name="uni040F" unicode="&#x40f;" 
d="M251 -142v142h-145v572h112v-478h164v478h112v-572h-146v-142h-97z" />
    <glyph glyph-name="uni0410" unicode="&#x410;" 
d="M40 0l201 572h118l201 -572h-119l-42 126h-201l-41 -126h-117zM242 273l-19 -59h148l-19 59l-55 185z" />
    <glyph glyph-name="uni0411" unicode="&#x411;" 
d="M106 0v572h404v-93h-292v-139h102q101 0 159.5 -44t58.5 -124q0 -81 -59.5 -126.5t-158.5 -45.5h-214zM218 248v-156h93q112 0 112 78t-112 78h-93z" />
    <glyph glyph-name="uni0412" unicode="&#x412;" 
d="M106 0v572h196q99 0 157 -43t58 -117q0 -79 -75 -115q40 -14 68.5 -46.5t28.5 -84.5q0 -74 -60.5 -120t-158.5 -46h-214zM217 247v-155h96q110 0 110 79q0 76 -112 76h-94zM217 479v-144h72q60 0 86 17.5t26 52.5q0 74 -109 74h-75z" />
    <glyph glyph-name="uni0413" unicode="&#x413;" 
d="M106 0v572h404v-93h-292v-479h-112z" />
    <glyph glyph-name="uni0414" unicode="&#x414;" 
d="M19 -142v232q64 0 91.5 26t36.5 98l45 358h309v-482h82v-232h-97v142h-370v-142h-97zM208 90h183v388h-102l-34 -271q-11 -86 -47 -117z" />
    <glyph glyph-name="uni0415" unicode="&#x415;" 
d="M106 0v572h399v-94h-288v-140h247v-94h-247v-150h288v-94h-399z" />
    <glyph glyph-name="uni0416" unicode="&#x416;" 
d="M-3 0l140 348l-128 224h109l97 -185l38 -90v275h94v-275l38 90l97 185h109l-128 -224l140 -348h-105l-101 266l-50 -82v-184h-94v184l-50 82l-101 -266h-105z" />
    <glyph glyph-name="uni0417" unicode="&#x417;" 
d="M304 -10q-104 0 -166 50.5t-66 140.5h109q8 -101 120 -101q52 0 82.5 22t30.5 62q0 42 -32.5 63.5t-86.5 21.5h-28v88h27q107 0 107 75q0 37 -26.5 59t-71.5 22q-47 0 -77.5 -25t-34.5 -78h-110q4 93 66.5 142.5t160.5 49.5q96 0 150.5 -45.5t54.5 -118.5q0 -88 -85 -125
q98 -38 98 -138q0 -76 -62 -120.5t-160 -44.5z" />
    <glyph glyph-name="uni0418" unicode="&#x418;" 
d="M106 0v572h98v-284l-13 -180l162 464h141v-572h-98v284l13 180l-162 -464h-141z" />
    <glyph glyph-name="uni0419" unicode="&#x419;" 
d="M300 627q-40 0 -74.5 15t-56 37t-34.5 42t-18 36l42 32q51 -75 141 -75t141 75l42 -32q-5 -16 -18 -36t-34.5 -42t-56 -37t-74.5 -15zM106 0v572h98v-284l-13 -180l162 464h141v-572h-98v284l13 180l-162 -464h-141z" />
    <glyph glyph-name="uni041A" unicode="&#x41a;" 
d="M106 0v572h111v-242l208 242h133l-210 -234l225 -338h-136l-162 259l-58 -63v-196h-111z" />
    <glyph glyph-name="uni041B" unicode="&#x41b;" 
d="M9 -5v91q62 0 88.5 25t35.5 103l46 358h318v-572h-112v479h-107l-36 -280q-14 -114 -63.5 -159t-169.5 -45z" />
    <glyph glyph-name="uni041C" unicode="&#x41c;" 
d="M75 0v572h138l54 -166l36 -126l34 126l54 166h134v-572h-99v292l12 176l-99 -313h-78l-99 313l12 -176v-292h-99z" />
    <glyph glyph-name="uni041D" unicode="&#x41d;" 
d="M106 0v572h111v-234h166v234h111v-572h-111v245h-166v-245h-111z" />
    <glyph glyph-name="uni041E" unicode="&#x41e;" 
d="M299 -10q-119 0 -177.5 76t-58.5 217q0 142 59.5 220.5t178.5 78.5q120 0 178 -76.5t58 -216.5q0 -141 -59 -220t-179 -79zM300 84q32 0 55.5 12t36.5 30t20.5 46.5t9.5 54t2 59.5q0 44 -4 75t-16 62.5t-38 48t-66 16.5t-66 -16.5t-38 -48t-16 -62.5t-4 -75
q0 -34 2 -59.5t9.5 -54t20.5 -46.5t36.5 -30t55.5 -12z" />
    <glyph glyph-name="uni041F" unicode="&#x41f;" 
d="M106 0v572h388v-572h-111v478h-166v-478h-111z" />
    <glyph glyph-name="uni0420" unicode="&#x420;" 
d="M106 0v572h188q110 0 177 -47t67 -142t-66.5 -142t-177.5 -47h-77v-194h-111zM217 478v-191h78q128 0 128 96q0 95 -128 95h-78z" />
    <glyph glyph-name="uni0421" unicode="&#x421;" 
d="M306 -10q-244 0 -244 296q0 140 63 218t183 78q220 0 230 -213h-113q-10 118 -117 118q-40 0 -67 -15.5t-40.5 -45t-18.5 -62.5t-5 -78t5 -77.5t18 -62t40.5 -45t67.5 -15.5q55 0 83.5 28.5t33.5 88.5h113q-6 -110 -67.5 -161.5t-164.5 -51.5z" />
    <glyph glyph-name="uni0422" unicode="&#x422;" 
d="M244 0v478h-189v94h490v-94h-189v-478h-112z" />
    <glyph glyph-name="uni0423" unicode="&#x423;" 
d="M94 -5v91q63 0 104.5 22.5t69.5 77.5l-227 386h133l89 -165l64 -126l51 126l68 165h122l-183 -392q-48 -103 -111 -144t-180 -41z" />
    <glyph glyph-name="uni0424" unicode="&#x424;" 
d="M250 0v84q-106 0 -168 52t-62 149t62.5 150t167.5 53v84h100v-84q106 0 168 -52t62 -149t-62 -150t-168 -53v-84h-100zM250 170v231q-125 0 -125 -115q0 -116 125 -116zM350 401v-231q125 0 125 116q0 115 -125 115z" />
    <glyph glyph-name="uni0425" unicode="&#x425;" 
d="M39 0l197 292l-185 280h131l77 -126l43 -72l45 72l78 126h125l-186 -275l197 -297h-131l-88 143l-44 73l-43 -73l-92 -143h-124z" />
    <glyph glyph-name="uni0426" unicode="&#x426;" 
d="M455 -142v142h-349v572h112v-478h164v478h112v-478h58v-236h-97z" />
    <glyph glyph-name="uni0427" unicode="&#x427;" 
d="M382 0v238q-52 -13 -107 -13q-181 0 -181 199v148h113v-139q0 -64 20.5 -88t77.5 -24q42 0 77 8v243h112v-572h-112z" />
    <glyph glyph-name="uni0428" unicode="&#x428;" 
d="M52 0v572h98v-482h102v482h96v-482h102v482h98v-572h-496z" />
    <glyph glyph-name="uni0429" unicode="&#x429;" 
d="M496 -142v142h-444v572h98v-482h102v482h96v-482h102v482h98v-482h45v-232h-97z" />
    <glyph glyph-name="uni042A" unicode="&#x42a;" 
d="M188 0v479h-147v93h258v-232h28q101 0 159.5 -44t58.5 -124t-60 -126t-158 -46h-139zM299 248v-156h19q111 0 111 78t-111 78h-19z" />
    <glyph glyph-name="uni042B" unicode="&#x42b;" 
d="M49 0v572h104v-232h27q101 0 159.5 -44t58.5 -124t-60 -126t-158 -46h-131zM153 255v-169h18q118 0 118 84q0 85 -118 85h-18zM447 0v572h104v-572h-104z" />
    <glyph glyph-name="uni042C" unicode="&#x42c;" 
d="M106 0v572h112v-232h102q101 0 159.5 -44t58.5 -124q0 -81 -59.5 -126.5t-158.5 -45.5h-214zM218 248v-156h93q112 0 112 78t-112 78h-93z" />
    <glyph glyph-name="uni042D" unicode="&#x42d;" 
d="M288 -10q-101 0 -161 52t-64 161h110q10 -117 119 -117q69 0 98 43.5t32 121.5h-201v77h201q-5 75 -34 117t-97 42q-108 0 -118 -117h-110q5 108 65.5 160t163.5 52q246 0 246 -292q0 -145 -62.5 -222.5t-187.5 -77.5z" />
    <glyph glyph-name="uni042E" unicode="&#x42e;" 
d="M394 -10q-88 0 -126 66t-43 190h-76v-246h-99v572h99v-242h77q5 121 43.5 186.5t124.5 65.5q94 0 131.5 -76t37.5 -219t-38 -220t-131 -77zM394 81q39 0 54 52t15 153t-15 152.5t-54 52.5q-39 0 -54 -52t-15 -153t15 -153t54 -52z" />
    <glyph glyph-name="uni042F" unicode="&#x42f;" 
d="M41 0l165 221q-124 44 -124 169q0 91 67 136.5t178 45.5h167v-572h-112v201h-67l-138 -201h-136zM326 291h56v189h-56q-129 0 -129 -94q0 -95 129 -95z" />
    <glyph glyph-name="uni0430" unicode="&#x430;" 
d="M230 -10q-69 0 -112.5 31.5t-43.5 94.5q0 129 182 129q69 0 121 -16v36q0 50 -18 76t-74 26q-98 0 -98 -77h-101q0 58 30 95.5t74.5 52t101.5 14.5q192 0 192 -173v-183q0 -13 5.5 -18t18.5 -5q18 0 42 6v-71q-40 -18 -85 -18q-72 0 -72 62v8q-56 -70 -163 -70zM255 70
q77 0 122 37v56q-34 9 -98 9q-48 0 -73 -11.5t-25 -41.5q0 -49 74 -49z" />
    <glyph glyph-name="uni0431" unicode="&#x431;" 
d="M296 -10q-110 0 -168 64q-56 64 -56 217q0 111 24 180.5t63 100t101 45.5l231 55v-93l-195 -46q-62 -15 -91.5 -45.5t-38.5 -87.5q54 65 154 65q40 0 74.5 -11t66 -35t49.5 -69.5t18 -108.5q0 -66 -20.5 -113.5t-55.5 -72t-73 -35t-83 -10.5zM300 80q117 0 117 138
t-117 138t-117 -138t117 -138z" />
    <glyph glyph-name="uni0432" unicode="&#x432;" 
d="M106 0v442h190q97 0 147.5 -33t50.5 -89q0 -59 -56 -90q77 -31 77 -105q0 -56 -51 -90.5t-150 -34.5h-208zM213 186v-104h98q93 0 93 53q0 51 -95 51h-96zM213 359v-96h77q53 0 73 11.5t20 36.5q0 23 -19.5 35.5t-72.5 12.5h-78z" />
    <glyph glyph-name="uni0433" unicode="&#x433;" 
d="M119 0v442h378v-85h-271v-357h-107z" />
    <glyph glyph-name="uni0434" unicode="&#x434;" 
d="M26 -125v209h10q54 0 77 21.5t32 87.5l34 249h316v-358h67v-209h-92v125h-352v-125h-92zM200 84h192v274h-121l-24 -173q-10 -75 -47 -101z" />
    <glyph glyph-name="uni0435" unicode="&#x435;" 
d="M306 -10q-104 0 -168.5 55.5t-64.5 173.5q0 64 19.5 111t53.5 72.5t72 37.5t82 12q45 0 83.5 -12t72 -37.5t52.5 -72t19 -109.5v-24h-346q5 -124 127 -124q45 0 73.5 17.5t34.5 49.5h110q-15 -79 -76.5 -114.5t-143.5 -35.5zM183 272h234q-6 49 -38.5 73t-78.5 24
t-78.5 -24t-38.5 -73z" />
    <glyph glyph-name="uni0436" unicode="&#x436;" 
d="M-3 0l144 261l-134 181h107l93 -133l48 -80v213h90v-213l48 80l93 133h107l-134 -181l144 -261h-102l-107 201l-49 -63v-138h-90v138l-50 63l-106 -201h-102z" />
    <glyph glyph-name="uni0437" unicode="&#x437;" 
d="M297 -10q-200 0 -211 148h101q6 -65 111 -65q107 0 107 59q0 58 -108 58h-38v72h38q97 0 97 55q0 52 -94 52q-101 0 -108 -64h-101q6 78 64 112.5t144 34.5q90 0 146 -34t56 -95q0 -69 -69 -95q37 -11 59.5 -39.5t22.5 -66.5q0 -63 -59.5 -97.5t-157.5 -34.5z" />
    <glyph glyph-name="uni0438" unicode="&#x438;" 
d="M106 0v442h95v-206l-14 -144l178 350h129v-442h-95v205l14 144l-177 -349h-130z" />
    <glyph glyph-name="uni0439" unicode="&#x439;" 
d="M300 518q-40 0 -74.5 15t-56 37t-34.5 42t-18 36l42 32q51 -75 141 -75t141 75l42 -32q-5 -16 -18 -36t-34.5 -42t-56 -37t-74.5 -15zM106 0v442h95v-206l-14 -144l178 350h129v-442h-95v205l14 144l-177 -349h-130z" />
    <glyph glyph-name="uni043A" unicode="&#x43a;" 
d="M106 0v442h107v-167l192 167h142l-191 -162l202 -280h-129l-149 221l-67 -54v-167h-107z" />
    <glyph glyph-name="uni043B" unicode="&#x43b;" 
d="M32 -5v88q58 0 83 23t34 95l31 241h314v-442h-107v357h-113l-22 -170q-13 -106 -60 -149t-160 -43z" />
    <glyph glyph-name="uni043C" unicode="&#x43c;" 
d="M73 0v442h129l64 -143l35 -94l34 94l63 143h129v-442h-93v213l15 141l-112 -257h-74l-112 257l15 -141v-213h-93z" />
    <glyph glyph-name="uni043D" unicode="&#x43d;" 
d="M106 0v442h107v-176h174v176h107v-442h-107v182h-174v-182h-107z" />
    <glyph glyph-name="uni043E" unicode="&#x43e;" 
d="M300 -10q-97 0 -162.5 54t-65.5 177q0 64 20.5 111t55 72t72.5 36.5t80 11.5q45 0 83.5 -11.5t72 -36.5t53 -71.5t19.5 -111.5q0 -63 -20.5 -110t-54.5 -72.5t-72.5 -37t-80.5 -11.5zM300 78q119 0 119 143t-119 143t-119 -143t119 -143z" />
    <glyph glyph-name="uni043F" unicode="&#x43f;" 
d="M106 0v442h388v-442h-107v357h-174v-357h-107z" />
    <glyph glyph-name="uni0440" unicode="&#x440;" 
d="M105 -182v624h93v-58q50 68 146 68q80 0 132.5 -58t52.5 -173t-53 -173t-132 -58q-82 0 -132 56v-228h-107zM311 79q108 0 108 142q0 141 -108 141q-59 0 -99 -38v-207q40 -38 99 -38z" />
    <glyph glyph-name="uni0441" unicode="&#x441;" 
d="M303 -10q-45 0 -83.5 11.5t-73 36t-54.5 71.5t-20 112q0 53 14 94t36 66t53 41.5t62.5 23t66.5 6.5q40 0 75 -9t66.5 -28.5t51.5 -56t23 -86.5h-108q-8 90 -107 90q-123 0 -123 -141t124 -141q98 0 106 89h108q-3 -49 -23 -85.5t-52.5 -56t-67.5 -28.5t-74 -9z" />
    <glyph glyph-name="uni0442" unicode="&#x442;" 
d="M247 0v357h-176v85h457v-85h-175v-357h-106z" />
    <glyph glyph-name="uni0443" unicode="&#x443;" 
d="M69 -187v88q71 0 111 23.5t64 78.5l-196 439h120l85 -209l49 -136l50 135l86 210h114l-185 -420q-52 -118 -114.5 -163.5t-183.5 -45.5z" />
    <glyph glyph-name="uni0444" unicode="&#x444;" 
d="M254 -182v220q-38 -48 -96 -48q-67 0 -106 56t-39 175q0 117 40 174t105 57q56 0 96 -47v242h93v-243q38 48 96 48q67 0 106 -56t39 -175q0 -117 -40 -174t-105 -57q-56 0 -96 47v-219h-93zM190 77q22 0 39.5 10.5t24.5 22.5v222q-7 12 -24.5 22.5t-39.5 10.5
q-80 0 -80 -144t80 -144zM411 77q80 0 80 144t-80 144q-22 0 -39.5 -10.5t-24.5 -22.5v-222q7 -12 24.5 -22.5t39.5 -10.5z" />
    <glyph glyph-name="uni0445" unicode="&#x445;" 
d="M39 0l199 226l-189 216h132l123 -147l119 147h127l-186 -216l197 -226h-132l-130 155l-129 -155h-131z" />
    <glyph glyph-name="uni0446" unicode="&#x446;" 
d="M455 -125v125h-349v442h107v-358h174v358h107v-358h53v-209h-92z" />
    <glyph glyph-name="uni0447" unicode="&#x447;" 
d="M387 0v167q-51 -12 -108 -12q-183 0 -183 189v98h107v-95q0 -60 23.5 -83t82.5 -23q36 0 78 7v194h107v-442h-107z" />
    <glyph glyph-name="uni0448" unicode="&#x448;" 
d="M50 0v442h96v-358h107v358h94v-358h108v358h95v-442h-500z" />
    <glyph glyph-name="uni0449" unicode="&#x449;" 
d="M504 -125v125h-454v442h96v-358h107v358h94v-358h108v358h95v-358h46v-209h-92z" />
    <glyph glyph-name="uni044A" unicode="&#x44a;" 
d="M208 0v357h-147v85h247v-178h45q178 0 178 -131q0 -133 -178 -133h-145zM308 188v-111h41q78 0 78 55q0 56 -78 56h-41z" />
    <glyph glyph-name="uni044B" unicode="&#x44b;" 
d="M59 0v442h100v-178h45q178 0 178 -131q0 -133 -178 -133h-145zM159 188v-111h41q78 0 78 55q0 56 -78 56h-41zM441 0v442h100v-442h-100z" />
    <glyph glyph-name="uni044C" unicode="&#x44c;" 
d="M106 0v442h107v-178h126q181 0 181 -131q0 -68 -48 -100.5t-133 -32.5h-233zM213 183v-102h119q78 0 78 51t-78 51h-119z" />
    <glyph glyph-name="uni044D" unicode="&#x44d;" 
d="M294 -10q-85 0 -146.5 40.5t-68.5 134.5h104q10 -91 110 -91q111 0 124 113h-166v68h166q-15 112 -124 112q-101 0 -110 -90h-104q8 94 70 134.5t147 40.5q46 0 85 -11.5t73.5 -36.5t54 -72t19.5 -111q0 -65 -20 -111.5t-55 -71.5t-74 -36.5t-85 -11.5z" />
    <glyph glyph-name="uni044E" unicode="&#x44e;" 
d="M391 -10q-85 0 -125.5 49.5t-45.5 145.5h-74v-185h-96v442h96v-182h74q7 93 48 142.5t125 49.5q93 0 132.5 -58.5t39.5 -171.5q0 -112 -40.5 -172t-133.5 -60zM392 78q40 -1 57 34t17 109t-17 109t-57 34q-40 1 -57.5 -33.5t-17.5 -109.5q0 -74 17.5 -109t57.5 -34z" />
    <glyph glyph-name="uni044F" unicode="&#x44f;" 
d="M58 0l149 168q-108 39 -108 129q0 72 63 108.5t164 36.5h168v-442h-107v151h-73l-126 -151h-130zM326 231h61v128h-61q-117 0 -117 -64t117 -64z" />
    <glyph glyph-name="uni0450" unicode="&#x450;" 
d="M300 500l-134 199h120l78 -199h-64zM306 -10q-104 0 -168.5 55.5t-64.5 173.5q0 64 19.5 111t53.5 72.5t72 37.5t82 12q45 0 83.5 -12t72 -37.5t52.5 -72t19 -109.5v-24h-346q5 -124 127 -124q45 0 73.5 17.5t34.5 49.5h110q-15 -79 -76.5 -114.5t-143.5 -35.5zM183 272
h234q-6 49 -38.5 73t-78.5 24t-78.5 -24t-38.5 -73z" />
    <glyph glyph-name="uni0451" unicode="&#x451;" 
d="M132 535v118h118v-118h-118zM350 535v118h118v-118h-118zM306 -10q-104 0 -168.5 55.5t-64.5 173.5q0 64 19.5 111t53.5 72.5t72 37.5t82 12q45 0 83.5 -12t72 -37.5t52.5 -72t19 -109.5v-24h-346q5 -124 127 -124q45 0 73.5 17.5t34.5 49.5h110q-15 -79 -76.5 -114.5
t-143.5 -35.5zM183 272h234q-6 49 -38.5 73t-78.5 24t-78.5 -24t-38.5 -73z" />
    <glyph glyph-name="uni0452" unicode="&#x452;" 
d="M225 -188v84q83 0 122.5 34.5t39.5 114.5v207q0 58 -17 84.5t-63 26.5q-58 0 -94 -40v-323h-107v499h-50v79h50v69h107v-69h104v-79h-104v-106q44 59 125 59q156 0 156 -179v-235q0 -123 -70 -174.5t-199 -51.5z" />
    <glyph glyph-name="uni0453" unicode="&#x453;" 
d="M244 500l78 199h120l-134 -199h-64zM119 0v442h378v-85h-271v-357h-107z" />
    <glyph glyph-name="uni0454" unicode="&#x454;" 
d="M304 -10q-46 0 -85 11.5t-73.5 36.5t-54 72t-19.5 111q0 65 20 111.5t55 71.5t74 36.5t85 11.5q85 0 146.5 -40.5t68.5 -134.5h-104q-9 90 -110 90q-111 0 -124 -111h166v-67h-167q13 -114 125 -114q102 0 110 90h104q-8 -94 -70 -134.5t-147 -40.5z" />
    <glyph glyph-name="uni0455" unicode="&#x455;" 
d="M297 -10q-96 0 -156 36t-62 113h105q6 -67 119 -67q109 0 109 50q0 27 -31 39t-100 24q-16 2 -25 4q-79 14 -124 42t-45 91q0 65 57.5 97.5t145.5 32.5q200 0 210 -140h-105q-8 58 -104 58q-95 0 -95 -42q0 -29 46 -43q24 -7 112 -21q48 -8 81.5 -19.5t60 -40t26.5 -71.5
q0 -75 -61.5 -109t-163.5 -34z" />
    <glyph glyph-name="uni0456" unicode="&#x456;" 
d="M99 0v84h154v273h-154v85h261v-358h141v-84h-402zM242 526v121h131v-121h-131z" />
    <glyph glyph-name="uni0457" unicode="&#x457;" 
d="M137 546v118h118v-118h-118zM355 546v118h118v-118h-118zM99 0v84h154v273h-154v85h261v-358h141v-84h-402z" />
    <glyph glyph-name="uni0458" unicode="&#x458;" 
d="M128 -187v84q89 0 134.5 35t45.5 123v302h-171v85h278v-397q0 -232 -287 -232zM297 526v121h131v-121h-131z" />
    <glyph glyph-name="uni0459" unicode="&#x459;" 
d="M12 -5v83q44 0 62.5 21t25.5 83l28 260h259v-178h31q178 0 178 -131q0 -133 -178 -133h-132v362h-68l-20 -190q-10 -98 -49.5 -137.5t-136.5 -39.5zM387 188v-112h27q78 0 78 56t-78 56h-27z" />
    <glyph glyph-name="uni045A" unicode="&#x45a;" 
d="M35 0v442h101v-178h124v178h101v-178h51q178 0 178 -132t-178 -132h-152v188h-124v-188h-101zM361 188v-112h47q78 0 78 56t-78 56h-47z" />
    <glyph glyph-name="uni045B" unicode="&#x45b;" 
d="M106 0v499h-50v79h50v69h107v-69h105v-79h-105v-106q44 59 125 59q156 0 156 -179v-273h-107v252q0 58 -17 84.5t-63 26.5q-58 0 -94 -40v-323h-107z" />
    <glyph glyph-name="uni045C" unicode="&#x45c;" 
d="M238 500l78 199h120l-134 -199h-64zM106 0v442h107v-167l192 167h142l-191 -162l202 -280h-129l-149 221l-67 -54v-167h-107z" />
    <glyph glyph-name="uni045D" unicode="&#x45d;" 
d="M300 500l-134 199h120l78 -199h-64zM106 0v442h95v-206l-14 -144l178 350h129v-442h-95v205l14 144l-177 -349h-130z" />
    <glyph glyph-name="uni045E" unicode="&#x45e;" 
d="M300 518q-40 0 -74.5 15t-56 37t-34.5 42t-18 36l42 32q51 -75 141 -75t141 75l42 -32q-5 -16 -18 -36t-34.5 -42t-56 -37t-74.5 -15zM69 -187v88q71 0 111 23.5t64 78.5l-196 439h120l85 -209l49 -136l50 135l86 210h114l-185 -420q-52 -118 -114.5 -163.5t-183.5 -45.5
z" />
    <glyph glyph-name="uni045F" unicode="&#x45f;" 
d="M254 -125v125h-148v442h107v-358h174v358h107v-442h-148v-125h-92z" />
    <glyph glyph-name="uni0472" unicode="&#x472;" 
d="M300 84q48 0 76.5 27t37 63t9.5 88q-28 -45 -66 -45q-23 0 -66 25.5t-60 25.5q-28 0 -54 -32q5 -70 32 -111t91 -41zM369 300q28 0 54 31q-4 73 -31 115t-92 42q-37 0 -62.5 -14.5t-38 -42t-17.5 -56.5t-6 -69q28 45 66 45q24 0 66.5 -25.5t60.5 -25.5zM299 -10
q-119 0 -177.5 76t-58.5 217q0 142 59.5 220.5t178.5 78.5q120 0 178 -76.5t58 -216.5q0 -141 -59 -220t-179 -79z" />
    <glyph glyph-name="uni0473" unicode="&#x473;" 
d="M300 75q112 0 121 124q-23 -36 -60 -36q-23 0 -69 24t-64 24q-25 0 -48 -28q15 -108 120 -108zM372 230q25 0 47 27q-13 110 -119 110q-114 0 -121 -127q24 39 61 39q23 0 68.5 -24.5t63.5 -24.5zM297 -10q-44 0 -82 11.5t-71 36.5t-52.5 71.5t-19.5 110.5t20 111.5
t55 72.5t73.5 36.5t82.5 11.5t81.5 -11.5t71 -36.5t53 -71t19.5 -110q0 -52 -13.5 -93.5t-36 -67t-53.5 -42.5t-62 -23.5t-66 -6.5z" />
    <glyph glyph-name="uni0490" unicode="&#x490;" 
d="M106 0v572h308v141h96v-234h-292v-479h-112z" />
    <glyph glyph-name="uni0491" unicode="&#x491;" 
d="M119 0v442h286v125h92v-210h-271v-357h-107z" />
    <glyph glyph-name="uni0492" unicode="&#x492;" 
d="M120 0v238h-81v94h81v240h404v-93h-292v-147h208v-94h-208v-238h-112z" />
    <glyph glyph-name="uni0493" unicode="&#x493;" 
d="M139 0v169h-79v83h79v190h378v-85h-271v-105h184v-83h-184v-169h-107z" />
    <glyph glyph-name="uni0496" unicode="&#x496;" 
d="M513 -142v142h-15l-101 266l-50 -82v-184h-94v184l-50 82l-101 -266h-105l140 348l-128 224h109l97 -185l38 -90v275h94v-275l38 90l97 185h109l-128 -224l104 -258h43v-232h-97z" />
    <glyph glyph-name="uni0497" unicode="&#x497;" 
d="M512 -125v125h-11l-107 201l-49 -63v-138h-90v138l-50 63l-106 -201h-102l144 261l-134 181h107l93 -133l48 -80v213h90v-213l48 80l93 133h107l-134 -181l97 -177h47v-209h-91z" />
    <glyph glyph-name="uni0498" unicode="&#x498;" 
d="M256 -142v135q-84 11 -132.5 59.5t-51.5 128.5h109q8 -101 120 -101q52 0 82.5 22t30.5 62q0 42 -32.5 63.5t-86.5 21.5h-28v88h27q107 0 107 75q0 37 -26.5 59t-71.5 22q-47 0 -77.5 -25t-34.5 -78h-110q4 93 66.5 142.5t160.5 49.5q96 0 150.5 -45.5t54.5 -118.5
q0 -88 -85 -125q98 -38 98 -138q0 -66 -47.5 -108.5t-125.5 -52.5v-136h-97z" />
    <glyph glyph-name="uni0499" unicode="&#x499;" 
d="M255 -126v118q-161 14 -169 146h101q6 -65 111 -65q107 0 107 59q0 58 -108 58h-38v72h38q97 0 97 55q0 52 -94 52q-101 0 -108 -64h-101q6 78 64 112.5t144 34.5q90 0 146 -34t56 -95q0 -69 -69 -95q37 -11 59.5 -39.5t22.5 -66.5q0 -55 -45 -88t-122 -41v-119h-92z" />
    <glyph glyph-name="uni049A" unicode="&#x49a;" 
d="M477 -142v142h-40l-162 259l-58 -63v-196h-111v572h111v-242l208 242h133l-210 -234l165 -248h61v-232h-97z" />
    <glyph glyph-name="uni049B" unicode="&#x49b;" 
d="M468 -125v125h-45l-145 218l-65 -53v-165h-107v442h107v-165l192 165h142l-192 -163l142 -195h62v-209h-91z" />
    <glyph glyph-name="uni049C" unicode="&#x49c;" 
d="M88 0v572h105v-234h40v89h61v-89h25l122 234h122l-152 -275l167 -297h-123l-131 245h-30v-91h-61v91h-40v-245h-105z" />
    <glyph glyph-name="uni049D" unicode="&#x49d;" 
d="M90 0v442h100v-175h33v70h57v-70h24l114 175h118l-143 -213l157 -229h-120l-121 183h-29v-71h-57v71h-33v-183h-100z" />
    <glyph glyph-name="uni04A0" unicode="&#x4a0;" 
d="M128 0v478h-124v94h235v-242l208 242h133l-210 -234l225 -338h-136l-162 259l-58 -63v-196h-111z" />
    <glyph glyph-name="uni04A1" unicode="&#x4a1;" 
d="M138 0v357h-130v85h237v-165l192 165h142l-192 -163l203 -279h-135l-145 218l-65 -53v-165h-107z" />
    <glyph glyph-name="uni04A2" unicode="&#x4a2;" 
d="M455 -142v142h-72v245h-166v-245h-111v572h111v-233h166v233h111v-482h58v-232h-97z" />
    <glyph glyph-name="uni04A3" unicode="&#x4a3;" 
d="M455 -125v125h-68v182h-174v-182h-107v442h107v-176h174v176h107v-358h53v-209h-92z" />
    <glyph glyph-name="uni04AA" unicode="&#x4aa;" 
d="M261 -142v135q-199 26 -199 293q0 140 63 218t183 78q220 0 230 -213h-113q-10 118 -117 118q-40 0 -67 -15.5t-40.5 -45t-18.5 -62.5t-5 -78t5 -77.5t18 -62t40.5 -45t67.5 -15.5q55 0 83.5 28.5t33.5 88.5h113q-10 -186 -180 -209v-136h-97z" />
    <glyph glyph-name="uni04AB" unicode="&#x4ab;" 
d="M259 -125v118q-82 10 -134.5 64.5t-52.5 163.5q0 52 13.5 93t36 66.5t53.5 42t62 23t66 6.5q88 0 150 -42t68 -138h-104q-8 92 -114 92q-122 0 -122 -143q0 -144 122 -144q106 0 114 93h104q-5 -81 -52.5 -123.5t-117.5 -52.5v-119h-92z" />
    <glyph glyph-name="uni04AE" unicode="&#x4ae;" 
d="M244 0v226l-217 346h131l74 -125l69 -134l72 134l75 125h124l-216 -345v-227h-112z" />
    <glyph glyph-name="uni04AF" unicode="&#x4af;" 
d="M246 -182v176l-198 448h120l84 -209l50 -136l50 135l86 210h114l-199 -451v-173h-107z" />
    <glyph glyph-name="uni04B0" unicode="&#x4b0;" 
d="M244 0v110h-145v85h145v31l-217 346h131l74 -125l69 -134l72 134l75 125h124l-216 -345v-32h146v-85h-146v-110h-112z" />
    <glyph glyph-name="uni04B1" unicode="&#x4b1;" 
d="M246 -182v182h-153v84h113l-158 358h120l84 -209l50 -136l50 135l86 210h114l-158 -358h114v-84h-155v-182h-107z" />
    <glyph glyph-name="uni04B2" unicode="&#x4b2;" 
d="M469 -142v142h-39l-88 143l-44 73l-43 -73l-92 -143h-124l197 292l-185 280h131l77 -126l43 -72l45 72l78 126h125l-186 -275l137 -207h65v-232h-97z" />
    <glyph glyph-name="uni04B3" unicode="&#x4b3;" 
d="M470 -125v125h-41l-130 155l-129 -155h-131l199 226l-189 216h132l123 -147l119 147h127l-186 -216l124 -142h74v-209h-92z" />
    <glyph glyph-name="uni04B6" unicode="&#x4b6;" 
d="M455 -142v142h-73v238q-52 -13 -107 -13q-181 0 -181 199v148h113v-139q0 -64 20.5 -88t77.5 -24q42 0 77 8v243h112v-482h58v-232h-97z" />
    <glyph glyph-name="uni04B7" unicode="&#x4b7;" 
d="M455 -125v125h-68v167q-51 -12 -108 -12q-183 0 -183 189v98h107v-95q0 -60 23.5 -83t82.5 -23q36 0 78 7v194h107v-358h53v-209h-92z" />
    <glyph glyph-name="uni04B8" unicode="&#x4b8;" 
d="M384 0v238q-18 -4 -55 -10v-84h-61v81q-176 3 -176 199v148h112v-139q0 -53 14 -77.5t50 -31.5v80h61v-82q21 1 55 7v243h113v-572h-113z" />
    <glyph glyph-name="uni04B9" unicode="&#x4b9;" 
d="M390 0v167q-19 -4 -63 -10v-80h-57v78q-177 5 -177 189v98h107v-95q0 -49 16 -73t54 -31v78h57v-80q38 2 63 7v194h107v-442h-107z" />
    <glyph glyph-name="uni04BA" unicode="&#x4ba;" 
d="M106 0v572h112v-239q52 13 107 13q181 0 181 -199v-147h-113v139q0 64 -20.5 87.5t-77.5 23.5q-33 0 -77 -8v-242h-112z" />
    <glyph glyph-name="uni04BB" unicode="&#x4bb;" 
d="M106 0v647h107v-254q44 59 125 59q156 0 156 -179v-273h-107v252q0 58 -17 84.5t-63 26.5q-58 0 -94 -40v-323h-107z" />
    <glyph glyph-name="uni04C1" unicode="&#x4c1;" 
d="M300 627q-40 0 -74.5 15t-56 37t-34.5 42t-18 36l42 32q51 -75 141 -75t141 75l42 -32q-5 -16 -18 -36t-34.5 -42t-56 -37t-74.5 -15zM-3 0l140 348l-128 224h109l97 -185l38 -90v275h94v-275l38 90l97 185h109l-128 -224l140 -348h-105l-101 266l-50 -82v-184h-94v184
l-50 82l-101 -266h-105z" />
    <glyph glyph-name="uni04C2" unicode="&#x4c2;" 
d="M300 518q-40 0 -74.5 15t-56 37t-34.5 42t-18 36l42 32q51 -75 141 -75t141 75l42 -32q-5 -16 -18 -36t-34.5 -42t-56 -37t-74.5 -15zM-3 0l144 261l-134 181h107l93 -133l48 -80v213h90v-213l48 80l93 133h107l-134 -181l144 -261h-102l-107 201l-49 -63v-138h-90v138
l-50 63l-106 -201h-102z" />
    <glyph glyph-name="uni04D8" unicode="&#x4d8;" 
d="M297 -10q-118 0 -177 77t-59 217v27h364q-3 86 -32.5 132.5t-99.5 46.5q-103 0 -123 -103h-109q16 95 78 145t158 50q120 0 180.5 -77.5t60.5 -216.5q0 -138 -60 -218t-181 -80zM298 80q114 0 126 150h-251q6 -72 34.5 -111t90.5 -39z" />
    <glyph glyph-name="uni04D9" unicode="&#x4d9;" 
d="M300 -10q-45 0 -83.5 12t-72 37.5t-52.5 72t-19 109.5v24h346q-5 124 -127 124q-45 0 -73.5 -17.5t-34.5 -49.5h-110q15 79 76.5 114.5t143.5 35.5q104 0 168.5 -55.5t64.5 -173.5q0 -64 -19.5 -111t-53.5 -72.5t-72 -37.5t-82 -12zM300 73q46 0 78.5 24t38.5 73h-234
q6 -49 38.5 -73t78.5 -24z" />
    <glyph glyph-name="uni04E2" unicode="&#x4e2;" 
d="M141 662v85h318v-85h-318zM106 0v572h98v-284l-13 -180l162 464h141v-572h-98v284l13 180l-162 -464h-141z" />
    <glyph glyph-name="uni04E3" unicode="&#x4e3;" 
d="M141 553v85h318v-85h-318zM106 0v442h95v-206l-14 -144l178 350h129v-442h-95v205l14 144l-177 -349h-130z" />
    <glyph glyph-name="uni04E8" unicode="&#x4e8;" 
d="M299 -10q-119 0 -177.5 76t-58.5 217q0 142 59.5 220.5t178.5 78.5q120 0 178 -76.5t58 -216.5q0 -141 -59 -220t-179 -79zM300 84q35 0 59 13t37 37t19 50.5t8 62.5h-246q4 -75 30 -119t93 -44zM177 326h246q-2 36 -8 62.5t-19 50.5t-37 36.5t-59 12.5q-66 0 -93 -43.5
t-30 -118.5z" />
    <glyph glyph-name="uni04E9" unicode="&#x4e9;" 
d="M297 -10q-44 0 -82 11.5t-71 36.5t-52.5 71.5t-19.5 110.5t20 111.5t55 72.5t73.5 36.5t82.5 11.5t81.5 -11.5t71 -36.5t53 -71t19.5 -110q0 -52 -13.5 -93.5t-36 -67t-53.5 -42.5t-62 -23.5t-66 -6.5zM300 75q108 0 120 114h-240q12 -114 120 -114zM180 255h239
q-13 112 -119 112q-107 0 -120 -112z" />
    <glyph glyph-name="uni04EE" unicode="&#x4ee;" 
d="M161 662v85h318v-85h-318zM94 -5v91q63 0 104.5 22.5t69.5 77.5l-227 386h133l89 -165l64 -126l51 126l68 165h122l-183 -392q-48 -103 -111 -144t-180 -41z" />
    <glyph glyph-name="uni04EF" unicode="&#x4ef;" 
d="M141 553v85h318v-85h-318zM69 -187v88q71 0 111 23.5t64 78.5l-196 439h120l85 -209l49 -136l50 135l86 210h114l-185 -420q-52 -118 -114.5 -163.5t-183.5 -45.5z" />
    <glyph glyph-name="uni05B0" unicode="&#x5b0;" horiz-adv-x="0" 
d="M-38 -133v76h76v-76h-76zM-38 -248v76h76v-76h-76z" />
    <glyph glyph-name="uni05B1" unicode="&#x5b1;" horiz-adv-x="0" 
d="M-163 -133v76h76v-76h-76zM-38 -133v76h76v-76h-76zM87 -133v76h76v-76h-76zM-100 -248v76h76v-76h-76zM87 -248v76h76v-76h-76z" />
    <glyph glyph-name="uni05B2" unicode="&#x5b2;" horiz-adv-x="0" 
d="M77 -133v76h76v-76h-76zM-153 -129v68h182v-68h-182zM77 -248v76h76v-76h-76z" />
    <glyph glyph-name="uni05B3" unicode="&#x5b3;" horiz-adv-x="0" 
d="M77 -133v76h76v-76h-76zM-100 -225l12 96h-65v68h182v-68h-65l12 -96h-76zM77 -248v76h76v-76h-76z" />
    <glyph glyph-name="uni05B4" unicode="&#x5b4;" horiz-adv-x="0" 
d="M-38 -133v76h76v-76h-76z" />
    <glyph glyph-name="uni05B5" unicode="&#x5b5;" horiz-adv-x="0" 
d="M-100 -133v76h76v-76h-76zM24 -133v76h76v-76h-76z" />
    <glyph glyph-name="uni05B6" unicode="&#x5b6;" horiz-adv-x="0" 
d="M-100 -133v76h76v-76h-76zM24 -133v76h76v-76h-76zM-38 -248v76h76v-76h-76z" />
    <glyph glyph-name="uni05B7" unicode="&#x5b7;" horiz-adv-x="0" 
d="M-91 -129v68h182v-68h-182z" />
    <glyph glyph-name="uni05B8" unicode="&#x5b8;" horiz-adv-x="0" 
d="M-38 -225l12 96h-65v68h182v-68h-65l12 -96h-76z" />
    <glyph glyph-name="uni05B9" unicode="&#x5b9;" horiz-adv-x="0" 
d="M-38 567v76h76v-76h-76z" />
    <glyph glyph-name="uni05BA" unicode="&#x5ba;" horiz-adv-x="0" 
d="M-38 567v76h76v-76h-76z" />
    <glyph glyph-name="uni05BB" unicode="&#x5bb;" horiz-adv-x="0" 
d="M-145 -133v76h75v-76h-75zM-38 -190v76h76v-76h-76zM70 -248v76h75v-76h-75z" />
    <glyph glyph-name="uni05BC" unicode="&#x5bc;" horiz-adv-x="0" 
d="M-38 227v76h76v-76h-76z" />
    <glyph glyph-name="uni05BD" unicode="&#x5bd;" horiz-adv-x="0" 
d="M-33 -208v154h66v-154h-66z" />
    <glyph glyph-name="uni05BE" unicode="&#x5be;" 
d="M165 416v95h270v-95h-270z" />
    <glyph glyph-name="uni05BF" unicode="&#x5bf;" horiz-adv-x="0" 
d="M-91 566v65h182v-65h-182z" />
    <glyph glyph-name="uni05C0" unicode="&#x5c0;" 
d="M252 -182v829h96v-829h-96z" />
    <glyph glyph-name="uni05C1" unicode="&#x5c1;" horiz-adv-x="0" 
d="M-38 567v76h76v-76h-76z" />
    <glyph glyph-name="uni05C2" unicode="&#x5c2;" horiz-adv-x="0" 
d="M-38 567v76h76v-76h-76z" />
    <glyph glyph-name="uni05C3" unicode="&#x5c3;" 
d="M224 369v142h152v-142h-152zM224 0v142h152v-142h-152z" />
    <glyph glyph-name="uni05C7" unicode="&#x5c7;" horiz-adv-x="0" 
d="M-35 -191l9 62h-49v68h150v-68h-49l9 -62h-70z" />
    <glyph glyph-name="uni05D0" unicode="&#x5d0;" 
d="M415 0l-190 277q-45 -34 -45 -105v-172h-107v182q0 124 97 175l-106 154h121l183 -266q52 35 52 110v156h107v-166q0 -128 -104 -181l113 -164h-121z" />
    <glyph glyph-name="uni05D1" unicode="&#x5d1;" 
d="M91 0v85h267v223q0 64 -24.5 91t-93.5 27h-149v85h173q42 0 74 -7.5t63 -26.5t47.5 -59t16.5 -100v-233h84v-85h-458z" />
    <glyph glyph-name="uni05D2" unicode="&#x5d2;" 
d="M66 0l61 125q43 87 101.5 123.5t138.5 36.5l-4 32q-8 62 -28 87.5t-72 25.5q-47 0 -84 -16v87q44 20 107 20q85 0 127 -44t56 -152l42 -325h-107l-26 201q-59 0 -92.5 -27.5t-62.5 -87.5l-42 -86h-115z" />
    <glyph glyph-name="uni05D3" unicode="&#x5d3;" 
d="M336 0v426h-277v85h466v-85h-82v-426h-107z" />
    <glyph glyph-name="uni05D4" unicode="&#x5d4;" 
d="M406 0v308q0 64 -24.5 91t-93.5 27h-202v85h225q43 0 75 -7.5t63 -26.5t47.5 -59t16.5 -100v-318h-107zM86 0v286h107v-286h-107z" />
    <glyph glyph-name="uni05D5" unicode="&#x5d5;" 
d="M298 0v426h-159v85h266v-511h-107z" />
    <glyph glyph-name="uni05D6" unicode="&#x5d6;" 
d="M324 0l-74 192q-22 56 -22 104q0 69 43 130h-178v85h414v-85h-128q-44 -60 -44 -125q0 -44 22 -101l77 -200h-110z" />
    <glyph glyph-name="uni05D7" unicode="&#x5d7;" 
d="M76 0v511h246q42 0 74.5 -7.5t63.5 -26.5t47.5 -59.5t16.5 -99.5v-318h-107v308q0 64 -25 91t-94 27h-115v-426h-107z" />
    <glyph glyph-name="uni05D8" unicode="&#x5d8;" 
d="M53 250v261h107v-257q0 -176 140 -176t140 176v49q0 70 -18.5 98.5t-68.5 28.5q-51 0 -90 -17v87q45 21 112 21q87 0 129.5 -47.5t42.5 -163.5v-60q0 -73 -20.5 -126t-56.5 -81t-77.5 -40.5t-92.5 -12.5t-92.5 12.5t-77.5 40.5t-56.5 81t-20.5 126z" />
    <glyph glyph-name="uni05D9" unicode="&#x5d9;" 
d="M198 169v83q74 2 117.5 36t43.5 100v38h-225v85h332v-131q0 -95 -70 -151t-198 -60z" />
    <glyph glyph-name="uni05DA" unicode="&#x5da;" 
d="M404 -182v461q0 79 -32 113t-106 34h-197v85h214q50 0 88.5 -10t71.5 -34t50.5 -68.5t17.5 -107.5v-473h-107z" />
    <glyph glyph-name="uni05DB" unicode="&#x5db;" 
d="M95 0v85h169q157 0 157 171q0 88 -39 129t-118 41h-169v85h171q53 0 98 -12.5t83.5 -40.5t60.5 -79t22 -122q0 -72 -22.5 -124t-61 -80t-83 -40.5t-97.5 -12.5h-171z" />
    <glyph glyph-name="uni05DC" unicode="&#x5dc;" 
d="M227 -7v86q179 0 179 174v173h-335v221h102v-136h340v-265q0 -70 -22.5 -120.5t-63.5 -78.5t-90 -41t-110 -13z" />
    <glyph glyph-name="uni05DD" unicode="&#x5dd;" 
d="M76 0v511h246q42 0 74.5 -7.5t63.5 -26.5t47.5 -59.5t16.5 -99.5v-318h-448zM183 85h234v223q0 64 -25 91t-94 27h-115v-341z" />
    <glyph glyph-name="uni05DE" unicode="&#x5de;" 
d="M59 0l49 366l-36 145h97l20 -81q22 39 65.5 65t107.5 26q173 0 173 -214v-307h-238v85h131v215q0 66 -22.5 98t-73.5 32q-77 0 -121 -73l-47 -357h-105z" />
    <glyph glyph-name="uni05DF" unicode="&#x5df;" 
d="M291 -182v608h-152v85h259v-693h-107z" />
    <glyph glyph-name="uni05E0" unicode="&#x5e0;" 
d="M112 0v85h251v231q0 62 -18.5 88t-69.5 26q-49 0 -91 -17v87q46 21 111 21q88 0 131.5 -45.5t43.5 -152.5v-323h-358z" />
    <glyph glyph-name="uni05E1" unicode="&#x5e1;" 
d="M300 78q140 0 140 177q0 178 -140 178t-140 -177q0 -178 140 -178zM300 -10q-49 0 -91 13t-79 42t-58 82.5t-21 127.5t22 128t59.5 83t79 42t88.5 13q49 0 91 -13t79 -42t58 -82.5t21 -127.5t-22 -128t-59.5 -83t-79 -42t-88.5 -13z" />
    <glyph glyph-name="uni05E2" unicode="&#x5e2;" 
d="M39 0v85h128l-88 426h107l84 -423q105 14 127 135l51 288h107l-55 -310q-36 -201 -271 -201h-190z" />
    <glyph glyph-name="uni05E3" unicode="&#x5e3;" 
d="M423 -182v438q0 90 -37 132t-114 42h-94l-10 -71q-4 -25 -4 -46q0 -68 98 -71v-82q-88 0 -142.5 33.5t-54.5 107.5q0 17 3 41l23 169h193q246 0 246 -246v-447h-107z" />
    <glyph glyph-name="uni05E4" unicode="&#x5e4;" 
d="M95 0v85h178q157 0 157 171q0 88 -39 129t-118 41h-91l-5 -36q-4 -25 -4 -47q0 -67 98 -70v-82q-88 0 -142.5 33.5t-54.5 107.5q0 17 3 41l19 138h179q53 0 98 -12.5t83.5 -40.5t60.5 -79t22 -122q0 -72 -22.5 -124t-61 -80t-83 -40.5t-97.5 -12.5h-180z" />
    <glyph glyph-name="uni05E5" unicode="&#x5e5;" 
d="M208 -182l-129 693h108l57 -308l50 12q65 15 92.5 45.5t27.5 83.5v167h107v-179q0 -97 -48 -138t-162 -68l-50 -12l55 -296h-108z" />
    <glyph glyph-name="uni05E6" unicode="&#x5e6;" 
d="M57 0v85h318l-65 76l-257 350h126l176 -240q69 35 69 133v107h107v-117q0 -145 -122 -196l91 -124v-74h-443z" />
    <glyph glyph-name="uni05E7" unicode="&#x5e7;" 
d="M106 -182v468h107v-468h-107zM294 0l162 426h-351v85h464v-77l-166 -434h-109z" />
    <glyph glyph-name="uni05E8" unicode="&#x5e8;" 
d="M398 0v288q0 76 -31 107t-107 31h-189v85h210q102 0 163 -47t61 -166v-298h-107z" />
    <glyph glyph-name="uni05E9" unicode="&#x5e9;" 
d="M50 205v306h95v-291v-16l7 2q51 15 76 41t25 77v187h94v-199q0 -79 -43 -116.5t-136 -62.5q38 -58 132 -58q71 0 113 35.5t42 109.5v291h95v-306q0 -109 -71.5 -162t-178.5 -53t-178.5 53t-71.5 162z" />
    <glyph glyph-name="uni05EA" unicode="&#x5ea;" 
d="M49 0v85h70v194q0 88 25 147h-95v85h281q42 0 74.5 -7.5t63.5 -26.5t47.5 -59.5t16.5 -99.5v-318h-107v308q0 64 -24.5 91t-94.5 27h-58q-22 -57 -22 -156v-270h-177z" />
    <glyph glyph-name="uni05F0" unicode="&#x5f0;" 
d="M140 0v426h-82v85h189v-511h-107zM385 0v426h-82v85h189v-511h-107z" />
    <glyph glyph-name="uni05F1" unicode="&#x5f1;" 
d="M421 0v426h-82v85h189v-511h-107zM75 184v83q100 13 100 119v40h-116v85h223v-130q0 -89 -52.5 -139.5t-154.5 -57.5z" />
    <glyph glyph-name="uni05F2" unicode="&#x5f2;" 
d="M70 184v83q100 13 100 119v40h-116v85h223v-130q0 -89 -52.5 -139.5t-154.5 -57.5zM339 184v83q100 13 100 119v40h-116v85h223v-130q0 -89 -52.5 -139.5t-154.5 -57.5z" />
    <glyph glyph-name="uni05F3" unicode="&#x5f3;" 
d="M209 331l57 232h153l-140 -247q-19 -33 -43 -33q-30 0 -30 28q0 8 3 20z" />
    <glyph glyph-name="uni05F4" unicode="&#x5f4;" 
d="M331 331l57 232h153l-140 -247q-19 -33 -43 -33q-30 0 -30 28q0 8 3 20zM104 331l57 232h153l-140 -247q-19 -33 -43 -33q-30 0 -30 28q0 8 3 20z" />
    <glyph glyph-name="uni0E3F" unicode="&#xe3f;" 
d="M105 0v572h151v85h91v-88q80 -9 125.5 -50.5t45.5 -105.5q0 -80 -79 -117q100 -36 100 -130q0 -69 -52.5 -114t-139.5 -51v-85h-91v84h-151zM212 247v-154h101q110 0 110 78q0 76 -112 76h-99zM212 480v-145h78q111 0 111 70q0 75 -108 75h-81z" />
    <glyph glyph-name="uni1E04" unicode="&#x1e04;" 
d="M243 -182v118h118v-118h-118zM106 0v572h196q99 0 157 -43t58 -117q0 -79 -75 -115q40 -14 68.5 -46.5t28.5 -84.5q0 -74 -60.5 -120t-158.5 -46h-214zM217 247v-155h96q110 0 110 79q0 76 -112 76h-94zM217 479v-144h72q60 0 86 17.5t26 52.5q0 74 -109 74h-75z" />
    <glyph glyph-name="uni1E05" unicode="&#x1e05;" 
d="M255 -182v118h118v-118h-118zM344 -10q-96 0 -146 68v-58h-93v647h107v-251q50 56 132 56q80 0 132.5 -58t52.5 -173t-53 -173t-132 -58zM311 79q108 0 108 142t-108 142q-58 0 -99 -39v-206q41 -39 99 -39z" />
    <glyph glyph-name="uni1E0C" unicode="&#x1e0c;" 
d="M241 -182v118h118v-118h-118zM106 0v572h179q137 0 195.5 -72.5t58.5 -213.5q0 -286 -254 -286h-179zM217 478v-384h68q44 0 72.5 15t42 44t18.5 59.5t5 73.5t-5 73.5t-18.5 59.5t-42 44t-72.5 15h-68z" />
    <glyph glyph-name="uni1E0D" unicode="&#x1e0d;" 
d="M241 -182v118h118v-118h-118zM256 -10q-80 0 -132.5 58t-52.5 173t53 173t132 58q82 0 132 -56v251h107v-647h-93v58q-50 -68 -146 -68zM289 79q58 0 99 39v206q-41 39 -99 39q-108 0 -108 -142t108 -142z" />
    <glyph glyph-name="uni1E0E" unicode="&#x1e0e;" 
d="M141 -163v85h318v-85h-318zM106 0v572h179q137 0 195.5 -72.5t58.5 -213.5q0 -286 -254 -286h-179zM217 478v-384h68q44 0 72.5 15t42 44t18.5 59.5t5 73.5t-5 73.5t-18.5 59.5t-42 44t-72.5 15h-68z" />
    <glyph glyph-name="uni1E0F" unicode="&#x1e0f;" 
d="M141 -163v85h318v-85h-318zM256 -10q-80 0 -132.5 58t-52.5 173t53 173t132 58q82 0 132 -56v251h107v-647h-93v58q-50 -68 -146 -68zM289 79q58 0 99 39v206q-41 39 -99 39q-108 0 -108 -142t108 -142z" />
    <glyph glyph-name="uni1E20" unicode="&#x1e20;" 
d="M136 662v85h318v-85h-318zM272 -10q-110 0 -160 81.5t-50 214.5q0 139 59.5 217.5t178.5 78.5q208 0 217 -199h-112q-5 52 -30 78t-75 26q-40 0 -66 -16.5t-37.5 -48.5t-15.5 -62.5t-4 -73.5q0 -48 4.5 -80.5t17.5 -61.5t39.5 -43.5t66.5 -14.5q60 0 102 40v101h-120v86
h229v-313h-94v61q-54 -71 -150 -71z" />
    <glyph glyph-name="uni1E21" unicode="&#x1e21;" 
d="M124 553v85h318v-85h-318zM281 -192q-198 0 -202 166h103q2 -42 25.5 -63.5t77.5 -21.5q63 0 83 27.5t20 80.5v63q-51 -53 -129 -53q-82 0 -135 56t-53 165t54 166.5t134 57.5q50 0 87.5 -20t55.5 -47v57h93v-454q0 -180 -214 -180zM291 95q57 0 97 38v192q-41 39 -97 39
t-83 -36t-27 -99t27 -98.5t83 -35.5z" />
    <glyph glyph-name="uni1E24" unicode="&#x1e24;" 
d="M241 -182v118h118v-118h-118zM106 0v572h111v-234h166v234h111v-572h-111v245h-166v-245h-111z" />
    <glyph glyph-name="uni1E25" unicode="&#x1e25;" 
d="M241 -182v118h118v-118h-118zM106 0v647h107v-254q44 59 125 59q156 0 156 -179v-273h-107v252q0 58 -17 84.5t-63 26.5q-58 0 -94 -40v-323h-107z" />
    <glyph glyph-name="uni1E2A" unicode="&#x1e2a;" 
d="M300 -198q-74 0 -121 41.5t-60 79.5l42 33q48 -68 139 -68t139 68l42 -33q-13 -38 -60 -79.5t-121 -41.5zM106 0v572h111v-234h166v234h111v-572h-111v245h-166v-245h-111z" />
    <glyph glyph-name="uni1E2B" unicode="&#x1e2b;" 
d="M300 -198q-74 0 -121 41.5t-60 79.5l42 33q48 -68 139 -68t139 68l42 -33q-13 -38 -60 -79.5t-121 -41.5zM106 0v647h107v-254q44 59 125 59q156 0 156 -179v-273h-107v252q0 58 -17 84.5t-63 26.5q-58 0 -94 -40v-323h-107z" />
    <glyph glyph-name="uni1E32" unicode="&#x1e32;" 
d="M265 -182v118h118v-118h-118zM106 0v572h111v-242l208 242h133l-210 -234l225 -338h-136l-162 259l-58 -63v-196h-111z" />
    <glyph glyph-name="uni1E33" unicode="&#x1e33;" 
d="M258 -182v118h118v-118h-118zM106 0v647h107v-372l192 167h142l-191 -162l202 -280h-129l-149 221l-67 -54v-167h-107z" />
    <glyph glyph-name="uni1E36" unicode="&#x1e36;" 
d="M254 -182v118h118v-118h-118zM106 0v572h111v-478h293v-94h-404z" />
    <glyph glyph-name="uni1E37" unicode="&#x1e37;" 
d="M241 -182v118h118v-118h-118zM99 0v84h147v479h-147v84h254v-563h148v-84h-402z" />
    <glyph glyph-name="uni1E38" unicode="&#x1e38;" 
d="M254 -182v118h118v-118h-118zM4 662v85h318v-85h-318zM106 0v572h111v-478h293v-94h-404z" />
    <glyph glyph-name="uni1E39" unicode="&#x1e39;" 
d="M241 -182v118h118v-118h-118zM142 737v85h318v-85h-318zM99 0v84h147v479h-147v84h254v-563h148v-84h-402z" />
    <glyph glyph-name="uni1E3A" unicode="&#x1e3a;" 
d="M154 -163v85h318v-85h-318zM106 0v572h111v-478h293v-94h-404z" />
    <glyph glyph-name="uni1E3B" unicode="&#x1e3b;" 
d="M141 -163v85h318v-85h-318zM99 0v84h147v479h-147v84h254v-563h148v-84h-402z" />
    <glyph glyph-name="uni1E3E" unicode="&#x1e3e;" 
d="M235 609l78 199h120l-134 -199h-64zM75 0v572h138l54 -166l36 -126l34 126l54 166h134v-572h-99v292l12 176l-99 -313h-78l-99 313l12 -176v-292h-99z" />
    <glyph glyph-name="uni1E3F" unicode="&#x1e3f;" 
d="M235 500l78 199h120l-134 -199h-64zM58 0v442h81v-63q39 73 109 73q36 0 59 -20t31 -48q39 68 107 68q97 0 97 -147v-305h-95v288q0 41 -8.5 58.5t-29.5 17.5q-31 0 -61 -37v-327h-95v288q0 41 -8.5 58.5t-29.5 17.5q-32 0 -62 -37v-327h-95z" />
    <glyph glyph-name="uni1E40" unicode="&#x1e40;" 
d="M241 644v118h118v-118h-118zM75 0v572h138l54 -166l36 -126l34 126l54 166h134v-572h-99v292l12 176l-99 -313h-78l-99 313l12 -176v-292h-99z" />
    <glyph glyph-name="uni1E41" unicode="&#x1e41;" 
d="M241 535v118h118v-118h-118zM58 0v442h81v-63q39 73 109 73q36 0 59 -20t31 -48q39 68 107 68q97 0 97 -147v-305h-95v288q0 41 -8.5 58.5t-29.5 17.5q-31 0 -61 -37v-327h-95v288q0 41 -8.5 58.5t-29.5 17.5q-32 0 -62 -37v-327h-95z" />
    <glyph glyph-name="uni1E42" unicode="&#x1e42;" 
d="M241 -182v118h118v-118h-118zM75 0v572h138l54 -166l36 -126l34 126l54 166h134v-572h-99v292l12 176l-99 -313h-78l-99 313l12 -176v-292h-99z" />
    <glyph glyph-name="uni1E43" unicode="&#x1e43;" 
d="M241 -182v118h118v-118h-118zM58 0v442h81v-63q39 73 109 73q36 0 59 -20t31 -48q39 68 107 68q97 0 97 -147v-305h-95v288q0 41 -8.5 58.5t-29.5 17.5q-31 0 -61 -37v-327h-95v288q0 41 -8.5 58.5t-29.5 17.5q-32 0 -62 -37v-327h-95z" />
    <glyph glyph-name="uni1E44" unicode="&#x1e44;" 
d="M241 644v118h118v-118h-118zM106 0v572h141l162 -464l-13 180v284h98v-572h-141l-162 464l13 -180v-284h-98z" />
    <glyph glyph-name="uni1E45" unicode="&#x1e45;" 
d="M241 535v118h118v-118h-118zM106 0v442h93v-60q51 70 137 70q158 0 158 -179v-273h-107v252q0 58 -17 84.5t-63 26.5q-58 0 -94 -40v-323h-107z" />
    <glyph glyph-name="uni1E46" unicode="&#x1e46;" 
d="M240 -182v118h118v-118h-118zM106 0v572h141l162 -464l-13 180v284h98v-572h-141l-162 464l13 -180v-284h-98z" />
    <glyph glyph-name="uni1E47" unicode="&#x1e47;" 
d="M241 -182v118h118v-118h-118zM106 0v442h93v-60q51 70 137 70q158 0 158 -179v-273h-107v252q0 58 -17 84.5t-63 26.5q-58 0 -94 -40v-323h-107z" />
    <glyph glyph-name="uni1E48" unicode="&#x1e48;" 
d="M140 -163v85h318v-85h-318zM106 0v572h141l162 -464l-13 180v284h98v-572h-141l-162 464l13 -180v-284h-98z" />
    <glyph glyph-name="uni1E49" unicode="&#x1e49;" 
d="M141 -163v85h318v-85h-318zM106 0v442h93v-60q51 70 137 70q158 0 158 -179v-273h-107v252q0 58 -17 84.5t-63 26.5q-58 0 -94 -40v-323h-107z" />
    <glyph glyph-name="uni1E56" unicode="&#x1e56;" 
d="M239 644v118h118v-118h-118zM106 0v572h188q110 0 177 -47t67 -142t-66.5 -142t-177.5 -47h-77v-194h-111zM217 478v-191h78q128 0 128 96q0 95 -128 95h-78z" />
    <glyph glyph-name="uni1E57" unicode="&#x1e57;" 
d="M241 535v118h118v-118h-118zM105 -182v624h93v-58q50 68 146 68q80 0 132.5 -58t52.5 -173t-53 -173t-132 -58q-82 0 -132 56v-228h-107zM311 79q108 0 108 142q0 141 -108 141q-59 0 -99 -38v-207q40 -38 99 -38z" />
    <glyph glyph-name="uni1E58" unicode="&#x1e58;" 
d="M245 644v118h118v-118h-118zM106 0v572h168q113 0 178.5 -46t65.5 -142q0 -59 -34.5 -102.5t-88.5 -61.5l164 -220h-136l-137 200h-69v-200h-111zM217 478v-188h57q130 0 130 94t-130 94h-57z" />
    <glyph glyph-name="uni1E59" unicode="&#x1e59;" 
d="M257 535v118h118v-118h-118zM99 0v84h109v273h-109v85h202v-100q43 110 150 110q48 0 83 -19v-108q-36 21 -85 21q-85 0 -134 -64v-198h186v-84h-402z" />
    <glyph glyph-name="uni1E5A" unicode="&#x1e5a;" 
d="M260 -182v118h118v-118h-118zM106 0v572h168q113 0 178.5 -46t65.5 -142q0 -59 -34.5 -102.5t-88.5 -61.5l164 -220h-136l-137 200h-69v-200h-111zM217 478v-188h57q130 0 130 94t-130 94h-57z" />
    <glyph glyph-name="uni1E5B" unicode="&#x1e5b;" 
d="M204 -182v118h118v-118h-118zM99 0v84h109v273h-109v85h202v-100q43 110 150 110q48 0 83 -19v-108q-36 21 -85 21q-85 0 -134 -64v-198h186v-84h-402z" />
    <glyph glyph-name="uni1E5C" unicode="&#x1e5c;" 
d="M260 -182v118h118v-118h-118zM145 662v85h318v-85h-318zM106 0v572h168q113 0 178.5 -46t65.5 -142q0 -59 -34.5 -102.5t-88.5 -61.5l164 -220h-136l-137 200h-69v-200h-111zM217 478v-188h57q130 0 130 94t-130 94h-57z" />
    <glyph glyph-name="uni1E5D" unicode="&#x1e5d;" 
d="M204 -182v118h118v-118h-118zM157 553v85h318v-85h-318zM99 0v84h109v273h-109v85h202v-100q43 110 150 110q48 0 83 -19v-108q-36 21 -85 21q-85 0 -134 -64v-198h186v-84h-402z" />
    <glyph glyph-name="uni1E5E" unicode="&#x1e5e;" 
d="M160 -163v85h318v-85h-318zM106 0v572h168q113 0 178.5 -46t65.5 -142q0 -59 -34.5 -102.5t-88.5 -61.5l164 -220h-136l-137 200h-69v-200h-111zM217 478v-188h57q130 0 130 94t-130 94h-57z" />
    <glyph glyph-name="uni1E5F" unicode="&#x1e5f;" 
d="M141 -163v85h318v-85h-318zM99 0v84h109v273h-109v85h202v-100q43 110 150 110q48 0 83 -19v-108q-36 21 -85 21q-85 0 -134 -64v-198h186v-84h-402z" />
    <glyph glyph-name="uni1E60" unicode="&#x1e60;" 
d="M241 644v118h118v-118h-118zM298 -10q-101 0 -162 46t-61 136h108q7 -90 117 -90q54 0 84 18.5t30 52.5q0 27 -18 42t-55 28l-128 42q-124 41 -124 152q0 78 59.5 121.5t153.5 43.5q92 0 150 -44t59 -135h-109q-3 46 -27.5 66.5t-73.5 20.5q-51 0 -77 -18.5t-25 -47.5
q1 -25 15 -40.5t48 -26.5l130 -43q61 -20 96.5 -55t35.5 -98q0 -83 -63 -127t-163 -44z" />
    <glyph glyph-name="uni1E61" unicode="&#x1e61;" 
d="M240 535v118h118v-118h-118zM297 -10q-96 0 -156 36t-62 113h105q6 -67 119 -67q109 0 109 50q0 27 -31 39t-100 24q-16 2 -25 4q-79 14 -124 42t-45 91q0 65 57.5 97.5t145.5 32.5q200 0 210 -140h-105q-8 58 -104 58q-95 0 -95 -42q0 -29 46 -43q24 -7 112 -21
q48 -8 81.5 -19.5t60 -40t26.5 -71.5q0 -75 -61.5 -109t-163.5 -34z" />
    <glyph glyph-name="uni1E62" unicode="&#x1e62;" 
d="M241 -182v118h118v-118h-118zM298 -10q-101 0 -162 46t-61 136h108q7 -90 117 -90q54 0 84 18.5t30 52.5q0 27 -18 42t-55 28l-128 42q-124 41 -124 152q0 78 59.5 121.5t153.5 43.5q92 0 150 -44t59 -135h-109q-3 46 -27.5 66.5t-73.5 20.5q-51 0 -77 -18.5t-25 -47.5
q1 -25 15 -40.5t48 -26.5l130 -43q61 -20 96.5 -55t35.5 -98q0 -83 -63 -127t-163 -44z" />
    <glyph glyph-name="uni1E63" unicode="&#x1e63;" 
d="M240 -182v118h118v-118h-118zM297 -10q-96 0 -156 36t-62 113h105q6 -67 119 -67q109 0 109 50q0 27 -31 39t-100 24q-16 2 -25 4q-79 14 -124 42t-45 91q0 65 57.5 97.5t145.5 32.5q200 0 210 -140h-105q-8 58 -104 58q-95 0 -95 -42q0 -29 46 -43q24 -7 112 -21
q48 -8 81.5 -19.5t60 -40t26.5 -71.5q0 -75 -61.5 -109t-163.5 -34z" />
    <glyph glyph-name="uni1E6C" unicode="&#x1e6c;" 
d="M241 -182v118h118v-118h-118zM244 0v478h-189v94h490v-94h-189v-478h-112z" />
    <glyph glyph-name="uni1E6D" unicode="&#x1e6d;" 
d="M299 -182v118h118v-118h-118zM369 -10q-90 0 -132 43.5t-42 154.5v169h-141v85h141v205h107v-205h217v-85h-217v-165q0 -64 18 -88t72 -24q58 0 110 22v-86q-59 -26 -133 -26z" />
    <glyph glyph-name="uni1E6E" unicode="&#x1e6e;" 
d="M141 -163v85h318v-85h-318zM244 0v478h-189v94h490v-94h-189v-478h-112z" />
    <glyph glyph-name="uni1E6F" unicode="&#x1e6f;" 
d="M199 -163v85h318v-85h-318zM369 -10q-90 0 -132 43.5t-42 154.5v169h-141v85h141v205h107v-205h217v-85h-217v-165q0 -64 18 -88t72 -24q58 0 110 22v-86q-59 -26 -133 -26z" />
    <glyph glyph-name="uni1E7E" unicode="&#x1e7e;" 
d="M241 -182v118h118v-118h-118zM243 0l-206 572h125l94 -289l47 -161l47 160l93 290h120l-206 -572h-114z" />
    <glyph glyph-name="uni1E7F" unicode="&#x1e7f;" 
d="M243 -182v118h118v-118h-118zM243 0l-195 442h120l84 -209l50 -136l50 135l86 210h114l-195 -442h-114z" />
    <glyph glyph-name="Wgrave" unicode="&#x1e80;" 
d="M300 609l-134 199h120l78 -199h-64zM100 0l-67 572h108l27 -288l13 -181l74 284h93l73 -283l14 180l26 288h106l-67 -572h-131l-69 251l-69 -251h-131z" />
    <glyph glyph-name="wgrave" unicode="&#x1e81;" 
d="M300 500l-134 199h120l78 -199h-64zM112 0l-77 442h101l46 -357l63 269h112l65 -269l45 357h98l-77 -442h-125l-63 254l-63 -254h-125z" />
    <glyph glyph-name="Wacute" unicode="&#x1e82;" 
d="M235 609l78 199h120l-134 -199h-64zM100 0l-67 572h108l27 -288l13 -181l74 284h93l73 -283l14 180l26 288h106l-67 -572h-131l-69 251l-69 -251h-131z" />
    <glyph glyph-name="wacute" unicode="&#x1e83;" 
d="M235 500l78 199h120l-134 -199h-64zM112 0l-77 442h101l46 -357l63 269h112l65 -269l45 357h98l-77 -442h-125l-63 254l-63 -254h-125z" />
    <glyph glyph-name="Wdieresis" unicode="&#x1e84;" 
d="M132 644v118h118v-118h-118zM350 644v118h118v-118h-118zM100 0l-67 572h108l27 -288l13 -181l74 284h93l73 -283l14 180l26 288h106l-67 -572h-131l-69 251l-69 -251h-131z" />
    <glyph glyph-name="wdieresis" unicode="&#x1e85;" 
d="M132 535v118h118v-118h-118zM350 535v118h118v-118h-118zM112 0l-77 442h101l46 -357l63 269h112l65 -269l45 357h98l-77 -442h-125l-63 254l-63 -254h-125z" />
    <glyph glyph-name="uni1E86" unicode="&#x1e86;" 
d="M241 644v118h118v-118h-118zM100 0l-67 572h108l27 -288l13 -181l74 284h93l73 -283l14 180l26 288h106l-67 -572h-131l-69 251l-69 -251h-131z" />
    <glyph glyph-name="uni1E87" unicode="&#x1e87;" 
d="M241 535v118h118v-118h-118zM112 0l-77 442h101l46 -357l63 269h112l65 -269l45 357h98l-77 -442h-125l-63 254l-63 -254h-125z" />
    <glyph glyph-name="uni1E88" unicode="&#x1e88;" 
d="M241 -182v118h118v-118h-118zM100 0l-67 572h108l27 -288l13 -181l74 284h93l73 -283l14 180l26 288h106l-67 -572h-131l-69 251l-69 -251h-131z" />
    <glyph glyph-name="uni1E89" unicode="&#x1e89;" 
d="M241 -182v118h118v-118h-118zM112 0l-77 442h101l46 -357l63 269h112l65 -269l45 357h98l-77 -442h-125l-63 254l-63 -254h-125z" />
    <glyph glyph-name="uni1E8A" unicode="&#x1e8a;" 
d="M241 644v118h118v-118h-118zM39 0l197 292l-185 280h131l77 -126l43 -72l45 72l78 126h125l-186 -275l197 -297h-131l-88 143l-44 73l-43 -73l-92 -143h-124z" />
    <glyph glyph-name="uni1E8B" unicode="&#x1e8b;" 
d="M241 535v118h118v-118h-118zM39 0l199 226l-189 216h132l123 -147l119 147h127l-186 -216l197 -226h-132l-130 155l-129 -155h-131z" />
    <glyph glyph-name="uni1E8E" unicode="&#x1e8e;" 
d="M241 644v118h118v-118h-118zM244 0v226l-217 346h131l74 -125l69 -134l72 134l75 125h124l-216 -345v-227h-112z" />
    <glyph glyph-name="uni1E8F" unicode="&#x1e8f;" 
d="M241 535v118h118v-118h-118zM69 -187v88q71 0 111 23.5t64 78.5l-196 439h120l85 -209l49 -136l50 135l86 210h114l-185 -420q-52 -118 -114.5 -163.5t-183.5 -45.5z" />
    <glyph glyph-name="uni1E92" unicode="&#x1e92;" 
d="M241 -182v118h118v-118h-118zM79 0v79l292 399h-287v94h430v-79l-293 -399h300v-94h-442z" />
    <glyph glyph-name="uni1E93" unicode="&#x1e93;" 
d="M241 -182v118h118v-118h-118zM92 0v75l268 282h-263v85h406v-75l-269 -283h274v-84h-416z" />
    <glyph glyph-name="uni1E97" unicode="&#x1e97;" 
d="M82 719v118h118v-118h-118zM300 719v118h118v-118h-118zM369 -10q-90 0 -132 43.5t-42 154.5v169h-141v85h141v205h107v-205h217v-85h-217v-165q0 -64 18 -88t72 -24q58 0 110 22v-86q-59 -26 -133 -26z" />
    <glyph glyph-name="uni1E9E" unicode="&#x1e9e;" 
d="M273 326l120 155h-176v-481h-111v572h405v-86l-131 -169q73 -19 117 -61.5t44 -111.5q0 -70 -46.5 -112t-124.5 -42q-64 0 -97 19v90q36 -19 80 -19q36 0 57 17.5t21 49.5q0 90 -158 114v65z" />
    <glyph glyph-name="uni1EA0" unicode="&#x1ea0;" 
d="M241 -182v118h118v-118h-118zM40 0l201 572h118l201 -572h-119l-42 126h-201l-41 -126h-117zM242 273l-19 -59h148l-19 59l-55 185z" />
    <glyph glyph-name="uni1EA1" unicode="&#x1ea1;" 
d="M252 -182v118h118v-118h-118zM230 -10q-69 0 -112.5 31.5t-43.5 94.5q0 129 182 129q69 0 121 -16v36q0 50 -18 76t-74 26q-98 0 -98 -77h-101q0 58 30 95.5t74.5 52t101.5 14.5q192 0 192 -173v-183q0 -13 5.5 -18t18.5 -5q18 0 42 6v-71q-40 -18 -85 -18q-72 0 -72 62
v8q-56 -70 -163 -70zM255 70q77 0 122 37v56q-34 9 -98 9q-48 0 -73 -11.5t-25 -41.5q0 -49 74 -49z" />
    <glyph glyph-name="uni1EA2" unicode="&#x1ea2;" 
d="M292 604l-27 36q68 51 68 86q0 38 -42 38q-44 0 -44 -41h-66q0 52 30.5 77t83.5 25q52 0 81 -23t29 -63q0 -38 -27 -68t-86 -67zM40 0l201 572h118l201 -572h-119l-42 126h-201l-41 -126h-117zM242 273l-19 -59h148l-19 59l-55 185z" />
    <glyph glyph-name="uni1EA3" unicode="&#x1ea3;" 
d="M282 495l-27 36q68 51 68 86q0 38 -42 38q-44 0 -44 -41h-66q0 52 30.5 77t83.5 25q52 0 81 -23t29 -63q0 -38 -27 -68t-86 -67zM230 -10q-69 0 -112.5 31.5t-43.5 94.5q0 129 182 129q69 0 121 -16v36q0 50 -18 76t-74 26q-98 0 -98 -77h-101q0 58 30 95.5t74.5 52
t101.5 14.5q192 0 192 -173v-183q0 -13 5.5 -18t18.5 -5q18 0 42 6v-71q-40 -18 -85 -18q-72 0 -72 62v8q-56 -70 -163 -70zM255 70q77 0 122 37v56q-34 9 -98 9q-48 0 -73 -11.5t-25 -41.5q0 -49 74 -49z" />
    <glyph glyph-name="uni1EA4" unicode="&#x1ea4;" 
d="M347 780l115 -166h-70l-92 91l-92 -91h-70l115 166h94zM421 720l40 155h99l-87 -155h-52zM40 0l201 572h118l201 -572h-119l-42 126h-201l-41 -126h-117zM242 273l-19 -59h148l-19 59l-55 185z" />
    <glyph glyph-name="uni1EA5" unicode="&#x1ea5;" 
d="M124 500l119 197h94l119 -197h-69l-97 111l-97 -111h-69zM395 676l59 197h106l-105 -197h-60zM230 -10q-69 0 -112.5 31.5t-43.5 94.5q0 129 182 129q69 0 121 -16v36q0 50 -18 76t-74 26q-98 0 -98 -77h-101q0 58 30 95.5t74.5 52t101.5 14.5q192 0 192 -173v-183
q0 -13 5.5 -18t18.5 -5q18 0 42 6v-71q-40 -18 -85 -18q-72 0 -72 62v8q-56 -70 -163 -70zM255 70q77 0 122 37v56q-34 9 -98 9q-48 0 -73 -11.5t-25 -41.5q0 -49 74 -49z" />
    <glyph glyph-name="uni1EA6" unicode="&#x1ea6;" 
d="M138 614l115 166h94l115 -166h-70l-92 91l-92 -91h-70zM139 875l40 -155h-52l-87 155h99zM40 0l201 572h118l201 -572h-119l-42 126h-201l-41 -126h-117zM242 273l-19 -59h148l-19 59l-55 185z" />
    <glyph glyph-name="uni1EA7" unicode="&#x1ea7;" 
d="M124 500l119 197h94l119 -197h-69l-97 111l-97 -111h-69zM125 676l-105 197h106l59 -197h-60zM230 -10q-69 0 -112.5 31.5t-43.5 94.5q0 129 182 129q69 0 121 -16v36q0 50 -18 76t-74 26q-98 0 -98 -77h-101q0 58 30 95.5t74.5 52t101.5 14.5q192 0 192 -173v-183
q0 -13 5.5 -18t18.5 -5q18 0 42 6v-71q-40 -18 -85 -18q-72 0 -72 62v8q-56 -70 -163 -70zM255 70q77 0 122 37v56q-34 9 -98 9q-48 0 -73 -11.5t-25 -41.5q0 -49 74 -49z" />
    <glyph glyph-name="uni1EA8" unicode="&#x1ea8;" 
d="M338 763l121 -149h-67l-92 75l-92 -75h-67l121 149h76zM453 679l-30 32q41 28 55 45.5t14 34.5q0 36 -43 36q-44 0 -44 -39h-61q0 94 108 94q50 0 78.5 -21t28.5 -58q0 -35 -25.5 -64t-80.5 -60zM40 0l201 572h118l201 -572h-119l-42 126h-201l-41 -126h-117zM242 273
l-19 -59h148l-19 59l-55 185z" />
    <glyph glyph-name="uni1EA9" unicode="&#x1ea9;" 
d="M124 500l119 197h94l119 -197h-69l-97 111l-97 -111h-69zM422 657l-27 36q68 51 68 86q0 39 -43 39q-44 0 -44 -42h-66q0 52 31 77t83 25t81.5 -22.5t29.5 -63.5q0 -38 -27 -68t-86 -67zM230 -10q-69 0 -112.5 31.5t-43.5 94.5q0 129 182 129q69 0 121 -16v36
q0 50 -18 76t-74 26q-98 0 -98 -77h-101q0 58 30 95.5t74.5 52t101.5 14.5q192 0 192 -173v-183q0 -13 5.5 -18t18.5 -5q18 0 42 6v-71q-40 -18 -85 -18q-72 0 -72 62v8q-56 -70 -163 -70zM255 70q77 0 122 37v56q-34 9 -98 9q-48 0 -73 -11.5t-25 -41.5q0 -49 74 -49z" />
    <glyph glyph-name="uni1EAA" unicode="&#x1eaa;" 
d="M165 771l-35 22q43 88 113 88q28 0 72 -24q30 -17 50 -17q40 0 70 41l35 -22q-43 -88 -113 -88q-29 0 -63 19q-40 22 -59 22q-41 0 -70 -41zM339 751l120 -137h-67l-92 69l-92 -69h-67l120 137h78zM40 0l201 572h118l201 -572h-119l-42 126h-201l-41 -126h-117zM242 273
l-19 -59h148l-19 59l-55 185z" />
    <glyph glyph-name="uni1EAB" unicode="&#x1eab;" 
d="M124 500l121 191h90l121 -191h-69l-97 106l-97 -106h-69zM150 724l-46 22q15 50 45 87.5t75 37.5q16 0 32.5 -7t24.5 -12.5t25 -18.5q35 -27 54 -27q35 0 70 65l46 -21q-15 -50 -45 -88t-75 -38q-31 0 -71 30q-2 2 -10.5 8.5t-11.5 9t-10 7t-11.5 6.5t-10 3.5t-11.5 1.5
q-35 0 -70 -66zM230 -10q-69 0 -112.5 31.5t-43.5 94.5q0 129 182 129q69 0 121 -16v36q0 50 -18 76t-74 26q-98 0 -98 -77h-101q0 58 30 95.5t74.5 52t101.5 14.5q192 0 192 -173v-183q0 -13 5.5 -18t18.5 -5q18 0 42 6v-71q-40 -18 -85 -18q-72 0 -72 62v8
q-56 -70 -163 -70zM255 70q77 0 122 37v56q-34 9 -98 9q-48 0 -73 -11.5t-25 -41.5q0 -49 74 -49z" />
    <glyph glyph-name="uni1EAC" unicode="&#x1eac;" 
d="M241 -182v118h118v-118h-118zM134 609l119 199h94l119 -199h-69l-97 110l-97 -110h-69zM40 0l201 572h118l201 -572h-119l-42 126h-201l-41 -126h-117zM242 273l-19 -59h148l-19 59l-55 185z" />
    <glyph glyph-name="uni1EAD" unicode="&#x1ead;" 
d="M252 -182v118h118v-118h-118zM124 500l119 199h94l119 -199h-69l-97 110l-97 -110h-69zM230 -10q-69 0 -112.5 31.5t-43.5 94.5q0 129 182 129q69 0 121 -16v36q0 50 -18 76t-74 26q-98 0 -98 -77h-101q0 58 30 95.5t74.5 52t101.5 14.5q192 0 192 -173v-183
q0 -13 5.5 -18t18.5 -5q18 0 42 6v-71q-40 -18 -85 -18q-72 0 -72 62v8q-56 -70 -163 -70zM255 70q77 0 122 37v56q-34 9 -98 9q-48 0 -73 -11.5t-25 -41.5q0 -49 74 -49z" />
    <glyph glyph-name="uni1EAE" unicode="&#x1eae;" 
d="M300 616q-74 0 -121.5 41.5t-59.5 80.5l41 29q54 -76 140 -76t140 76l41 -29q-12 -39 -59.5 -80.5t-121.5 -41.5zM269 735l46 140h114l-106 -140h-54zM40 0l201 572h118l201 -572h-119l-42 126h-201l-41 -126h-117zM242 273l-19 -59h148l-19 59l-55 185z" />
    <glyph glyph-name="uni1EAF" unicode="&#x1eaf;" 
d="M290 519q-40 0 -74 14.5t-55.5 36.5t-34.5 42t-18 36l41 32q51 -75 141 -75t141 75l41 -32q-5 -16 -18 -36t-34.5 -42t-55.5 -36.5t-74 -14.5zM261 688l71 185h117l-128 -185h-60zM230 -10q-69 0 -112.5 31.5t-43.5 94.5q0 129 182 129q69 0 121 -16v36q0 50 -18 76
t-74 26q-98 0 -98 -77h-101q0 58 30 95.5t74.5 52t101.5 14.5q192 0 192 -173v-183q0 -13 5.5 -18t18.5 -5q18 0 42 6v-71q-40 -18 -85 -18q-72 0 -72 62v8q-56 -70 -163 -70zM255 70q77 0 122 37v56q-34 9 -98 9q-48 0 -73 -11.5t-25 -41.5q0 -49 74 -49z" />
    <glyph glyph-name="uni1EB0" unicode="&#x1eb0;" 
d="M300 616q-74 0 -121.5 41.5t-59.5 80.5l41 29q54 -76 140 -76t140 76l41 -29q-12 -39 -59.5 -80.5t-121.5 -41.5zM285 875l46 -140h-54l-106 140h114zM40 0l201 572h118l201 -572h-119l-42 126h-201l-41 -126h-117zM242 273l-19 -59h148l-19 59l-55 185z" />
    <glyph glyph-name="uni1EB1" unicode="&#x1eb1;" 
d="M290 519q-40 0 -74 14.5t-55.5 36.5t-34.5 42t-18 36l41 32q51 -75 141 -75t141 75l41 -32q-5 -16 -18 -36t-34.5 -42t-55.5 -36.5t-74 -14.5zM261 688l-129 185h118l71 -185h-60zM230 -10q-69 0 -112.5 31.5t-43.5 94.5q0 129 182 129q69 0 121 -16v36q0 50 -18 76
t-74 26q-98 0 -98 -77h-101q0 58 30 95.5t74.5 52t101.5 14.5q192 0 192 -173v-183q0 -13 5.5 -18t18.5 -5q18 0 42 6v-71q-40 -18 -85 -18q-72 0 -72 62v8q-56 -70 -163 -70zM255 70q77 0 122 37v56q-34 9 -98 9q-48 0 -73 -11.5t-25 -41.5q0 -49 74 -49z" />
    <glyph glyph-name="uni1EB2" unicode="&#x1eb2;" 
d="M300 616q-74 0 -119 40t-58 79l43 26q50 -76 134 -76t134 76l43 -26q-13 -39 -58 -79t-119 -40zM286 715l-7 35q62 12 62 46q0 33 -43 33q-44 0 -44 -40h-61q0 47 29.5 70t78.5 23t78 -20.5t29 -53.5q0 -35 -32.5 -60.5t-89.5 -32.5zM40 0l201 572h118l201 -572h-119
l-42 126h-201l-41 -126h-117zM242 273l-19 -59h148l-19 59l-55 185z" />
    <glyph glyph-name="uni1EB3" unicode="&#x1eb3;" 
d="M290 519q-40 0 -74 14.5t-55.5 36.5t-34.5 42t-18 36l41 32q51 -75 141 -75t141 75l41 -32q-5 -16 -18 -36t-34.5 -42t-55.5 -36.5t-74 -14.5zM285 662l-26 36q67 47 67 81q0 36 -43 36t-43 -39h-66q0 52 30.5 77t83.5 25q51 0 81 -22.5t30 -62.5q0 -37 -27 -66.5
t-87 -64.5zM230 -10q-69 0 -112.5 31.5t-43.5 94.5q0 129 182 129q69 0 121 -16v36q0 50 -18 76t-74 26q-98 0 -98 -77h-101q0 58 30 95.5t74.5 52t101.5 14.5q192 0 192 -173v-183q0 -13 5.5 -18t18.5 -5q18 0 42 6v-71q-40 -18 -85 -18q-72 0 -72 62v8q-56 -70 -163 -70z
M255 70q77 0 122 37v56q-34 9 -98 9q-48 0 -73 -11.5t-25 -41.5q0 -49 74 -49z" />
    <glyph glyph-name="uni1EB4" unicode="&#x1eb4;" 
d="M300 616q-39 0 -71.5 12.5t-53 32t-32.5 36.5t-19 32l36 27q52 -67 140 -67t140 67l36 -27q-7 -15 -19 -32t-32.5 -36.5t-53 -32t-71.5 -12.5zM165 771l-35 22q43 88 113 88q28 0 72 -24q30 -17 50 -17q40 0 70 41l35 -22q-43 -88 -113 -88q-27 0 -61 18q-42 23 -61 23
q-41 0 -70 -41zM40 0l201 572h118l201 -572h-119l-42 126h-201l-41 -126h-117zM242 273l-19 -59h148l-19 59l-55 185z" />
    <glyph glyph-name="uni1EB5" unicode="&#x1eb5;" 
d="M290 519q-40 0 -74 14.5t-55.5 36.5t-34.5 42t-18 36l41 32q51 -75 141 -75t141 75l41 -32q-5 -16 -18 -36t-34.5 -42t-55.5 -36.5t-74 -14.5zM150 724l-46 22q15 50 45 87.5t75 37.5q33 0 78 -35q40 -30 58 -30q35 0 70 65l46 -21q-15 -50 -45 -88t-75 -38q-34 0 -75 33
q-43 33 -61 33q-35 0 -70 -66zM230 -10q-69 0 -112.5 31.5t-43.5 94.5q0 129 182 129q69 0 121 -16v36q0 50 -18 76t-74 26q-98 0 -98 -77h-101q0 58 30 95.5t74.5 52t101.5 14.5q192 0 192 -173v-183q0 -13 5.5 -18t18.5 -5q18 0 42 6v-71q-40 -18 -85 -18q-72 0 -72 62v8
q-56 -70 -163 -70zM255 70q77 0 122 37v56q-34 9 -98 9q-48 0 -73 -11.5t-25 -41.5q0 -49 74 -49z" />
    <glyph glyph-name="uni1EB6" unicode="&#x1eb6;" 
d="M241 -182v118h118v-118h-118zM300 627q-40 0 -74.5 15t-56 37t-34.5 42t-18 36l42 32q51 -75 141 -75t141 75l42 -32q-5 -16 -18 -36t-34.5 -42t-56 -37t-74.5 -15zM40 0l201 572h118l201 -572h-119l-42 126h-201l-41 -126h-117zM242 273l-19 -59h148l-19 59l-55 185z
" />
    <glyph glyph-name="uni1EB7" unicode="&#x1eb7;" 
d="M252 -182v118h118v-118h-118zM290 518q-40 0 -74.5 15t-56 37t-34.5 42t-18 36l42 32q51 -75 141 -75t141 75l42 -32q-5 -16 -18 -36t-34.5 -42t-56 -37t-74.5 -15zM230 -10q-69 0 -112.5 31.5t-43.5 94.5q0 129 182 129q69 0 121 -16v36q0 50 -18 76t-74 26
q-98 0 -98 -77h-101q0 58 30 95.5t74.5 52t101.5 14.5q192 0 192 -173v-183q0 -13 5.5 -18t18.5 -5q18 0 42 6v-71q-40 -18 -85 -18q-72 0 -72 62v8q-56 -70 -163 -70zM255 70q77 0 122 37v56q-34 9 -98 9q-48 0 -73 -11.5t-25 -41.5q0 -49 74 -49z" />
    <glyph glyph-name="uni1EB8" unicode="&#x1eb8;" 
d="M247 -182v118h118v-118h-118zM106 0v572h399v-94h-288v-140h247v-94h-247v-150h288v-94h-399z" />
    <glyph glyph-name="uni1EB9" unicode="&#x1eb9;" 
d="M241 -182v118h118v-118h-118zM306 -10q-104 0 -168.5 55.5t-64.5 173.5q0 64 19.5 111t53.5 72.5t72 37.5t82 12q45 0 83.5 -12t72 -37.5t52.5 -72t19 -109.5v-24h-346q5 -124 127 -124q45 0 73.5 17.5t34.5 49.5h110q-15 -79 -76.5 -114.5t-143.5 -35.5zM183 272h234
q-6 49 -38.5 73t-78.5 24t-78.5 -24t-38.5 -73z" />
    <glyph glyph-name="uni1EBA" unicode="&#x1eba;" 
d="M299 604l-27 36q68 51 68 86q0 38 -42 38q-44 0 -44 -41h-66q0 52 30.5 77t83.5 25q52 0 81 -23t29 -63q0 -38 -27 -68t-86 -67zM106 0v572h399v-94h-288v-140h247v-94h-247v-150h288v-94h-399z" />
    <glyph glyph-name="uni1EBB" unicode="&#x1ebb;" 
d="M292 495l-27 36q68 51 68 86q0 38 -42 38q-44 0 -44 -41h-66q0 52 30.5 77t83.5 25q52 0 81 -23t29 -63q0 -38 -27 -68t-86 -67zM306 -10q-104 0 -168.5 55.5t-64.5 173.5q0 64 19.5 111t53.5 72.5t72 37.5t82 12q45 0 83.5 -12t72 -37.5t52.5 -72t19 -109.5v-24h-346
q5 -124 127 -124q45 0 73.5 17.5t34.5 49.5h110q-15 -79 -76.5 -114.5t-143.5 -35.5zM183 272h234q-6 49 -38.5 73t-78.5 24t-78.5 -24t-38.5 -73z" />
    <glyph glyph-name="uni1EBC" unicode="&#x1ebc;" 
d="M174 627l-48 23q16 51 46.5 90t76.5 39q33 0 75 -32q41 -31 60 -31q37 0 70 63l48 -23q-16 -51 -46.5 -90t-76.5 -39q-33 0 -74 31q-42 32 -61 32q-37 0 -70 -63zM106 0v572h399v-94h-288v-140h247v-94h-247v-150h288v-94h-399z" />
    <glyph glyph-name="uni1EBD" unicode="&#x1ebd;" 
d="M167 518l-48 23q16 51 46.5 90t76.5 39q33 0 75 -32q41 -31 60 -31q37 0 70 63l48 -23q-16 -51 -46.5 -90t-76.5 -39q-33 0 -74 31q-42 32 -61 32q-37 0 -70 -63zM306 -10q-104 0 -168.5 55.5t-64.5 173.5q0 64 19.5 111t53.5 72.5t72 37.5t82 12q45 0 83.5 -12t72 -37.5
t52.5 -72t19 -109.5v-24h-346q5 -124 127 -124q45 0 73.5 17.5t34.5 49.5h110q-15 -79 -76.5 -114.5t-143.5 -35.5zM183 272h234q-6 49 -38.5 73t-78.5 24t-78.5 -24t-38.5 -73z" />
    <glyph glyph-name="uni1EBE" unicode="&#x1ebe;" 
d="M354 780l115 -166h-70l-92 91l-92 -91h-70l115 166h94zM428 720l40 155h99l-87 -155h-52zM106 0v572h399v-94h-288v-140h247v-94h-247v-150h288v-94h-399z" />
    <glyph glyph-name="uni1EBF" unicode="&#x1ebf;" 
d="M134 500l119 197h94l119 -197h-69l-97 111l-97 -111h-69zM405 676l59 197h106l-105 -197h-60zM306 -10q-104 0 -168.5 55.5t-64.5 173.5q0 64 19.5 111t53.5 72.5t72 37.5t82 12q45 0 83.5 -12t72 -37.5t52.5 -72t19 -109.5v-24h-346q5 -124 127 -124q45 0 73.5 17.5
t34.5 49.5h110q-15 -79 -76.5 -114.5t-143.5 -35.5zM183 272h234q-6 49 -38.5 73t-78.5 24t-78.5 -24t-38.5 -73z" />
    <glyph glyph-name="uni1EC0" unicode="&#x1ec0;" 
d="M145 614l115 166h94l115 -166h-70l-92 91l-92 -91h-70zM146 875l40 -155h-52l-87 155h99zM106 0v572h399v-94h-288v-140h247v-94h-247v-150h288v-94h-399z" />
    <glyph glyph-name="uni1EC1" unicode="&#x1ec1;" 
d="M134 500l119 197h94l119 -197h-69l-97 111l-97 -111h-69zM135 676l-105 197h106l59 -197h-60zM306 -10q-104 0 -168.5 55.5t-64.5 173.5q0 64 19.5 111t53.5 72.5t72 37.5t82 12q45 0 83.5 -12t72 -37.5t52.5 -72t19 -109.5v-24h-346q5 -124 127 -124q45 0 73.5 17.5
t34.5 49.5h110q-15 -79 -76.5 -114.5t-143.5 -35.5zM183 272h234q-6 49 -38.5 73t-78.5 24t-78.5 -24t-38.5 -73z" />
    <glyph glyph-name="uni1EC2" unicode="&#x1ec2;" 
d="M345 763l121 -149h-67l-92 75l-92 -75h-67l121 149h76zM460 679l-30 32q41 28 55 45.5t14 34.5q0 36 -43 36q-44 0 -44 -39h-61q0 94 108 94q50 0 78.5 -21t28.5 -58q0 -35 -25.5 -64t-80.5 -60zM106 0v572h399v-94h-288v-140h247v-94h-247v-150h288v-94h-399z" />
    <glyph glyph-name="uni1EC3" unicode="&#x1ec3;" 
d="M134 500l119 197h94l119 -197h-69l-97 111l-97 -111h-69zM432 657l-27 36q68 51 68 86q0 39 -43 39q-44 0 -44 -42h-66q0 52 31 77t83 25t81.5 -22.5t29.5 -63.5q0 -38 -27 -68t-86 -67zM306 -10q-104 0 -168.5 55.5t-64.5 173.5q0 64 19.5 111t53.5 72.5t72 37.5t82 12
q45 0 83.5 -12t72 -37.5t52.5 -72t19 -109.5v-24h-346q5 -124 127 -124q45 0 73.5 17.5t34.5 49.5h110q-15 -79 -76.5 -114.5t-143.5 -35.5zM183 272h234q-6 49 -38.5 73t-78.5 24t-78.5 -24t-38.5 -73z" />
    <glyph glyph-name="uni1EC4" unicode="&#x1ec4;" 
d="M172 771l-35 22q43 88 113 88q28 0 72 -24q30 -17 50 -17q40 0 70 41l35 -22q-43 -88 -113 -88q-29 0 -63 19q-40 22 -59 22q-41 0 -70 -41zM346 751l120 -137h-67l-92 69l-92 -69h-67l120 137h78zM106 0v572h399v-94h-288v-140h247v-94h-247v-150h288v-94h-399z" />
    <glyph glyph-name="uni1EC5" unicode="&#x1ec5;" 
d="M134 500l121 191h90l121 -191h-69l-97 106l-97 -106h-69zM160 724l-46 22q15 50 45 87.5t75 37.5q16 0 32.5 -7t24.5 -12.5t25 -18.5q35 -27 54 -27q35 0 70 65l46 -21q-15 -50 -45 -88t-75 -38q-31 0 -71 30q-2 2 -10.5 8.5t-11.5 9t-10 7t-11.5 6.5t-10 3.5t-11.5 1.5
q-35 0 -70 -66zM306 -10q-104 0 -168.5 55.5t-64.5 173.5q0 64 19.5 111t53.5 72.5t72 37.5t82 12q45 0 83.5 -12t72 -37.5t52.5 -72t19 -109.5v-24h-346q5 -124 127 -124q45 0 73.5 17.5t34.5 49.5h110q-15 -79 -76.5 -114.5t-143.5 -35.5zM183 272h234q-6 49 -38.5 73
t-78.5 24t-78.5 -24t-38.5 -73z" />
    <glyph glyph-name="uni1EC6" unicode="&#x1ec6;" 
d="M247 -182v118h118v-118h-118zM141 609l119 199h94l119 -199h-69l-97 110l-97 -110h-69zM106 0v572h399v-94h-288v-140h247v-94h-247v-150h288v-94h-399z" />
    <glyph glyph-name="uni1EC7" unicode="&#x1ec7;" 
d="M241 -182v118h118v-118h-118zM134 500l119 199h94l119 -199h-69l-97 110l-97 -110h-69zM306 -10q-104 0 -168.5 55.5t-64.5 173.5q0 64 19.5 111t53.5 72.5t72 37.5t82 12q45 0 83.5 -12t72 -37.5t52.5 -72t19 -109.5v-24h-346q5 -124 127 -124q45 0 73.5 17.5t34.5 49.5
h110q-15 -79 -76.5 -114.5t-143.5 -35.5zM183 272h234q-6 49 -38.5 73t-78.5 24t-78.5 -24t-38.5 -73z" />
    <glyph glyph-name="uni1EC8" unicode="&#x1ec8;" 
d="M292 604l-27 36q68 51 68 86q0 38 -42 38q-44 0 -44 -41h-66q0 52 30.5 77t83.5 25q52 0 81 -23t29 -63q0 -38 -27 -68t-86 -67zM105 0v94h139v384h-139v94h390v-94h-139v-384h139v-94h-390z" />
    <glyph glyph-name="uni1EC9" unicode="&#x1ec9;" 
d="M297 495l-27 36q68 51 68 86q0 38 -42 38q-44 0 -44 -41h-66q0 52 30.5 77t83.5 25q52 0 81 -23t29 -63q0 -38 -27 -68t-86 -67zM99 0v84h154v273h-154v85h261v-358h141v-84h-402z" />
    <glyph glyph-name="uni1ECA" unicode="&#x1eca;" 
d="M241 -182v118h118v-118h-118zM105 0v94h139v384h-139v94h390v-94h-139v-384h139v-94h-390z" />
    <glyph glyph-name="uni1ECB" unicode="&#x1ecb;" 
d="M241 -182v118h118v-118h-118zM99 0v84h154v273h-154v85h261v-358h141v-84h-402zM242 526v121h131v-121h-131z" />
    <glyph glyph-name="uni1ECC" unicode="&#x1ecc;" 
d="M241 -182v118h118v-118h-118zM299 -10q-119 0 -177.5 76t-58.5 217q0 142 59.5 220.5t178.5 78.5q120 0 178 -76.5t58 -216.5q0 -141 -59 -220t-179 -79zM300 84q32 0 55.5 12t36.5 30t20.5 46.5t9.5 54t2 59.5q0 44 -4 75t-16 62.5t-38 48t-66 16.5t-66 -16.5t-38 -48
t-16 -62.5t-4 -75q0 -34 2 -59.5t9.5 -54t20.5 -46.5t36.5 -30t55.5 -12z" />
    <glyph glyph-name="uni1ECD" unicode="&#x1ecd;" 
d="M241 -182v118h118v-118h-118zM300 -10q-97 0 -162.5 54t-65.5 177q0 64 20.5 111t55 72t72.5 36.5t80 11.5q45 0 83.5 -11.5t72 -36.5t53 -71.5t19.5 -111.5q0 -63 -20.5 -110t-54.5 -72.5t-72.5 -37t-80.5 -11.5zM300 78q119 0 119 143t-119 143t-119 -143t119 -143z
" />
    <glyph glyph-name="uni1ECE" unicode="&#x1ece;" 
d="M292 604l-27 36q68 51 68 86q0 38 -42 38q-44 0 -44 -41h-66q0 52 30.5 77t83.5 25q52 0 81 -23t29 -63q0 -38 -27 -68t-86 -67zM299 -10q-119 0 -177.5 76t-58.5 217q0 142 59.5 220.5t178.5 78.5q120 0 178 -76.5t58 -216.5q0 -141 -59 -220t-179 -79zM300 84
q32 0 55.5 12t36.5 30t20.5 46.5t9.5 54t2 59.5q0 44 -4 75t-16 62.5t-38 48t-66 16.5t-66 -16.5t-38 -48t-16 -62.5t-4 -75q0 -34 2 -59.5t9.5 -54t20.5 -46.5t36.5 -30t55.5 -12z" />
    <glyph glyph-name="uni1ECF" unicode="&#x1ecf;" 
d="M292 495l-27 36q68 51 68 86q0 38 -42 38q-44 0 -44 -41h-66q0 52 30.5 77t83.5 25q52 0 81 -23t29 -63q0 -38 -27 -68t-86 -67zM300 -10q-97 0 -162.5 54t-65.5 177q0 64 20.5 111t55 72t72.5 36.5t80 11.5q45 0 83.5 -11.5t72 -36.5t53 -71.5t19.5 -111.5
q0 -63 -20.5 -110t-54.5 -72.5t-72.5 -37t-80.5 -11.5zM300 78q119 0 119 143t-119 143t-119 -143t119 -143z" />
    <glyph glyph-name="uni1ED0" unicode="&#x1ed0;" 
d="M347 780l115 -166h-70l-92 91l-92 -91h-70l115 166h94zM421 720l40 155h99l-87 -155h-52zM299 -10q-119 0 -177.5 76t-58.5 217q0 142 59.5 220.5t178.5 78.5q120 0 178 -76.5t58 -216.5q0 -141 -59 -220t-179 -79zM300 84q32 0 55.5 12t36.5 30t20.5 46.5t9.5 54t2 59.5
q0 44 -4 75t-16 62.5t-38 48t-66 16.5t-66 -16.5t-38 -48t-16 -62.5t-4 -75q0 -34 2 -59.5t9.5 -54t20.5 -46.5t36.5 -30t55.5 -12z" />
    <glyph glyph-name="uni1ED1" unicode="&#x1ed1;" 
d="M134 500l119 197h94l119 -197h-69l-97 111l-97 -111h-69zM405 676l59 197h106l-105 -197h-60zM300 -10q-97 0 -162.5 54t-65.5 177q0 64 20.5 111t55 72t72.5 36.5t80 11.5q45 0 83.5 -11.5t72 -36.5t53 -71.5t19.5 -111.5q0 -63 -20.5 -110t-54.5 -72.5t-72.5 -37
t-80.5 -11.5zM300 78q119 0 119 143t-119 143t-119 -143t119 -143z" />
    <glyph glyph-name="uni1ED2" unicode="&#x1ed2;" 
d="M138 614l115 166h94l115 -166h-70l-92 91l-92 -91h-70zM139 875l40 -155h-52l-87 155h99zM299 -10q-119 0 -177.5 76t-58.5 217q0 142 59.5 220.5t178.5 78.5q120 0 178 -76.5t58 -216.5q0 -141 -59 -220t-179 -79zM300 84q32 0 55.5 12t36.5 30t20.5 46.5t9.5 54t2 59.5
q0 44 -4 75t-16 62.5t-38 48t-66 16.5t-66 -16.5t-38 -48t-16 -62.5t-4 -75q0 -34 2 -59.5t9.5 -54t20.5 -46.5t36.5 -30t55.5 -12z" />
    <glyph glyph-name="uni1ED3" unicode="&#x1ed3;" 
d="M134 500l119 197h94l119 -197h-69l-97 111l-97 -111h-69zM135 676l-105 197h106l59 -197h-60zM300 -10q-97 0 -162.5 54t-65.5 177q0 64 20.5 111t55 72t72.5 36.5t80 11.5q45 0 83.5 -11.5t72 -36.5t53 -71.5t19.5 -111.5q0 -63 -20.5 -110t-54.5 -72.5t-72.5 -37
t-80.5 -11.5zM300 78q119 0 119 143t-119 143t-119 -143t119 -143z" />
    <glyph glyph-name="uni1ED4" unicode="&#x1ed4;" 
d="M338 763l121 -149h-67l-92 75l-92 -75h-67l121 149h76zM453 679l-30 32q41 28 55 45.5t14 34.5q0 36 -43 36q-44 0 -44 -39h-61q0 94 108 94q50 0 78.5 -21t28.5 -58q0 -35 -25.5 -64t-80.5 -60zM299 -10q-119 0 -177.5 76t-58.5 217q0 142 59.5 220.5t178.5 78.5
q120 0 178 -76.5t58 -216.5q0 -141 -59 -220t-179 -79zM300 84q32 0 55.5 12t36.5 30t20.5 46.5t9.5 54t2 59.5q0 44 -4 75t-16 62.5t-38 48t-66 16.5t-66 -16.5t-38 -48t-16 -62.5t-4 -75q0 -34 2 -59.5t9.5 -54t20.5 -46.5t36.5 -30t55.5 -12z" />
    <glyph glyph-name="uni1ED5" unicode="&#x1ed5;" 
d="M134 500l119 197h94l119 -197h-69l-97 111l-97 -111h-69zM432 657l-27 36q68 51 68 86q0 39 -43 39q-44 0 -44 -42h-66q0 52 31 77t83 25t81.5 -22.5t29.5 -63.5q0 -38 -27 -68t-86 -67zM300 -10q-97 0 -162.5 54t-65.5 177q0 64 20.5 111t55 72t72.5 36.5t80 11.5
q45 0 83.5 -11.5t72 -36.5t53 -71.5t19.5 -111.5q0 -63 -20.5 -110t-54.5 -72.5t-72.5 -37t-80.5 -11.5zM300 78q119 0 119 143t-119 143t-119 -143t119 -143z" />
    <glyph glyph-name="uni1ED6" unicode="&#x1ed6;" 
d="M165 771l-35 22q43 88 113 88q28 0 72 -24q30 -17 50 -17q40 0 70 41l35 -22q-43 -88 -113 -88q-29 0 -63 19q-40 22 -59 22q-41 0 -70 -41zM339 751l120 -137h-67l-92 69l-92 -69h-67l120 137h78zM299 -10q-119 0 -177.5 76t-58.5 217q0 142 59.5 220.5t178.5 78.5
q120 0 178 -76.5t58 -216.5q0 -141 -59 -220t-179 -79zM300 84q32 0 55.5 12t36.5 30t20.5 46.5t9.5 54t2 59.5q0 44 -4 75t-16 62.5t-38 48t-66 16.5t-66 -16.5t-38 -48t-16 -62.5t-4 -75q0 -34 2 -59.5t9.5 -54t20.5 -46.5t36.5 -30t55.5 -12z" />
    <glyph glyph-name="uni1ED7" unicode="&#x1ed7;" 
d="M134 500l121 191h90l121 -191h-69l-97 106l-97 -106h-69zM160 724l-46 22q15 50 45 87.5t75 37.5q16 0 32.5 -7t24.5 -12.5t25 -18.5q35 -27 54 -27q35 0 70 65l46 -21q-15 -50 -45 -88t-75 -38q-31 0 -71 30q-2 2 -10.5 8.5t-11.5 9t-10 7t-11.5 6.5t-10 3.5t-11.5 1.5
q-35 0 -70 -66zM300 -10q-97 0 -162.5 54t-65.5 177q0 64 20.5 111t55 72t72.5 36.5t80 11.5q45 0 83.5 -11.5t72 -36.5t53 -71.5t19.5 -111.5q0 -63 -20.5 -110t-54.5 -72.5t-72.5 -37t-80.5 -11.5zM300 78q119 0 119 143t-119 143t-119 -143t119 -143z" />
    <glyph glyph-name="uni1ED8" unicode="&#x1ed8;" 
d="M241 -182v118h118v-118h-118zM134 609l119 199h94l119 -199h-69l-97 110l-97 -110h-69zM299 -10q-119 0 -177.5 76t-58.5 217q0 142 59.5 220.5t178.5 78.5q120 0 178 -76.5t58 -216.5q0 -141 -59 -220t-179 -79zM300 84q32 0 55.5 12t36.5 30t20.5 46.5t9.5 54t2 59.5
q0 44 -4 75t-16 62.5t-38 48t-66 16.5t-66 -16.5t-38 -48t-16 -62.5t-4 -75q0 -34 2 -59.5t9.5 -54t20.5 -46.5t36.5 -30t55.5 -12z" />
    <glyph glyph-name="uni1ED9" unicode="&#x1ed9;" 
d="M241 -182v118h118v-118h-118zM134 500l119 199h94l119 -199h-69l-97 110l-97 -110h-69zM300 -10q-97 0 -162.5 54t-65.5 177q0 64 20.5 111t55 72t72.5 36.5t80 11.5q45 0 83.5 -11.5t72 -36.5t53 -71.5t19.5 -111.5q0 -63 -20.5 -110t-54.5 -72.5t-72.5 -37t-80.5 -11.5
zM300 78q119 0 119 143t-119 143t-119 -143t119 -143z" />
    <glyph glyph-name="uni1EDA" unicode="&#x1eda;" 
d="M235 609l78 199h120l-134 -199h-64zM301 582q100 0 157 -54q25 6 35.5 23.5t10.5 49.5q0 23 -5 60h84q5 -24 5 -60q0 -103 -92 -122q41 -72 41 -190q0 -141 -59 -220t-179 -79q-119 0 -177.5 76t-58.5 217q0 142 59.5 220.5t178.5 78.5zM300 84q32 0 55.5 12t36.5 30
t20.5 46.5t9.5 54t2 59.5q0 44 -4 75t-16 62.5t-38 48t-66 16.5t-66 -16.5t-38 -48t-16 -62.5t-4 -75q0 -34 2 -59.5t9.5 -54t20.5 -46.5t36.5 -30t55.5 -12z" />
    <glyph glyph-name="uni1EDB" unicode="&#x1edb;" 
d="M235 500l78 199h120l-134 -199h-64zM300 -10q-97 0 -162.5 54t-65.5 177q0 64 20.5 111t55 72t72.5 36.5t80 11.5q108 0 168 -60q34 15 34 70q0 23 -5 60h84q5 -24 5 -60q0 -97 -82 -120q24 -50 24 -121q0 -63 -20.5 -110t-54.5 -72.5t-72.5 -37t-80.5 -11.5zM300 78
q119 0 119 143t-119 143t-119 -143t119 -143z" />
    <glyph glyph-name="uni1EDC" unicode="&#x1edc;" 
d="M300 609l-134 199h120l78 -199h-64zM301 582q100 0 157 -54q25 6 35.5 23.5t10.5 49.5q0 23 -5 60h84q5 -24 5 -60q0 -103 -92 -122q41 -72 41 -190q0 -141 -59 -220t-179 -79q-119 0 -177.5 76t-58.5 217q0 142 59.5 220.5t178.5 78.5zM300 84q32 0 55.5 12t36.5 30
t20.5 46.5t9.5 54t2 59.5q0 44 -4 75t-16 62.5t-38 48t-66 16.5t-66 -16.5t-38 -48t-16 -62.5t-4 -75q0 -34 2 -59.5t9.5 -54t20.5 -46.5t36.5 -30t55.5 -12z" />
    <glyph glyph-name="uni1EDD" unicode="&#x1edd;" 
d="M300 500l-134 199h120l78 -199h-64zM300 -10q-97 0 -162.5 54t-65.5 177q0 64 20.5 111t55 72t72.5 36.5t80 11.5q108 0 168 -60q34 15 34 70q0 23 -5 60h84q5 -24 5 -60q0 -97 -82 -120q24 -50 24 -121q0 -63 -20.5 -110t-54.5 -72.5t-72.5 -37t-80.5 -11.5zM300 78
q119 0 119 143t-119 143t-119 -143t119 -143z" />
    <glyph glyph-name="uni1EDE" unicode="&#x1ede;" 
d="M292 604l-27 36q68 51 68 86q0 38 -42 38q-44 0 -44 -41h-66q0 52 30.5 77t83.5 25q52 0 81 -23t29 -63q0 -38 -27 -68t-86 -67zM301 582q100 0 157 -54q25 6 35.5 23.5t10.5 49.5q0 23 -5 60h84q5 -24 5 -60q0 -103 -92 -122q41 -72 41 -190q0 -141 -59 -220t-179 -79
q-119 0 -177.5 76t-58.5 217q0 142 59.5 220.5t178.5 78.5zM300 84q32 0 55.5 12t36.5 30t20.5 46.5t9.5 54t2 59.5q0 44 -4 75t-16 62.5t-38 48t-66 16.5t-66 -16.5t-38 -48t-16 -62.5t-4 -75q0 -34 2 -59.5t9.5 -54t20.5 -46.5t36.5 -30t55.5 -12z" />
    <glyph glyph-name="uni1EDF" unicode="&#x1edf;" 
d="M292 495l-27 36q68 51 68 86q0 38 -42 38q-44 0 -44 -41h-66q0 52 30.5 77t83.5 25q52 0 81 -23t29 -63q0 -38 -27 -68t-86 -67zM300 -10q-97 0 -162.5 54t-65.5 177q0 64 20.5 111t55 72t72.5 36.5t80 11.5q108 0 168 -60q34 15 34 70q0 23 -5 60h84q5 -24 5 -60
q0 -97 -82 -120q24 -50 24 -121q0 -63 -20.5 -110t-54.5 -72.5t-72.5 -37t-80.5 -11.5zM300 78q119 0 119 143t-119 143t-119 -143t119 -143z" />
    <glyph glyph-name="uni1EE0" unicode="&#x1ee0;" 
d="M160 627l-48 23q16 51 46.5 90t76.5 39q33 0 75 -32q41 -31 60 -31q37 0 70 63l48 -23q-16 -51 -46.5 -90t-76.5 -39q-33 0 -74 31q-42 32 -61 32q-37 0 -70 -63zM301 582q100 0 157 -54q25 6 35.5 23.5t10.5 49.5q0 23 -5 60h84q5 -24 5 -60q0 -103 -92 -122
q41 -72 41 -190q0 -141 -59 -220t-179 -79q-119 0 -177.5 76t-58.5 217q0 142 59.5 220.5t178.5 78.5zM300 84q32 0 55.5 12t36.5 30t20.5 46.5t9.5 54t2 59.5q0 44 -4 75t-16 62.5t-38 48t-66 16.5t-66 -16.5t-38 -48t-16 -62.5t-4 -75q0 -34 2 -59.5t9.5 -54t20.5 -46.5
t36.5 -30t55.5 -12z" />
    <glyph glyph-name="uni1EE1" unicode="&#x1ee1;" 
d="M160 518l-48 23q16 51 46.5 90t76.5 39q33 0 75 -32q41 -31 60 -31q37 0 70 63l48 -23q-16 -51 -46.5 -90t-76.5 -39q-33 0 -74 31q-42 32 -61 32q-37 0 -70 -63zM300 -10q-97 0 -162.5 54t-65.5 177q0 64 20.5 111t55 72t72.5 36.5t80 11.5q108 0 168 -60q34 15 34 70
q0 23 -5 60h84q5 -24 5 -60q0 -97 -82 -120q24 -50 24 -121q0 -63 -20.5 -110t-54.5 -72.5t-72.5 -37t-80.5 -11.5zM300 78q119 0 119 143t-119 143t-119 -143t119 -143z" />
    <glyph glyph-name="uni1EE2" unicode="&#x1ee2;" 
d="M241 -182v118h118v-118h-118zM301 582q100 0 157 -54q25 6 35.5 23.5t10.5 49.5q0 23 -5 60h84q5 -24 5 -60q0 -103 -92 -122q41 -72 41 -190q0 -141 -59 -220t-179 -79q-119 0 -177.5 76t-58.5 217q0 142 59.5 220.5t178.5 78.5zM300 84q32 0 55.5 12t36.5 30t20.5 46.5
t9.5 54t2 59.5q0 44 -4 75t-16 62.5t-38 48t-66 16.5t-66 -16.5t-38 -48t-16 -62.5t-4 -75q0 -34 2 -59.5t9.5 -54t20.5 -46.5t36.5 -30t55.5 -12z" />
    <glyph glyph-name="uni1EE3" unicode="&#x1ee3;" 
d="M241 -182v118h118v-118h-118zM300 -10q-97 0 -162.5 54t-65.5 177q0 64 20.5 111t55 72t72.5 36.5t80 11.5q108 0 168 -60q34 15 34 70q0 23 -5 60h84q5 -24 5 -60q0 -97 -82 -120q24 -50 24 -121q0 -63 -20.5 -110t-54.5 -72.5t-72.5 -37t-80.5 -11.5zM300 78
q119 0 119 143t-119 143t-119 -143t119 -143z" />
    <glyph glyph-name="uni1EE4" unicode="&#x1ee4;" 
d="M241 -182v118h118v-118h-118zM300 -10q-107 0 -157.5 54t-50.5 165v363h111v-363q0 -68 23 -95t74 -27t74 27t23 95v363h111v-363q0 -219 -208 -219z" />
    <glyph glyph-name="uni1EE5" unicode="&#x1ee5;" 
d="M241 -182v118h118v-118h-118zM264 -10q-158 0 -158 179v273h107v-252q0 -58 17 -84.5t63 -26.5q58 0 94 40v323h107v-442h-93v60q-51 -70 -137 -70z" />
    <glyph glyph-name="uni1EE6" unicode="&#x1ee6;" 
d="M292 604l-27 36q68 51 68 86q0 38 -42 38q-44 0 -44 -41h-66q0 52 30.5 77t83.5 25q52 0 81 -23t29 -63q0 -38 -27 -68t-86 -67zM300 -10q-107 0 -157.5 54t-50.5 165v363h111v-363q0 -68 23 -95t74 -27t74 27t23 95v363h111v-363q0 -219 -208 -219z" />
    <glyph glyph-name="uni1EE7" unicode="&#x1ee7;" 
d="M292 495l-27 36q68 51 68 86q0 38 -42 38q-44 0 -44 -41h-66q0 52 30.5 77t83.5 25q52 0 81 -23t29 -63q0 -38 -27 -68t-86 -67zM264 -10q-158 0 -158 179v273h107v-252q0 -58 17 -84.5t63 -26.5q58 0 94 40v323h107v-442h-93v60q-51 -70 -137 -70z" />
    <glyph glyph-name="uni1EE8" unicode="&#x1ee8;" 
d="M235 609l78 199h120l-134 -199h-64zM300 -10q-107 0 -157.5 54t-50.5 165v363h111v-363q0 -68 23 -95t74 -27t74 27t23 95v363h45q41 0 57.5 18t16.5 58q0 23 -5 60h84q5 -24 5 -60q0 -103 -92 -123v-316q0 -219 -208 -219z" />
    <glyph glyph-name="uni1EE9" unicode="&#x1ee9;" 
d="M235 500l78 199h120l-134 -199h-64zM264 -10q-158 0 -158 179v273h107v-252q0 -58 17 -84.5t63 -26.5q58 0 94 40v323h49q41 0 57.5 18t16.5 58q0 23 -5 60h84q5 -24 5 -60q0 -107 -100 -124v-394h-93v60q-51 -70 -137 -70z" />
    <glyph glyph-name="uni1EEA" unicode="&#x1eea;" 
d="M300 609l-134 199h120l78 -199h-64zM300 -10q-107 0 -157.5 54t-50.5 165v363h111v-363q0 -68 23 -95t74 -27t74 27t23 95v363h45q41 0 57.5 18t16.5 58q0 23 -5 60h84q5 -24 5 -60q0 -103 -92 -123v-316q0 -219 -208 -219z" />
    <glyph glyph-name="uni1EEB" unicode="&#x1eeb;" 
d="M300 500l-134 199h120l78 -199h-64zM264 -10q-158 0 -158 179v273h107v-252q0 -58 17 -84.5t63 -26.5q58 0 94 40v323h49q41 0 57.5 18t16.5 58q0 23 -5 60h84q5 -24 5 -60q0 -107 -100 -124v-394h-93v60q-51 -70 -137 -70z" />
    <glyph glyph-name="uni1EEC" unicode="&#x1eec;" 
d="M292 604l-27 36q68 51 68 86q0 38 -42 38q-44 0 -44 -41h-66q0 52 30.5 77t83.5 25q52 0 81 -23t29 -63q0 -38 -27 -68t-86 -67zM300 -10q-107 0 -157.5 54t-50.5 165v363h111v-363q0 -68 23 -95t74 -27t74 27t23 95v363h45q41 0 57.5 18t16.5 58q0 23 -5 60h84
q5 -24 5 -60q0 -103 -92 -123v-316q0 -219 -208 -219z" />
    <glyph glyph-name="uni1EED" unicode="&#x1eed;" 
d="M292 495l-27 36q68 51 68 86q0 38 -42 38q-44 0 -44 -41h-66q0 52 30.5 77t83.5 25q52 0 81 -23t29 -63q0 -38 -27 -68t-86 -67zM264 -10q-158 0 -158 179v273h107v-252q0 -58 17 -84.5t63 -26.5q58 0 94 40v323h49q41 0 57.5 18t16.5 58q0 23 -5 60h84q5 -24 5 -60
q0 -107 -100 -124v-394h-93v60q-51 -70 -137 -70z" />
    <glyph glyph-name="uni1EEE" unicode="&#x1eee;" 
d="M160 627l-48 23q16 51 46.5 90t76.5 39q33 0 75 -32q41 -31 60 -31q37 0 70 63l48 -23q-16 -51 -46.5 -90t-76.5 -39q-33 0 -74 31q-42 32 -61 32q-37 0 -70 -63zM300 -10q-107 0 -157.5 54t-50.5 165v363h111v-363q0 -68 23 -95t74 -27t74 27t23 95v363h45q41 0 57.5 18
t16.5 58q0 23 -5 60h84q5 -24 5 -60q0 -103 -92 -123v-316q0 -219 -208 -219z" />
    <glyph glyph-name="uni1EEF" unicode="&#x1eef;" 
d="M160 518l-48 23q16 51 46.5 90t76.5 39q33 0 75 -32q41 -31 60 -31q37 0 70 63l48 -23q-16 -51 -46.5 -90t-76.5 -39q-33 0 -74 31q-42 32 -61 32q-37 0 -70 -63zM264 -10q-158 0 -158 179v273h107v-252q0 -58 17 -84.5t63 -26.5q58 0 94 40v323h49q41 0 57.5 18t16.5 58
q0 23 -5 60h84q5 -24 5 -60q0 -107 -100 -124v-394h-93v60q-51 -70 -137 -70z" />
    <glyph glyph-name="uni1EF0" unicode="&#x1ef0;" 
d="M241 -182v118h118v-118h-118zM300 -10q-107 0 -157.5 54t-50.5 165v363h111v-363q0 -68 23 -95t74 -27t74 27t23 95v363h45q41 0 57.5 18t16.5 58q0 23 -5 60h84q5 -24 5 -60q0 -103 -92 -123v-316q0 -219 -208 -219z" />
    <glyph glyph-name="uni1EF1" unicode="&#x1ef1;" 
d="M240 -182v118h118v-118h-118zM264 -10q-158 0 -158 179v273h107v-252q0 -58 17 -84.5t63 -26.5q58 0 94 40v323h49q41 0 57.5 18t16.5 58q0 23 -5 60h84q5 -24 5 -60q0 -107 -100 -124v-394h-93v60q-51 -70 -137 -70z" />
    <glyph glyph-name="Ygrave" unicode="&#x1ef2;" 
d="M300 609l-134 199h120l78 -199h-64zM244 0v226l-217 346h131l74 -125l69 -134l72 134l75 125h124l-216 -345v-227h-112z" />
    <glyph glyph-name="ygrave" unicode="&#x1ef3;" 
d="M300 500l-134 199h120l78 -199h-64zM69 -187v88q71 0 111 23.5t64 78.5l-196 439h120l85 -209l49 -136l50 135l86 210h114l-185 -420q-52 -118 -114.5 -163.5t-183.5 -45.5z" />
    <glyph glyph-name="uni1EF4" unicode="&#x1ef4;" 
d="M241 -182v118h118v-118h-118zM244 0v226l-217 346h131l74 -125l69 -134l72 134l75 125h124l-216 -345v-227h-112z" />
    <glyph glyph-name="uni1EF5" unicode="&#x1ef5;" 
d="M357 -209v118h118v-118h-118zM69 -187v88q71 0 111 23.5t64 78.5l-196 439h120l85 -209l49 -136l50 135l86 210h114l-185 -420q-52 -118 -114.5 -163.5t-183.5 -45.5z" />
    <glyph glyph-name="uni1EF6" unicode="&#x1ef6;" 
d="M292 604l-27 36q68 51 68 86q0 38 -42 38q-44 0 -44 -41h-66q0 52 30.5 77t83.5 25q52 0 81 -23t29 -63q0 -38 -27 -68t-86 -67zM244 0v226l-217 346h131l74 -125l69 -134l72 134l75 125h124l-216 -345v-227h-112z" />
    <glyph glyph-name="uni1EF7" unicode="&#x1ef7;" 
d="M292 495l-27 36q68 51 68 86q0 38 -42 38q-44 0 -44 -41h-66q0 52 30.5 77t83.5 25q52 0 81 -23t29 -63q0 -38 -27 -68t-86 -67zM69 -187v88q71 0 111 23.5t64 78.5l-196 439h120l85 -209l49 -136l50 135l86 210h114l-185 -420q-52 -118 -114.5 -163.5t-183.5 -45.5z" />
    <glyph glyph-name="uni1EF8" unicode="&#x1ef8;" 
d="M167 627l-48 23q16 51 46.5 90t76.5 39q33 0 75 -32q41 -31 60 -31q37 0 70 63l48 -23q-16 -51 -46.5 -90t-76.5 -39q-33 0 -74 31q-42 32 -61 32q-37 0 -70 -63zM244 0v226l-217 346h131l74 -125l69 -134l72 134l75 125h124l-216 -345v-227h-112z" />
    <glyph glyph-name="uni1EF9" unicode="&#x1ef9;" 
d="M167 518l-48 23q16 51 46.5 90t76.5 39q33 0 75 -32q41 -31 60 -31q37 0 70 63l48 -23q-16 -51 -46.5 -90t-76.5 -39q-33 0 -74 31q-42 32 -61 32q-37 0 -70 -63zM69 -187v88q71 0 111 23.5t64 78.5l-196 439h120l85 -209l49 -136l50 135l86 210h114l-185 -420
q-52 -118 -114.5 -163.5t-183.5 -45.5z" />
    <glyph glyph-name="endash" unicode="&#x2013;" 
d="M106 176v93h388v-93h-388z" />
    <glyph glyph-name="emdash" unicode="&#x2014;" 
d="M0 176v93h600v-93h-600z" />
    <glyph glyph-name="quoteleft" unicode="&#x2018;" 
d="M171 319l156 275q19 33 43 33q30 0 30 -28q0 -8 -3 -20l-64 -260h-162z" />
    <glyph glyph-name="quoteright" unicode="&#x2019;" 
d="M230 306q-30 0 -30 28q0 8 3 20l64 260h162l-156 -275q-19 -33 -43 -33z" />
    <glyph glyph-name="quotesinglbase" unicode="&#x201a;" 
d="M203 -157q-29 0 -29 28q0 9 3 20l64 261h162l-156 -276q-19 -33 -44 -33z" />
    <glyph glyph-name="quotedblleft" unicode="&#x201c;" 
d="M58 319l156 275q19 33 43 33q30 0 30 -28q0 -8 -3 -20l-64 -260h-162zM285 319l156 275q19 33 43 33q30 0 30 -28q0 -8 -3 -20l-64 -260h-162z" />
    <glyph glyph-name="quotedblright" unicode="&#x201d;" 
d="M116 306q-30 0 -30 28q0 8 3 20l64 260h162l-156 -275q-19 -33 -43 -33zM343 306q-30 0 -30 28q0 8 3 20l64 260h162l-156 -275q-19 -33 -43 -33z" />
    <glyph glyph-name="quotedblbase" unicode="&#x201e;" 
d="M323 -157q-29 0 -29 28q0 9 3 20l64 261h162l-156 -276q-19 -33 -44 -33zM96 -157q-29 0 -29 28q0 9 3 20l64 261h162l-156 -276q-19 -33 -44 -33z" />
    <glyph glyph-name="dagger" unicode="&#x2020;" 
d="M257 178v268h-133v75h133v126h87v-126h132v-75h-132v-268h-87z" />
    <glyph glyph-name="daggerdbl" unicode="&#x2021;" 
d="M257 75v186h-133v76h133v109h-133v75h133v126h87v-126h132v-75h-132v-109h132v-76h-132v-186h-87z" />
    <glyph glyph-name="bullet" unicode="&#x2022;" 
d="M300 143q-59 0 -101 34t-42 109t42 109t101 34t101 -34t42 -109t-42 -109t-101 -34z" />
    <glyph glyph-name="ellipsis" unicode="&#x2026;" 
d="M59 0v108h109v-108h-109zM246 0v108h108v-108h-108zM433 0v108h108v-108h-108z" />
    </font>
</defs>
</svg>
